<?xml version="1.0" encoding="utf-8"?>
<!-- Generator: Adobe Illustrator 24.0.3, SVG Export Plug-In . SVG Version: 6.00 Build 0)  -->
<svg version="1.1" id="Layer_1" xmlns="http://www.w3.org/2000/svg" xmlns:xlink="http://www.w3.org/1999/xlink" x="0px" y="0px"
	 viewBox="0 0 533.1 560" style="enable-background:new 0 0 533.1 560;" xml:space="preserve">
<g>
	<g>
		<g>
			<path d="M393.3,249.8c-0.9,0-1.6-0.6-1.8-1.4c-6.9-27.6-23.1-52.6-45.6-70.4c-23.2-18.3-51-28-80.6-28s-57.4,9.7-80.6,28
				c-22.5,17.8-38.7,42.8-45.6,70.4c-0.2,0.9-1,1.4-1.8,1.4h-3.6c-0.6,0-1.1-0.3-1.5-0.7c-0.4-0.5-0.5-1.1-0.4-1.6
				c7.2-29.4,24.2-56,48-74.9c24.5-19.5,54.1-29.9,85.4-29.9s60.9,10.3,85.4,29.9c23.8,19,40.9,45.6,48,74.9c0.1,0.6,0,1.2-0.4,1.6
				c-0.4,0.5-0.9,0.7-1.5,0.7H393.3z"/>
		</g>
		<g>
			<path d="M265.3,417.4c-31.4,0-60.9-10.3-85.4-29.9c-23.8-19-40.9-45.6-48-74.9c-0.1-0.6,0-1.2,0.4-1.6c0.4-0.5,0.9-0.7,1.5-0.7
				h3.6c0.9,0,1.6,0.6,1.8,1.4c6.9,27.6,23.1,52.6,45.6,70.4c23.2,18.3,51,28,80.6,28s57.4-9.7,80.6-28
				c22.5-17.8,38.7-42.8,45.6-70.4c0.2-0.9,1-1.4,1.8-1.4h3.6c0.6,0,1.1,0.3,1.5,0.7c0.4,0.5,0.5,1.1,0.4,1.6
				c-7.2,29.4-24.2,56-48,74.9C326.2,407,296.7,417.4,265.3,417.4z"/>
		</g>
	</g>
	<g>
		<g>
			<path d="M102,299.6c-1.1,0-2-0.4-2.5-1.2l-4.9-7.1c-0.5-0.8-0.6-1.8-0.3-2.9l14.5-46.9c0.7-2.3,3.1-4.1,5.3-4.1
				c2.3,0,3.5,1.8,2.8,4.1c-0.6,1.9-2.8,9-4.5,14.5c-1.4,4.6,2.7,5.5,3.9,5.5h52.8c1.1,0,2,0.4,2.5,1.2l4.9,7.1
				c0.5,0.8,0.6,1.8,0.3,2.9l-4.8,15.6c-0.3,1.1-1.1,2.1-2.1,2.9l-9.3,7.1c-1,0.8-2.2,1.2-3.3,1.2H102z M114,270.1
				c-3.1,0-6.3,2.5-7.2,5.5l-3.1,9.9c-0.9,3.1,0.8,5.5,3.8,5.5h49.7c3.1,0,6.3-2.5,7.2-5.5l3.1-9.9c0.9-3.1-0.8-5.5-3.8-5.5H114z"/>
		</g>
		<g>
			<path d="M186.1,299.6c-1.1,0-2-0.4-2.5-1.2l-4.9-7.1c-0.5-0.8-0.6-1.8-0.3-2.9l4.8-15.6c0.3-1.1,1.1-2.1,2.1-2.9l9.3-7.1
				c1-0.8,2.2-1.2,3.3-1.2h55.3c1.1,0,2,0.4,2.5,1.2l4.9,7.1c0.5,0.8,0.6,1.8,0.3,2.9l-4.8,15.6c-0.3,1.1-1.1,2.1-2.1,2.9l-9.3,7.1
				c-1,0.8-2.2,1.2-3.3,1.2H186.1z M198.1,270.1c-3.1,0-6.3,2.5-7.2,5.5l-3.1,9.9c-0.9,3.1,0.8,5.5,3.8,5.5h49.7
				c3.1,0,6.3-2.5,7.2-5.5l3.1-9.9c0.9-3.1-0.8-5.5-3.8-5.5H198.1z"/>
		</g>
		<g>
			<path d="M325.1,324c-2.3,0-3.5-1.8-2.8-4.1l4.6-14.8c0.9-3.1-0.8-5.5-3.8-5.5h-52.8c-1.1,0-2-0.4-2.5-1.2l-4.9-7.1
				c-0.5-0.8-0.6-1.8-0.3-2.9l7-22.7c0.7-2.3,3.1-4.1,5.3-4.1c2.3,0,3.5,1.8,2.8,4.1l-6.1,19.9c-0.9,3.1,0.8,5.5,3.8,5.5h50.3
				c3.1,0,6.3-2.5,7.2-5.5l6.1-19.9c0.7-2.3,3.1-4.1,5.3-4.1s3.5,1.8,2.8,4.1l-16.8,54.3C329.8,322.2,327.4,324,325.1,324z"/>
		</g>
		<g>
			<path d="M354.3,299.6c-1.1,0-2-0.4-2.5-1.2l-4.9-7.1c-0.5-0.8-0.6-1.8-0.3-2.9l4.8-15.6c0.3-1.1,1.1-2.1,2.1-2.9l9.3-7.1
				c1-0.8,2.2-1.2,3.3-1.2h52.8c1.1,0,5.8-0.9,7.3-5.5c1.6-5.2,3.9-12.7,4.5-14.6c0.7-2.3,3.1-4.1,5.3-4.1s3.5,1.8,2.8,4.1l-16.7,54
				c-0.7,2.3-3.1,4.1-5.3,4.1H354.3z M366.4,269.8c-3.1,0-6.3,2.5-7.2,5.5l-3.3,10.5c-0.9,3.1,0.8,5.5,3.8,5.5h50.9
				c3.1,0,6.3-2.5,7.2-5.5l3.3-10.5c0.9-3.1-0.8-5.5-3.8-5.5H366.4z"/>
		</g>
	</g>
</g>
</svg>
