<?xml version="1.0" encoding="utf-8"?>
<!-- Generator: Adobe Illustrator 24.0.3, SVG Export Plug-In . SVG Version: 6.00 Build 0)  -->
<svg version="1.1" id="Layer_1" xmlns="http://www.w3.org/2000/svg" xmlns:xlink="http://www.w3.org/1999/xlink" x="0px" y="0px"
	 viewBox="0 0 533.1 560" style="enable-background:new 0 0 533.1 560;" xml:space="preserve">
<g>
	<g>
		<path d="M315.1,237.5c0.3-5.5,0.4-11.6,0.3-17.7c0-1.5,0.6-2.2,2-2.1c3.1,0.2,6-0.7,9.1-0.7c1.8,0,3.7,0.4,5.5,0.7
			c0.9,0.1,1.1,0.9,1,1.7c-0.1,2.9,0,5.8-0.1,8.7c-0.3,6.8,0,13.6,0.1,20.4c0,2.2,0.1,4.3,0.1,6.5c0,6.7,0.8,13.4,1.3,20
			c0.5,6.3,0.7,12.6,0.4,18.9c-0.1,1.2-0.1,2.3-0.1,3.5c0,1.2-0.6,1.8-1.7,1.9c-0.7,0-1.4,0.1-2,0c-4.1-0.9-8.2-0.7-12.3-0.8
			c-1.3,0-2-0.6-2.1-1.9c-0.3-2.9-0.6-5.8-0.8-8.8c-0.4-5.9-0.9-11.8-0.8-17.7c0-0.7-0.2-1-0.9-1c-5.1,0.3-10.3,0.2-15.4,1.1
			c-1.2,0.2-1.2,0.8-1.2,1.8c0.1,7.8,1.1,15.5,0.8,23.2c-0.1,1.7-0.3,1.9-2,1.9c-3.4-0.1-6.9,0.2-10.3-0.2c-1.3-0.2-2.7,0.6-4.1,0.2
			c-0.1,0-0.2,0-0.3,0c-2.8-0.1-3.5-0.8-3.5-3.5c-0.1-4,0.4-7.9,0.2-11.8c-0.5-8.9,0.2-17.8-0.7-26.7c-0.9-9.4-1-18.7-1.7-28.1
			c-0.1-2-0.5-4-0.8-6c-0.2-1.3,0.1-1.9,1.4-2.4c4.3-1.8,8.7-1.5,13.1-1.1c1,0.1,2.1,0.1,3.1,0.4c1.5,0.4,2.3,1.3,2.7,2.8
			c0,0.2,0.2,0.5,0.1,0.5c-1.4,1-0.6,2.4-0.6,3.5c0.1,8.6,1.1,17.2,1.4,25.8c0.1,2.1,0.1,2.1,2.2,2c5.1-0.1,10.1-0.2,15.2-0.3
			c1,0,1.2-0.4,1.2-1.3C314.8,246.7,315.3,242.4,315.1,237.5z"/>
		<path d="M296.5,367.5c-0.1,5.4-0.1,10.9-1.2,16.3c-0.4,1.8-0.8,3.7-1.8,5.3c-0.6,1-1.4,1.6-2.7,1.5c-3.6-0.2-7.3-0.1-10.9,0
			c-1.6,0-1.7-0.2-1.4-1.7c2.1-10.1,3-20.3,2.5-30.6c-0.3-6.2-0.8-12.3-1.5-18.4c-1-9.7-1.7-19.6-3.9-29.1c-0.1-0.2-0.1-0.5-0.2-0.7
			c-0.8-1.6-0.5-1.9,1.2-2.4c4.2-1.5,8.4-0.7,12.6-0.6c1,0,1.6,0.6,2,1.4c0.5,1,0.7,2.2,0.8,3.3c0.6,7.7,1.2,15.5,1.8,23.2
			c0.1,1.9,0.3,3.7,0.4,5.6c0,1,0.4,1.3,1.3,1.2c3.9-0.5,7.9-0.3,11.8-0.3c1.2,0,1.4-0.6,1.4-1.6c-0.2-4.7-0.8-9.3-0.5-14
			c0.3-5.8,0.1-11.7,0.3-17.5c0.1-1.3,0.4-1.9,1.9-2.1c1.5-0.2,3,0.1,4.5,0.1c2.6,0.1,5.3-0.4,7.9,0c2.7,0.4,3.5,1.3,3,3.9
			c-0.6,2.8-0.8,5.5-0.8,8.3c0,8.3-0.3,16.7,0.6,25c0.4,4.2,0.7,8.3,0.9,12.5c0.5,9.1,0.9,18.3,1,27.4c0,1.4,0.3,2.8,0.1,4.2
			c-0.2,0.9-0.6,1.4-1.4,1.6c-1.3,0.3-2.5,0.8-3.8,0.7c-3.1-0.1-6.2,0.3-9.2,0.6c-1,0.1-1.7-0.2-1.7-1.4c-0.2-4.6-0.5-9.2-0.6-13.8
			c-0.1-3.2-0.7-6.5-0.9-9.8c-0.2-2-0.3-4.1-1-6.1c-0.5-1.2-0.9-1.7-2.3-1.6c-2.3,0.3-4.6,0.4-6.9,0.6c-2.2,0.2-3.1,1.1-3.1,3.2
			C296.5,363.7,296.5,365.6,296.5,367.5z"/>
		<path d="M404.5,302.8c5,0.3,9.9,1.4,14.5,3.7c2.3,1.2,4.6,2.3,6.4,4.3c2.8,3,4.2,6.6,4,10.6c-0.4,7.8-3.7,14.5-9.1,19.9
			c-3.5,3.6-7.9,6.2-12.9,7.3c-2.9,0.7-5.7,1.7-8.5,2.9c-0.9,0.4-1.8,0.6-2.8,0.8c-1,0.2-1.5,0.7-1.4,1.8c0.4,4.4,0.4,8.9,0.5,13.3
			c0.2,7,0.3,14.1-0.2,21.1c-0.1,1.3-0.9,1.8-2,1.9c-3.8,0.5-7.6,0.8-11.4,0.4c-1.4-0.1-2.8-0.2-4.2,0c-2,0.4-2.2-0.1-2.2-2.1
			c0.1-4.2,0-8.5-0.1-12.7c-0.3-9.1-0.6-18.2-1.2-27.3c-0.4-5.5-0.2-11-0.5-16.5c-0.4-6.5-0.8-13-1.2-19.5c-0.1-1.4-0.7-3.1-0.1-4.1
			c0.6-1,2.5-0.8,3.8-1.1c8.1-2.2,16.4-3.3,24.7-4.5C402,302.9,403.2,302.9,404.5,302.8z M391.1,319.3c0.2,2.4,0.6,5.3,0.5,8.2
			c-0.1,3.8,0.3,7.5,1.1,11.2c0.2,0.9,0.6,1.3,1.5,1c3.1-1.1,6.2-1.9,9-3.8c3.6-2.4,6.3-5.4,6.2-10.1c-0.1-5.3-2.2-7.7-6.3-9.2
			c-2.7-1-5.8-1.1-8.7-0.8C391.2,316.2,391,316.4,391.1,319.3z"/>
		<path d="M229,370.4c0-5.8,0.5-10.9,2.6-15.7c0.8-1.9,1.8-3.7,2.8-5.6c0.4-0.7,0.8-1,1.6-0.5c2.7,1.6,5.6,2.6,8.6,3.4
			c0.3,0.1,0.5,0.2,0.8,0.3c2.1,0.9,2.1,0.9,1.6,3c-0.4,1.8-0.4,3.6-0.2,5.3c0.3,2.6,3,5.5,5.5,6c4.3,0.8,6.9-1.9,7.4-6.3
			c0.6-5.5-4.7-10.3-10.1-11.4c-3.4-0.7-6.8-0.9-10.1-2.2c-3.1-1.2-5.3-3.3-7-6c-2.8-4.3-1.6-8.7,0.1-12.9c1.1-2.9,2.7-5.7,4-8.5
			c1.6-3.5,4.4-6,7.4-8.4c2.5-1.9,5.3-3.3,8.2-4.1c3.9-1,7.4,0.4,10.4,2.9c1.5,1.2,2.7,2.7,3.7,4.4c1.1,1.9,2.3,3.7,3.5,5.5
			c1.8,2.7,3.1,5.7,3.5,9.1c0.1,1-0.2,1.7-1.1,2c-2.7,1-5.3,2.2-8,2.9c-0.8,0.2-1.7,0.9-2.4,0.7c-0.9-0.2-0.5-1.4-0.9-2.2
			c-2.1-3.4-6.1-4.7-9.8-3.1c-1.6,0.7-2.4,1.9-2.8,3.4c-0.4,1.4,0.6,2.5,1.5,3.2c1.5,1.3,2.9,2.8,4.6,4c1.3,0.9,2.7,1.3,4,1.8
			c4.7,1.7,8.8,4.3,12,8.3c2.7,3.3,4,7.1,5.5,10.8c0.8,1.9,0.9,3.8,0.6,5.8c-0.7,5.1-1.9,10.1-4.7,14.6c-1.3,2.1-2.8,3.7-5.1,4.7
			c-3.6,1.6-7,3.3-10.9,4.2c-3.3,0.8-6.6,1.7-10,1.2c-4-0.6-7.8-1.6-10.5-5c-0.7-0.8-1.6-1.4-2.3-2.2c-2-2-3-4.4-3.3-7.2
			C229.2,374.8,228.7,372.3,229,370.4z"/>
		<path d="M383,266.3c0.1,4.1,0,7.9-0.6,11.6c-0.9,4.9-2.1,9.8-5.1,13.8c-3.7,5-8.5,8.9-15.3,8.7c-4.3-0.1-8.1-1.6-11.4-4.7
			c-3.7-3.5-6.7-7.3-9-11.7c-1.8-3.4-2.1-7.2-3.1-10.8c-2.7-9.6-1.5-19.3-1.3-29c0.1-5.9,2.4-11.1,5-16.2c1.5-3,4-5.5,6.8-7.3
			c2.6-1.7,5.2-3.6,8.3-4.5c5.1-1.6,10-1.5,14.8,0.7c4,1.9,6.1,5.1,6.8,9.8c1,6.6,1,13.2,2.6,19.7c0.7,3,0.6,6.1,1,9.2
			C382.7,259.3,383.2,262.9,383,266.3z M368.4,259c-0.1-1,0.3-2.8-0.1-4.6c-1-4.5-1.6-9.1-2.9-13.5c-0.7-2.2-1.6-4.1-3-5.9
			c-0.7-0.9-1.5-1.6-2.1-2.5c-0.6-0.9-1.5-0.9-2.5-0.4c-1.3,0.7-2.3,1.8-2.9,3.1c-2.8,6.1-4.4,12.5-4.5,19.3
			c-0.1,6.9,1,13.6,1.9,20.4c0.3,2.6,1.2,5,2.2,7.3c0.9,1.9,4,4.2,5.7,3.9c2.3-0.4,3.5-2.3,4.1-4.4c0.2-0.7,0.4-1.4,0.6-2.1
			c0.6-2.5,1.1-5.1,1.8-7.6C367.9,268,368.6,264,368.4,259z"/>
		<path d="M330,353.3c-0.2-3.2,0.5-6.8,0.7-10.4c0.4-5.5,1.3-10.9,2.7-16.2c1.8-7,5-13.2,11.1-17.4c2.9-2,6.1-4,10.1-3.2
			c0.7,0.1,1.1,0.7,1.7,1c3,1.4,5.3,3.8,7.7,6.1c0.7,0.7,1,1.5,1.3,2.4c1,2.4,2.1,4.7,2.9,7.2c1.1,3.3,1.4,6.8,1.7,10.2
			c0.4,4.9,1,9.8,1,14.7c0.1,7.5-1.2,14.8-3.1,22.1c-1,3.9-2.1,7.7-3.3,11.5c-1.2,3.7-3.3,6.3-7.3,7.2c-3.2,0.8-6.4,2-9.8,1.3
			c-3.3-0.7-6.2-2.3-8.6-4.7c-0.1-0.1-0.2-0.2-0.3-0.3c-4.8-4-6.3-9.6-7.3-15.4C330.3,364.2,329.8,359,330,353.3z M358.2,349.5
			c-0.1-4.6,0.1-8.1-0.6-11.5c-0.8-3.8-1.8-7.6-3-11.3c-0.4-1.3-1.1-2.1-2.4-2.4c-1.3-0.4-2.2,0.3-3,1.2c-4.1,4.4-5.5,9.8-6.2,15.4
			c-0.6,4.7-0.6,9.4-0.6,14.1c0,5.2,1,10.2,2.7,15.1c0.8,2.1,2.4,3.2,4.5,3.6c2,0.3,3.7-0.7,4.6-2.4c2-3.7,3.3-7.7,3.6-11.8
			C358.2,355.8,358.4,352,358.2,349.5z"/>
		<path d="M241.9,262.5c0,4.2,0.3,8.3,1,12.4c0.6,3.2,2.5,5.5,4.7,7.6c1.9,1.8,6.9,0.5,9-1.5c2.5-2.2,3.5-5.1,4.1-8.2
			c0.5-2.5,0.8-2.6,3.4-2.6c2.9,0,5.7,0.5,8.6,0.9c1.2,0.2,2.2,0.5,2.1,2c-0.3,7-1.2,13.8-5.7,19.5c-1.5,1.9-3.4,3.2-5.6,4.2
			c-2.5,1-4.9,2.4-7.7,2.7c-4.4,0.4-8.7,0.3-12.9-1.3c-7.7-2.9-12-8.6-13-16.6c-0.6-4.7-0.7-9.4-1-14.1c-0.5-7.1,0.4-14.1,0.5-21.2
			c0.1-6.6,1.3-13.1,4.1-19.1c3.1-6.8,8.6-10.1,16-10.4c3.7-0.2,7.3-0.6,10.9,0.3c2.6,0.6,5.4,1.2,7.2,3.4c3.4,4.1,6.3,8.6,6.9,14.1
			c0.2,1.6-0.2,2.4-1.7,2.7c-3,0.6-5.9,1.8-9,2.2c-1.5,0.2-2.1-0.1-2.4-1.5c-0.6-3-2.3-5-5.1-6.1c-2.1-0.8-4-0.3-5.9,0.5
			c-1.2,0.5-2.4,1.3-3.5,2c-1.5,0.9-2.4,2.3-2.9,4c-0.8,3.3-1.3,6.7-1.4,10.1c-0.2,3.5-0.9,7-0.7,10.5
			C242,260.1,241.9,261.3,241.9,262.5z"/>
		<path d="M400.4,214.4c2.6-0.2,5.1,0.1,7.5,0.5c5.3,0.8,8.7,4.1,10.2,9.2c1.8,6.2,3.3,12.5,2.1,19c-0.9,5-3.3,8.9-8.3,11.2
			c-3.4,1.6-7,2.7-10.3,4.5c-0.9,0.5-1.5,0.9-1.4,2.2c0.7,5.5,1.2,11,2,16.5c0.8,5.2,1.3,10.5,2.9,15.6c0.4,1.4,1,2.7,1.6,4
			c0.7,1.6-0.2,2.9-2,2.8c-5.3-0.2-10.5-0.4-15.8-0.6c-1.1,0-1.9-0.3-1.9-1.6c-0.4-7.5-0.9-15-1.7-22.5c-0.7-7.1-0.9-14.1-1-21.2
			c-0.1-4.2-0.6-8.4-0.8-12.7c-0.3-6.8-0.3-13.7-0.2-20.5c0-0.8,0.2-1.7-0.1-2.4c-0.4-1.3,0.4-1.8,1.4-2c2.7-0.6,5.4-1.3,8.2-1.5
			C395.5,214.6,398,214.1,400.4,214.4z M397.4,240c0,0.9,0,1.8,0,2.7c0,0.6,0.2,0.9,0.9,0.7c1.7-0.4,3.4-0.6,5.1-0.9
			c2.9-0.6,4.2-2.4,4.7-5.1c0.5-2.8,0.1-5.6-0.2-8.3c-0.1-0.9-0.7-1.8-1.6-2.1c-2.5-0.7-5.1-1.3-7.8-0.8c-1.1,0.2-1.4,0.6-1.4,1.7
			C397.2,231.9,397.1,236,397.4,240z"/>
		<path d="M249,192.8c1.5-4,3.7-7.3,4.4-11.3c0.2-1,0.4-2.1,0.5-3.1c0.1-1.2,0.7-1.8,2-1.9c2.3-0.1,4.5-0.1,6.8-0.3
			c2.1-0.2,2.8,0.5,2.5,2.6c-1.2,9.6-1.7,19.3-1.9,29c0,1.2-0.6,1.8-1.8,1.8c-1.6,0-3.3,0.1-4.9,0.1c-1.2,0-1.4-0.8-1.4-1.8
			c0-3.4,0-6.8,0-10.4c-1.8,2.8-3.6,5.5-4.6,8.6c-0.1,0.4-0.2,0.7-0.4,1.1c-0.3,0.6-0.6,1-1.3,0.9c-0.7,0-1-0.5-1.2-1.1
			c-0.6-2.3-1.8-4.4-3-7c0,3.1,0,5.8,0,8.5c0,1.9-0.3,2.1-2.2,2.2c-1.2,0-2.3,0.2-3.5,0.3c-1.7,0.1-2.6-0.7-2.6-2.4
			c-0.1-6.3-0.4-12.6-0.5-18.9c-0.1-3.9,0.2-7.8-0.3-11.7c-0.1-1,0.5-1.5,1.3-1.5c1.5,0,3.1,0,4.6-0.1c1.3-0.1,1.9,0.7,2.3,1.9
			c1.2,3.6,2.4,7.2,3.6,10.8C247.9,190.2,248.4,191.3,249,192.8z"/>
		<path d="M266.9,195.4c-0.5-6.4,2.1-11.8,5.9-16.6c2-2.6,4.9-4.2,8.5-3.9c0.6,0.1,1.2,0.2,1.8,0.5c6,2.4,8.9,7.5,11.1,13.1
			c1.5,3.7,1.8,7.7,0.2,11.4c-3.1,7-9.3,11.3-17.4,9.9c-6.7-1.1-9.8-6.5-10-11.9C266.9,197.2,266.9,196.3,266.9,195.4z M274.5,194.1
			c0.2,1.3,0.3,2.6,0.7,3.8c0.6,2.3,3.4,3.7,5.6,3.3c2.3-0.3,3-2.1,4-3.6c2.6-3.9,1.7-7.2-1.5-10.3c-0.7-0.7-1.5-1.2-2-2
			c-0.5-0.8-1.3-0.8-1.9-0.2C276.9,187.6,274.4,190.1,274.5,194.1z"/>
		<path d="M403.5,169.4c3.7,0.5,7,1.7,9.6,4.6c1.6,1.8,2.9,3.7,3.4,6.1c0.3,1.3-0.3,2-1.4,2.4c-1.8,0.7-3.8,1.1-5.1,2.7
			c-0.6,0.7-1.7,0.1-2-1.1c-0.4-1.6-1-3.1-1.9-4.5c-0.8-1.3-2-1-3.1-0.8c-1,0.2-1.4,1.1-1.4,2.1c-0.1,1.6,0.6,3,2.2,3.5
			c3.4,1.1,5.9,3.4,8.3,5.8c1.5,1.5,2.1,3.7,1.9,6c-0.5,5-3.4,8.3-7.7,10.4c-2,1-4.2,0.2-6.2-0.2c-2.3-0.4-4.3-1.3-5.8-3.2
			c-1.5-1.7-3.3-3.1-4-5.4c-0.3-1-0.2-1.8,0.8-2.2c1.9-0.7,3.4-1.8,4.9-3c0.2-0.1,0.4-0.3,0.6-0.4c2-1.1,2.2-1,3.3,0.9
			c0.8,1.4,2,1.7,3.1,0.9c1.3-0.9,1.4-2,0.5-3.4c-0.7-1-1.6-1.5-2.8-1.6c-1.1-0.1-2.1-0.2-3.1-0.4c-2.3-0.4-4-1.9-5.3-3.7
			c-1.2-1.6-0.7-3.5-0.1-5.1c1.4-4.3,4-7.6,8-9.9C401.1,169.5,402.2,169.4,403.5,169.4z"/>
		<path d="M358.8,184.4c0.9-3.1,1.7-6.2,2.3-9.4c0.3-1.5,1.1-2.2,2.6-2.2c2.7,0,5.5,0.3,8.2-0.6c0.8-0.3,1.4,0.3,1.4,1.2
			c0,0.7-0.3,1.3-0.6,1.9c-2.2,5-4.4,9.9-6.6,14.9c-0.2,0.4-0.3,1-0.6,1.3c-1.7,1.9-1.6,4.2-1.6,6.5c0,2.2-0.1,4.3-0.1,6.5
			c0,1.2-0.5,1.9-1.8,1.9c-2.3,0-4.7-0.4-7.1,0.1c-1.1,0.2-1.3-0.8-1.3-1.7c0.1-3.7,0.2-7.4,0.3-11.1c0-0.5,0.1-1-0.3-1.5
			c-2.4-2.4-3.5-5.6-5.2-8.5c-1.1-1.9-2.8-3.5-3.5-5.6c-0.3-1-0.6-2-0.7-3.1c-0.1-0.9,0.3-1.4,1.2-1.4c0.9,0,1.7-0.1,2.6,0.2
			c1,0.3,2,0.2,3,0c1.8-0.4,2.9,0.4,3.8,1.9c1.3,2.3,2,4.8,3.1,7.1C358.1,183.6,358.1,184.2,358.8,184.4z"/>
		<path d="M321.8,185.8c0-3,0-6.1,0-9.1c0-2,0.6-2.6,2.6-2.6c1.5,0,3.1-0.4,4.6-0.1c2.7,0.4,3.5,1.4,3.7,4.1
			c0.2,3.5-0.1,6.9-0.3,10.4c-0.1,2.8,0.1,5.5,0.2,8.2c0,0.9,0.5,0.9,1.1,0.9c2.5,0,5,0,7.5-0.1c1.3,0,1.9,0.4,2,1.8
			c0.2,2.1,0.5,4.1,0.4,6.2c0,1.1-0.4,1.7-1.7,1.9c-4.1,0.5-8.2,0.5-12.4,0.4c-1.5,0-3.1,0.5-4.7,0.4c-2.5,0-2.8-0.4-2.8-2.9
			c-0.1-5.6-0.6-11.3-0.4-16.9c0-0.9,0-1.7,0-2.6C321.7,185.8,321.7,185.8,321.8,185.8z"/>
		<path d="M298.4,199.5c-0.2-7.1-0.3-14.2-0.5-21.2c0-0.1,0-0.2,0-0.3c-0.1-2.8,0.8-3.6,3.6-3.1c1.6,0.3,3.3,0,4.9,0.4
			c2,0.5,2.4,1.1,2.5,3.1c0.1,6.4-0.1,12.7-0.8,19c0,0.1,0,0.2,0,0.3c-0.1,2.6-0.1,2.6,2.4,2.3c2.3-0.2,4.7-0.3,7.1-0.3
			c0.9,0,1.4,0.7,1.4,1.5c0.2,2.1-0.2,4.2-0.4,6.3c-0.1,0.6-0.5,1.1-1.2,1.1c-1.1,0-2.1,0.3-3.2,0c-0.4-0.1-0.8-0.2-1.1-0.1
			c-4.3,0.9-8.6-0.2-13,0.4c-1.2,0.2-1.8-0.6-1.8-1.9C298.4,204.5,298.4,202,298.4,199.5C298.4,199.5,298.4,199.5,298.4,199.5z"/>
		<path d="M385.6,174.8c0,1.7-0.8,3.7-2.1,5.5c-0.5,0.7-1.2,1.4-2.2,1c-1.1-0.3-0.7-1.3-0.6-2.1c0.2-1.9-0.9-3.1-2.8-3.1
			c-1.7-0.1-1.9-0.3-1.8-2c0.1-1.3,0.1-2.7,0.1-4c0.1-2.3,1.1-3.1,3.3-2.7c0.4,0.1,0.9,0.1,1.3,0.2
			C384,168.5,385.7,170.8,385.6,174.8z"/>
	</g>
	<g>
		<path d="M215,212.3c-0.1,3.7-0.1,7.4-0.1,11.1c0,9-0.3,18-1.5,27c-0.5,3.8-0.2,7.7-0.2,11.5c0.1,5.4-0.1,10.7-0.1,16
			c0,6.4-0.3,12.8,0.3,19.2c0.2,2.7,1.1,5.3,1.9,7.8c1,3.5,1,7.1,1.4,10.7c1.2,11.2-1,22.2-3.1,33.1c-1.1,5.5-2.4,11-3.8,16.5
			c-0.8,3.4-1.6,6.8-3,10c-2.3,5.2-5.6,9.7-10.2,13c-2.7,1.9-5.8,2.3-8.9,2.6c-4.4,0.5-8.9,0.1-13.1-1.4c-0.6-0.2-1.2-0.2-1.8,0
			c-8.7,2.2-17.6,3.6-26.6,3.2c-4.9-0.3-9.6-1.2-14.4-2.4c-0.7-0.2-1.3-0.6-1.9-0.9c-2.7-1.6-5.4-3.2-8.1-4.8
			c-0.3-0.2-0.7-0.4-1-0.6c-4.2-3.7-7.9-7.8-10.9-12.5c-1.9-2.9-2.6-6.2-3.1-9.6c-0.2-1.4-0.6-2.8-0.9-4.2c-1-5.6-2.2-11.1-1.8-16.9
			c0.2-3.3-0.4-6.6-0.5-10c-0.1-6.6-0.2-13.2,0.5-19.8c0.3-2.5-0.3-5,0.6-7.4c0.1-0.3,0.1-0.6,0.2-0.8c3-5.2,6.7-9.4,12.8-11
			c0.1,0,0.2,0,0.3-0.1c2.4-0.6,2.3-0.6,2.9-3c1.7-7.2,5.9-12.1,13-14.3c1.6-0.5,3.3,0,4.9,0.2c1.6,0.2,3.2,0,4.7-0.4
			c1-0.3,1.5-0.9,1.2-2.2c-1.3-5.3-2.5-10.7-4.3-15.9c-2.7-8.2-4.8-16.6-7.2-24.9c-1.9-6.7-3.6-13.4-4.9-20.2
			c-0.6-3-1.7-5.9-2.4-8.9c-1.5-6.3-2.9-12.6-2.9-19.1c0-1.9-0.5-3.7,0-5.6c1.2-4.7,4.2-7.7,8.5-9.6c4.8-2,12.5,0.6,15.2,5
			c2.8,4.5,5,9,6.5,14.1c1.5,5,3.2,9.9,4.9,14.8c0.8,2.5,1.7,5,2.4,7.6c0.8,3.1,1.9,6.2,2.8,9.2c1.3,4,2.6,8,3.6,12.2
			c1.7,7,3.5,14,5.1,21c0.7,2.8,1.2,5.7,1.7,8.5c0.1,0.3,0.1,0.7,0.2,1c0.2,0.5,0.3,1.2,1,1.3c0.7,0.1,1-0.5,1.3-1
			c1-1.7,1.4-3.6,1.8-5.5c1-4.5,2.4-8.9,2.9-13.5c0.8-6.8,1.9-13.7,2.1-20.5c0.1-3.8,1-7.4,1.2-11.1c0.3-5.6,0.2-11.3,0.4-16.9
			c0.1-3.8,0.4-7.6,1.7-11.2c0.7-1.9,1.8-3.5,3-5c1.1-1.3,2.7-1.6,4.2-2.1c4.6-1.6,10.5,0.2,13.3,3.6c4.1,4.9,6.2,10.6,6.8,16.7
			c0.5,5.2,1,10.4,1,15.7C215,211.7,215,212,215,212.3z M140.3,298.7c-1,0-1.4,0.5-1.9,0.8c-1.1,0.8-1.6,2.1-2.4,3.1
			c-2.6,3.2-1.5,6.8,0.4,9.5c1.1,1.6,2.4,3.3,3.5,4.9c1.3,1.9,2.8,3.6,4.9,4.8c2.7,1.5,5.5,2.9,8.3,4.3c3.6,1.9,7.3,2.5,11.3,1.4
			c0.7-0.2,1.1-0.1,1.3,0.6c0.6,2.1,2.2,2.7,4.1,1.5c2.7-1.7,5.6-2.6,8.8-2.6c0.7,0,1.5,0.1,1.5,1c0.1,0.9-0.7,1.2-1.4,1.4
			c-0.5,0.1-0.9,0.2-1.4,0.3c-1.3,0.2-2.4,1-3.5,1.7c-0.5,0.3-1,0.9-0.9,1.4c0.1,0.5,0.8,0.5,1.3,0.6c2.6,0.7,5.2,0,7.7-0.2
			c0.7-0.1,1.4-0.3,1.7,0.6c0.2,0.8-0.5,1.2-1.1,1.4c-0.7,0.2-1.5,0.4-2.2,0.6c-0.8,0.2-0.8,0.6-0.2,1.1c0.7,0.6,1.6,0.6,2.3,0.3
			c3.9-1.2,7.7,0.1,11.6,0.6c0.8,0.1,1.7,0.4,1.5,1.4c-0.2,1.1-1.2,0.8-1.9,0.7c-2-0.3-4.1-0.5-6.2-0.5c-1,0-2.1,0.1-3,0.5
			c0.2,0.7,0.8,0.6,1.2,0.7c1.8,0.3,3.7,0.7,5.5,0.9c0.6,0.1,1.2,0.2,1.2,1c0,0.7-0.5,1-1.1,1.1c-0.5,0.1-1,0-1.4,0
			c-0.5,0-1-0.2-1.5,0.2c2.6,2.2,5.1,4.2,8.3,5.3c1.2,0.4,2.5,0.9,3.7,1.5c0.6,0.3,1.3,0.7,0.9,1.5c-0.4,0.8-1,0.5-1.6,0.3
			c-0.7-0.3-1.4-0.5-2-0.7c-4.8-1.4-9-4-12.7-7.3c-2-1.8-3.9-3.6-5.8-5.4c-1-0.9-2.2-1.6-3.5-2.1c-3.7-1.3-5.5-0.4-6.6,3.3
			c-1.4,4.6-5.3,6.7-9.9,5.3c-0.8-0.2-1,0.1-1.1,0.7c-0.4,2.1-1,4.2-1.2,6.4c-0.5,5.9,1.7,11.2,4.3,16.4c0.9,1.8,2.2,3.4,3.9,4.6
			c-0.1-0.5-0.2-0.9-0.4-1.4c-1.8-4.1-2.4-8.4-3.3-12.7c-0.2-0.8-0.6-2.1,0.7-2.3c1.3-0.2,1.1,1.2,1.4,1.9c0.1,0.1,0,0.3,0.1,0.4
			c1.1,6.9,3.9,13.2,7.7,19c1.3,2.1,3,3.9,4.7,5.6c1.3,1.3,2.8,1.8,4.6,1.8c2.9,0,5.7-0.7,8.6-1c4.4-0.4,7.4-3.1,9.9-6.4
			c1.2-1.6,2-3.6,2.8-5.5c1-2.4,2.6-4.5,2.9-7.2c0.7-6.8,3.7-13,5.1-19.7c1-4.8,1.6-9.6,2.6-14.3c0.4-1.8-0.2-3.6,0-5.5
			c0.7-5.9-0.2-11.6-1.9-17.2c-1.1-3.6-1.7-7.3-1.8-10.9c-0.3-9.8-0.7-19.6-0.5-29.5c0.1-3.7,0.3-7.4,0.5-11.1
			c0.3-4.5,1-8.9,1.1-13.4c0-1.8-0.4-3.1-2-3.9c-0.6-0.3-1-0.8-0.7-1.5c0.3-0.8,1-0.7,1.6-0.6c1.1,0.4,1.4-0.2,1.4-1.2
			c0-6.7,0-13.3,0.3-19.9c0.1-3.1-1.3-4.6-4.3-5.4c-0.6-0.2-1.2-0.3-1.1-1c0.1-0.8,0.6-1.2,1.4-1.2c0.9,0,1.8,0,2.7,0
			c0.7,0,1-0.2,0.9-0.9c-0.1-1.2-0.1-2.4-0.2-3.6c-0.6-7.1-0.7-14.2-4.1-20.8c-0.9-1.7-2.1-3-3.8-3.9c-4-2.2-8.1-1.2-10,2.4
			c-1,1.9-1.6,4-1.7,6.1c-0.4,5.7,0,11.4-0.3,17c0,0.8,0.3,1.2,1,1.4c0.9,0.3,1.9,0.7,2.7,1.4c0.4,0.4,0.5,0.8,0.3,1.3
			c-0.2,0.5-0.7,0.5-1.1,0.4c-0.4-0.1-0.7-0.4-1.1-0.3c-0.8,0.1-1.8-0.3-2,1.2c-0.8,7.5-1.6,15-2.5,22.5c-0.1,0.9,0.2,1.3,0.9,1.7
			c1.2,0.5,2.4,1,3.6,1.6c0.6,0.3,1,0.7,0.8,1.4c-0.2,0.7-0.8,0.8-1.4,0.7c-1-0.2-2.1-0.4-3.1-0.7c-1.2-0.4-1.6,0-1.7,1.2
			c-0.6,6.7-3,13-3.5,19.7c-0.2,1.8-0.6,3.5-1.2,5.2c-1,2.7-1.4,5.7-3.8,7.8c-1.3,1.1-3,0.9-3.5-0.7c-0.9-3-2.2-5.9-3.2-8.9
			c-1.6-4.7-2.5-9.5-3.4-14.3c-1.3-7-4-13.7-5.5-20.6c-1.2-5.4-3.9-10.4-5.4-15.8c-0.8-2.9-2.2-5.7-3.3-8.5c-0.3-0.8-0.8-1.2-1.7-1
			c-0.9,0.2-1.9,0.3-2.9,0.3c-0.6,0-1.2,0-1.4-0.7c-0.3-0.7,0.2-1.1,0.7-1.4c1-0.8,2.3-1.2,3.5-1.8c0.5-0.3,0.9-0.5,0.7-1.2
			c-0.6-1.8-1.1-3.6-1.8-5.3c-1-2.4-2.3-4.7-2.9-7.2c-0.9-3.4-2.3-6.6-4.4-9.5c-2.4-3.3-6.6-4.6-9.3-3.3c-2.5,1.1-4.9,2.2-5.2,5.4
			c-0.5,4.2,0.1,8.4,0.8,12.5c0.7,3.9,2.2,7.6,3.3,11.3c0.4,1.2,0.8,1.6,2,1.6c0.9,0,1.8,0.2,2.7,0.1c0.5-0.1,1.1,0.1,1.2,0.8
			c0.1,0.6-0.2,1-0.8,1.2c-1,0.4-1.9,0.9-2.9,1.2c-1,0.3-1.4,0.8-1.1,2c2.2,9,4.8,18,6.6,27.1c0.2,0.9,0.5,1.4,1.5,1.2
			c0.7-0.1,1.4,0.2,1.6,0.9c0.2,0.5,0.1,1-0.4,1.3c-0.6,0.3-1.6,0.5-1.7,1.2c-0.1,0.7,0.5,1.4,0.8,2.1c0.3,0.6,0.5,1.2,0.8,1.9
			c2.1,5.5,4.8,10.9,6.1,16.7c1.4,6.1,1.7,12.4,3.7,18.4c0.2,0.5,0.1,1-0.4,1.3c-0.5,0.3-1,0.2-1.5-0.2c-0.6-0.5-1.1-1-1.6-1.5
			c-0.3-0.3-0.7-0.7-1.1-0.4c-0.4,0.3-0.2,0.8,0,1.2c0.5,1,1,2.1,1.5,3.1c0.2,0.5,0.2,1-0.3,1.3c-0.5,0.4-1,0.3-1.5-0.1
			c-0.4-0.4-0.8-0.9-1.2-1.4c-2.5-3.5-6.9-5.5-11.3-3.7c-4.4,1.8-9,5.4-8.2,11.4c0.5,3.6,1.7,6.7,4.1,9.3c1.5,1.6,1.9,1.5,3.6,0.1
			c1-0.8,1.8-1.9,2.9-2.6c4.4-2.5,9.1-3.6,14.1-3.1c4.5,0.5,4.5,0.5,5.4-4.1c0.5-2.2,1-4.4,1.5-6.6c0.2-0.6,0.5-1.2,1.3-1.1
			c0.8,0.1,0.8,0.8,0.7,1.5c-0.1,0.9-0.4,1.8-0.5,2.7c-0.3,2.3-1.4,4.4-1.3,6.8c0,0.6,0,1.3,0.8,1.3c0.8,0,1.6,0.5,2.2-0.5
			c1.5-2.8,3.3-5.5,4.4-8.6c0.2-0.7,0.5-1.3,1.4-1c0.8,0.3,0.8,1,0.6,1.7c-0.1,0.5-0.4,0.9-0.5,1.3c-0.8,2-1.5,4-2.2,5.9
			c-0.4,1-0.3,1.7,1.1,1.8c3.6,0.4,7,1.8,10.2,3.3c0.8,0.4,1.6,1.1,2.3,1.1c0.8-0.1,1-1.3,1.5-2c0,0,0.1-0.1,0.1-0.1
			c0.3-0.5,0.8-0.7,1.4-0.5c0.5,0.2,0.6,0.7,0.5,1.2c-0.2,0.8-0.4,1.6-0.7,2.3c-0.2,0.7-0.1,1.1,0.5,1.6c2.9,2.7,6.2,4.8,9.7,6.7
			c0.6,0.3,1.3,1.1,1.8,1c0.8-0.2,0.6-1.3,0.9-2c0.2-0.5,0.6-0.9,1.2-0.8c0.6,0.1,0.8,0.5,0.9,1c0.1,0.9,0.2,1.7,0.2,2.6
			c-0.1,1.2,0.5,1.7,1.5,2.2c2,0.9,4,1.9,6,2.8c0.6,0.3,1.1,0.7,0.8,1.4c-0.3,0.7-1,0.7-1.5,0.5c-2.1-0.9-4.4-1.4-6.4-2.6
			c-4.6-2.7-9.2-5.5-13.5-8.5c-0.6-0.4-1.3-0.9-2.2-1.1c0,0.3,0,0.5-0.1,0.6c-0.2,1.7-0.3,3.4-0.5,5c-0.1,0.7-0.5,1.1-1.3,1.1
			c-0.6,0-1-0.5-0.9-1.1c0.4-1.8-0.2-3.5-0.4-5.3c-0.1-1.5-0.3-3.2-1.9-4c-2-1-3.9-2.1-6.3-2.4c-2.2-0.2-4.4-0.8-6.7-1.2
			c-4-0.6-8-0.9-12.3-0.8c1.8,1.3,3.1,2.8,4.5,4.1c2.1,1.8,2.5,4.1,1.9,6.5c-0.5,2.4-1.5,4.6-3.2,6.5c-0.7,0.9-1.3,1.7-2.6,1.7
			c-3.1,0-6.2-0.3-9-1.6c-1.4-0.6-3.1-1.3-3.8-2.8c-1-2-1.5-4.3-1.2-6.6C138.3,303.1,138.9,300.9,140.3,298.7z M171.1,384.4
			c-0.6-0.8-1.1-1.6-1.6-2.4c-1.6-2.1-2.4-4.9-5.3-5.7c-0.2-0.1-0.4-0.4-0.6-0.6c-3.3-2.7-5.2-6.3-6.8-10.1
			c-2.9-6.7-3.9-13.7-3-20.9c0.1-1.2-0.2-1.6-1.3-1.8c-1.8-0.3-3.2,0.7-4.7,1.4c-2.4,1.2-5.1,1.6-7.6,0.9c-2.9-0.8-5.6-2.2-7.8-4.3
			c-3.2-3.1-6.9-5.5-10.2-8.5c-1.9-1.7-3.6-3.4-4.9-5.6c-1.2-2.1-2.8-3.9-4.3-5.8c-0.2-0.3-0.7-0.9-0.8-0.6
			c-0.6,1.1-1.6,0.7-2.8,0.5c0.9,0.7,1.5,1.2,2,1.6c0.4,0.3,0.5,0.7,0.4,1.2c-0.1,0.5-0.5,0.7-1,0.7c-1.5-0.2-1.5,0.9-1.7,1.8
			c-0.1,1,0.8,0.7,1.3,0.9c0.5,0.1,0.9,0.4,0.9,1c0.1,0.6-0.3,0.9-0.8,1.1c-0.4,0.2-0.8,0.3-1.2,0.4c-0.8,0.1-1.2,0.5-1.1,1.3
			c0.3,1.5,0.2,3.2,1.4,4.4c0.4,0.4,0.4,1,0,1.3c-1,0.8-0.8,1.9-0.7,2.9c0.5,5.5,1,10.9,1.7,16.4c0.5,4,1.4,7.8,3.3,11.4
			c2,3.8,4.6,7.2,7.5,10.3c3.5,3.8,7.8,6.2,12.6,7.5c4.5,1.3,9.1,2.7,14,2.4c2.6-0.2,5.3,0.1,7.9-0.3c1.9-0.3,3.7-1.3,5.8-1.2
			c1.1,0,2.2-0.4,3.2-0.8c1.6-0.7,3.2-0.9,4.9-0.7C170.2,384.6,170.6,384.8,171.1,384.4z M141.7,342.8c-0.3-0.6-0.6-1-0.8-1.5
			c-1.5-3-2.3-6.2-0.2-9c1.6-2.3,1.6-4.2,0.5-6.6c-1.3-2.8-2.2-5.8-4.2-8.4c-2.1-2.7-4-5.7-5.6-8.9c-1.9-3.9-4.7-7.4-7.1-11.1
			c-0.6-1-1.6-1.3-2.6-1.3c-2.7,0-5.1,1-6.9,3.1c-1,1.1-1.9,2.3-2.8,3.5c-1.9,2.5-3.1,5.3-2.2,8.5c0.5,2,1.8,3.7,3,5.2
			c2.7,3.3,5,7,7.6,10.4c1.1,1.5,2.2,2.6,4.3,2.4c0.8-0.1,1.3,0.3,1.4,1.1c0,2,1.2,3.4,2.6,4.4c2.9,2.2,5.3,5.1,8.6,6.8
			C138.7,342.2,140,342.8,141.7,342.8z M150.4,314.2c0.8-0.1,1.6,0.3,2.3-0.5c1.8-2,2.8-4.3,3.3-6.9c0.2-0.9,0-1.8-0.6-2.6
			c-1.3-1.5-2.7-2.8-4.2-4.2c-1.1-1-2.7-1.4-3.9-2.4c-1.1-0.9-4.3,0.6-5.2,2.1c-1.2,2-1.8,4.1-2,6.4c-0.3,3.6,1.2,5.8,4.6,7
			C146.4,313.8,148.4,314.1,150.4,314.2z M166.7,334.6c-0.1-0.9,0.4-1.7-0.4-2.3c-1.5-1.2-2.9-2.7-5.2-1.9c-0.2,0.1-0.5,0-0.7,0.1
			c-1.9,0.1-3.4,2.1-2.8,3.8c0.7,1.9,1.3,3.9,2.5,5.6c0.6,0.9,1.4,1.6,2.3,2.2c0.9,0.6,1.6,0.6,2.5-0.4
			C166.7,339.5,166.4,336.9,166.7,334.6z M159.1,342.5c-1.8-2.7-3.2-5.4-3.7-8.4c-0.2-1.2-0.1-2.3,0.6-3.3c0.6-0.9,0.2-0.9-0.5-1.2
			c-1.9-0.7-4-0.8-5.7-1.9c-0.7-0.4-1.6-1.6-2.3-1c-0.7,0.6-0.3,1.9,0,2.9c0.7,2.9,2.4,5.4,4.4,7.5
			C153.9,339.2,155.6,341.9,159.1,342.5z M144.5,332c-2.9,2.9-2.8,6.2-1,8.5c1.8,2.2,4.6,2.2,6.2-0.2c0.3-0.4,0.3-0.6-0.1-1
			C147.4,337.4,146,334.7,144.5,332z"/>
		<path d="M134.2,321.2c-0.1,0.2-0.2,0.5-0.5,0.7c-1.7,1.8-3.3,3.6-5.1,5.2c-0.5,0.5-1.1,1-1.7,0.3c-0.6-0.6-0.2-1.2,0.2-1.7
			c1.8-1.8,3.6-3.6,5.4-5.4c0.4-0.4,0.8-0.5,1.3-0.2C134,320.4,134.2,320.7,134.2,321.2z"/>
		<path d="M136.8,323.8c0,0.4-0.2,0.7-0.5,1c-1.2,1.2-2.5,2.4-3.7,3.6c-0.5,0.5-1.2,1-1.9,0.4c-0.8-0.7,0-1.3,0.5-1.8
			c1.3-1.3,2.5-2.5,3.8-3.7c0.4-0.3,0.8-0.6,1.3-0.3C136.6,323.2,136.7,323.4,136.8,323.8z"/>
	</g>
</g>
</svg>
