<?xml version="1.0" encoding="utf-8"?>
<!-- Generator: Adobe Illustrator 24.0.3, SVG Export Plug-In . SVG Version: 6.00 Build 0)  -->
<svg version="1.1" id="Layer_1" xmlns="http://www.w3.org/2000/svg" xmlns:xlink="http://www.w3.org/1999/xlink" x="0px" y="0px"
	 viewBox="0 0 533.1 560" style="enable-background:new 0 0 533.1 560;" xml:space="preserve">
<path id="DNA" d="M125.6,174.9h64.7c11.8,0,44.9-0.6,60.7,23.8c2.4,3.7,7.9,12.5,7.9,27.5c0,7.8-1.6,15.8-5.2,22.9
	c-2.9,5.8-8.2,14-21.3,19.9c-12.3,5.7-23.6,6.4-34.5,6.4h-72.3V174.9z M165.5,247c0,3.2,2.9,5.7,6.5,5.7h11.5
	c13.9,0,21.8-2.3,26.5-6c5.5-4.3,9.2-12.7,9.2-21.2c0-9.5-4.4-16.8-10.2-20.9c-7.1-5-16.8-5.7-24.4-5.7H172c-3.6,0-6.5,2.6-6.5,5.7
	V247z M125.6,385.1H166v-21.4c-0.1-10.6-0.2-15.1-0.4-26.1c-0.1-2.6,3.6-3.7,5.4-1.8c2.1,2.2,4.1,4.4,7.3,7.7l41.8,41.6h33.9V284.5
	h-40.2v22.8c0,10.4,0.1,15.7,0.4,23.9c0.1,2.6-3.6,3.8-5.4,1.8c-4.1-4.6-7.2-7.7-14.4-14.5l-35-33.9h-33.7V385.1z M301.5,272.5
	c-12.3-13.3-22-28.7-28.5-45.2c-6.5-16.5-10-34.2-10-52.3h37.2v0.1c0,3.6,2.9,6.4,6.5,6.4h24.7c3.9,0,7,3.5,6.4,7.4l0,0.1
	c-0.4,3.2-3.2,5.6-6.4,5.6h-21.1c-4.3,0-7.4,4.1-6.3,8.2c0,0,0,0.1,0,0.1c0.8,2.8,3.3,4.8,6.3,4.8h30.5c4.8,0,8,5,5.9,9.3
	c0,0.1-0.1,0.2-0.1,0.3c-1.1,2.2-3.3,3.5-5.8,3.5h-19.2c-5.1,0-8.2,5.6-5.5,9.9c3.4,5.6,7.3,10.8,11.7,15.8L301.5,272.5 M369,287.6
	l-26.4,25.8c6.8,6.8,11.9,15.6,15.8,24.6c0.6,1.5-0.5,3.2-2.1,3.2h-42.6c-1.7,0-2.8-1.7-2.1-3.2c4.8-9.9,11.5-20.2,20.9-29.7
	l31.4-30.8c27.8-27.2,43.4-64.1,43.4-102.6c0,0-37.2,0-37.2,0c0,23.3-6.8,41.3-15.4,55.1h0c-0.1,0.2-0.2,0.5-0.4,0.7
	c-4.6,7.6-10.2,14.6-16.7,20.9l-31.4,30.8c-27.8,27.2-43.4,64.1-43.4,102.6h37.2v-0.1c0,0-0.1-3.9,0.8-10.3c0.4-3.2,3.1-5.5,6.3-5.5
	h55.3c3.1,0,5.7,2.2,6.2,5.3c1.1,6.4,1.4,10.6,1.4,10.6l37.2,0.1c0-18.1-3.4-35.8-10-52.3C391,316.2,381.4,300.9,369,287.6
	 M352.5,194.6c3.6,0,6.6-3,6.6-6.6c0-3.6-3-6.6-6.6-6.6c-3.6,0-6.6,3-6.6,6.6C345.9,191.7,348.9,194.6,352.5,194.6L352.5,194.6"/>
</svg>
