<?xml version="1.0" encoding="utf-8"?>
<!-- Generator: Adobe Illustrator 24.0.3, SVG Export Plug-In . SVG Version: 6.00 Build 0)  -->
<svg version="1.1" id="Layer_1" xmlns="http://www.w3.org/2000/svg" xmlns:xlink="http://www.w3.org/1999/xlink" x="0px" y="0px"
	 viewBox="0 0 533.1 560" style="enable-background:new 0 0 533.1 560;" xml:space="preserve">
<g>
	<g>
		<path d="M334.5,311.8c7.1,0,12.5,11.9,13.1,29.4h-25.7C321.9,320.1,329.4,311.8,334.5,311.8 M345.7,372.5
			c-10.5,0-23.1-7.7-23.9-29.1h45.9c-1.2-21.1-14.3-33.4-30-33.4c-16.3,0-35.4,13.2-35.4,40c0,27.3,17.7,39.7,33.6,39.7
			c16.3,0,26.8-14.5,30.6-26.9l-0.3-0.2C359.9,368.8,352.2,372.5,345.7,372.5"/>
		<path d="M188.8,388c7.8-4.2,8.1-10.3,8.1-18.4v-39.4c0-8.2-0.3-14.3-8.2-18.5v-0.3h30v8c6.2-3.7,16.3-8.9,26.2-8.9
			c8.5,0,12.3,4,13.5,9.1c6-3.7,16.5-9.1,26.3-9.1c10.5,0,13.9,6,13.9,12.8v46.3c0,8.2,0.3,14.3,8.2,18.5v0.3H270V388
			c6.2-3.7,6.8-10.3,6.8-18.5v-41.9c0-4.9-1.7-9.7-6.8-9.7c-2.8,0-6.5,0.3-11.2,3.5v1.7v46.3c0,8.2,0.3,14.6,6.8,18.5v0.3H230V388
			c6.2-3.7,6.9-10.3,6.9-18.5v-41.9c0-4.9-1.8-9.7-6.9-9.7c-2.8,0-6.5,0.3-11.2,3.5v48c0,8.2,0.5,14.8,6.8,18.5v0.3h-36.8v0h-38V388
			c7.9-4.2,8.2-10.3,8.2-18.5v-39.4c0-8.2-0.3-14.3-8.2-18.5v-0.3h30v58.2C180.7,377.7,181,383.8,188.8,388"/>
		<path d="M156.8,291.2c0-6.5,5.5-11.7,12.3-11.7c6.8,0,12.3,5.2,12.3,11.7c0,6.6-5.5,11.9-12.3,11.9
			C162.4,303,156.8,297.8,156.8,291.2"/>
		<path d="M109.2,360v-46.5h-8.8v-1.8c10.3-0.5,23.1-11.9,30.3-26.2h0.3v25.9h13.6v2.2H131v49.1c0,12,1.1,18.3,18,25.4v0.3
			C108.9,390.3,109.2,378.8,109.2,360"/>
		<path d="M377.5,388.1l-1.8-31.1h0.2c5.2,11.5,12.2,31,30,31c6.9,0,14.5-3.2,14.5-13.1c0-8.3-10.8-11.9-24.6-16.6
			c-18.3-6.3-23.1-13.4-23.1-24.3c0-16.9,14.6-24,28.8-24c8.2,0,17.4,2.2,26.2,4.5l1.2,25.2h-0.3c-9.1-17.4-16.8-27.7-29.3-27.7
			c-7.7,0-14.2,5.1-14.2,12.2c0,7.4,9.2,10.5,21.9,14.8c15.6,5.2,25.7,11.7,25.7,26.6c0,18.2-15.1,24.5-28.3,24.5
			C393.6,390,385.1,389.6,377.5,388.1"/>
	</g>
	<g>
		<path d="M171.3,253.7v-89h-30v0.3c7.9,4.2,8.2,10.3,8.2,18.5v12h-3.5c-18.8,0-40.5,11.9-40.5,40.8c0,25.1,16.2,36.2,38.3,36.2
			h35.7v-0.3C171.6,268,171.3,261.8,171.3,253.7z M149.5,270.3h-0.3c-11.5,0-21.2-19.9-21.2-45.3c0-23.7,7.7-27.4,17.2-27.4h4.3
			V270.3z"/>
		<path d="M245.5,253.7v-58.2h-28.6v0.3c6.3,3.7,6.8,10.3,6.8,18.5v48c-4.5,2.9-8,3.5-10.9,3.5c-5.1,0-7.1-4-7.1-8.9v-61.4h-30v0.3
			c7.9,4.2,8.2,10.3,8.2,18.5v46.3c0,6.8,3.4,12.8,13.9,12.8c9.5,0,19.9-5.1,26-8.8v7.9h30v-0.3C246,268,245.5,261.8,245.5,253.7z"
			/>
		<path d="M285.7,223c-12.6-4.3-21.9-7.4-21.9-14.8c0-7.1,6.5-12.2,14.2-12.2c12.5,0,20.2,10.3,29.3,27.7h0.3l-1.2-25.2
			c-8.8-2.3-18-4.5-26.2-4.5c-14.2,0-28.8,7.1-28.8,24c0,10.9,4.8,18,23.1,24.3c13.9,4.8,24.6,8.3,24.6,16.6
			c0,9.9-7.5,13.1-14.5,13.1c-17.9,0-24.8-19.5-30-31h-0.2l1.8,31.1c7.5,1.5,16,1.9,26.8,1.9c13.2,0,28.3-6.3,28.3-24.5
			C311.4,234.7,301.3,228.3,285.7,223z"/>
		<path d="M411,195.5v0.3c8.3,2.8,8.9,8.2,5.7,16.8l-11.9,31.6L392.4,212c-3.1-8-3.4-13.1,5.5-16.2v-0.3h-37v0.3
			c3.1,2.3,6.8,10.8,10,18.5l23.6,56.4c-3.5,8.6-9.1,11.4-16.5,11.4c-6.2,0-11.4-2.9-14.8-6.8H363l1.5,26.3c0.6,0.2,2.5,0.3,4,0.3
			c14.6,0,19.6-10,28-31.7l22.2-56.8c3.5-9.2,5.9-14.9,8.9-17.6v-0.3H411z"/>
		<path d="M342.6,246.8v-49.1h13.5v-2.2h-13.5v-25.9h-0.3c-7.2,14.3-20,25.7-30.3,26.2v1.8h8.8v46.5c0,18.8-0.3,30.3,39.9,28.3v-0.3
			C343.7,265.1,342.6,258.8,342.6,246.8z"/>
	</g>
</g>
</svg>
