<?xml version="1.0" encoding="utf-8"?>
<!-- Generator: Adobe Illustrator 24.0.3, SVG Export Plug-In . SVG Version: 6.00 Build 0)  -->
<svg version="1.1" id="Layer_1" xmlns="http://www.w3.org/2000/svg" xmlns:xlink="http://www.w3.org/1999/xlink" x="0px" y="0px"
	 viewBox="0 0 533.1 560" style="enable-background:new 0 0 533.1 560;" xml:space="preserve">
<g>
	<path d="M172.6,376.3l-54.7,12.9c-0.9,0.2-1.6-0.8-1.1-1.6l117-173.8c0.1-0.2,0.4-0.4,0.6-0.4l54.7-12.9c0.9-0.2,1.6,0.8,1.1,1.6
		l-117,173.8C173.1,376,172.9,376.2,172.6,376.3z"/>
	<path d="M298.7,346.6L244,359.5c-0.9,0.2-1.6-0.8-1.1-1.6l117-173.8c0.1-0.2,0.4-0.4,0.6-0.4l54.7-12.9c0.9-0.2,1.6,0.8,1.1,1.6
		l-117,173.8C299.1,346.4,298.9,346.5,298.7,346.6z"/>
	<path d="M261.1,323.4l-54.7,12.9c-0.9,0.2-1.6-0.8-1.1-1.6l91.1-135.5c0.1-0.2,0.4-0.4,0.6-0.4l54.7-12.9c0.9-0.2,1.6,0.8,1.1,1.6
		L261.7,323C261.5,323.2,261.3,323.3,261.1,323.4z"/>
</g>
</svg>
