<?xml version="1.0" encoding="utf-8"?>
<!-- Generator: Adobe Illustrator 24.0.3, SVG Export Plug-In . SVG Version: 6.00 Build 0)  -->
<svg version="1.1" id="Layer_1" xmlns="http://www.w3.org/2000/svg" xmlns:xlink="http://www.w3.org/1999/xlink" x="0px" y="0px"
	 viewBox="0 0 533.1 560" style="enable-background:new 0 0 533.1 560;" xml:space="preserve">
<style type="text/css">
	.st0{fill:#231F20;}
</style>
<g>
	<path class="st0" d="M124.8,189.7v75.9c0,0.4,0.3,0.7,0.7,0.7l0,0h75.9c0.4,0,0.7-0.3,0.7-0.7l0,0v-75.9c0-0.4-0.3-0.7-0.7-0.7l0,0
		h-75.9C125.2,188.9,124.8,189.3,124.8,189.7L124.8,189.7z M151.1,261.9h-17c-0.4,0-0.7-0.3-0.7-0.7c0-0.2,0.1-0.4,0.2-0.5l63-63
		c0.3-0.3,0.7-0.3,1,0c0.2,0.2,0.2,0.3,0.2,0.5v17c0,0.2-0.1,0.4-0.2,0.5l-46,46C151.4,261.9,151.3,262,151.1,261.9L151.1,261.9z
		 M197.8,224.1v17c0,0.2-0.1,0.4-0.2,0.5l-20.1,20.1c-0.2,0.2-0.3,0.2-0.5,0.2h-17c-0.4,0-0.7-0.3-0.7-0.7c0-0.2,0.1-0.4,0.2-0.5
		l37.1-37.1c0.3-0.3,0.7-0.4,1-0.1C197.7,223.7,197.9,223.9,197.8,224.1L197.8,224.1z M175.5,193.3h17c0.4,0,0.7,0.3,0.7,0.7
		c0,0.2-0.1,0.4-0.2,0.5l-62.6,62.6c-0.3,0.3-0.7,0.3-1,0c-0.2-0.2-0.2-0.3-0.2-0.5v-17c0-0.2,0.1-0.4,0.2-0.5l45.6-45.6
		C175.1,193.4,175.3,193.3,175.5,193.3z M129.1,230.7v-17c0-0.2,0.1-0.4,0.2-0.5l19.7-19.7c0.2-0.2,0.3-0.2,0.5-0.2h17
		c0.4,0,0.7,0.3,0.7,0.7c0,0.2-0.1,0.4-0.2,0.5l-36.7,36.8c-0.3,0.3-0.7,0.3-1,0C129.2,231,129.1,230.9,129.1,230.7z M141.1,194.5
		l-10.7,10.8c-0.3,0.3-0.7,0.3-1,0c-0.2-0.2-0.2-0.3-0.2-0.5V194c0-0.4,0.3-0.7,0.7-0.7h10.8c0.4,0,0.7,0.3,0.7,0.7
		C141.3,194.2,141.3,194.3,141.1,194.5z M185.4,260.7l11.2-11.2c0.3-0.3,0.7-0.3,1,0c0.2,0.2,0.2,0.3,0.2,0.5v11.2
		c0,0.4-0.3,0.7-0.7,0.7l0,0H186c-0.4,0-0.7-0.3-0.7-0.7C185.2,261,185.3,260.9,185.4,260.7z"/>
	<path class="st0" d="M331,189.7v75.9c0,0.4,0.3,0.7,0.7,0.7l0,0h75.8c0.4,0,0.7-0.3,0.7-0.7l0,0v-75.9c0-0.4-0.3-0.7-0.7-0.7l0,0
		h-75.8C331.3,188.9,331,189.3,331,189.7L331,189.7z M403,216.1c-10.1-3.8-18.1-11.8-21.9-21.9c-0.2-0.4,0.1-0.8,0.4-0.9
		c0.1-0.1,0.2-0.1,0.3-0.1h21.5c0.4,0,0.7,0.3,0.7,0.7l0,0v21.5c0,0.4-0.4,0.7-0.7,0.7C403.1,216.2,403.1,216.2,403,216.1z
		 M403.9,222.5v10.3c0,0.3-0.2,0.6-0.5,0.7c-13.4,4.2-23.8,14.6-28,28c-0.1,0.3-0.4,0.5-0.7,0.5h-10.3c-0.3,0-0.6-0.2-0.7-0.5
		c-4.2-13.4-14.6-23.8-28-28c-0.3-0.1-0.5-0.4-0.5-0.7v-10.3c0-0.3,0.2-0.6,0.5-0.7c13.4-4.2,23.8-14.6,28-28
		c0.1-0.3,0.4-0.5,0.7-0.5h10.3c0.3,0,0.6,0.2,0.7,0.5c4.2,13.4,14.6,23.8,28,28C403.7,221.9,403.9,222.2,403.9,222.5L403.9,222.5z
		 M358.1,194.2c-3.8,10.1-11.8,18.1-21.9,21.9c-0.4,0.2-0.8-0.1-0.9-0.4c-0.1-0.1-0.1-0.2-0.1-0.3V194c0-0.4,0.3-0.7,0.7-0.7l0,0
		h21.5c0.4,0,0.7,0.3,0.7,0.7C358.2,194.1,358.2,194.2,358.1,194.2z M336.2,239.1c10.1,3.8,18.1,11.8,21.9,21.9
		c0.2,0.4-0.1,0.8-0.4,0.9c-0.1,0.1-0.2,0.1-0.3,0.1h-21.5c-0.4,0-0.7-0.3-0.7-0.7l0,0v-21.5c0-0.4,0.3-0.7,0.7-0.7
		C336,239,336.1,239,336.2,239.1L336.2,239.1z M381,261c3.8-10.1,11.8-18.1,21.9-21.9c0.4-0.2,0.8,0.1,0.9,0.4
		c0.1,0.1,0.1,0.2,0.1,0.3v21.5c0,0.4-0.3,0.7-0.7,0.7l0,0h-21.5c-0.4,0-0.7-0.3-0.7-0.7C381,261.2,381,261,381,261L381,261z"/>
	<path class="st0" d="M380.9,216.2c-16.6-12.5-35.2,6.2-22.7,22.7c0.1,0.1,0.1,0.1,0.2,0.2c16.6,12.5,35.2-6.2,22.7-22.7
		C381,216.2,380.9,216.2,380.9,216.2z M377.1,235.2c-11,8.3-23.5-4.2-15.1-15.1c0.1-0.1,0.1-0.1,0.2-0.2c11-8.3,23.5,4.2,15.1,15.1
		C377.2,235.1,377.1,235.2,377.1,235.2z"/>
	<path class="st0" d="M227.9,189.7v75.9c0,0.4,0.3,0.7,0.7,0.7l0,0h75.8c0.4,0,0.7-0.3,0.7-0.7l0,0v-75.9c0-0.4-0.3-0.7-0.7-0.7l0,0
		h-75.9C228.2,188.9,227.9,189.3,227.9,189.7L227.9,189.7z M300.9,194v27c0,0.4-0.3,0.7-0.7,0.7c-0.2,0-0.3-0.1-0.4-0.1
		c-3.6-2.5-6.4-6.1-9.3-9.9c-5.5-7.1-11.7-15.2-23.9-15.2c-12.2,0-18.4,8-23.9,15.2c-2.9,3.7-5.7,7.4-9.3,9.9
		c-0.3,0.2-0.8,0.2-1-0.2c-0.1-0.1-0.1-0.3-0.1-0.4v-27c0-0.4,0.3-0.7,0.7-0.7l0,0h67.3C300.6,193.3,300.9,193.6,300.9,194
		L300.9,194L300.9,194z M300.9,228.1v17.7c0,0.4-0.3,0.7-0.7,0.7c-0.2,0-0.3-0.1-0.4-0.1c-3.6-2.5-6.4-6.1-9.3-9.9
		c-5.5-7.1-11.7-14.7-23.9-14.7c-12.2,0-18.4,7.7-23.9,14.7c-2.9,3.7-5.7,7.4-9.3,9.9c-0.3,0.2-0.8,0.2-1-0.2
		c-0.1-0.1-0.1-0.3-0.1-0.4v-17.6c0-0.3,0.2-0.5,0.4-0.6c6.1-2.9,10.2-8.2,13.9-13c5.3-6.8,10.3-13.2,20-13.2s14.7,6.4,20,13.2
		c3.7,4.8,7.8,10.1,13.9,13C300.7,227.6,300.9,227.8,300.9,228.1L300.9,228.1z M248.9,261.9c-0.4,0-0.7-0.3-0.7-0.7
		c0-0.2,0.1-0.3,0.2-0.5c4.7-5.9,9.6-8,18.2-8s13.5,2.2,18.2,8c0.3,0.3,0.2,0.8-0.1,1c-0.1,0.1-0.3,0.2-0.5,0.2H248.9z M292.1,261.9
		c-0.2,0-0.4-0.1-0.6-0.3l-1-1.3c-5.5-7.1-11.7-12.3-23.9-12.3c-12.2,0-18.4,5.2-23.9,12.3l-1,1.3c-0.2,0.2-0.4,0.3-0.6,0.3h-8
		c-0.4,0-0.7-0.3-0.7-0.7l0,0v-8.3c0-0.3,0.2-0.5,0.4-0.6c6.1-2.9,10.2-8.2,13.9-13c5.3-6.8,10.3-12.9,20-12.9c9.8,0,14.7,6,20,12.9
		c3.7,4.8,7.8,10.1,13.9,13c0.3,0.1,0.4,0.4,0.4,0.6v8.3c0,0.4-0.3,0.7-0.7,0.7l0,0H292.1z"/>
	<path class="st0" d="M117.5,300l22.9,53.1c0.2,0.4,0.6,0.5,0.9,0.4c0.2-0.1,0.3-0.2,0.4-0.4l23-53.1c0.2-0.4,0.6-0.5,0.9-0.4
		c0.2,0.1,0.4,0.3,0.4,0.5l13.1,68.3c0.1,0.4-0.2,0.8-0.6,0.8c-0.1,0-0.1,0-0.2,0h-6.2c-0.4,0-0.6-0.3-0.7-0.6l-8.5-45.1H163
		l-21.1,47c-0.2,0.4-0.6,0.5-0.9,0.4c-0.2-0.1-0.3-0.2-0.4-0.4l-21.1-47h-0.2l-8.6,45.1c-0.1,0.3-0.4,0.6-0.7,0.6h-6.2
		c-0.4,0-0.7-0.3-0.7-0.7c0-0.1,0-0.1,0-0.2l13.1-68.3c0.1-0.4,0.4-0.7,0.8-0.6C117.2,299.6,117.4,299.8,117.5,300z"/>
	<path class="st0" d="M214.6,300.6c4.7-0.1,9.3,0.9,13.7,2.8c4.2,1.8,8,4.3,11.2,7.5c3.2,3.2,5.8,7,7.6,11.2
		c3.7,8.7,3.7,18.5,0,27.3c-1.8,4.2-4.4,7.9-7.6,11.1c-3.2,3.2-7.1,5.7-11.2,7.4c-8.7,3.6-18.6,3.6-27.3,0c-4.2-1.8-8-4.3-11.2-7.4
		c-3.2-3.2-5.8-6.9-7.6-11.1c-3.7-8.7-3.7-18.5,0-27.3c1.8-4.2,4.4-7.9,7.6-11.2c3.2-3.2,7-5.8,11.2-7.5
		C205.3,301.5,209.9,300.6,214.6,300.6z M214.6,307.6c-3.7-0.1-7.5,0.7-10.9,2.2c-3.3,1.4-6.3,3.4-8.8,6s-4.5,5.6-5.9,8.9
		c-1.5,3.4-2.2,7.1-2.1,10.8c0,3.7,0.7,7.4,2.1,10.8c2.8,6.7,8.1,12,14.7,14.9c6.9,3,14.7,3,21.6,0c6.6-2.9,11.9-8.3,14.7-14.9
		c1.5-3.4,2.2-7.1,2.1-10.8c0-3.7-0.7-7.4-2.1-10.8c-1.3-3.3-3.4-6.3-5.9-8.9c-2.5-2.5-5.5-4.6-8.8-6
		C222.1,308.3,218.4,307.6,214.6,307.6z"/>
	<path class="st0" d="M285.4,314.5c-0.3,0.2-0.8,0.1-1-0.2l0,0c-1.1-1.9-2.6-3.5-4.4-4.8c-1.8-1.3-4-1.9-7-1.9
		c-1.5,0-2.9,0.3-4.3,0.8c-1.3,0.5-2.5,1.2-3.6,2.1c-2.2,1.9-3.4,4.7-3.4,7.6c0,1.3,0.3,2.6,1,3.8c0.7,1.1,1.6,2.1,2.5,2.9
		c1,0.8,2.2,1.6,3.4,2.1l3.6,1.7l4.5,2c2.1,0.9,4.2,2,6.2,3.1c1.9,1,3.6,2.3,5.1,3.8c1.5,1.5,2.7,3.2,3.5,5.1c0.9,2.2,1.3,4.6,1.3,7
		c0.1,2.9-0.5,5.7-1.7,8.3c-1.1,2.5-2.6,4.7-4.6,6.6c-2,1.9-4.3,3.4-6.7,4.4c-2.6,1.1-5.4,1.6-8.3,1.6c-2.5,0-5.1-0.4-7.5-1.2
		c-2.3-0.8-4.4-2-6.2-3.5c-1.9-1.6-3.4-3.4-4.6-5.5c-1.2-2-2-4.2-2.5-6.5c-0.1-0.4,0.2-0.7,0.5-0.8l5.9-1.7c0.4-0.1,0.8,0.1,0.9,0.5
		v0.1c0.6,3.1,2.1,5.9,4.3,8.1c1.2,1.1,2.5,2.1,4.1,2.7c1.6,0.7,3.3,1,5,1s3.5-0.3,5.2-1c1.6-0.6,3.1-1.6,4.4-2.8s2.3-2.6,3.1-4.2
		c0.8-1.7,1.2-3.5,1.1-5.3c0.1-1.7-0.3-3.5-1.1-5c-0.7-1.3-1.7-2.6-2.8-3.6c-1.2-1-2.5-1.9-4-2.6c-1.5-0.7-3-1.5-4.6-2.2l-4.1-1.8
		c-2-0.9-3.8-1.9-5.7-2.9c-1.7-0.9-3.3-2.1-4.7-3.5c-1.3-1.3-2.4-2.9-3.2-4.6c-0.8-2-1.2-4.2-1.1-6.3c-0.1-4.8,2-9.4,5.7-12.6
		c1.8-1.5,3.8-2.7,6-3.5c2.3-0.8,4.7-1.2,7.2-1.2c7.1-0.1,13.7,3.7,17.1,9.9c0.2,0.3,0.1,0.7-0.3,0.9L285.4,314.5z"/>
	<path class="st0" d="M309.8,350.5l-7.8,18.3c-0.1,0.3-0.4,0.4-0.7,0.4h-6.6c-0.4,0-0.7-0.3-0.7-0.7c0-0.1,0-0.2,0.1-0.3l30.1-68.3
		c0.2-0.4,0.6-0.5,0.9-0.4c0.2,0.1,0.3,0.2,0.4,0.4l29.3,68.3c0.2,0.4,0,0.8-0.4,0.9c-0.1,0.1-0.2,0.1-0.3,0.1h-6.7
		c-0.3,0-0.6-0.2-0.7-0.5l-7.6-18.3c-0.1-0.3-0.4-0.4-0.7-0.5h-27.9C310.2,350.1,309.9,350.3,309.8,350.5z M323.9,317.6l-10.5,24.5
		c-0.2,0.4,0,0.8,0.4,0.9c0.1,0.1,0.2,0.1,0.3,0.1h20.7c0.4,0,0.7-0.3,0.7-0.7c0-0.1,0-0.2-0.1-0.3l-10.2-24.5
		c-0.2-0.4-0.6-0.5-0.9-0.4C324.2,317.3,324,317.5,323.9,317.6z"/>
	<path class="st0" d="M367.5,369.3h-6.1c-0.4,0-0.7-0.3-0.7-0.7l0,0v-66.1c0-0.4,0.3-0.7,0.7-0.7l0,0h6.1c0.4,0,0.7,0.3,0.7,0.7l0,0
		v66.1C368.2,369,367.9,369.3,367.5,369.3z"/>
	<path class="st0" d="M430,314.8c0,0.4-0.3,0.7-0.7,0.7c-0.2,0-0.4-0.1-0.5-0.2c-2.4-2.2-5.1-4-8.2-5.4c-3.5-1.6-7.4-2.4-11.3-2.4
		c-3.7,0-7.3,0.8-10.6,2.3c-3.3,1.5-6.2,3.6-8.7,6.1c-2.5,2.6-4.5,5.6-5.8,8.9c-2.9,6.8-2.9,14.4,0,21.2c1.4,3.3,3.4,6.3,5.9,8.9
		c2.5,2.6,5.5,4.7,8.7,6.1c3.3,1.5,7,2.3,10.6,2.3c3.8,0,7.6-0.8,11.1-2.5c3-1.3,5.7-3.2,8.2-5.3c0.3-0.3,0.7-0.3,1,0.1
		c0.1,0.2,0.2,0.3,0.2,0.5v7.3c0,0.2-0.1,0.5-0.3,0.6c-2.9,2-6,3.6-9.3,4.7c-3.4,1.1-7,1.8-10.6,1.8c-4.7,0-9.2-0.9-13.5-2.7
		c-4.2-1.8-8-4.3-11.2-7.4c-3.2-3.2-5.8-6.9-7.6-11c-1.9-4.3-2.9-8.8-2.8-13.5c-0.1-4.7,0.9-9.3,2.8-13.7
		c3.6-8.4,10.3-15.2,18.7-18.7c4.3-1.9,9-2.8,13.7-2.8c7.2-0.1,14.1,2.2,19.9,6.4c0.2,0.2,0.3,0.4,0.3,0.6v7.2H430z"/>
</g>
</svg>
