<?xml version="1.0" encoding="utf-8"?>
<!-- Generator: Adobe Illustrator 24.0.3, SVG Export Plug-In . SVG Version: 6.00 Build 0)  -->
<svg version="1.1" id="Layer_1" xmlns="http://www.w3.org/2000/svg" xmlns:xlink="http://www.w3.org/1999/xlink" x="0px" y="0px"
	 viewBox="0 0 533.1 560" style="enable-background:new 0 0 533.1 560;" xml:space="preserve">
<g>
	<g>
		<path d="M114.5,257.8c3.6,9.5,1.1,20.2-6.4,27c-7.5,6.8-18.4,8.3-27.5,3.7v19.1H67.1v-65.5h13.5v2.6c3.4-1.7,7.2-2.6,11-2.6
			C101.8,242.1,110.9,248.3,114.5,257.8z M91.6,277.7c6.1,0,11-4.9,11-11c0-4.5-2.7-8.5-6.8-10.2c-4.1-1.7-8.9-0.8-12,2.4
			c-3.2,3.2-4.1,7.9-2.4,12C83.1,275,87.2,277.7,91.6,277.7L91.6,277.7z"/>
		<path d="M164.2,242.1v49.1h-13.5v-1.6c-6.6,2.7-14.2,1.9-20.1-2.1c-5.9-4-9.5-10.7-9.5-17.9v-27.5h13.5v27.5
			c0,4.5,3.6,8.1,8.1,8.1c4.5,0,8.1-3.6,8.1-8.1v-27.5H164.2z"/>
		<path d="M217.3,257.8c3.6,9.5,1.1,20.2-6.4,27c-7.5,6.8-18.4,8.3-27.5,3.7v19.1h-13.5v-65.5h13.5v2.6c3.4-1.7,7.2-2.6,11-2.6
			C204.6,242.1,213.7,248.3,217.3,257.8z M194.4,277.7c6.1,0,11-4.9,11-11c0-4.5-2.7-8.5-6.8-10.2c-4.1-1.7-8.9-0.8-12,2.4
			c-3.2,3.2-4.1,7.9-2.4,12C185.9,275,190,277.7,194.4,277.7L194.4,277.7z"/>
		<path d="M271.9,242.1v49h-13.5v-2.6c-10.3,5.2-22.9,2.5-30.1-6.5c-7.3-9-7.3-21.8,0-30.8c7.3-9,19.8-11.7,30.1-6.5v-2.6
			L271.9,242.1z M247.3,277.7c6.1,0,11-4.9,11-11c0-6.1-4.9-11-11-11c-6.1,0-11,4.9-11,11C236.3,272.7,241.2,277.7,247.3,277.7
			L247.3,277.7z"/>
		<path d="M303.2,259.2c1.1-4,2.9-7.8,5.6-11.1c0,0,0.1-0.1,0.1-0.1l0.3-0.5c-3.4-3.4-8.1-5.4-12.9-5.3c-1.6,0-3.2,0.2-4.8,0.6v-0.6
			H278v49.1h13.5v-30.8c0-1.9,1.2-3.7,2.9-4.4C296.2,255.2,299.8,255.6,303.2,259.2z"/>
		<path d="M356.2,242.1v49h-13.5v-2.6c-10.3,5.2-22.9,2.5-30.1-6.5c-7.3-9-7.3-21.8,0-30.8c7.3-9,19.8-11.7,30.1-6.5v-2.6
			L356.2,242.1z M331.7,277.7c6.1,0,11-4.9,11-11c0-6.1-4.9-11-11-11c-6.1,0-11,4.9-11,11C320.7,272.7,325.6,277.7,331.7,277.7
			L331.7,277.7z"/>
		<path d="M402.4,242.1v6.7c0,2.3-0.4,4.6-1.1,6.7c-2.7,7.7-9.8,12.5-15.8,16.6c-2.6,1.7-5.1,3.5-7.4,5.5h23.1v13.5h-40.2v-6.7
			c0-2.3,0.4-4.6,1.1-6.7c2.7-7.8,9.9-12.6,15.9-16.7c2.5-1.6,5-3.4,7.3-5.4h-23v-13.5H402.4z"/>
		<path d="M447.2,242.1v6.7c0,2.3-0.4,4.6-1.1,6.7c-2.7,7.7-9.8,12.5-15.8,16.6c-2.6,1.7-5.1,3.5-7.4,5.5h23.1v13.5h-40.2v-6.7
			c0-2.3,0.4-4.6,1.1-6.7c2.7-7.8,9.9-12.6,15.9-16.7c2.5-1.6,5-3.4,7.3-5.4h-23v-13.5H447.2z"/>
		<path d="M452.1,237.6v-14.2h13.5v14.2H452.1z M452.1,291.2v-49h13.5v49H452.1z"/>
	</g>
	<path d="M247.3,313c-5.4,6.2-9.3,8.9-11.7,10.1c-2,1-3.7,1.3-4.8,0.9c-1.8-0.7-6-3.7-6.3-7.4c1.5-1,5-1.3,6.8-4.1l3.8-6.6
		c2.9-5-0.7-11.1-6.4-11.1H213c-5.7,0-9.3,6.2-6.4,11.1l3.8,6.6c1.6,2.7,5.3,3.1,6.8,4.1c-0.3,3.7-4.6,6.8-6.3,7.4
		c-1.1,0.4-2.8,0.1-4.8-0.9c-2.4-1.2-6.3-3.9-11.7-10.1l-9.4,8.1c5.4,6.2,10.6,10.6,15.5,13.1c3.6,1.8,6.7,2.4,9.3,2.4
		c2.2,0,4-0.4,5.3-0.9c2.1-0.8,4-2.1,5.7-3.7c1.6,1.7,3.5,2.9,5.7,3.7c1.4,0.5,3.2,0.9,5.3,0.9c2.6,0,5.7-0.6,9.3-2.4
		c4.9-2.5,10.1-6.9,15.5-13.1L247.3,313z"/>
</g>
</svg>
