<?xml version="1.0" encoding="utf-8"?>
<svg version="1.1" xmlns="http://www.w3.org/2000/svg" xmlns:xlink="http://www.w3.org/1999/xlink"
	 viewBox="0 0 533.1 560">
<g fill="none" fill-rule="evenodd">
	<g fill="currentColor" fill-rule="nonzero">
		<path d="M426.1,304.9c11.6,13.8-5.2,31-19,20l-0.2-0.1c-12-13.5,5-31.7,19-20L426.1,304.9z"/>
		<path d="M279.5,259c0,2.5-0.2,5-0.7,7.4l-10.3,59.3c-0.1,0.4-0.4,0.7-0.9,0.7H252c-0.5,0-0.9-0.4-0.9-0.8c0,0,0-0.1,0-0.1l0.8-4.6
			c0.1-0.5-0.2-0.9-0.7-1c-0.3-0.1-0.5,0-0.7,0.2c-6.1,5.4-14,8.3-22.1,8.3c-16.5,0-29.9-9.8-28.4-29.2
			c1.7-21.3,19.1-30.8,37.8-30.8c7.3-0.1,14.6,1.3,21.4,4c0.4,0.2,0.9,0,1.1-0.4c0-0.1,0.1-0.1,0.1-0.2l1-5.4
			c0.3-1.7,0.5-3.4,0.5-5.2c0-7.7-5.2-11-16.5-11c-7.7,0.1-15.3,1.9-22.2,5.3c-0.4,0.2-0.9,0-1.1-0.4c0,0,0-0.1,0-0.1l-4.4-12.5
			c-0.2-0.4,0-0.9,0.4-1.1c9.2-4.4,19.2-6.8,29.4-7C267,234.3,279.5,241.8,279.5,259z M257.8,288c0.1-0.4-0.1-0.8-0.4-0.9
			c-6.3-3-13.3-4.4-20.3-4.2c-11.4,0-19.3,5.7-19.8,16c-0.5,8.1,4.5,14.1,15.7,14.1c9,0,17.2-5.2,22.2-10.8c0.1-0.1,0.2-0.3,0.2-0.4
			L257.8,288z"/>
		<path d="M292.9,326.5h-16c-0.5,0-0.9-0.4-0.9-0.9c0,0,0-0.1,0-0.1l20.2-114.7c0.1-0.3,0.2-0.5,0.5-0.6l17.5-8.4
			c0.4-0.2,0.9,0,1.1,0.4c0.1,0.2,0.1,0.3,0.1,0.5l-21.8,123C293.7,326.2,293.4,326.5,292.9,326.5z"/>
		<path d="M319.9,326.5h-16c-0.5,0-0.9-0.4-0.9-0.9c0,0,0-0.1,0-0.1l20.2-114.7c0.1-0.3,0.2-0.5,0.5-0.6l17.5-8.4
			c0.4-0.2,0.9,0,1.1,0.4c0.1,0.2,0.1,0.3,0.1,0.5l-21.8,123C320.7,326.2,320.4,326.5,319.9,326.5z"/>
		<path d="M426.6,237.4l-64.1,120.4c-0.1,0.3-0.4,0.5-0.8,0.5h-16.9c-0.5,0-0.9-0.4-0.9-0.9c0-0.1,0-0.3,0.1-0.4l16.9-30.8
			c0.1-0.2,0.1-0.4,0.1-0.6l-16.9-88.5c-0.1-0.5,0.2-0.9,0.7-1c0.1,0,0.1,0,0.2,0h17c0.4,0,0.8,0.3,0.8,0.7l8.6,53.8
			c0.4,2.4,1.1,7.5,1.5,11c-0.1,0.5,0.3,0.9,0.7,1c0.5,0.1,0.9-0.3,1-0.7c1.5-3.6,3.9-8.8,5.3-11.2l28.3-54.1
			c0.1-0.3,0.4-0.5,0.8-0.5h17c0.5,0,0.9,0.4,0.9,0.9C426.7,237.2,426.7,237.3,426.6,237.4z"/>
		<path d="M209.4,238.2c0-21.7-14.6-32.2-39-32.2H125c-0.4,0-0.8,0.3-0.8,0.7l-21,118.8c-0.1,0.5,0.2,0.9,0.7,1c0.1,0,0.1,0,0.2,0
			h16c0.4,0,0.8-0.3,0.9-0.7l8.1-46.3c0.1-0.4,0.4-0.7,0.8-0.7h28.6c6,19.2,13.1,37.7,28.3,45c1.7,0.8,3.6,1.5,5.4,2
			c0.5,0.1,0.9-0.2,1-0.6c0,0,0-0.1,0-0.1l1.4-16.9c0-0.3-0.2-0.7-0.5-0.8c-7.5-4.1-12.6-16-17-29.5c-0.1-0.5,0.1-0.9,0.5-1.1
			c0,0,0,0,0.1,0C192.1,273.3,209.4,263.6,209.4,238.2z M165.7,261.8h-32.5c-0.5,0-0.8-0.4-0.9-0.8c0-0.1,0-0.1,0-0.2l6.4-37
			c0.1-0.4,0.4-0.7,0.9-0.7H169c15,0,21.7,6.2,21.7,16.3C190.6,254.6,181.2,261.8,165.7,261.8z"/>
	</g>
</g>
</svg>
