<?xml version="1.0" encoding="utf-8"?>
<!-- Generator: Adobe Illustrator 24.0.3, SVG Export Plug-In . SVG Version: 6.00 Build 0)  -->
<svg version="1.1" id="Layer_1" xmlns="http://www.w3.org/2000/svg" xmlns:xlink="http://www.w3.org/1999/xlink" x="0px" y="0px"
	 viewBox="0 0 533.1 560" style="enable-background:new 0 0 533.1 560;" xml:space="preserve">
<style type="text/css">
	.st0{clip-path:url(#SVGID_2_);}
	.st1{clip-path:url(#SVGID_4_);}
	.st2{clip-path:url(#SVGID_6_);}
	.st3{clip-path:url(#SVGID_8_);}
	.st4{clip-path:url(#SVGID_10_);}
</style>
<g id="lotus">
	<path d="M258.6,331.4c0.2-0.1,0.3-0.3,0.3-0.5c-0.2-0.8-0.4-1.6-0.7-2.6c-1.1-3.6-1.8-7.7-1.8-12.2c0-9.7,4.1-19.2,12-27.5
		c8.7-9.2,21.9-16.5,38.1-21.2c0.2-0.1,0.3-0.3,0.3-0.5c-0.4-2-0.9-4-1.4-5.9c-0.1-0.2-0.3-0.3-0.5-0.3c-8.7,2.5-16.6,5.7-23.5,9.5
		c-7,3.9-13,8.5-17.9,13.6c-4.6,4.8-8.1,10.1-10.5,15.8c-2.3,5.4-3.4,10.9-3.4,16.4c0,1.8,0.8,6.5,1.1,8.9c0,0.3-0.3,0.6-0.6,0.4
		c-6.5-2.9-9.7-10.2-18.6-13.3c-0.4-0.1-0.8-0.3-1.2-0.3c-0.3,0-0.5,0.3-0.4,0.6c1.7,3.8,3.7,6.8,5.6,9.2
		C238.2,325.7,246.3,335,258.6,331.4z"/>
	<path d="M231.9,356.6c-1.1-0.6-2.3-1.2-3.4-1.9c-0.1,0-0.2-0.1-0.3-0.1c-5.7,0.8-11.9,1.3-18.6,1.3c-15.3,0-29.5-3.6-42.3-10.7
		c-10.8-6-20.5-14.6-28.9-25.4c-0.1-0.1-0.3-0.2-0.4-0.1c-1.4,0.3-2.9,0.7-4.3,1.1c-0.6,0.2-1.2,0.3-1.8,0.5
		c-0.2,0.1-0.3,0.3-0.3,0.5c0.1,0.4,0.3,0.8,0.6,1.2c9.2,12.1,19.9,21.6,31.9,28.2c13.8,7.7,29.1,11.6,45.6,11.6
		c10.5,0,19.8-1,27.9-3c0.4-0.1,0.4-0.6,0-0.8C235.7,358.3,233.8,357.5,231.9,356.6z"/>
	<g>
		<g>
			<path d="M392.9,300.6c-8.3-1.5-17-2.3-25.7-2.3c-10.7,0-20.7,0.6-29.7,1.8c-0.2,0-0.3,0.2-0.4,0.4c-0.3,2.1-0.7,4.2-1.1,6.2
				c-0.1,0.3,0.2,0.5,0.5,0.5c9.2-1.3,19.5-2,30.6-2c7.5,0,15,0.6,22.2,1.8c0.2,0,0.3,0,0.4-0.2c0.3-0.4,0.6-0.9,0.8-1.3
				c0.8-1.4,1.7-2.8,2.5-4.2C393.3,300.9,393.2,300.6,392.9,300.6z"/>
		</g>
	</g>
	<g>
		<defs>
			<path id="SVGID_1_" d="M256.9,273.4c-7.3-4.7-15.8-8.6-25.5-11.7c-12.9-4-27.9-6.5-44.4-7.2c-14.7-0.7-28.3-3.4-40.2-8.2
				c-9.5-3.8-18.1-8.8-25.4-15c-10-8.5-15.7-17.5-17.3-21l-6.7-15.2c-0.2-0.4-0.8-0.3-0.8,0.2l0.9,16.6c1.4,25.3,4.8,52.8,19.3,82.6
				c0.1,0.2,0.3,0.3,0.5,0.2c2.1-0.7,4.1-1.4,6.2-2c0-0.1-0.1-0.2-0.1-0.3c-11.6-23.5-16-45.6-18-66.4c0-0.4,0.5-0.6,0.7-0.3
				c2.7,3.3,6.1,6.9,10.4,10.5c7.9,6.7,17.1,12.2,27.3,16.3c12.7,5.1,27.1,8,42.7,8.8c27.2,1.2,49.7,7.1,65.6,17.2
				c0.2,0.1,0.4,0.1,0.5-0.1c0.7-0.8,1.4-1.6,2.2-2.5c0.6-0.7,1.3-1.3,2-2C257.2,273.9,257.2,273.6,256.9,273.4z"/>
		</defs>
		<use xlink:href="#SVGID_1_"  style="overflow:visible;"/>
		<clipPath id="SVGID_2_">
			<use xlink:href="#SVGID_1_"  style="overflow:visible;"/>
		</clipPath>
		<g class="st0">
			
				<image style="overflow:visible;" width="166" height="114" xlink:href="EE5E1E9782D98F4E.png"  transform="matrix(1 0 0 1 94 185)">
			</image>
		</g>
	</g>
	<g>
		<defs>
			<path id="SVGID_3_" d="M436,194.4l-7.1,15.9c0,0.1-4.8,10.5-17.3,21c-7.3,6.2-15.9,11.3-25.4,15c-11.9,4.7-25.5,7.5-40.2,8.2
				c-3.7,0.2-7.4,0.4-11,0.8c-0.3,0-0.4,0.3-0.4,0.5c0.5,2,0.9,3.9,1.3,5.9c0,0.2,0.2,0.3,0.4,0.3c3.2-0.3,6.5-0.5,9.9-0.7
				c15.6-0.7,30-3.7,42.7-8.8c10.2-4.1,19.4-9.6,27.3-16.3c4.1-3.5,7.4-6.9,10-10c0.3-0.3,0.8-0.1,0.7,0.3
				c-4.2,34.2-13.3,63.3-26.6,84.8c-18.3,29.5-44.2,44.5-77,44.5c-10.3,0-21.5-3.9-30.5-7.4c-0.3-0.1-0.3-0.6,0-0.8
				c7.2-3,13.9-8.2,19.4-15.1c6.6-8.4,14.4-23.4,14.4-47.1c0-33.5-12.7-52.3-26.2-72.1c-13.3-19.6-29.9-45.1-33.5-92.9
				c-0.3-0.2-0.5-0.4-0.6-0.4c-0.1,0-0.4,0.2-0.9,0.6c-3.6,47.7-19.8,73.2-33.1,92.7c-7,10.3-13.7,20.1-18.6,31.9
				c-0.1,0.2,0.1,0.5,0.3,0.6c2,0.4,4.1,0.7,6.1,1.1c0.2,0,0.4-0.1,0.5-0.2c4.6-10.7,10.9-19.9,17.4-29.6
				c7.6-11.2,15.5-22.8,21.6-37.9c2.6-6.6,4.8-13.4,6.4-20.6c0.1-0.4,0.7-0.4,0.8,0c1.6,7.2,3.7,14,6.4,20.6
				c6,15,13.9,26.6,21.6,37.9c6.6,9.7,12.8,18.9,17.5,29.6c5.2,12,7.6,24.3,7.6,38.6c0,21.8-7.1,35.3-13,42.9
				c-5.1,6.5-11.4,11.2-18.1,13.6c-0.1,0-0.2,0.1-0.2,0.2c-1.5,2.7-3.3,5.1-5.4,7.4c-0.4,0.5-0.9,0.9-1.3,1.4
				c-0.2,0.2-0.1,0.6,0.1,0.7c1.2,0.5,2.6,1,4,1.6c10.1,4.1,24,9.6,37.4,9.6c18.3,0,34.9-4.4,49.2-13.2c13-8,24.3-19.6,33.6-34.6
				c19.9-32.2,26.9-73.8,29.2-103l1.4-17.4C436.8,194.2,436.2,194,436,194.4z"/>
		</defs>
		<use xlink:href="#SVGID_3_"  style="overflow:visible;"/>
		<clipPath id="SVGID_4_">
			<use xlink:href="#SVGID_3_"  style="overflow:visible;"/>
		</clipPath>
		<g class="st1">
			
				<image style="overflow:visible;" width="229" height="247" xlink:href="EE5E1E9782D98F52.png"  transform="matrix(1 0 0 1 210 120)">
			</image>
		</g>
	</g>
	<g>
		<defs>
			<path id="SVGID_5_" d="M254.7,362.1c-0.1,0-0.3,0.1-0.3,0.2c-4.5,7.5-9.9,14.9-17.6,20.3c-10,7-23.5,10.4-41.3,10.4
				c-29.6,0-41.1-14.8-53.2-30.5c-6.3-8.2-12.8-16.6-22-23c-8.1-5.6-17.4-9-28.4-10.3c-0.4,0-0.5-0.5-0.2-0.7
				c3.3-2.5,7.9-5.5,13.5-8.5c8-4.3,16.6-7.7,25.5-10.2c11.2-3.1,23-4.6,35.1-4.6c10.3,0,20.7,1,30.8,3.1c0,0,0,0,0,0
				c0.2-0.2,0.2-0.2,0.5-0.5c-0.3-1.5-0.6-3.1-0.9-4.8c0,0,0,0,0-0.1c-0.1-0.5-0.2-1-0.2-1.5c-0.1-0.1-0.2-0.2-0.3-0.3
				c-9.8-1.8-19.8-2.8-29.8-2.8c-12.7,0-25.1,1.6-36.9,4.9c-9.4,2.6-18.5,6.2-26.9,10.7c-14.4,7.8-22,15.5-22.3,15.8l-4.9,5.1
				c-0.3,0.3-0.1,0.7,0.3,0.7l7.1,0c30.8,0.1,42.4,15.2,54.8,31.2c6.2,8,12.6,16.4,21.6,22.6c10.1,7.1,22.2,10.6,37,10.6
				c19.2,0,34-3.8,45.2-11.7c10.4-7.3,16.7-17.3,22.2-26.9c0-0.1,0.1-0.1,0.1-0.2C260.3,361.7,257.6,362,254.7,362.1z"/>
		</defs>
		<use xlink:href="#SVGID_5_"  style="overflow:visible;"/>
		<clipPath id="SVGID_6_">
			<use xlink:href="#SVGID_5_"  style="overflow:visible;"/>
		</clipPath>
		<g class="st2">
			
				<image style="overflow:visible;" width="212" height="108" xlink:href="EE5E1E9782D98F55.png"  transform="matrix(1 0 0 1 54 295)">
			</image>
		</g>
	</g>
	<g>
		<defs>
			<path id="SVGID_7_" d="M453.4,329.7c-0.4-0.5-10.9-11.1-30.7-19.9c-0.2-0.1-0.4,0-0.5,0.2c-0.9,1.8-1.9,3.6-2.8,5.3
				c-0.1,0.2,0,0.5,0.2,0.6c9.1,4,16.6,8.7,21.8,12.6c0.3,0.2,0.2,0.7-0.2,0.7c-11.1,1.3-20.6,4.7-28.8,10.4
				c-9.3,6.5-16,15-22.5,23.2c-6.2,7.9-12.1,15.4-20.1,21c-8.9,6.3-19.2,9.2-32.2,9.2c-17.1,0-31.5-3-42.7-8.8
				c-8-4.1-13.9-9.8-18.6-16.2c-0.7-1-1.4-1.9-2-2.6c-0.2-0.2-0.6-0.2-0.7,0.1l-0.4,0.8c-0.1,0.2-0.2,0.4-0.4,0.8
				c-0.8,1.3-1.6,2.7-2.4,4.1c-0.1,0.1-0.1,0.3,0,0.4c0.1,0.1,0.1,0.2,0.1,0.2c5,7.6,12.1,13.9,21.2,18.5
				c12.2,6.3,27.7,9.6,45.9,9.6c31.9,0,45-16.7,57.7-32.8c12.7-16.2,24.7-31.5,55.7-31.5l7.1,0c0.4,0,0.5-0.4,0.3-0.7L453.4,329.7z"
				/>
		</defs>
		<use xlink:href="#SVGID_7_"  style="overflow:visible;"/>
		<clipPath id="SVGID_8_">
			<use xlink:href="#SVGID_7_"  style="overflow:visible;"/>
		</clipPath>
		<g class="st3">
			
				<image style="overflow:visible;" width="220" height="101" xlink:href="EE5E1E9782D98F56.png"  transform="matrix(1 0 0 1 263 303)">
			</image>
		</g>
	</g>
	<g>
		<defs>
			<path id="SVGID_9_" d="M276.6,296.5c-1.3,1.3-2.4,2.7-3.4,4.1c-0.1,0.1-0.1,0.3,0,0.4c2.3,4.9,3.5,10.1,3.5,15.1
				c0,8.9-2.4,16.2-6.8,21c-4,4.3-9.4,6.6-15.8,6.6c-4.5,0-9.3-1.2-13.8-3.5c-4.9-2.5-9.4-6.1-13.2-10.8
				c-6.3-7.6-13.9-21.4-13.9-43.9c0-2.9,0.1-5.8,0.3-8.5c0-0.2,0-0.5,0-0.7c0-0.2-0.2-0.3-0.3-0.4c-1.9-0.4-3.7-0.7-5.7-1
				c-0.2,0-0.4,0.1-0.4,0.2c-0.2,0.4-0.3,0.8-0.4,1.3c-0.2,2.9-0.3,6-0.3,9.1c0,24.6,8.4,39.9,15.5,48.3c4.5,5.4,9.6,9.6,15.4,12.5
				c5.5,2.8,11.3,4.3,16.9,4.3c8.2,0,15.6-3.1,20.8-8.8c5.7-6.2,8.7-15,8.7-25.7c0-6.9-1.8-13.9-5.3-20.5c-0.1-0.2-0.5-0.3-0.7-0.1
				C277.2,295.9,276.9,296.2,276.6,296.5z"/>
		</defs>
		<use xlink:href="#SVGID_9_"  style="overflow:visible;"/>
		<clipPath id="SVGID_10_">
			<use xlink:href="#SVGID_9_"  style="overflow:visible;"/>
		</clipPath>
		<g class="st4">
			
				<image style="overflow:visible;" width="83" height="87" xlink:href="EE5E1E9782D98F54.png"  transform="matrix(1 0 0 1 203 267)">
			</image>
		</g>
	</g>
</g>
</svg>
