<?xml version="1.0" encoding="utf-8"?>
<!-- Generator: Adobe Illustrator 25.4.1, SVG Export Plug-In . SVG Version: 6.00 Build 0)  -->
<svg version="1.1" id="Layer_1" xmlns="http://www.w3.org/2000/svg" xmlns:xlink="http://www.w3.org/1999/xlink" x="0px" y="0px"
	 viewBox="0 0 536.1 536.1" style="enable-background:new 0 0 536.1 536.1;" xml:space="preserve">
<g>
	<path d="M91.1,263.5c-2.6-1.9-4.1-4.8-4.7-9c-0.6-4.1,0.1-7.4,2-9.9c2.3-3.3,6.1-5.3,11.3-6.1c5.3-0.8,9.5,0.1,12.5,2.7
		c2.6,1.9,4.1,4.8,4.7,9c0.6,4.1-0.1,7.4-2,9.9c-2.2,3.3-6,5.3-11.3,6.1C98.4,266.9,94.3,266,91.1,263.5z M94.9,259.1
		c2,1.1,4.6,1.5,7.8,1c3.2-0.5,5.6-1.5,7.2-3.2c1.6-1.7,2.2-3.7,1.8-6.1c-0.3-2.4-1.5-4.2-3.5-5.3c-2-1.2-4.6-1.5-7.8-1.1
		c-3.2,0.5-5.6,1.5-7.2,3.2c-1.6,1.7-2.2,3.7-1.8,6.1C91.8,256.1,93,257.9,94.9,259.1z"/>
	<path d="M123.1,280.4l2.5,5.6l-16.3,7.3c-1.8,0.8-3.1,1.6-3.7,2.4c-1.2,1.3-1.3,3.1-0.3,5.4c1,2.2,2.4,3.4,4.2,3.4
		c1,0.1,2.5-0.3,4.3-1.1l16.3-7.3l2.5,5.6l-16.3,7.3c-2.8,1.3-5.2,1.8-7.2,1.6c-3.6-0.3-6.5-2.8-8.5-7.4c-2.1-4.6-2-8.4,0.1-11.3
		c1.2-1.6,3.2-3,6-4.3L123.1,280.4z"/>
	<path d="M153.7,332.2c0.3,1.1,0.4,2.3,0.2,3.4c-0.2,0.9-0.5,1.8-1,2.7c-0.5,0.8-1.1,1.6-2,2.4c-1.1,0.9-2.3,1.5-3.8,1.8
		c-1.5,0.3-2.9,0-4.4-0.9c0.4,1.4,0.5,2.6,0,3.7c-0.4,1.1-1.4,2.2-3,3.5l-1.5,1.2c-1,0.8-1.7,1.5-2,1.8c-0.5,0.6-0.7,1.2-0.6,1.9
		l-0.6,0.5l-4.3-5.2c0.4-0.6,0.7-1,1-1.3c0.5-0.6,1.1-1.2,1.8-1.8l2.1-1.8c1.4-1.2,2.2-2.2,2.3-3.1c0.1-0.9-0.4-2-1.5-3.3l-3.8-4.6
		l-8.8,7.3L120,336l22.5-18.5l8.9,10.8C152.6,329.8,153.4,331.1,153.7,332.2z M142.4,325.3l-6,5l4.2,5.1c0.8,1,1.6,1.7,2.2,2
		c1.2,0.5,2.4,0.3,3.6-0.8c1.4-1.1,1.9-2.3,1.7-3.5c-0.1-0.7-0.6-1.5-1.4-2.5L142.4,325.3z"/>
	<path d="M187,382.4c-0.4,1.3-0.5,2.3-0.3,3.2c0.4,1.5,1.7,2.8,3.9,3.9c1.3,0.6,2.5,1,3.4,1.1c1.8,0.2,3.1-0.4,3.8-1.9
		c0.4-0.9,0.4-1.7-0.2-2.6c-0.5-0.8-1.5-1.8-3-3l-2.5-2c-2.5-2-4.1-3.6-4.8-4.8c-1.2-2.1-1.1-4.4,0.1-7c1.1-2.3,3-3.9,5.4-4.6
		s5.4-0.2,8.7,1.4c2.8,1.4,4.8,3.3,6.1,5.7c1.3,2.4,1.3,5,0,7.9l-5.3-2.6c0.7-1.6,0.5-3.1-0.5-4.4c-0.7-0.9-1.6-1.6-2.9-2.3
		c-1.4-0.7-2.7-1-3.9-0.8c-1.1,0.1-2,0.7-2.5,1.7c-0.5,0.9-0.4,1.8,0.3,2.7c0.4,0.6,1.4,1.5,2.9,2.8l4.1,3.3c1.8,1.5,3,2.8,3.6,4.1
		c1,2,0.9,4.2-0.3,6.5c-1.2,2.4-3.1,3.9-5.7,4.6c-2.6,0.7-5.6,0.2-9-1.5c-3.4-1.7-5.8-3.8-7-6.3c-1.2-2.5-1.2-5.1,0.2-7.9L187,382.4
		z"/>
	<path d="M248.7,386.8l-15.1-3l-1.2,6.1l13.9,2.8l-1,5l-13.9-2.8l-1.5,7.3l15.8,3.1l-1,5.1l-21.6-4.3l5.7-28.6l20.9,4.2L248.7,386.8
		z"/>
	<path d="M286.3,382.6c1.1,0.4,2,1,2.8,1.9c0.7,0.7,1.2,1.5,1.6,2.4c0.4,0.9,0.7,1.9,0.7,3c0.1,1.4-0.2,2.8-0.8,4.1
		c-0.6,1.4-1.7,2.4-3.3,3c1.4,0.5,2.4,1.2,3,2.1c0.6,1,1,2.5,1.1,4.5l0.1,2c0.1,1.3,0.2,2.2,0.3,2.7c0.2,0.7,0.6,1.3,1.2,1.6l0,0.7
		l-6.7,0.4c-0.2-0.6-0.4-1.1-0.5-1.5c-0.2-0.8-0.3-1.6-0.4-2.5l-0.2-2.7c-0.1-1.9-0.5-3.1-1.2-3.6c-0.7-0.6-1.8-0.8-3.5-0.7
		l-5.9,0.4l0.7,11.4l-5.9,0.4l-1.8-29.1l13.9-0.9C283.6,382,285.2,382.2,286.3,382.6z M274,387.7l0.5,7.8l6.5-0.4
		c1.3-0.1,2.3-0.3,2.9-0.7c1.1-0.6,1.6-1.8,1.5-3.4c-0.1-1.8-0.7-2.9-1.9-3.4c-0.6-0.3-1.6-0.4-2.8-0.3L274,387.7z"/>
	<path d="M324.2,372.7l6-2l-0.2,30.8l-5.5,1.8L306,378.7l6.2-2.1l13,19L324.2,372.7z"/>
	<path d="M364.8,384.9l-5.2,3.1l-14.8-25.1l5.2-3.1L364.8,384.9z"/>
	<path d="M370,349.5c0.1-3.4,1.5-6.3,4.1-8.7c3.6-3.3,7.2-4.5,11.1-3.7c2.1,0.5,3.9,1.4,5.2,2.6l-4.5,4.1c-1.2-0.8-2.3-1.2-3.2-1.3
		c-1.7-0.2-3.3,0.4-4.8,1.9c-1.6,1.5-2.2,3.3-1.9,5.4c0.3,2.2,1.6,4.4,3.8,6.8c2.2,2.4,4.4,3.7,6.4,4c2.1,0.3,3.9-0.2,5.4-1.6
		c1.5-1.4,2.2-3,2.1-4.8c-0.1-1-0.5-2.1-1.2-3.5l4.4-4.1c1.8,2.7,2.6,5.5,2.3,8.4c-0.2,2.9-1.6,5.5-4,7.8c-3,2.8-6.3,4-9.9,3.7
		c-3.6-0.4-7-2.3-10.2-5.7C371.5,357.2,369.9,353.4,370,349.5z"/>
	<path d="M410.4,303.7l-8.2,13l5.2,3.3l7.6-12l4.3,2.7l-7.6,12l6.3,4l8.6-13.6l4.4,2.8l-11.8,18.7L394.6,319L406,301L410.4,303.7z"
		/>
	<path d="M434,286.5c1.3,0.2,2.4,0.2,3.2-0.2c1.4-0.6,2.5-2.1,3.3-4.4c0.4-1.4,0.6-2.6,0.6-3.5c-0.1-1.8-0.9-3-2.4-3.5
		c-0.9-0.3-1.8-0.1-2.5,0.5c-0.7,0.7-1.6,1.8-2.5,3.4l-1.6,2.8c-1.6,2.7-2.9,4.6-4.1,5.4c-1.9,1.5-4.2,1.8-6.9,0.9
		c-2.5-0.8-4.3-2.4-5.3-4.7c-1.1-2.4-1-5.3,0.1-8.8c0.9-3,2.5-5.2,4.7-6.8c2.2-1.6,4.8-2,7.8-1.2l-1.8,5.6c-1.7-0.4-3.1-0.1-4.3,1.1
		c-0.8,0.8-1.4,1.9-1.8,3.2c-0.5,1.5-0.6,2.9-0.3,4c0.3,1.1,1,1.8,2.1,2.2c1,0.3,1.9,0.1,2.6-0.6c0.5-0.5,1.3-1.6,2.3-3.3l2.7-4.5
		c1.2-2,2.4-3.4,3.5-4.2c1.8-1.2,4-1.5,6.5-0.7c2.5,0.8,4.3,2.4,5.4,4.9c1.1,2.5,1,5.5-0.1,9.1c-1.2,3.7-2.9,6.3-5.2,7.8
		c-2.3,1.6-4.9,1.9-7.8,1L434,286.5z"/>
</g>
<g>
	<path d="M243.9,488.3C125.3,476.9,29.4,379.7,23.1,257.1C16.3,122.4,120.3,7.1,255.1,0.3c65.3-3.3,128,19,176.5,62.8
		c48.5,43.8,77.1,103.9,80.4,169.2c3.3,65.3-19,128-62.8,176.5c-43.8,48.5-103.9,77.1-169.2,80.4
		C267.8,489.7,255.8,489.4,243.9,488.3z M290.2,14c-11.4-1.1-22.9-1.4-34.5-0.8C128.1,19.8,29.6,128.9,36.1,256.5
		c5.9,116,96.7,208,209.1,218.8c11.2,1.1,22.6,1.3,34.1,0.8c61.8-3.2,118.7-30.2,160.2-76.1c41.5-45.9,62.6-105.3,59.4-167.1
		c-3.2-61.8-30.2-118.7-76.1-160.2C385.5,39,339.3,18.8,290.2,14z"/>
</g>
<g>
	
		<ellipse transform="matrix(9.575537e-02 -0.9954 0.9954 9.575537e-02 113.9097 505.7487)" cx="335.3" cy="190.2" rx="74" ry="23.4"/>
</g>
<g>
	
		<ellipse transform="matrix(9.575537e-02 -0.9954 0.9954 9.575537e-02 13.6905 371.5771)" cx="211.4" cy="178.3" rx="74" ry="23.4"/>
</g>
<g>
	<path d="M282.1,502l2.2,7.1l0.5,2l0.2-2l0.9-7.3l2.8-0.2l2,7.1l0.5,2l0.3-2l1.2-7.4l2.7-0.2l-2.7,12.8l-2.5,0.2l-2-7.2l-0.6-2.4
		l-0.3,2.5l-1,7.5l-2.4,0.2l-4.4-12.3L282.1,502z"/>
	<path d="M307.5,512.2l-2.6,0.4l-1.7-12.5l2.6-0.4L307.5,512.2z"/>
	<path d="M323.7,496.6l0.4,2.2l-3.7,0.7l2,10.2l-2.6,0.5l-2-10.2l-3.7,0.7l-0.4-2.2L323.7,496.6z"/>
	<path d="M334.7,507l-3.2-12.2l2.5-0.7l1.2,4.6l4.7-1.3l-1.2-4.6l2.5-0.7l3.2,12.2L342,505l-1.5-5.4l-4.7,1.3l1.5,5.4L334.7,507z"/>
	<path d="M364.1,484.4l2.8-1.1l8.8,10.1l-2.7,1.1l-1.7-2.1l-4.3,1.7l0.2,2.7l-2.6,1L364.1,484.4z M366.8,491.8l3-1.2l-3.3-4
		L366.8,491.8z"/>
	<path d="M394.5,480.2c0.3,0.5,0.7,0.8,1,0.9c0.6,0.3,1.4,0.1,2.3-0.4c0.6-0.3,1-0.6,1.3-0.9c0.5-0.6,0.6-1.2,0.3-1.8
		c-0.2-0.4-0.5-0.6-0.9-0.6c-0.4,0-1,0.1-1.8,0.3l-1.3,0.4c-1.3,0.4-2.3,0.5-2.9,0.4c-1-0.1-1.8-0.7-2.4-1.8c-0.5-1-0.6-2-0.2-3.1
		s1.3-2,2.7-2.7c1.2-0.6,2.4-0.9,3.5-0.7c1.2,0.2,2.1,0.8,2.8,2l-2.2,1.2c-0.4-0.6-1-1-1.7-0.9c-0.5,0-1,0.2-1.5,0.5
		c-0.6,0.3-1,0.7-1.3,1.1c-0.2,0.4-0.2,0.9,0,1.3c0.2,0.4,0.6,0.6,1,0.6c0.3,0,0.9-0.1,1.7-0.3l2.2-0.6c1-0.3,1.7-0.3,2.4-0.2
		c0.9,0.2,1.7,0.7,2.2,1.7c0.5,1,0.6,2.1,0.2,3.2s-1.4,2-2.8,2.8c-1.5,0.8-2.8,1.1-4,0.9c-1.2-0.2-2.1-0.9-2.7-2.1L394.5,480.2z"/>
	<path d="M411.7,460.1l3.2-2l6.7,10.7l-2.1,1.3l-4.6-7.2c-0.1-0.2-0.3-0.5-0.5-0.9c-0.2-0.4-0.4-0.7-0.5-0.9l3.6,10.2l-2.2,1.4
		l-7.7-7.7c0.1,0.2,0.3,0.5,0.6,0.9c0.2,0.4,0.4,0.7,0.6,0.9l4.6,7.2l-2.1,1.3l-6.7-10.7l3.2-2l7.2,7.2L411.7,460.1z"/>
	<path d="M431.7,461.7l-2.1,1.5l-7.4-10.2l2.1-1.5L431.7,461.7z"/>
	<path d="M431.6,446l2-1.7l6.5,8l4.9-4l1.4,1.8l-6.9,5.6L431.6,446z"/>
	<path d="M453,430.4l-4.9,4.5l1.8,2l4.5-4.2l1.5,1.6l-4.5,4.2l2.2,2.4l5.1-4.7l1.5,1.7l-7,6.5l-8.6-9.3l6.8-6.3L453,430.4z"/>
	<path d="M457.9,422.4l1.9-1.9l2.3,2.2l3.8,4.6l-0.9,0.9l-4.7-3.6L457.9,422.4z M465.2,429.3l1.8-1.8l1.8,1.7l-1.8,1.8L465.2,429.3z
		"/>
</g>
</svg>
