<?xml version="1.0" encoding="utf-8"?>
<!-- Generator: Adobe Illustrator 24.1.0, SVG Export Plug-In . SVG Version: 6.00 Build 0)  -->
<svg version="1.1" id="Layer_1" xmlns="http://www.w3.org/2000/svg" xmlns:xlink="http://www.w3.org/1999/xlink" x="0px" y="0px"
	 viewBox="0 0 541.1 541.1" style="enable-background:new 0 0 541.1 541.1;" xml:space="preserve">
<style type="text/css">
	.st0{fill:#FFFFFF;}
</style>
<g>
	<path class="st0" d="M291.2,32.7l-0.5,7.1c-0.1,1.1-0.4,1.9-0.9,2.5c-0.5,0.5-1.2,0.8-2.1,0.7c-0.8-0.1-1.4-0.4-1.9-1
		c-0.5-0.6-0.6-1.5-0.6-2.6l0.6-8.5c0.1-1.3,0.1-2.4,0.1-3.1c0-0.7-0.2-1.4-0.6-1.9s-1-0.8-1.9-0.9c-1.7-0.1-2.9,0.4-3.6,1.5
		c-0.6,1.2-1,2.8-1.2,5.1l-0.5,7.2c-0.1,1.1-0.4,1.9-0.9,2.4s-1.2,0.8-2,0.7c-0.8-0.1-1.4-0.4-1.9-1c-0.5-0.6-0.7-1.5-0.6-2.6
		l1.1-15.2c0.1-1,0.4-1.7,0.9-2.2c0.5-0.5,1.1-0.7,1.9-0.6c0.7,0.1,1.3,0.3,1.8,0.9c0.5,0.5,0.6,1.2,0.6,2.1l0,0.5
		c1-1,2.1-1.8,3.1-2.2c1.1-0.4,2.3-0.6,3.6-0.5c1.3,0.1,2.5,0.5,3.4,1.1c0.9,0.6,1.7,1.5,2.2,2.6c1-1,2-1.8,3.1-2.2
		c1.1-0.5,2.2-0.6,3.5-0.5c1.5,0.1,2.7,0.5,3.7,1.1c1,0.6,1.7,1.5,2.2,2.6c0.4,1,0.5,2.5,0.3,4.6l-0.8,10.4
		c-0.1,1.1-0.4,1.9-0.9,2.5s-1.2,0.8-2.1,0.7c-0.8-0.1-1.4-0.4-1.9-1c-0.5-0.6-0.7-1.5-0.6-2.6l0.7-8.9c0.1-1.1,0.1-2.1,0.1-2.8
		c0-0.7-0.3-1.3-0.7-1.8c-0.4-0.5-1-0.8-1.9-0.8c-0.7-0.1-1.4,0.1-2,0.5c-0.7,0.4-1.2,0.9-1.6,1.6C291.7,28.9,291.4,30.5,291.2,32.7
		z"/>
	<path class="st0" d="M336.7,40.5c-0.4,1.5-1,2.9-1.7,4.1c-0.8,1.2-1.8,2.1-2.9,2.9c-1.1,0.7-2.4,1.2-3.8,1.4
		c-1.4,0.2-2.9,0.1-4.5-0.3c-1.6-0.4-2.9-1-4.1-1.8c-1.1-0.8-2-1.8-2.7-3s-1.1-2.4-1.3-3.8c-0.2-1.4-0.1-2.9,0.3-4.4
		c0.4-1.6,1-2.9,1.8-4.1c0.8-1.2,1.8-2.1,2.9-2.8c1.1-0.7,2.4-1.2,3.8-1.4c1.4-0.2,2.9-0.1,4.4,0.3c1.6,0.4,2.9,1,4.1,1.8
		c1.2,0.8,2.1,1.8,2.8,3s1.1,2.4,1.3,3.8S337.1,39,336.7,40.5z M331.5,39.3c0.5-2.1,0.4-3.9-0.2-5.3c-0.6-1.4-1.8-2.3-3.3-2.7
		c-1-0.2-2-0.2-2.9,0.1c-0.9,0.3-1.7,1-2.3,1.9s-1.2,2.1-1.5,3.4c-0.3,1.4-0.4,2.6-0.2,3.7c0.2,1.1,0.6,2,1.2,2.7
		c0.6,0.7,1.5,1.2,2.5,1.5c1.6,0.4,3,0.1,4.2-0.9C330.2,42.9,331,41.4,331.5,39.3z"/>
	<path class="st0" d="M346.1,51.7l7.8-21.8c0.4-1,0.9-1.7,1.5-2c0.6-0.4,1.3-0.4,2.1-0.1c0.8,0.3,1.3,0.7,1.6,1.4
		c0.3,0.7,0.2,1.5-0.1,2.5l-7.8,21.8c-0.4,1-0.9,1.7-1.5,2c-0.7,0.3-1.4,0.4-2.1,0.1c-0.7-0.3-1.2-0.7-1.5-1.4
		C345.7,53.5,345.7,52.7,346.1,51.7z"/>
	<path class="st0" d="M363.3,58.4l9.5-21.1c0.4-1,1-1.6,1.6-1.9c0.7-0.3,1.4-0.3,2.1,0c0.7,0.3,1.2,0.8,1.4,1.5
		c0.2,0.7,0.1,1.5-0.3,2.5l-9.5,21.1c-0.4,1-1,1.6-1.7,1.9c-0.7,0.3-1.4,0.3-2.1-0.1c-0.7-0.3-1.2-0.8-1.4-1.5
		C362.7,60.2,362.8,59.3,363.3,58.4z"/>
	<path class="st0" d="M381.9,72l1-0.8l2.6-17.6c0.1-1,0.3-1.7,0.5-2.1c0.2-0.4,0.5-0.7,0.9-0.9s0.8-0.3,1.3-0.3
		c0.5,0,0.9,0.1,1.3,0.3c0.7,0.4,1,0.9,1.1,1.5c0.1,0.6,0,1.4-0.2,2.3l-2.7,13.6l9.8-8.4c0.8-0.7,1.4-1.2,2-1.5s1-0.5,1.3-0.5
		c0.4,0,0.8,0.1,1.3,0.4c0.3,0.2,0.6,0.5,0.8,0.9s0.3,0.8,0.3,1.2s-0.1,0.8-0.3,1.1c-0.2,0.2-0.4,0.4-0.7,0.8s-0.7,0.7-1.1,1
		l-15.2,12.2c-1.3,1.1-2.5,1.9-3.4,2.4c-1,0.5-2,0.7-3,0.7s-2.3-0.5-3.7-1.3c-1.4-0.8-2.3-1.5-2.8-2.2c-0.5-0.7-0.5-1.4-0.1-2.2
		c0.3-0.5,0.7-0.8,1.2-0.9c0.5-0.1,1,0,1.7,0.4c0.2,0.1,0.5,0.3,0.7,0.5c0.3,0.2,0.5,0.4,0.7,0.5c0.5,0.3,1,0.5,1.4,0.5
		c0.4,0,0.8-0.1,1.3-0.3C380.6,73,381.2,72.6,381.9,72z"/>
	<path class="st0" d="M437.1,99.6l-4.9,5.1c-0.8,0.8-1.5,1.2-2.3,1.3c-0.8,0.1-1.4-0.2-2-0.8c-0.6-0.6-0.9-1.2-0.8-2
		c0-0.8,0.4-1.5,1.2-2.3l5.9-6.2c0.9-1,1.6-1.8,2.1-2.4c0.4-0.6,0.7-1.2,0.7-1.8c0-0.6-0.3-1.2-0.9-1.8c-1.3-1.2-2.5-1.6-3.7-1.1
		c-1.2,0.5-2.6,1.5-4.2,3.2l-5,5.2c-0.8,0.8-1.5,1.2-2.3,1.3c-0.8,0.1-1.4-0.2-2-0.8c-0.6-0.6-0.9-1.2-0.8-2c0-0.8,0.4-1.5,1.2-2.3
		l10.5-11c0.7-0.7,1.4-1.1,2.1-1.2c0.7-0.1,1.3,0.2,1.9,0.7c0.5,0.5,0.8,1.1,0.8,1.8c0,0.7-0.3,1.3-0.9,2l-0.4,0.4
		c1.4-0.2,2.7-0.1,3.8,0.3c1.1,0.4,2.2,1,3.1,1.9c1,0.9,1.6,1.9,2,3c0.3,1.1,0.3,2.2,0.1,3.4c1.4-0.2,2.7-0.1,3.8,0.2
		c1.1,0.3,2.1,0.9,3,1.8c1.1,1,1.8,2.1,2.1,3.2c0.4,1.1,0.4,2.3,0,3.4c-0.3,1-1.2,2.3-2.6,3.8l-7.2,7.5c-0.8,0.8-1.5,1.2-2.3,1.3
		s-1.4-0.2-2-0.8c-0.6-0.6-0.9-1.2-0.8-2c0-0.8,0.4-1.5,1.2-2.3l6.2-6.5c0.8-0.8,1.4-1.5,1.8-2.1s0.6-1.2,0.6-1.8
		c0-0.6-0.3-1.3-0.9-1.9c-0.5-0.5-1.1-0.8-1.9-0.9c-0.7-0.1-1.5-0.1-2.2,0.2C439.9,96.9,438.7,98,437.1,99.6z"/>
	<path class="st0" d="M463.5,136.2c-0.5,0.4-1.2,0.7-2.1,0.8c-0.8,0.1-1.8,0.1-2.8-0.1s-2.1-0.7-3.2-1.4s-2.1-1.7-3-2.9
		c-2-2.6-2.8-5.2-2.4-7.9s1.9-4.9,4.5-6.9c1.7-1.3,3.5-2.2,5.4-2.5c1.8-0.3,3.6-0.2,5.3,0.6c1.7,0.7,3.2,2,4.6,3.7
		c0.8,1.1,1.4,2.2,1.8,3.4c0.4,1.2,0.6,2.3,0.5,3.3c0,1-0.2,1.9-0.5,2.7c-0.3,0.8-0.7,1.4-1.2,1.7c-0.5,0.4-1.1,0.5-1.7,0.4
		c-0.6-0.1-1.2-0.4-1.6-1c-0.3-0.4-0.4-0.7-0.4-1.1c0-0.4,0.1-0.9,0.3-1.5c0.4-1.1,0.6-2.1,0.5-3s-0.4-1.7-1-2.6
		c-1-1.3-2.2-1.9-3.8-1.9c-1.6,0-3.2,0.6-4.9,1.9c-0.8,0.6-1.5,1.3-2,2c-0.5,0.7-0.9,1.4-1.1,2.2c-0.2,0.7-0.2,1.5,0,2.2
		c0.2,0.7,0.5,1.4,1,2c0.6,0.8,1.4,1.4,2.3,1.7s1.9,0.4,3,0.2c0.7-0.1,1.3-0.1,1.8,0c0.5,0.1,0.9,0.4,1.2,0.8
		c0.4,0.5,0.5,1.1,0.4,1.7C464.2,135.4,463.9,135.9,463.5,136.2z"/>
	<path class="st0" d="M482.3,160.3l-6.2,3.4c-1,0.5-1.8,0.7-2.6,0.5c-0.7-0.2-1.3-0.6-1.7-1.4c-0.4-0.7-0.4-1.4-0.2-2.1
		s0.9-1.3,1.9-1.9l7.5-4c1.2-0.6,2.1-1.2,2.7-1.6c0.6-0.4,1-0.9,1.3-1.5c0.2-0.6,0.1-1.3-0.3-2c-0.8-1.5-1.9-2.3-3.2-2.2
		c-1.3,0.1-3,0.6-4.9,1.7l-6.4,3.4c-1,0.5-1.8,0.7-2.6,0.5c-0.7-0.2-1.3-0.6-1.7-1.3c-0.4-0.7-0.4-1.4-0.2-2.1
		c0.3-0.7,0.9-1.3,1.8-1.9l13.4-7.2c0.9-0.5,1.7-0.6,2.3-0.5c0.7,0.2,1.2,0.6,1.6,1.2c0.3,0.6,0.4,1.3,0.2,2s-0.7,1.2-1.4,1.6
		l-0.4,0.2c1.4,0.3,2.6,0.8,3.6,1.5c1,0.7,1.7,1.6,2.4,2.7c0.6,1.2,0.9,2.3,0.9,3.4c0,1.1-0.4,2.2-1,3.2c1.4,0.3,2.6,0.7,3.5,1.4
		c1,0.7,1.7,1.5,2.3,2.6c0.7,1.3,1,2.5,1,3.7s-0.4,2.3-1.1,3.2c-0.6,0.9-1.9,1.8-3.7,2.8l-9.2,4.9c-1,0.5-1.8,0.7-2.6,0.5
		c-0.7-0.2-1.3-0.6-1.7-1.4c-0.4-0.7-0.4-1.4-0.2-2.1c0.3-0.7,0.9-1.3,1.8-1.9l7.9-4.2c1-0.5,1.8-1,2.4-1.4c0.6-0.4,0.9-0.9,1.2-1.5
		c0.2-0.6,0.1-1.3-0.3-2.1c-0.3-0.6-0.8-1.1-1.5-1.5c-0.7-0.4-1.4-0.5-2.2-0.5C485.8,158.7,484.3,159.2,482.3,160.3z"/>
	<path class="st0" d="M502.6,186.2l-14.4,5.4c-1,0.4-1.8,0.4-2.5,0.1s-1.2-0.8-1.4-1.5c-0.3-0.7-0.2-1.4,0.1-2.1
		c0.4-0.7,1-1.2,2-1.5l14.3-5.4c1-0.4,1.8-0.4,2.5-0.2c0.7,0.3,1.1,0.8,1.4,1.5c0.3,0.7,0.3,1.4-0.1,2.1
		C504.1,185.3,503.5,185.8,502.6,186.2z M506.9,181.8c-0.3-0.7-0.3-1.4,0-2c0.2-0.7,0.8-1.1,1.5-1.4c0.7-0.3,1.4-0.2,2,0.1
		c0.6,0.3,1.1,0.8,1.3,1.5c0.2,0.6,0.3,1.3,0,2c-0.2,0.7-0.7,1.1-1.5,1.4c-0.8,0.3-1.5,0.3-2.1-0.1
		C507.6,182.9,507.1,182.4,506.9,181.8z"/>
	<path class="st0" d="M492.3,204l22.2-6.4c1-0.3,1.9-0.3,2.5,0c0.7,0.3,1.1,0.8,1.3,1.6c0.2,0.8,0.1,1.5-0.2,2.1
		c-0.4,0.6-1.1,1.1-2.1,1.4l-22.2,6.4c-1,0.3-1.9,0.3-2.5-0.1c-0.7-0.3-1.1-0.9-1.3-1.6c-0.2-0.8-0.1-1.4,0.3-2.1
		C490.6,204.8,491.3,204.3,492.3,204z"/>
	<path class="st0" d="M496.9,221.9l22.7-4.6c1-0.2,1.9-0.1,2.5,0.2c0.6,0.4,1,0.9,1.2,1.7c0.2,0.8,0,1.5-0.4,2.1
		c-0.4,0.6-1.2,1-2.2,1.2l-22.7,4.6c-1.1,0.2-1.9,0.1-2.5-0.3c-0.6-0.4-1-1-1.2-1.7c-0.2-0.8,0-1.4,0.4-2
		C495.1,222.5,495.9,222.1,496.9,221.9z"/>
	<path class="st0" d="M516,243.5l-15.3,1.8c-1.1,0.1-1.9,0-2.5-0.5s-1-1-1-1.8c-0.1-0.8,0.1-1.4,0.6-2c0.5-0.6,1.3-0.9,2.3-1
		l15.1-1.8c1-0.1,1.9,0,2.5,0.4c0.6,0.4,0.9,1,1,1.8c0.1,0.8-0.1,1.4-0.6,2S516.9,243.4,516,243.5z M521.1,240.2
		c-0.1-0.7,0.1-1.4,0.5-2c0.4-0.6,1-0.9,1.8-1c0.8-0.1,1.4,0.1,1.9,0.6c0.5,0.5,0.9,1.1,1,1.8c0.1,0.7-0.1,1.3-0.4,1.9s-1,0.9-1.8,1
		c-0.8,0.1-1.5-0.1-2-0.5C521.5,241.5,521.2,240.9,521.1,240.2z"/>
	<path class="st0" d="M517.4,262.9l-0.6,0c1.3,0.9,2.2,1.9,2.8,3c0.6,1.1,0.9,2.4,0.9,3.8c0,1.4-0.3,2.7-0.9,3.8
		c-0.6,1.1-1.4,2-2.6,2.5c-0.6,0.4-1.3,0.6-2.1,0.7c-0.8,0.1-1.7,0.2-2.9,0.2l-9.9,0.2c-1.1,0-1.9-0.2-2.4-0.7s-0.8-1.1-0.9-1.9
		c0-0.8,0.3-1.4,0.8-1.9s1.3-0.8,2.4-0.8l8.9-0.1c1.8,0,3.1-0.3,4-0.8s1.4-1.5,1.3-2.9c0-1-0.3-1.8-0.9-2.6
		c-0.6-0.8-1.4-1.3-2.4-1.7c-0.8-0.2-2.3-0.4-4.5-0.3l-6.7,0.1c-1.1,0-1.9-0.2-2.4-0.7c-0.5-0.5-0.8-1.1-0.8-1.9
		c0-0.8,0.3-1.4,0.8-1.9c0.6-0.5,1.3-0.8,2.4-0.8l15.4-0.2c1,0,1.8,0.2,2.3,0.6c0.5,0.4,0.8,1,0.8,1.8c0,0.5-0.1,0.9-0.3,1.3
		c-0.2,0.4-0.5,0.7-1,0.9C518.6,262.8,518.1,262.9,517.4,262.9z"/>
	<path class="st0" d="M503.7,339c-1.5-0.4-2.7-1.3-3.5-2.7c-0.8-1.4-1-2.9-0.6-4.4c0.4-1.5,1.3-2.7,2.7-3.5s2.8-1,4.4-0.6
		c1.5,0.4,2.7,1.3,3.5,2.7c0.8,1.4,1,2.8,0.6,4.4c-0.3,1-0.8,1.9-1.5,2.6c-0.7,0.7-1.6,1.2-2.6,1.5
		C505.7,339.2,504.7,339.2,503.7,339z"/>
	<path class="st0" d="M468.5,382.9l0.8,1l17.6,2.7c1,0.1,1.7,0.3,2.1,0.5c0.4,0.2,0.7,0.5,0.9,0.9c0.2,0.4,0.3,0.8,0.3,1.3
		c0,0.5-0.1,0.9-0.3,1.3c-0.4,0.7-0.9,1-1.5,1.1c-0.6,0.1-1.4,0-2.3-0.2l-13.6-2.8l8.4,9.9c0.7,0.8,1.2,1.4,1.5,2
		c0.3,0.5,0.5,1,0.5,1.3c0,0.4-0.1,0.8-0.4,1.3c-0.2,0.3-0.5,0.6-0.9,0.8s-0.8,0.3-1.2,0.3c-0.4,0-0.8-0.1-1.1-0.3
		c-0.2-0.2-0.4-0.4-0.8-0.8s-0.7-0.7-1-1.1l-12.2-15.2c-1.1-1.3-1.9-2.5-2.4-3.4c-0.5-1-0.7-2-0.7-3s0.5-2.3,1.3-3.7
		c0.8-1.3,1.5-2.3,2.2-2.8s1.4-0.5,2.2-0.1c0.5,0.3,0.8,0.7,0.9,1.2c0.1,0.5,0,1-0.4,1.7c-0.1,0.2-0.3,0.5-0.5,0.7
		c-0.2,0.3-0.4,0.5-0.5,0.7c-0.3,0.5-0.5,1-0.5,1.4c0,0.4,0.1,0.8,0.3,1.3C467.5,381.6,467.9,382.2,468.5,382.9z"/>
	<path class="st0" d="M453,425.4c-1.3-1-2.3-2.1-3-3.3c-0.8-1.2-1.2-2.5-1.4-3.8c-0.2-1.3-0.1-2.7,0.3-4s1.1-2.7,2.1-3.9
		c1-1.3,2.1-2.3,3.3-3c1.2-0.7,2.5-1.1,3.8-1.3s2.7,0,4,0.4c1.3,0.4,2.6,1.1,3.9,2.1c1.3,1,2.3,2.1,3,3.3c0.8,1.2,1.2,2.5,1.4,3.8
		c0.2,1.3,0.1,2.6-0.3,4s-1.1,2.7-2.1,3.9c-1,1.3-2.1,2.3-3.3,3c-1.2,0.7-2.5,1.2-3.8,1.3s-2.7,0-4-0.4
		C455.6,427,454.3,426.3,453,425.4z M456.3,421.1c1.7,1.3,3.3,2,4.9,2c1.5,0,2.8-0.7,3.8-1.9c0.6-0.8,1-1.7,1-2.7
		c0.1-1-0.2-1.9-0.8-2.9s-1.4-1.9-2.5-2.8c-1.1-0.9-2.2-1.4-3.3-1.7s-2.1-0.3-3,0s-1.7,0.8-2.4,1.7c-1,1.3-1.3,2.7-0.9,4.2
		C453.6,418.4,454.6,419.8,456.3,421.1z"/>
	<path class="st0" d="M435.3,453.5l-10.8-11.1c-1.2-1.3-2.2-2.5-2.8-3.7c-0.6-1.2-0.9-2.4-0.9-3.5c0-1.2,0.4-2.4,1-3.6
		c0.7-1.2,1.7-2.5,3.2-3.9c1.3-1.3,2.7-2.2,4.1-2.9c1.4-0.6,2.7-0.9,3.8-0.9c1.1,0,2,0.4,2.6,1c0.5,0.5,0.7,1,0.6,1.6
		s-0.3,1.1-0.7,1.6c-0.6,0.5-1.3,0.8-2.2,0.7c-0.5-0.1-0.9-0.1-1.4-0.1s-0.9,0-1.4,0.1c-0.4,0.1-0.9,0.3-1.4,0.5
		c-0.5,0.3-0.9,0.6-1.4,1.1c-1,1-1.6,1.8-1.9,2.7c-0.3,0.8-0.3,1.6,0,2.3c0.3,0.7,0.7,1.4,1.2,2c0.5,0.6,1.4,1.5,2.6,2.8
		c-0.2-1.4-0.1-2.7,0.2-3.9c0.4-1.2,1.1-2.3,2.1-3.3c1.3-1.2,2.7-2,4.3-2.3c1.6-0.3,3.2-0.1,4.9,0.6c1.7,0.7,3.2,1.8,4.7,3.3
		c1.1,1.1,2,2.3,2.6,3.6c0.6,1.2,0.9,2.4,0.9,3.6c0,1.2-0.2,2.3-0.6,3.4c-0.4,1.1-1.1,2-2,2.9c-1.1,1.1-2.2,1.8-3.4,2.1
		c-1.2,0.4-2.6,0.4-4.1,0.2l0.5,0.5c0.6,0.7,1,1.3,1,2s-0.2,1.3-0.7,1.8c-0.7,0.7-1.5,1-2.2,0.7C437,455,436.2,454.4,435.3,453.5z
		 M441.6,437.9c-1.5-1.5-3-2.4-4.4-2.5c-1.4-0.1-2.7,0.3-3.8,1.4c-0.6,0.6-1.1,1.4-1.3,2.3c-0.2,0.9-0.2,1.9,0.1,2.9
		c0.3,1,0.9,2,1.9,3c1.5,1.6,3,2.4,4.6,2.6c1.5,0.2,2.9-0.2,4-1.3c1.1-1.1,1.6-2.3,1.4-3.8C443.9,440.9,443.1,439.4,441.6,437.9z"/>
	<path class="st0" d="M404.4,459.2c0.4-1.6,1-2.9,1.7-4c0.7-1.1,1.6-2.1,2.8-3c1.1-0.8,2.2-1.3,3.4-1.5c1.2-0.2,2.2-0.1,3.2,0.3
		c1,0.4,1.8,1,2.5,1.9c0.9,1.2,1.2,2.4,1.1,3.8s-0.7,2.7-1.8,3.9c-0.2,0.3-0.8,0.9-1.7,1.9c-0.9,1-1.7,1.9-2.3,2.7
		c-0.6,0.8-1.3,1.6-2,2.5c0.9,1.1,1.7,1.8,2.5,2c0.8,0.2,1.8-0.1,3.1-1.1c1.1-0.8,1.8-1.6,2.1-2.3c0.3-0.7,0.5-1.5,0.4-2.4
		s-0.1-1.5-0.1-1.8c0-0.3,0.3-0.7,0.8-1.1c0.5-0.4,1-0.5,1.6-0.5s1,0.3,1.4,0.8c0.6,0.8,0.8,1.7,0.8,2.8c0,1.1-0.4,2.3-1.2,3.6
		c-0.8,1.3-2,2.6-3.7,3.8c-1.9,1.4-3.5,2.3-4.9,2.6c-1.4,0.4-2.7,0.2-3.8-0.4c-1.2-0.6-2.3-1.7-3.5-3.3c-0.7-1-1.4-1.9-1.9-2.6
		c-0.5-0.7-1.1-1.5-1.7-2.4c-0.6-0.8-1.4-1.5-2.3-2.2s-1.5-1.1-1.6-1.4c-0.3-0.4-0.4-1-0.3-1.7c0.1-0.7,0.5-1.2,1-1.6
		c0.4-0.3,1-0.4,1.8-0.3C402.4,458.5,403.3,458.8,404.4,459.2z M409.2,465.2c0.5-0.7,1.2-1.6,2.2-2.8c1-1.1,1.7-1.9,2.1-2.4
		c0.4-0.5,0.6-1,0.8-1.7c0.2-0.7,0-1.3-0.5-1.9c-0.5-0.6-1.1-1-2-1.1c-0.8-0.1-1.6,0.2-2.4,0.7c-0.8,0.6-1.5,1.4-1.9,2.3
		c-0.4,0.9-0.6,1.8-0.5,2.6c0.1,0.9,0.7,2.1,1.8,3.6L409.2,465.2z"/>
	<path class="st0" d="M380.7,494.4l-0.5,0.2l1.4,2.9c0.4,0.8,0.6,1.4,0.8,1.9c0.2,0.5,0.2,0.9,0.2,1.3c0,0.4-0.2,0.8-0.4,1.2
		c-0.3,0.4-0.6,0.7-1,0.9c-0.6,0.3-1.3,0.3-2,0.1c-0.5-0.2-0.9-0.4-1.2-0.8c-0.3-0.4-0.6-1-1-1.8l-1.6-3.3l-1.8,0.8
		c-0.7,0.3-1.3,0.4-1.8,0.3c-0.5-0.2-0.9-0.5-1.1-1c-0.3-0.6-0.3-1.2,0.1-1.7c0.4-0.5,1.1-1,2-1.4l0.9-0.4l-4.2-8.9
		c-0.4-0.8-0.7-1.3-0.9-1.7c-0.2-0.4-0.5-0.6-0.9-0.8c-0.3-0.1-0.8-0.1-1.3,0.2c-0.3,0.1-0.6,0.4-1.1,0.7c-0.4,0.3-0.8,0.6-1.1,0.7
		c-0.4,0.2-0.8,0.2-1.3,0c-0.5-0.2-0.8-0.5-1-0.9c-0.4-0.8-0.2-1.6,0.4-2.4c0.7-0.8,1.8-1.6,3.4-2.3c1.5-0.7,2.8-1,3.8-0.9
		s1.9,0.6,2.5,1.4s1.3,1.9,2.1,3.4l4.4,9.3l0.6-0.3c0.7-0.3,1.3-0.4,1.8-0.3s0.9,0.5,1.1,1s0.2,1,0,1.5
		C381.9,493.7,381.4,494.1,380.7,494.4z"/>
	<path class="st0" d="M341.2,497.7l9.9-3.3c-0.4-1.1-1-2.1-1.7-2.8c-0.7-0.7-1.6-1.2-2.5-1.4c-0.9-0.2-1.8-0.1-2.7,0.2
		c-0.6,0.2-1.1,0.5-1.6,0.8c-0.5,0.3-0.9,0.7-1.2,1.2c-0.4,0.5-0.7,0.9-1,1.4c-0.3,0.5-0.6,1.1-1.1,1.9c-0.2,0.3-0.5,0.5-1,0.7
		c-0.5,0.2-1,0.2-1.4,0c-0.4-0.2-0.7-0.5-0.9-1c-0.2-0.5-0.2-1,0-1.8s0.5-1.5,1-2.3c0.5-0.8,1.3-1.6,2.2-2.3c1-0.7,2.2-1.3,3.6-1.8
		c3.2-1.1,6.1-1,8.5,0.2c2.4,1.2,4.2,3.4,5.2,6.6c0.5,1.5,0.8,3,0.7,4.4c0,1.4-0.3,2.7-0.8,3.9s-1.4,2.3-2.4,3.2
		c-1.1,0.9-2.4,1.6-3.9,2.1c-2,0.7-3.8,0.8-5.5,0.5c-1.7-0.4-3.1-1.1-4.3-2.2c-1.1-1.1-2-2.3-2.4-3.7c-0.4-1.3-0.3-2.2,0.3-2.8
		S339.9,498.1,341.2,497.7z M352.1,497.2l-9.2,3.1c0.7,1.7,1.6,2.8,2.7,3.4s2.3,0.7,3.6,0.2c1.3-0.4,2.1-1.2,2.7-2.4
		C352.4,500.4,352.5,499,352.1,497.2z"/>
	<path class="st0" d="M310.4,498.4c1.1-1.2,2.2-2.2,3.2-2.9c1.1-0.7,2.4-1.2,3.8-1.5c1.3-0.3,2.6-0.2,3.7,0.1c1.1,0.3,2,0.9,2.8,1.7
		s1.2,1.7,1.4,2.8c0.3,1.4,0.1,2.7-0.7,3.9c-0.7,1.2-1.8,2.1-3.3,2.8c-0.3,0.1-1.1,0.5-2.4,1c-1.3,0.5-2.3,1-3.2,1.4
		s-1.9,0.9-2.9,1.4c0.3,1.4,0.8,2.3,1.4,2.9c0.6,0.6,1.7,0.7,3.2,0.4c1.3-0.3,2.3-0.6,2.9-1.1c0.6-0.5,1.1-1.2,1.4-2
		c0.3-0.8,0.6-1.4,0.7-1.7c0.2-0.3,0.6-0.5,1.2-0.6c0.6-0.1,1.1,0,1.6,0.3s0.8,0.7,0.9,1.3c0.2,0.9,0,1.9-0.5,2.9
		c-0.5,1-1.4,1.9-2.6,2.7c-1.3,0.8-2.9,1.4-5,1.8c-2.3,0.4-4.2,0.5-5.6,0.2s-2.5-1-3.3-2s-1.3-2.6-1.7-4.5c-0.2-1.2-0.4-2.3-0.6-3.1
		s-0.3-1.8-0.5-2.9c-0.2-1-0.6-2-1.1-3c-0.5-1-0.8-1.7-0.9-2c-0.1-0.5,0.1-1.1,0.5-1.6c0.4-0.5,0.9-0.9,1.6-1c0.5-0.1,1.1,0,1.7,0.5
		C308.9,496.9,309.6,497.6,310.4,498.4z M312.2,505.9c0.7-0.4,1.8-0.9,3.2-1.5c1.4-0.6,2.4-1,2.9-1.3s1-0.6,1.4-1.2
		c0.4-0.5,0.6-1.2,0.4-1.9c-0.2-0.8-0.6-1.4-1.3-1.8c-0.7-0.4-1.5-0.6-2.5-0.4c-1,0.2-1.9,0.6-2.7,1.2c-0.8,0.6-1.3,1.3-1.6,2.1
		c-0.3,0.9-0.3,2.2,0,4L312.2,505.9z"/>
	<path class="st0" d="M274.2,505.6c0-0.7,0.1-1.4,0.5-2.2s0.9-1.5,1.7-2.3c0.8-0.7,1.8-1.3,3-1.8c1.2-0.5,2.6-0.8,4.1-0.9
		c3.3-0.2,5.9,0.6,7.9,2.4c2,1.8,3,4.3,3.2,7.6c0.1,2.2-0.2,4.1-0.9,5.9s-1.9,3.1-3.4,4.1c-1.5,1-3.4,1.6-5.7,1.7
		c-1.4,0.1-2.7-0.1-3.8-0.4c-1.2-0.3-2.2-0.8-3-1.4c-0.8-0.6-1.5-1.2-1.9-1.9c-0.5-0.7-0.7-1.4-0.7-2c0-0.6,0.2-1.2,0.6-1.7
		c0.5-0.5,1-0.7,1.7-0.8c0.4,0,0.8,0.1,1.1,0.3s0.7,0.6,1,1c0.7,1,1.4,1.7,2.2,2.1c0.7,0.5,1.7,0.6,2.7,0.6c1.6-0.1,2.8-0.8,3.7-2.1
		s1.3-3,1.2-5.1c-0.1-1-0.2-1.9-0.5-2.7s-0.7-1.5-1.2-2.1c-0.5-0.6-1.1-1-1.8-1.2s-1.4-0.4-2.2-0.3c-1.1,0.1-2,0.4-2.7,0.9
		c-0.7,0.5-1.4,1.3-1.9,2.4c-0.3,0.6-0.6,1.1-1,1.5c-0.4,0.4-0.8,0.6-1.4,0.6c-0.7,0-1.2-0.2-1.7-0.6S274.2,506.1,274.2,505.6z"/>
	<path class="st0" d="M255.1,524.7l0.6-7.9c-0.7,0.7-1.4,1.3-2.1,1.7c-0.7,0.4-1.4,0.7-2.2,0.9c-0.8,0.2-1.6,0.2-2.5,0.1
		c-1.4-0.1-2.5-0.5-3.5-1.1c-1-0.7-1.8-1.5-2.3-2.7c-0.3-0.7-0.5-1.4-0.6-2.2c-0.1-0.8-0.1-1.7,0-2.7l0.8-10.2
		c0.1-1.1,0.4-1.9,0.9-2.4c0.5-0.5,1.2-0.7,2-0.7c1.8,0.1,2.5,1.3,2.4,3.4l-0.7,9c-0.1,1.7,0,3,0.5,4c0.4,1,1.4,1.5,2.8,1.6
		c0.9,0.1,1.8-0.1,2.6-0.6c0.8-0.5,1.4-1.2,1.9-2.1c0.3-0.8,0.6-2.2,0.7-4.2l0.5-7c0.1-1.1,0.4-1.8,0.9-2.4c0.5-0.5,1.2-0.7,2-0.7
		c1.8,0.1,2.5,1.3,2.4,3.4l-1.8,23.1c-0.1,1.1-0.4,1.9-0.9,2.4s-1.2,0.7-2,0.7c-0.8-0.1-1.5-0.4-1.9-1
		C255.2,526.6,255,525.8,255.1,524.7z"/>
	<path class="st0" d="M214.9,501.8l10.2,2.2c0.2-1.2,0.2-2.3,0-3.3c-0.3-1-0.7-1.8-1.4-2.4c-0.7-0.6-1.5-1-2.4-1.2
		c-0.6-0.1-1.2-0.2-1.8-0.1c-0.5,0-1.1,0.2-1.6,0.4c-0.6,0.2-1.1,0.4-1.6,0.7c-0.5,0.3-1.1,0.6-1.9,1.1c-0.3,0.2-0.7,0.2-1.2,0.1
		c-0.5-0.1-0.9-0.4-1.2-0.7c-0.3-0.4-0.3-0.8-0.2-1.3c0.1-0.5,0.4-1,0.9-1.5c0.5-0.6,1.2-1,2.1-1.5c0.9-0.4,1.9-0.7,3.1-0.8
		c1.2-0.1,2.5-0.1,4,0.3c3.3,0.7,5.7,2.2,7.2,4.5c1.4,2.3,1.8,5.1,1.1,8.4c-0.3,1.5-0.9,2.9-1.6,4.1s-1.7,2.2-2.7,3
		c-1.1,0.8-2.3,1.2-3.7,1.5c-1.4,0.2-2.9,0.2-4.4-0.2c-2-0.4-3.7-1.2-5-2.4s-2.1-2.5-2.6-4c-0.4-1.5-0.5-3-0.2-4.4
		c0.3-1.3,0.8-2.1,1.7-2.3S213.5,501.5,214.9,501.8z M224.4,507l-9.5-2c-0.3,1.8-0.1,3.2,0.6,4.3c0.6,1.1,1.6,1.7,3,2
		c1.3,0.3,2.5,0.1,3.5-0.7S223.9,508.7,224.4,507z"/>
	<path class="st0" d="M194,493.8l1.5-4.2c0.4-1,0.9-1.7,1.5-2c0.7-0.3,1.4-0.4,2.1-0.1c0.7,0.3,1.2,0.7,1.5,1.4
		c0.3,0.7,0.3,1.5-0.1,2.5l-4.9,14c-0.8,2.3-2,3.1-3.6,2.5c-0.8-0.3-1.3-0.8-1.5-1.4c-0.2-0.7-0.1-1.5,0.2-2.6
		c-1,0.8-1.8,1.4-2.7,1.7s-1.8,0.3-2.8-0.1c-1.1-0.4-2-1-2.8-1.9s-1.1-1.7-0.8-2.6c0.2-0.6,0.6-1,1.2-1.3c0.6-0.3,1.1-0.3,1.6-0.1
		c0.2,0.1,0.6,0.3,1.2,0.8c0.6,0.5,1.2,0.8,1.8,1c0.7,0.3,1.4,0.3,2,0c0.6-0.2,1.2-0.7,1.7-1.3c0.5-0.7,1-1.5,1.5-2.5
		C193,496.5,193.5,495.3,194,493.8z"/>
	<path class="st0" d="M130,468.7c0.9-1.3,2.1-2.1,3.7-2.4s3,0,4.3,0.9c1.3,0.9,2.1,2.1,2.4,3.7c0.3,1.6,0,3-0.9,4.3
		c-0.9,1.3-2.1,2.1-3.7,2.5c-1.6,0.3-3,0-4.3-0.9c-0.9-0.6-1.5-1.3-2-2.3c-0.5-0.9-0.6-1.9-0.6-3S129.4,469.5,130,468.7z"/>
	<path class="st0" d="M86.1,416.7c1.1-1,2.3-1.5,3.6-1.6c1.3-0.1,2.6,0.1,3.9,0.9c1.3,0.7,2.6,1.8,3.9,3.3c1.2,1.5,2.1,2.9,2.5,4.3
		s0.5,2.7,0.3,3.7c-0.2,1.1-0.7,1.9-1.4,2.5c-0.4,0.4-1,0.5-1.5,0.5s-1.1-0.3-1.5-0.8c-0.4-0.4-0.5-0.8-0.5-1.2
		c0-0.4,0.1-0.9,0.3-1.4c0.4-1,0.5-2,0.3-2.9c-0.1-0.9-0.6-1.8-1.5-2.8c-0.7-0.8-1.4-1.3-2.3-1.5c-0.8-0.2-1.4-0.1-1.9,0.3
		c-0.7,0.6-1,1.3-0.9,2.1c0.1,0.8,0.6,2,1.3,3.5c0.9,1.7,1.5,3.1,1.8,4.3c0.4,1.2,0.5,2.3,0.3,3.4c-0.2,1.1-0.7,2-1.6,2.8
		c-0.8,0.7-1.8,1.1-2.9,1.2c-1.1,0.1-2.3-0.1-3.6-0.7c-1.2-0.6-2.4-1.5-3.6-2.9c-0.9-1-1.6-2.1-2.1-3.1c-0.5-1-0.8-2-0.9-2.8
		c-0.1-0.9-0.1-1.6,0.1-2.3c0.2-0.7,0.5-1.2,0.9-1.6c0.5-0.4,1-0.6,1.5-0.5s1.1,0.4,1.6,0.9c0.4,0.4,0.5,0.9,0.6,1.4
		c0,0.5-0.1,1.1-0.2,1.9c-0.1,0.6-0.1,1.3,0,1.9c0.1,0.6,0.5,1.3,1.1,2c0.6,0.7,1.3,1.2,2,1.4s1.3,0.1,1.8-0.3
		c0.4-0.4,0.6-0.8,0.6-1.4c0-0.6-0.2-1.3-0.6-2c-0.3-0.8-0.8-1.8-1.5-3c-0.8-1.5-1.3-2.9-1.5-4c-0.3-1.2-0.3-2.2,0-3.1
		C84.8,418.2,85.3,417.4,86.1,416.7z"/>
	<path class="st0" d="M66.1,393.8l6-3.7c1-0.6,1.8-0.8,2.5-0.7c0.7,0.1,1.3,0.6,1.8,1.3c0.4,0.7,0.5,1.4,0.3,2.1
		c-0.2,0.7-0.8,1.4-1.7,2l-7.2,4.5c-1.1,0.7-2,1.3-2.6,1.8c-0.6,0.5-1,1-1.2,1.6c-0.2,0.6-0.1,1.3,0.4,2c0.9,1.5,2,2.1,3.3,2
		c1.3-0.2,2.9-0.8,4.8-2l6.1-3.8c0.9-0.6,1.8-0.8,2.5-0.7s1.3,0.5,1.8,1.2c0.4,0.7,0.5,1.4,0.3,2.1s-0.8,1.4-1.7,2l-13,8
		c-0.9,0.5-1.6,0.7-2.3,0.6c-0.7-0.1-1.2-0.5-1.6-1.1c-0.4-0.6-0.5-1.3-0.3-1.9c0.2-0.7,0.6-1.2,1.3-1.7l0.4-0.3
		c-1.4-0.2-2.6-0.6-3.6-1.2c-1-0.6-1.8-1.5-2.5-2.6c-0.7-1.1-1.1-2.3-1.1-3.4c-0.1-1.1,0.2-2.2,0.8-3.3c-1.4-0.2-2.6-0.6-3.6-1.2
		c-1-0.6-1.8-1.4-2.5-2.5c-0.8-1.2-1.2-2.5-1.3-3.7s0.2-2.3,0.8-3.3c0.6-0.9,1.7-1.9,3.5-3l8.8-5.5c1-0.6,1.8-0.8,2.5-0.7
		s1.3,0.6,1.8,1.3c0.4,0.7,0.5,1.4,0.3,2.1c-0.2,0.7-0.8,1.4-1.7,2l-7.6,4.7c-1,0.6-1.7,1.1-2.3,1.6c-0.5,0.4-0.9,1-1.1,1.6
		c-0.2,0.6,0,1.3,0.4,2c0.4,0.6,0.9,1.1,1.6,1.4c0.7,0.3,1.4,0.4,2.2,0.4C62.7,395.6,64.1,395,66.1,393.8z"/>
	<path class="st0" d="M40.2,373.9c0.3,0.7,0.4,1.3,0.2,2c-0.2,0.7-0.7,1.2-1.4,1.5c-0.7,0.3-1.4,0.3-2,0c-0.7-0.3-1.1-0.8-1.4-1.4
		c-0.3-0.6-0.3-1.3-0.1-1.9c0.2-0.7,0.7-1.2,1.4-1.5c0.7-0.3,1.4-0.4,2.1-0.1C39.5,372.8,39.9,373.3,40.2,373.9z M44.2,369.3
		l14.1-6.3c1-0.4,1.8-0.5,2.5-0.3s1.2,0.7,1.5,1.4c0.3,0.7,0.3,1.4,0,2.1c-0.3,0.7-0.9,1.2-1.9,1.7l-13.9,6.3
		c-1,0.4-1.8,0.5-2.5,0.3s-1.2-0.7-1.5-1.4c-0.3-0.7-0.3-1.4-0.1-2.1C42.7,370.2,43.3,369.6,44.2,369.3z"/>
	<path class="st0" d="M53.3,350.8l-21.8,7.8c-1,0.4-1.8,0.4-2.5,0.1c-0.7-0.3-1.1-0.8-1.4-1.5s-0.2-1.5,0.1-2.1c0.3-0.6,1-1.2,2-1.5
		l21.8-7.8c1-0.4,1.9-0.4,2.5-0.1c0.7,0.3,1.1,0.8,1.4,1.6c0.3,0.7,0.2,1.4-0.2,2.1S54.3,350.4,53.3,350.8z"/>
	<path class="st0" d="M38,320.4l2.4,10.1c1.2-0.3,2.2-0.8,2.9-1.5c0.8-0.7,1.3-1.5,1.6-2.3c0.3-0.9,0.3-1.8,0.1-2.7
		c-0.1-0.6-0.4-1.2-0.6-1.6c-0.3-0.5-0.6-0.9-1-1.3s-0.9-0.8-1.3-1.1c-0.5-0.3-1.1-0.7-1.8-1.2c-0.3-0.2-0.5-0.6-0.6-1.1
		c-0.1-0.5-0.1-1,0.1-1.4c0.2-0.4,0.6-0.7,1.1-0.8c0.5-0.1,1.1-0.1,1.8,0.2c0.7,0.2,1.4,0.6,2.2,1.2c0.8,0.6,1.5,1.4,2.1,2.4
		c0.6,1,1.1,2.3,1.5,3.7c0.8,3.3,0.5,6.1-1,8.5c-1.5,2.3-3.8,3.8-7.1,4.6c-1.5,0.4-3,0.5-4.4,0.3c-1.4-0.1-2.7-0.5-3.8-1.2
		c-1.1-0.6-2.1-1.6-2.9-2.7c-0.8-1.2-1.4-2.5-1.8-4.1c-0.5-2-0.5-3.9,0-5.5c0.5-1.7,1.4-3,2.5-4s2.5-1.7,3.9-2.1
		c1.3-0.3,2.2-0.1,2.8,0.5C37.2,318.1,37.6,319.1,38,320.4z M37.4,331.3l-2.2-9.4c-1.7,0.6-3,1.3-3.6,2.4c-0.7,1-0.9,2.2-0.5,3.6
		c0.3,1.3,1,2.2,2.1,2.9C34.2,331.3,35.7,331.5,37.4,331.3z"/>
	<path class="st0" d="M32.7,269.6l0.2,10.4c1.2,0,2.3-0.3,3.2-0.8c0.9-0.5,1.6-1.1,2.1-1.9s0.7-1.7,0.7-2.6c0-0.6-0.1-1.2-0.3-1.7
		s-0.4-1-0.7-1.5c-0.3-0.5-0.7-0.9-1.1-1.3c-0.4-0.4-0.9-0.9-1.5-1.6c-0.2-0.3-0.4-0.7-0.4-1.2c0-0.5,0.1-1,0.4-1.3
		c0.3-0.3,0.7-0.5,1.3-0.5c0.5,0,1,0.2,1.7,0.5c0.7,0.4,1.3,0.9,1.9,1.7c0.6,0.8,1.1,1.7,1.5,2.8c0.4,1.1,0.6,2.5,0.7,4
		c0.1,3.4-0.9,6.1-2.8,8c-1.9,1.9-4.5,2.9-7.9,3c-1.6,0-3-0.2-4.4-0.6c-1.4-0.4-2.5-1.1-3.5-2s-1.7-2-2.3-3.3
		c-0.5-1.3-0.8-2.8-0.9-4.4c0-2.1,0.4-3.9,1.2-5.4c0.8-1.5,2-2.6,3.3-3.4c1.4-0.8,2.8-1.2,4.2-1.2c1.3,0,2.2,0.3,2.6,1.1
		C32.5,267.2,32.7,268.2,32.7,269.6z M29.9,280.1l-0.2-9.7c-1.8,0.2-3.2,0.7-4.1,1.6c-0.9,0.9-1.3,2-1.3,3.4c0,1.3,0.5,2.4,1.4,3.2
		C26.7,279.5,28.1,280,29.9,280.1z"/>
	<path class="st0" d="M24.7,246.6l0.6,0.1c-1.1-1.1-1.9-2.2-2.4-3.4c-0.4-1.2-0.6-2.5-0.4-3.9c0.2-1.4,0.6-2.6,1.3-3.6
		c0.7-1,1.7-1.8,2.9-2.2c0.7-0.3,1.4-0.4,2.2-0.4c0.8,0,1.7,0,2.9,0.2l9.9,1.1c1.1,0.1,1.8,0.5,2.3,1s0.7,1.2,0.6,2
		c-0.1,0.8-0.4,1.4-1.1,1.8c-0.6,0.4-1.4,0.6-2.5,0.5l-8.8-1c-1.7-0.2-3.1-0.1-4.1,0.3c-1,0.4-1.6,1.3-1.7,2.7
		c-0.1,0.9,0.1,1.8,0.5,2.7c0.5,0.8,1.2,1.5,2.1,2c0.8,0.3,2.2,0.6,4.4,0.9l6.6,0.8c1.1,0.1,1.9,0.5,2.3,1c0.5,0.6,0.7,1.2,0.6,2
		c-0.1,0.8-0.4,1.4-1,1.8c-0.6,0.4-1.4,0.6-2.5,0.5l-15.3-1.8c-1-0.1-1.7-0.4-2.2-0.9c-0.4-0.5-0.6-1.1-0.5-1.9
		c0.1-0.5,0.2-0.9,0.5-1.2c0.3-0.4,0.6-0.6,1.1-0.8C23.5,246.6,24.1,246.5,24.7,246.6z"/>
	<path class="st0" d="M26.7,217.9l0.1-0.6l-3.1-0.7c-0.8-0.2-1.5-0.4-2-0.5c-0.5-0.2-0.8-0.4-1.1-0.7c-0.3-0.3-0.5-0.6-0.7-1.1
		c-0.1-0.4-0.1-0.9,0-1.4c0.2-0.7,0.5-1.2,1.2-1.6c0.4-0.3,0.9-0.4,1.4-0.4c0.5,0,1.2,0.1,2.1,0.3l3.5,0.8l0.4-1.9
		c0.2-0.7,0.5-1.3,0.9-1.6c0.4-0.3,0.9-0.4,1.5-0.3c0.7,0.2,1.1,0.6,1.3,1.2c0.2,0.6,0.1,1.4-0.1,2.5l-0.2,1l9.6,2.2
		c0.8,0.2,1.4,0.3,1.9,0.3c0.5,0,0.8,0,1.2-0.2c0.3-0.2,0.6-0.6,0.7-1.1c0.1-0.3,0.1-0.7,0.1-1.3c0-0.5,0.1-1,0.1-1.3
		c0.1-0.4,0.4-0.8,0.8-1c0.4-0.3,0.9-0.3,1.4-0.2c0.8,0.2,1.4,0.8,1.6,1.8c0.2,1,0.1,2.4-0.2,4.1c-0.4,1.6-0.9,2.8-1.7,3.5
		c-0.7,0.7-1.6,1.1-2.6,1.1c-1,0-2.3-0.1-4-0.5l-10-2.3l-0.2,0.7c-0.2,0.7-0.5,1.3-0.9,1.6c-0.4,0.3-0.9,0.4-1.5,0.3
		c-0.5-0.1-0.9-0.4-1.2-0.9C26.5,219.3,26.5,218.6,26.7,217.9z"/>
	<path class="st0" d="M29.7,187.7l7.4,2.7c-0.5-0.9-0.9-1.7-1.1-2.5s-0.3-1.5-0.2-2.4c0.1-0.8,0.2-1.6,0.5-2.5
		c0.5-1.3,1.1-2.3,2-3.1c0.9-0.8,2-1.3,3.2-1.5c0.7-0.1,1.5-0.1,2.3,0c0.8,0.1,1.7,0.4,2.6,0.7l9.6,3.5c1,0.4,1.7,0.9,2,1.5
		c0.3,0.6,0.4,1.3,0.1,2.1c-0.6,1.7-1.9,2.1-3.9,1.4l-8.5-3.1c-1.6-0.6-2.9-0.8-4-0.6c-1,0.2-1.8,0.9-2.3,2.2
		c-0.3,0.9-0.4,1.8-0.1,2.7c0.2,0.9,0.7,1.7,1.5,2.4c0.6,0.5,1.9,1.2,3.8,1.8l6.6,2.4c1,0.4,1.7,0.9,2,1.5s0.4,1.4,0.1,2.1
		c-0.6,1.7-1.9,2.1-3.9,1.4l-21.7-7.9c-1-0.4-1.7-0.9-2.1-1.5c-0.4-0.6-0.4-1.3-0.1-2.1c0.3-0.8,0.8-1.3,1.4-1.6
		C27.9,187.3,28.7,187.4,29.7,187.7z"/>
	<path class="st0" d="M67.9,159l-0.6-0.3c0.4,0.9,0.7,1.8,0.9,2.7c0.2,0.9,0.2,1.7,0,2.6s-0.5,1.8-1,2.7c-0.6,1.1-1.4,2-2.3,2.7
		c-0.9,0.7-2,1-3.1,1.1c-1.3,0.1-2.9-0.4-4.8-1.4l-9.4-4.9c-0.9-0.5-1.5-1.1-1.8-1.8c-0.2-0.7-0.2-1.4,0.2-2.1
		c0.4-0.7,0.9-1.2,1.6-1.4c0.7-0.2,1.5,0,2.5,0.5l7.6,4c1.1,0.6,2.1,1,2.9,1.2c0.8,0.2,1.6,0.2,2.3-0.1s1.2-0.8,1.7-1.6
		c0.4-0.8,0.6-1.7,0.5-2.6c-0.1-1-0.4-1.8-1-2.5c-0.5-0.6-1.9-1.5-4.2-2.7l-5.7-3c-0.9-0.5-1.5-1.1-1.8-1.8
		c-0.2-0.7-0.2-1.4,0.2-2.1c0.4-0.7,0.9-1.1,1.6-1.3s1.5,0,2.5,0.5l13.7,7.2c0.9,0.5,1.5,1,1.7,1.7c0.2,0.6,0.2,1.3-0.2,1.9
		c-0.3,0.6-0.9,1.1-1.5,1.2C69.5,159.6,68.7,159.5,67.9,159z"/>
	<path class="st0" d="M83.7,127.4c1.2,0.9,2,1.9,2.5,3.1s0.5,2.5,0.1,4c-0.4,1.5-1.1,3-2.3,4.6c-1.1,1.6-2.3,2.7-3.6,3.5
		c-1.3,0.8-2.4,1.2-3.5,1.2c-1.1,0-2-0.2-2.7-0.7c-0.5-0.3-0.8-0.8-0.9-1.4c-0.1-0.6,0-1.1,0.4-1.7c0.3-0.5,0.7-0.7,1.1-0.8
		c0.4-0.1,0.9-0.1,1.4,0c1.1,0.1,2,0,2.9-0.4c0.8-0.4,1.6-1.1,2.4-2.1c0.6-0.9,0.9-1.7,0.9-2.6c0-0.8-0.2-1.4-0.7-1.8
		c-0.8-0.5-1.5-0.6-2.3-0.3c-0.8,0.3-1.8,1-3,2.2c-1.4,1.2-2.7,2.2-3.8,2.8c-1.1,0.7-2.1,1-3.2,1.1c-1.1,0.1-2.1-0.2-3.1-0.9
		c-0.9-0.6-1.5-1.5-1.9-2.5c-0.4-1.1-0.5-2.3-0.2-3.6c0.3-1.3,0.9-2.7,1.9-4.2c0.8-1.1,1.6-2.1,2.5-2.8c0.9-0.7,1.7-1.3,2.5-1.6
		c0.8-0.3,1.6-0.5,2.3-0.4c0.7,0,1.3,0.2,1.7,0.5c0.5,0.4,0.8,0.8,0.9,1.4c0.1,0.6-0.1,1.1-0.5,1.8c-0.3,0.4-0.7,0.7-1.2,0.9
		c-0.5,0.1-1.1,0.2-1.9,0.3c-0.7,0-1.3,0.2-1.8,0.4c-0.6,0.3-1.1,0.8-1.7,1.5c-0.6,0.8-0.9,1.6-0.9,2.3c0,0.8,0.2,1.3,0.7,1.7
		c0.5,0.3,1,0.4,1.5,0.2c0.6-0.2,1.2-0.5,1.8-1c0.6-0.5,1.5-1.2,2.6-2.2c1.3-1.1,2.5-1.9,3.5-2.5s2.1-0.8,3-0.8
		C82,126.6,82.9,126.9,83.7,127.4z"/>
	<path class="st0" d="M80.3,104.7c-0.5,0.6-1.1,0.9-1.8,1c-0.7,0.1-1.3-0.1-2-0.7c-0.6-0.5-0.9-1.1-0.9-1.8c0-0.7,0.2-1.4,0.7-1.9
		c0.5-0.5,1-0.8,1.7-0.9s1.3,0.1,2,0.7c0.6,0.5,0.9,1.2,0.9,1.9S80.8,104.1,80.3,104.7z M86.2,106.3l11.6,10.1
		c0.8,0.7,1.2,1.4,1.3,2.2s-0.1,1.4-0.7,2c-0.5,0.6-1.1,0.9-1.9,0.9c-0.7,0-1.5-0.3-2.3-1l-11.5-10c-0.8-0.7-1.2-1.4-1.3-2.1
		c-0.1-0.7,0.1-1.4,0.6-2s1.1-0.9,1.9-0.9C84.8,105.4,85.5,105.7,86.2,106.3z"/>
	<path class="st0" d="M116.7,97.9c-0.3,1.6-0.7,3-1.2,4.2c-0.5,1.2-1.4,2.3-2.5,3.3c-1,0.9-2.1,1.5-3.2,1.9s-2.2,0.3-3.2,0
		c-1-0.3-1.9-0.8-2.7-1.6c-1-1.1-1.5-2.3-1.5-3.7c0-1.4,0.4-2.8,1.4-4.1c0.2-0.3,0.7-1,1.5-2.1c0.8-1.1,1.5-2.1,2-2.9
		c0.5-0.8,1.1-1.7,1.7-2.7c-1-1-1.9-1.6-2.7-1.7c-0.8-0.1-1.8,0.3-3,1.4c-1,0.9-1.6,1.8-1.9,2.5c-0.2,0.7-0.3,1.6-0.1,2.4
		c0.2,0.9,0.2,1.5,0.3,1.8c0,0.3-0.2,0.7-0.7,1.1c-0.4,0.4-0.9,0.6-1.5,0.6c-0.6,0-1.1-0.2-1.5-0.6c-0.6-0.7-1-1.6-1.1-2.7
		c-0.1-1.1,0.1-2.3,0.8-3.7s1.7-2.8,3.3-4.2c1.7-1.6,3.3-2.6,4.6-3.1c1.4-0.5,2.6-0.5,3.9,0c1.2,0.5,2.5,1.5,3.8,2.9
		c0.8,0.9,1.6,1.7,2.2,2.3s1.2,1.4,2,2.2c0.7,0.7,1.5,1.4,2.5,2c1,0.6,1.6,1,1.8,1.2c0.4,0.4,0.5,0.9,0.4,1.6
		c-0.1,0.7-0.3,1.2-0.8,1.7c-0.4,0.4-1,0.6-1.7,0.5S117.8,98.2,116.7,97.9z M111.2,92.5c-0.4,0.7-1,1.7-1.9,3
		c-0.9,1.2-1.5,2.1-1.8,2.6c-0.3,0.5-0.5,1.1-0.6,1.8c-0.1,0.7,0.1,1.3,0.7,1.9c0.5,0.6,1.2,0.9,2.1,0.9c0.8,0,1.6-0.3,2.3-1
		c0.8-0.7,1.3-1.5,1.7-2.5s0.4-1.8,0.2-2.6c-0.2-0.9-0.9-2.1-2.2-3.4L111.2,92.5z"/>
	<path class="st0" d="M141.9,73.4c0.9,1.2,1.3,2.4,1.3,3.7c0,1.3-0.4,2.5-1.2,3.8c-0.8,1.3-2.1,2.5-3.7,3.6
		c-1.6,1.1-3.1,1.8-4.5,2.1c-1.5,0.3-2.7,0.3-3.7,0c-1-0.3-1.8-0.9-2.3-1.6c-0.3-0.5-0.5-1-0.4-1.6c0.1-0.6,0.4-1.1,0.9-1.4
		c0.5-0.3,0.9-0.5,1.3-0.4c0.4,0,0.9,0.2,1.4,0.4c1,0.5,1.9,0.7,2.8,0.6c0.9-0.1,1.9-0.5,2.9-1.2c0.9-0.6,1.4-1.3,1.7-2.1
		c0.3-0.8,0.2-1.4-0.1-1.9c-0.5-0.8-1.2-1.1-2.1-1.1c-0.8,0.1-2,0.4-3.6,1c-1.8,0.7-3.3,1.2-4.5,1.4c-1.2,0.3-2.4,0.3-3.4,0
		c-1-0.3-1.9-0.9-2.6-1.9c-0.6-0.9-0.9-1.9-1-3c0-1.1,0.3-2.3,1-3.5c0.7-1.2,1.7-2.3,3.2-3.3c1.1-0.8,2.2-1.4,3.3-1.8
		c1.1-0.4,2-0.6,2.9-0.7c0.9,0,1.6,0.1,2.3,0.3c0.7,0.3,1.1,0.6,1.5,1.1c0.4,0.5,0.5,1,0.4,1.6c-0.1,0.6-0.5,1.1-1.1,1.5
		c-0.4,0.3-0.9,0.5-1.4,0.4c-0.5,0-1.1-0.2-1.9-0.4c-0.6-0.2-1.3-0.3-1.9-0.2c-0.6,0.1-1.3,0.4-2.1,0.9c-0.8,0.6-1.3,1.2-1.6,1.9
		c-0.3,0.7-0.2,1.3,0.1,1.8c0.3,0.5,0.8,0.7,1.4,0.7c0.6,0,1.3-0.1,2.1-0.4c0.8-0.3,1.8-0.7,3.2-1.2c1.6-0.6,3-1,4.1-1.2
		c1.2-0.1,2.2-0.1,3.1,0.2C140.6,72.1,141.3,72.6,141.9,73.4z"/>
	<path class="st0" d="M145.7,54.5l0.5-0.3l-1.6-2.8c-0.4-0.8-0.7-1.4-0.9-1.8s-0.3-0.9-0.3-1.3c0-0.4,0.1-0.8,0.4-1.2
		c0.2-0.4,0.6-0.7,1-0.9c0.6-0.3,1.2-0.4,2-0.2c0.5,0.1,0.9,0.4,1.2,0.7c0.3,0.4,0.7,1,1.1,1.7l1.8,3.2l1.7-1
		c0.7-0.4,1.2-0.5,1.8-0.4c0.5,0.1,0.9,0.4,1.2,0.9c0.3,0.6,0.3,1.2,0,1.7c-0.4,0.5-1,1-1.9,1.6l-0.9,0.5l4.8,8.6
		c0.4,0.7,0.7,1.3,1,1.6c0.3,0.4,0.6,0.6,0.9,0.7c0.4,0.1,0.8,0,1.3-0.2c0.3-0.2,0.6-0.4,1-0.8c0.4-0.4,0.7-0.6,1-0.8
		c0.4-0.2,0.8-0.2,1.3-0.1c0.5,0.1,0.8,0.4,1.1,0.9c0.4,0.8,0.3,1.6-0.3,2.4c-0.6,0.9-1.7,1.7-3.2,2.6c-1.5,0.8-2.7,1.2-3.7,1.1
		c-1-0.1-1.9-0.5-2.6-1.2c-0.7-0.7-1.5-1.8-2.3-3.3l-5-8.9l-0.6,0.3c-0.7,0.4-1.3,0.5-1.8,0.4c-0.5-0.1-0.9-0.4-1.2-0.9
		c-0.3-0.5-0.3-1-0.1-1.5C144.6,55.4,145,54.9,145.7,54.5z"/>
	<path class="st0" d="M214.9,34.1c0.4,1.6,0.2,3-0.6,4.4s-2,2.3-3.5,2.7c-1.5,0.4-3,0.2-4.4-0.6c-1.4-0.8-2.2-2-2.7-3.5
		c-0.4-1.5-0.2-3,0.6-4.4c0.8-1.4,2-2.3,3.5-2.7c1-0.3,2-0.2,3,0c1,0.3,1.9,0.8,2.6,1.5C214.2,32.2,214.6,33.1,214.9,34.1z"/>
</g>
</svg>
