<?xml version="1.0" encoding="utf-8"?>
<!-- Generator: Adobe Illustrator 26.3.1, SVG Export Plug-In . SVG Version: 6.00 Build 0)  -->
<svg version="1.1" id="Layer_1" xmlns="http://www.w3.org/2000/svg" xmlns:xlink="http://www.w3.org/1999/xlink" x="0px" y="0px"
	 viewBox="0 0 533.1 560" style="enable-background:new 0 0 533.1 560;" xml:space="preserve">
<style type="text/css">
	.st0{fill:#333333;}
</style>
<g>
	<path class="st0" d="M264.1,524.4c-58.5-1.4-109.1-45-137.4-96.3c-22-39.9-33.5-85.2-36.1-130.7c-3-53.6,6.4-108.2,30.1-156.3
		c13.9-28.1,32.8-54.1,57.5-73.5s55.3-31.8,86.7-32c35-0.2,69.1,15,95.4,38s45.4,53.6,58.7,85.9c30.4,73.7,31.9,158.9,4.1,233.6
		c-12.8,34.4-31.9,67-59.2,91.6C336.8,509.3,300.8,525.3,264.1,524.4 M259.3,51.3c-29.9,1.5-58.4,15.5-80.5,35.8s-38.1,46.4-49.8,74
		c-32.5,76.8-31.1,167.3,3.5,243.1c11.7,25.7,27.3,50,48.2,69s47.4,32.6,75.5,35.1c35.9,3.2,72.1-11.9,98.8-36.1
		s44.7-56.9,56.2-91.1c23.1-68.3,21.2-144.7-5-211.9c-12.2-31.3-29.9-60.9-55.1-83.2S292.8,49.6,259.3,51.3z"/>
	<path class="st0" d="M303.1,450.6c-17.3-1.7-33.9-7.9-51-11.1s-36-3-50.4,6.7c-3,2-5.8,4.4-9.2,5.6c-3.4,1.1-7.7,0.6-9.7-2.4
		c-3-4.5,1.4-10.3,5.8-13.5c18.6-13.4,43.3-15.5,65.8-11.7c15.1,2.6,29.7,7.5,44.7,10c15.1,2.5,31.3,2.3,44.8-4.9
		c3.3-1.8,6.5-4,10.2-4.8s8.1,0.2,9.9,3.6c3,5.7-3.6,11.6-9.5,14.3C338.5,449.5,320.6,452.3,303.1,450.6z"/>
	<path class="st0" d="M277.9,116.5c-0.5,1.5-1.4,2.9-2.5,4c-3.7,3.8-10.4,4.2-14.6,0.9c-4.2-3.3-5.3-9.9-2.5-14.4
		c2.8-4.5,9.3-6.4,14.1-4C277.2,105.3,279.7,111.5,277.9,116.5z"/>
	<path class="st0" d="M182.1,191.5c0.3,4.9,0.4,10.9-3.9,13.2c-3.5,1.9-8.1-0.3-10.1-3.7s-2.1-7.6-1.9-11.5
		c0.6-11,2.9-21.8,6.8-32.1c-2.1,2.5-4.3,5.1-7.2,6.6s-6.8,1.7-9.3-0.4c-2.5-2.1-2.9-6-1.7-9.1s3.7-5.4,6.3-7.4
		c16.6-12.8,40.1-14.8,59.7-7.4s35.3,23.2,45.2,41.6c9.9-18.4,25.6-34.2,45.2-41.6c19.6-7.4,43-5.5,59.7,7.1
		c2.7,2.1,5.3,4.5,6.6,7.7c1.2,3.2,0.7,7.3-2,9.3c-4.8,3.6-11.4-1-15.5-5.4c4.1,10.3,6.2,21.3,6.1,32.4c0,3.7-0.3,7.6-2.4,10.7
		c-2,3.1-6.2,5-9.5,3.4c-4.9-2.5-4-9.5-3.6-15c0.5-8.1-1.8-16-4.3-23.7c-1.5-4.6-3.1-9.4-6.6-12.7s-9.5-4.6-13.1-1.4
		c4.4,5.5,7.8,11.9,9.9,18.7c1.3,4.2,1.7,9.6-1.8,12.2c-3.5,2.5-8.7,0.4-11.2-3c-2.6-3.5-3.4-7.8-4.9-11.9c-1.5-4-4.2-8.2-8.4-9.1
		c-2.2-0.5-4.7,0.1-6,1.8c-1.4,1.7-1.1,4.7,0.8,5.8c4.3,2.6,5.5,9.3,2,12.9s-10.6,2.3-12.2-2.4c-0.7-2-3.3-2.6-5.2-1.9
		c-1.9,0.7-3.3,2.4-4.5,4.1c-3.1,4.5-5.5,9.4-7.1,14.6c7.3-4.8,16.2-6.7,24.9-6.7c18.2,0.1,36.2,9,47.5,23.4
		c11.2,14.4,15.4,34,11.1,51.7c-1.1,4.6-3,9.3-6.9,11.8c-3.9,2.6-10.3,1.6-11.9-2.8c-1.3-3.6,0.9-7.4,2.5-11c4-8.7,4-19,0.1-27.7
		c-1.6,6.1-3.2,12.3-4.9,18.4c-1.2,4.5-2.5,9.2-6,12.2s-9.9,3.1-12-1c-1.7-3.2-0.1-7.1,1.4-10.4c3.7-8.6,6.1-17.7,7.1-26.9
		c0.4-3.9,0.6-8-1-11.6s-5.4-6.5-9.2-5.8c1.6,10.9,2.1,21.9,1.4,32.8c-0.3,4.4-0.9,9-3.6,12.4c-2.8,3.4-8.5,4.8-11.5,1.7
		c-3-3-2-7.9-1.2-12c2.2-10.9,1.9-22.2-0.7-33c-0.7-2.8-1.8-5.8-4.3-7c-2.6-1.2-6.4,1.5-5.1,4c2.3,4.3,3.8,9,4.6,13.8
		c0.5,3.4,0.6,7.1-1,10.2s-5.2,5.4-8.6,4.4c-4.3-1.2-5.8-6.6-6.1-11.1c-0.3-4.5-0.5-9.7-4-12.4c-5.1,1.1-6.2,7.8-6.2,13
		c0,53.7,0.1,107.4,0.1,161.1c21.2,8.6,46.2,7.1,66.3-3.8c4.4-2.4,10.2-5.2,14-1.8c2.6,2.3,2.6,6.6,0.8,9.6s-4.9,4.9-8,6.6
		c-15.3,8.1-32.9,11.6-50.1,10s-33.6-8.1-50.6-11.5s-36-3.2-49.9,7.1c-3.2,2.4-6.1,5.3-9.8,6.7s-8.6,0.9-10.6-2.5
		c-2.7-4.6,1.5-10.2,5.7-13.4c21.1-16.1,50.3-18.3,76.1-12.2c0.2-52.4,0.2-104.7,0-157.1c0-3.4-0.2-7.3-2.7-9.6
		c-2.5-2.4-7.9-1-7.6,2.4c0.5,4.8,0.8,10-1.6,14.2c-2.4,4.2-8.9,6.3-12.2,2.8c-1.8-1.9-2.1-4.7-2.1-7.3c0-7.7,1.9-15.3,5.4-22.1
		c-2-2.4-6.2-1.6-8.3,0.8c-2.1,2.4-2.6,5.7-3.1,8.8c-1.2,8.3-2.4,16.9-0.6,25.1c1.4,6.2,3.5,14.5-2.1,17.4c-3.2,1.6-7.2,0.1-9.5-2.6
		c-2.3-2.7-3.1-6.4-3.6-9.9c-1.8-11.8-1.1-24,2.2-35.5c-4.6-1.1-9.3,2.5-11,6.9s-1,9.4-0.1,14c1.5,7.2,3.6,14.3,6.4,21.1
		c2,4.9,4,11.4-0.2,14.7c-2.7,2.1-6.9,1.4-9.5-0.8c-2.6-2.2-4.1-5.5-5.3-8.7c-2.7-7.2-4.5-14.7-5.3-22.4c-4.1,7.3-4.7,16.4-1.8,24.2
		c2.3,6,6.1,13.7,1.2,17.8c-2.8,2.3-7.2,1.6-10-0.7c-2.8-2.3-4.2-5.8-5.3-9.3c-6.7-22.1,0.8-47.8,18.3-62.8s44.1-18.5,64.9-8.5
		c-2.2-4.5-4.5-8.9-7.1-13.2c-1.1-1.8-2.3-3.7-4.3-4.7c-1.9-1-4.7-0.5-5.5,1.5c-2,4.6-9,6.1-12.7,2.6c-3.6-3.5-2.5-10.6,2-12.8
		c3.4-1.6,1.1-7.6-2.6-8c-3.7-0.4-7,2.6-9.1,5.7c-2.4,3.3-4.2,7.1-5.3,11c-0.9,3-1.6,6.5-4.2,8.2c-3.6,2.3-8.7-0.2-10.4-4.1
		c-1.7-3.9-0.7-8.5,0.9-12.4c2.4-5.7,6-10.8,10.7-14.8c-3.9-3.1-9.9-2.3-13.8,0.7c-3.9,3-6.2,7.7-7.8,12.4
		C182.9,173.8,181.6,182.7,182.1,191.5z"/>
</g>
</svg>
