<?xml version="1.0" encoding="utf-8"?>
<!-- Generator: Adobe Illustrator 26.3.1, SVG Export Plug-In . SVG Version: 6.00 Build 0)  -->
<svg version="1.1" id="Layer_1" xmlns="http://www.w3.org/2000/svg" xmlns:xlink="http://www.w3.org/1999/xlink" x="0px" y="0px"
	 viewBox="0 0 533.1 560" style="enable-background:new 0 0 533.1 560;" xml:space="preserve">
<style type="text/css">
	.st0{fill:#333333;}
</style>
<g>
	<g>
		<path class="st0" d="M325.4,234.3c-2.9-2.9-6.9-4.3-11-3.8c-3.2,0.4-6.1,2.1-8.4,4.3l-37.1,37.1c-1.3,1.3-3.3,1.3-4.6,0
			l-37.1-37.1c-2.3-2.3-5.2-4-8.4-4.3c-4.1-0.5-8.1,0.9-11,3.8l-42,42c-2.9,2.9-4.3,6.9-3.8,11c0.4,3.2,2,6.1,4.3,8.4l90.4,90.4
			c2.3,2.3,5.2,4,8.4,4.3c4.1,0.5,8.1-0.9,11-3.8l90.9-90.9c2.3-2.3,4-5.2,4.3-8.4c0.5-4.1-0.9-8.1-3.8-11L325.4,234.3z"/>
		<path class="st0" d="M260.8,213.4c1.6,1.6,3.7,2.4,5.8,2.4c2.1,0,4.2-0.8,5.8-2.4l18.6-18.6c3.2-3.2,3.2-8.3,0-11.5l-18.6-18.6
			c-3.2-3.2-8.3-3.2-11.5,0l-18.6,18.6c-3.2,3.2-3.2,8.3,0,11.5L260.8,213.4z"/>
	</g>
	<g>
		<path class="st0" d="M397.4,223.8c0.9-0.9,1.4-2.1,1.4-3.4v-59.2c0-7.4-6-13.4-13.4-13.4h-59.2c-1.3,0-2.6,0.5-3.4,1.4L276,102.4
			c-2.5-2.5-5.9-3.9-9.5-3.9s-6.9,1.4-9.5,3.9l-45.8,45.8c-0.6-0.3-1.3-0.5-2.1-0.5h-61.5c-7.4,0-13.4,6-13.4,13.4v59.2
			c0,1.3,0.5,2.6,1.4,3.4l-46.8,46.8c-2.5,2.5-3.9,5.9-3.9,9.5s1.4,6.9,3.9,9.5l45.8,45.8c-0.3,0.6-0.5,1.3-0.5,2.1v61.5
			c0,7.4,6,13.4,13.4,13.4H209c0.8,0,1.5-0.2,2.1-0.5l45.8,45.8c2.5,2.5,5.9,3.9,9.5,3.9s6.9-1.4,9.5-3.9l46.8-46.8
			c0.9,0.9,2.1,1.4,3.4,1.4h59.2c7.4,0,13.4-6,13.4-13.4v-61.5c0-0.8-0.2-1.5-0.5-2.1l45.8-45.8c2.5-2.5,3.9-5.9,3.9-9.5
			s-1.4-6.9-3.9-9.5L397.4,223.8z M437.3,282.6L374.9,345c-1.9,1.9-1.9,5,0,6.9c1,1,2.2,1.4,3.4,1.4s2.5-0.5,3.4-1.4l7.3-7.3V399
			c0,2-1.6,3.6-3.6,3.6H331l8.9-8.9c1.9-1.9,1.9-5,0-6.9s-5-1.9-6.9,0l-64,64c-1.4,1.4-3.7,1.4-5.2,0l-64-64c-1.9-1.9-5-1.9-6.9,0
			s-1.9,5,0,6.9l8.9,8.9h-54.4c-2,0-3.6-1.6-3.6-3.6v-54.4l7.3,7.3c1,1,2.2,1.4,3.4,1.4s2.5-0.5,3.4-1.4c1.9-1.9,1.9-5,0-6.9
			l-62.4-62.4c-0.7-0.7-1.1-1.6-1.1-2.6s0.4-1.9,1.1-2.6l64-64c1.9-1.9,1.9-5,0-6.9s-5-1.9-6.9,0l-8.9,8.9V161c0-2,1.6-3.6,3.6-3.6
			H202l-7.3,7.3c-1.9,1.9-1.9,5,0,6.9s5,1.9,6.9,0l62.4-62.4c1.4-1.4,3.8-1.4,5.2,0l62.4,62.4c1,1,2.2,1.4,3.4,1.4s2.5-0.5,3.4-1.4
			c1.9-1.9,1.9-5,0-6.9l-7.3-7.3h54.4c2,0,3.6,1.6,3.6,3.6v54.4l-8.9-8.9c-1.9-1.9-5-1.9-6.9,0s-1.9,5,0,6.9l64,64
			c0.7,0.7,1.1,1.6,1.1,2.6C438.4,281,438,281.9,437.3,282.6z"/>
		<path class="st0" d="M501.8,268.5L438.2,205c1.6-0.8,2.8-2.4,2.8-4.4v-78.8c0-8.9-7.3-16.2-16.2-16.2H346c-1.9,0-3.6,1.1-4.4,2.8
			L278,44.7c-6.3-6.3-16.6-6.3-22.9,0l-61.9,61.9c-0.8-0.7-1.9-1.1-3-1.1h-81.9c-8.9,0-16.2,7.3-16.2,16.2v78.8
			c0,1.9,1.1,3.6,2.8,4.4l-63.6,63.6c-6.3,6.3-6.3,16.6,0,22.9l61.9,61.9c-0.7,0.8-1.1,1.9-1.1,3v81.9c0,8.9,7.3,16.2,16.2,16.2
			h81.9c1.2,0,2.2-0.4,3-1.1l61.9,61.9c3.2,3.2,7.3,4.7,11.5,4.7s8.3-1.6,11.5-4.7l63.6-63.6c0.8,1.6,2.4,2.8,4.4,2.8h78.8
			c8.9,0,16.2-7.3,16.2-16.2v-81.9c0-1.2-0.4-2.2-1.1-3l61.9-61.9C508.1,285.1,508.1,274.9,501.8,268.5z M494.9,284.6l-83,83
			c-1.9,1.9-1.9,5,0,6.9c1,1,2.2,1.4,3.4,1.4c1.2,0,2.5-0.5,3.4-1.4l12.5-12.5v76.3c0,3.6-2.9,6.5-6.5,6.5h-76.3l14.6-14.6
			c1.9-1.9,1.9-5,0-6.9s-5-1.9-6.9,0L271,508.4c-2.5,2.5-6.6,2.5-9.1,0l-85.1-85.1c-1.9-1.9-5-1.9-6.9,0s-1.9,5,0,6.9l14.6,14.6
			h-76.3c-3.6,0-6.5-2.9-6.5-6.5V362l12.5,12.5c1,1,2.2,1.4,3.4,1.4c1.2,0,2.5-0.5,3.4-1.4c1.9-1.9,1.9-5,0-6.9l-83-83
			c-2.5-2.5-2.5-6.6,0-9.1l85.1-85.1c1.9-1.9,1.9-5,0-6.9s-5-1.9-6.9,0L101.8,198v-76.3c0-3.6,2.9-6.5,6.5-6.5h76.3l-12.5,12.5
			c-1.9,1.9-1.9,5,0,6.9s5,1.9,6.9,0l83-83c2.5-2.5,6.6-2.5,9.1,0l83,83c1,1,2.2,1.4,3.4,1.4s2.5-0.5,3.4-1.4c1.9-1.9,1.9-5,0-6.9
			l-12.5-12.5h76.3c3.6,0,6.5,2.9,6.5,6.5V198l-14.6-14.6c-1.9-1.9-5-1.9-6.9,0s-1.9,5,0,6.9l85.1,85.1
			C497.4,277.9,497.4,282.1,494.9,284.6z"/>
	</g>
</g>
</svg>
