<?xml version="1.0" encoding="utf-8"?>
<!-- Generator: Adobe Illustrator 26.3.1, SVG Export Plug-In . SVG Version: 6.00 Build 0)  -->
<svg version="1.1" id="Layer_1" xmlns="http://www.w3.org/2000/svg" xmlns:xlink="http://www.w3.org/1999/xlink" x="0px" y="0px"
	 viewBox="0 0 533.1 560" style="enable-background:new 0 0 533.1 560;" xml:space="preserve">
<style type="text/css">
	.st0{fill:#333333;}
</style>
<g>
	<path class="st0" d="M43.1,220.2v119.6c0,0.6,0.5,1.2,1.2,1.2l0,0h119.6c0.6,0,1.2-0.5,1.2-1.2l0,0V220.2c0-0.6-0.5-1.2-1.2-1.2
		l0,0H44.3C43.8,218.9,43.1,219.6,43.1,220.2L43.1,220.2z M84.6,334H57.8c-0.6,0-1.2-0.5-1.2-1.2c0-0.3,0.1-0.6,0.3-0.8l99.2-99.2
		c0.5-0.5,1.2-0.5,1.6,0c0.3,0.3,0.3,0.5,0.3,0.8v26.8c0,0.3-0.1,0.6-0.3,0.8l-72.5,72.5C85,334,84.9,334.1,84.6,334L84.6,334z
		 M158.2,274.4v26.8c0,0.3-0.1,0.6-0.3,0.8l-31.7,31.7c-0.3,0.3-0.5,0.3-0.8,0.3H98.6c-0.6,0-1.2-0.5-1.2-1.2c0-0.3,0.1-0.6,0.3-0.8
		l58.5-58.5c0.5-0.5,1.2-0.6,1.6-0.1C158,273.8,158.3,274.2,158.2,274.4L158.2,274.4z M123,225.9h26.8c0.6,0,1.2,0.5,1.2,1.2
		c0,0.3-0.1,0.6-0.3,0.8L52,326.6c-0.5,0.5-1.2,0.5-1.6,0c-0.3-0.3-0.3-0.5-0.3-0.8v-26.9c0-0.3,0.1-0.6,0.3-0.8l71.9-71.9
		C122.4,226.1,122.8,225.9,123,225.9z M49.9,284.8V258c0-0.3,0.1-0.6,0.3-0.8l31-31c0.3-0.3,0.5-0.3,0.8-0.3h26.8
		c0.6,0,1.2,0.5,1.2,1.2c0,0.3-0.1,0.6-0.3,0.8l-57.8,58c-0.5,0.5-1.2,0.5-1.6,0C50,285.3,49.9,285.2,49.9,284.8z M68.8,227.8
		l-16.9,17c-0.5,0.5-1.2,0.5-1.6,0c-0.3-0.3-0.3-0.5-0.3-0.8v-17c0-0.6,0.5-1.2,1.2-1.2h17c0.6,0,1.2,0.5,1.2,1.2
		C69.2,227.3,69.2,227.5,68.8,227.8z M138.6,332.1l17.6-17.6c0.5-0.5,1.2-0.5,1.6,0c0.3,0.3,0.3,0.5,0.3,0.8v17.6
		c0,0.6-0.5,1.2-1.2,1.2l0,0h-17.5c-0.6,0-1.2-0.5-1.2-1.2C138.3,332.6,138.5,332.4,138.6,332.1z"/>
	<path class="st0" d="M368.2,220.2v119.6c0,0.6,0.5,1.2,1.2,1.2l0,0h119.5c0.6,0,1.2-0.5,1.2-1.2l0,0V220.2c0-0.6-0.5-1.2-1.2-1.2
		l0,0H369.2C368.6,218.9,368.2,219.6,368.2,220.2L368.2,220.2z M481.7,261.8c-15.9-6-28.5-18.6-34.5-34.5c-0.3-0.6,0.1-1.3,0.6-1.4
		c0.1-0.1,0.3-0.1,0.5-0.1h33.9c0.6,0,1.2,0.5,1.2,1.2l0,0v33.9c0,0.6-0.6,1.2-1.2,1.2C481.8,262,481.8,262,481.7,261.8z M483.1,272
		v16.2c0,0.5-0.3,0.9-0.8,1.2c-21.1,6.6-37.5,23-44.1,44.1c-0.1,0.5-0.6,0.8-1.2,0.8h-16.2c-0.5,0-0.9-0.3-1.2-0.8
		c-6.6-21.1-23-37.5-44.1-44.1c-0.5-0.1-0.8-0.6-0.8-1.2V272c0-0.5,0.3-0.9,0.8-1.2c21.1-6.6,37.5-23,44.1-44.1
		c0.1-0.5,0.6-0.8,1.2-0.8H437c0.5,0,0.9,0.3,1.2,0.8c6.6,21.1,23,37.5,44.1,44.1C482.7,270.9,483.1,271.5,483.1,272L483.1,272z
		 M410.8,227.3c-6,15.9-18.6,28.5-34.5,34.5c-0.6,0.3-1.3-0.1-1.4-0.6c-0.1-0.1-0.1-0.3-0.1-0.5V227c0-0.6,0.5-1.2,1.2-1.2l0,0h33.9
		c0.6,0,1.2,0.5,1.2,1.2C411,227.1,411,227.3,410.8,227.3z M376.3,298.1c15.9,6,28.5,18.6,34.5,34.5c0.3,0.6-0.1,1.3-0.6,1.4
		c-0.1,0.1-0.3,0.1-0.5,0.1h-33.9c-0.6,0-1.2-0.5-1.2-1.2l0,0V299c0-0.6,0.5-1.2,1.2-1.2C376,297.9,376.2,297.9,376.3,298.1
		L376.3,298.1z M446.9,332.6c6-15.9,18.6-28.5,34.5-34.5c0.6-0.3,1.3,0.1,1.4,0.6c0.1,0.1,0.1,0.3,0.1,0.5v33.9
		c0,0.6-0.5,1.2-1.2,1.2l0,0h-33.9c-0.6,0-1.2-0.5-1.2-1.2C446.9,332.9,446.9,332.6,446.9,332.6L446.9,332.6z"/>
	<path class="st0" d="M446.8,262c-26.2-19.7-55.5,9.7-35.8,35.8c0.1,0.1,0.1,0.1,0.3,0.3c26.2,19.7,55.5-9.7,35.8-35.8
		C446.9,262,446.8,262,446.8,262z M440.8,291.9c-17.4,13.1-37.1-6.6-23.9-23.9c0.1-0.1,0.1-0.1,0.3-0.3
		c17.4-13.1,37.1,6.6,23.9,23.9C440.9,291.8,440.8,291.9,440.8,291.9z"/>
	<path class="st0" d="M205.6,220.2v119.6c0,0.6,0.5,1.2,1.2,1.2l0,0h119.5c0.6,0,1.2-0.5,1.2-1.2l0,0V220.2c0-0.6-0.5-1.2-1.2-1.2
		l0,0H206.6C206.2,218.9,205.6,219.6,205.6,220.2L205.6,220.2z M320.7,227v42.5c0,0.6-0.5,1.2-1.2,1.2c-0.3,0-0.5-0.1-0.6-0.1
		c-5.7-3.9-10.1-9.6-14.7-15.6c-8.7-11.2-18.4-24-37.6-24s-29,12.6-37.6,24c-4.5,5.8-9,11.7-14.7,15.6c-0.5,0.3-1.3,0.3-1.6-0.3
		c-0.1-0.1-0.1-0.5-0.1-0.6V227c0-0.6,0.5-1.2,1.2-1.2l0,0h106.1C320.2,225.9,320.7,226.3,320.7,227L320.7,227L320.7,227z
		 M320.7,280.8v27.9c0,0.6-0.5,1.2-1.2,1.2c-0.3,0-0.5-0.1-0.6-0.1c-5.7-3.9-10.1-9.6-14.7-15.6c-8.7-11.2-18.4-23.2-37.6-23.2
		s-29,12.2-37.6,23.2c-4.5,5.8-9,11.7-14.7,15.6c-0.5,0.3-1.3,0.3-1.6-0.3c-0.1-0.1-0.1-0.5-0.1-0.6V281c0-0.5,0.3-0.8,0.6-0.9
		c9.6-4.5,16.1-13,21.9-20.5c8.3-10.8,16.2-20.8,31.5-20.8s23.2,10.1,31.5,20.8c5.8,7.5,12.3,15.9,21.9,20.5
		C320.3,279.9,320.7,280.3,320.7,280.8L320.7,280.8z M238.7,334c-0.6,0-1.2-0.5-1.2-1.2c0-0.3,0.1-0.5,0.3-0.8
		c7.4-9.3,15.2-12.6,28.7-12.6s21.3,3.5,28.7,12.6c0.5,0.5,0.3,1.3-0.1,1.6c-0.1,0.1-0.5,0.3-0.8,0.3h-55.6V334z M306.8,334
		c-0.3,0-0.6-0.1-0.9-0.5l-1.6-2.1c-8.7-11.2-18.4-19.3-37.6-19.3s-29,8.2-37.6,19.3l-1.6,2.1c-0.3,0.3-0.6,0.5-0.9,0.5H214
		c-0.6,0-1.2-0.5-1.2-1.2l0,0v-13.1c0-0.5,0.3-0.8,0.6-0.9c9.6-4.5,16.1-13,21.9-20.5c8.3-10.8,16.2-20.4,31.5-20.4
		c15.4,0,23.2,9.5,31.5,20.4c5.8,7.5,12.3,15.9,21.9,20.5c0.5,0.1,0.6,0.6,0.6,0.9v13.1c0,0.6-0.5,1.2-1.2,1.2l0,0H306.8z"/>
</g>
</svg>
