<?xml version="1.0" encoding="utf-8"?>
<!-- Generator: Adobe Illustrator 26.3.1, SVG Export Plug-In . SVG Version: 6.00 Build 0)  -->
<svg version="1.1" id="Layer_1" xmlns="http://www.w3.org/2000/svg" xmlns:xlink="http://www.w3.org/1999/xlink" x="0px" y="0px"
	 viewBox="0 0 533.1 560" style="enable-background:new 0 0 533.1 560;" xml:space="preserve">
<style type="text/css">
	.st0{fill:#333333;}
</style>
<path class="st0" d="M261,59.5c-121.4,0-220,98.6-220,220c0,121.5,98.5,220,220,220c60.3,0,114.9-24.2,154.6-63.5
	c0.7-0.7,0.9-1.7,0.5-2.6L405.7,408c-0.7-1.6-2.8-2-4-0.7c-2.1,2.3-4.2,4.5-6.3,6.7c-8.6,8.6-18.1,16.4-28.2,23.2
	c-10.2,6.9-21,12.8-32.3,17.5c-11.5,4.8-23.4,8.6-35.6,11.1c-12.5,2.6-25.4,3.9-38.3,3.9s-25.8-1.3-38.3-3.9
	c-12.2-2.5-24.2-6.2-35.6-11.1c-11.3-4.8-22.1-10.7-32.3-17.5c-10.1-6.8-19.5-14.6-28.2-23.2c-8.6-8.6-16.4-18.1-23.2-28.2
	c-6.9-10.2-12.8-21-17.5-32.3C81,342,77.3,330,74.8,317.8c-2.6-12.5-3.9-25.4-3.9-38.3s1.3-25.8,3.9-38.3c2.5-12.2,6.2-24.2,11-35.7
	c4.8-11.3,10.7-22.1,17.5-32.3c6.8-10.1,14.6-19.5,23.2-28.2c8.6-8.6,18.1-16.4,28.2-23.2c10.2-6.9,21-12.8,32.3-17.5
	c11.5-4.8,23.4-8.6,35.6-11.1c12.5-2.6,25.4-3.9,38.3-3.9s25.8,1.3,38.3,3.9c12.2,2.5,24.2,6.2,35.6,11.1
	c11.3,4.8,22.1,10.7,32.3,17.5c10.1,6.8,19.5,14.6,28.2,23.2c8.6,8.6,16.4,18.1,23.2,28.2c6.9,10.2,12.8,21,17.5,32.3
	c4.8,11.5,8.6,23.4,11.1,35.6c2.6,12.5,3.9,25.4,3.9,38.3s-1.3,25.8-3.9,38.3c-0.9,4.2-1.8,8.3-3,12.4c-0.6,2.2-3.7,2.4-4.5,0.3
	l-69.1-168.2c-0.3-0.7-1-1.1-1.7-1.1h-34.1c-1,0-1.8,0.8-1.8,1.8v129.3c0,2-2.8,2.6-3.6,0.7l-53.7-130.7c-0.3-0.7-1-1.1-1.7-1.1
	h-0.6l0,0h-33.5l0,0l0,0c-1,0-1.8,0.8-1.8,1.8v129.3c-0.1,1.9-2.8,2.4-3.6,0.6l-53.6-130.6c-0.3-0.7-1-1.1-1.7-1.1H145
	c-1,0-1.8,0.8-1.8,1.8v227.2c0,1,0.8,1.8,1.8,1.8h33.5c1,0,1.8-0.8,1.8-1.8V261c0-2,2.8-2.6,3.6-0.7l53.6,130.6
	c0.3,0.7,1,1.1,1.7,1.1h0.6l0,0h33.5l0,0l0,0c1,0,1.8-0.8,1.8-1.8V260.9c0.1-1.9,2.8-2.4,3.6-0.6l53.6,130.2
	c0.4,0.9,1.2,1.5,2.2,1.5h33.2c1.3,0,2.4-1.1,2.4-2.4V261c0-2,2.8-2.6,3.6-0.7l60.9,148.3c0.7,1.7,3,2,4.1,0.5
	C465.3,372.8,481,328,481,279.5C481,158,382.5,59.5,261,59.5z"/>
</svg>
