<?xml version="1.0" encoding="utf-8"?>
<!-- Generator: Adobe Illustrator 25.4.1, SVG Export Plug-In . SVG Version: 6.00 Build 0)  -->
<svg version="1.1" id="Layer_1" xmlns="http://www.w3.org/2000/svg" xmlns:xlink="http://www.w3.org/1999/xlink" x="0px" y="0px"
	 viewBox="0 0 533.1 560" style="enable-background:new 0 0 533.1 560;" xml:space="preserve">
<style type="text/css">
	.st0{fill:#241F20;}
</style>
<path class="st0" d="M120.4,317.2c0.4,1.8,0.8,3.7,1.1,5.5 M104,254 M338.4,468.8c0,0-2.4,2-3.5,3c-0.3,0.3-0.6,0.5-0.9,0.8
	c-1.5,1.5-3.2,3.3-4.7,5.2c-2.1,2.6-4.8,4.8-8.4,6.7c-0.7,0.4-1.4,0.9-2,1.4l-0.4,0.3c-2.5,1.9-5.4,3.2-8.2,4.5
	c-0.8,0.4-1.6,0.7-2.5,1.2c-1.3,0.6-2.7,1.3-3.9,2.1c-6.5,4.4-14,6-21.1,7c-1.6,0.2-3.2,0.3-4.8,0.3c-0.9,0-1.8,0-2.7,0.1
	c-0.5,0-1,0.1-1.5,0.2c-0.6,0.1-1.2,0.2-1.9,0.2l-0.9,0c-1,0-2.1,0-3.2-0.3c-1.6-0.4-3.1-0.4-4.6-0.4l-3.1,0c-1.3,0-2.6-0.1-3.9-0.1
	c-1.4-0.1-2.9-0.1-4.4-0.1c0,0-1.4,0-1.6,0c-4.7,0-9.3-0.7-14-1.6c-1-0.2-1.9-0.3-2.9-0.5c-2.5-0.4-5.1-0.8-7.5-1.5
	c-3.1-0.9-6.2-2.3-9.4-4.5c-1.4-0.9-2.8-1.7-4.3-2.5c-1-0.5-1.9-1-2.8-1.6c-3.2-1.9-6.4-3.8-9.8-5.9c-0.4-0.2-0.6-0.7-0.8-1
	c-0.1-0.1-0.2-0.3-0.2-0.4c-0.1-0.1-0.2-0.3-0.2-0.4c-0.1-0.1-0.2-0.4-0.2-0.4c-0.1,0-0.3,0.2-0.4,0.2c-0.2,0.1-0.3,0.2-0.5,0.3
	l-0.1,0.1l-0.1,0c-0.9-0.2-1-1-1-1.5c0-0.2,0-0.4-0.1-0.5c-0.1-0.3-0.2-0.5-0.4-0.8l-1.2,1.1l-0.3-0.4c0,0-0.1-0.1-0.1-0.2
	c-0.2-0.2-0.4-0.6-0.5-1c-0.1-0.4-0.1-0.9-0.2-1.3c0-0.4-0.1-0.9-0.2-1.3c0-0.1-0.2-0.2-0.4-0.4c-0.1,0.2-0.2,0.4-0.3,0.6
	c0,0.2,0,0.5,0,0.8c0,0.2,0.1,0.4,0.1,0.6l0.1,0.8l-0.7-0.5c-1.4-0.9-1.6-2.2-1.8-3.4c0-0.4-0.1-0.8-0.2-1.1
	c-0.1-0.2-0.1-0.4-0.1-0.7c0-0.6-0.1-0.6-0.3-0.6h-0.1c-0.2,0-0.3,0.1-0.3,0.1c-0.1,0.1,0,0.5,0,0.8c0,0.2,0.1,0.4,0.1,0.6
	c0,0.3,0,0.6,0.1,0.9l0.1,0.8l-1,0.3l-0.2-0.3c-0.1-0.1-0.1-0.2-0.2-0.3c-0.2-0.3-0.3-0.6-0.4-0.9c-0.2-1.5-0.4-2.9-0.6-4.4
	l-0.2-1.4c0-0.3-0.1-0.7-0.4-0.7h0c-0.1,0.1-0.3,0.6-0.3,0.9c0.1,1.1,0.3,2.2,0.4,3.3l0.3,2l-0.7-0.3c-1.1-0.5-1.7-1.1-1.7-2.3
	c-0.2-2.6-0.6-5.3-0.9-7.8c0-0.1-0.2-0.3-0.3-0.4l0,0c-0.1,0.1-0.3,0.4-0.4,0.4c0,0.6,0.1,1.2,0.3,1.8c0.1,0.4,0.2,0.8,0.2,1.2
	c0.1,0.9,0.2,1.8,0.3,2.7l0.1,1.4l-0.9,0.5l-0.2-0.3c-0.1-0.1-0.2-0.2-0.3-0.4c-0.3-0.3-0.6-0.7-0.6-1.1c-0.4-3.4-0.8-6.9-1.1-10.3
	l-0.1-0.7c-0.1-0.6-0.1-0.6-0.3-0.6h0c-0.1,0.1-0.4,0.5-0.4,0.7c0.2,2.3,0.4,4.6,0.7,6.9l0.2,1.9c0,0.2,0.1,0.4,0.1,0.6l0.1,0.6
	l-0.9,0.5l-0.2-0.3c-0.1-0.2-0.2-0.3-0.4-0.5c-0.3-0.4-0.7-0.9-0.8-1.4c-0.5-3.4-0.8-7-1.2-10.4l-0.1-1.2c0-0.3,0-0.7,0-1
	c0-0.4,0-0.8-0.1-1.2c0-0.1-0.2-0.3-0.4-0.4c0,0,0,0,0,0c-0.1,0.1-0.3,0.3-0.3,0.4c0,0.5,0.1,0.9,0.2,1.4c-0.3-2.4-1.2-4.5-2.7-6.1
	c0,0,0-0.1,0-0.1c0-0.7-0.1-1.3-0.2-1.9c0-0.2-0.2-0.3-0.4-0.5c0,0,0,0,0,0c-0.1,0.1-0.3,0.4-0.4,0.4c0,0.4,0.1,0.8,0.1,1.3
	c-0.6-0.5-1.3-1-2.1-1.5c0-0.2,0-0.3,0-0.5c-0.1-0.6-0.1-1.1-0.2-1.7c0-0.5-0.1-0.9-0.1-1.4c0-0.5-8.1-33.8-8.1-33.8
	c-0.1-1.1-0.2-2.2-0.3-3.3c0,0,0,0,0,0c0,0,0,0,0,0c-0.2-2.3-0.5-4.4-0.8-6.4c-0.4-2.9-0.9-5.7-1.3-8.6c-0.3-1.8-0.6-3.7-0.9-5.5
	c-0.8-5.2-2.4-10.2-4.9-15.4c-0.3-0.7-0.6-1.3-0.9-2c-0.1-0.1-0.1-0.3-0.2-0.4c-0.1-0.2-0.2-0.5-0.4-0.7c-0.4-0.9-0.8-1.8-1.3-2.7
	c-0.5-1-0.8-1.9-1.1-2.9c-0.4-1.4-0.6-2.8-0.8-4.3c-0.5-4.2-0.9-8.4-1.3-12.6l-0.3-2.9c-0.1-0.6,0-1.1,0-1.7c0-0.3,0-1.1,0-1.1
	l1.1-0.3l0.2,0.3c0,0.1,0.1,0.2,0.2,0.3c0.2,0.2,0.3,0.5,0.4,0.8c0.1,0.4,0.1,0.8,0.2,1.2c0,0.5,0.1,0.9,0.2,1.4
	c0,0.1,0.2,0.2,0.3,0.3c0.1-0.1,0.3-0.3,0.3-0.4c0-0.6-0.1-1.2-0.2-1.8c0-0.2-0.1-1.1-0.1-1.1l1.1-0.4l0.1,0.4
	c0,0.1,0.1,0.2,0.2,0.3c0.1,0.3,0.3,0.6,0.3,1c0.1,0.8,0.1,1.7,0.1,2.5c0,0.7,0,1.4,0.1,2c0,0.8,0.1,0.9,0.4,0.9
	c0.1-0.1,0.3-0.7,0.3-1.1c0-1-0.1-2-0.2-3.1l-0.1-1.8l0.5,0.1c1.9,0.4,1.9,1.7,1.9,2.7l0,1.1c0,1.8,0,3.7,0,5.5
	c0,0.2,0.3,0.7,0.4,0.8c0.1,0,0.2,0,0.2,0c0.1-0.1,0.1-0.4,0.1-0.6l0-0.2c0-1.8,0-3.6,0-5.4l0-2.3l1.1-0.1l0.1,0.4
	c0.1,0.4,0.1,0.8,0.2,1.2c0.2,0.9,0.3,1.9,0.4,2.8c0.1,1.1,0.1,2.2,0.1,3.3c0,1,0,2,0.1,3c0,0.7,0.1,1.4,0.3,2
	c0.1,0.5,0.2,0.9,0.3,1.3c0.1,0.1,0.3,0.2,0.4,0.3c0.1,0,0.3-0.3,0.3-0.4c-0.1-0.8-0.1-1.6-0.2-2.4c-0.2-2.7-0.4-5.5-0.7-8.2
	c0-0.4-0.1-0.8-0.2-1.2l-0.1-0.6l0.1-0.4l0.8-0.4l0.2,0.3c0.1,0.1,0.1,0.2,0.2,0.3c0.2,0.3,0.4,0.6,0.5,0.9c0.2,2.1,0.4,4.3,0.5,6.4
	c0,0.2,0,0.5,0.1,0.7c0.1,1.8,0.3,3.6,0.4,5.5c0.1,1.1,0.2,1.9,0.4,2.7c0,0.2,0.1,0.3,0.1,0.5c0,0.1,0.3,0.3,0.4,0.4c0,0,0,0,0,0
	c0,0,0,0,0,0c0.1-0.1,0.3-0.4,0.3-0.5c0-0.4-0.1-0.9-0.1-1.3c-0.2-1.8-0.4-3.6-0.6-5.4c-0.1-1.3-0.3-2.6-0.4-3.8
	c0-0.2,0-0.4-0.1-0.5c-0.1-1-0.2-2-0.2-3l-0.1-1.6l1-0.4l0.2,0.3c0.1,0.1,0.1,0.2,0.2,0.3c0.2,0.3,0.4,0.6,0.5,0.9
	c0,0.2,0,0.3,0.1,0.5c0.3,1.8,0.4,3.3,0.5,4.6c0.1,2,0.3,4.1,0.4,6.1c0,0.7,0.1,1.3,0.1,2c0,0.1,0,0.1,0,0.2l0.2,3.3
	c0,0.1,0,0.2,0,0.3c0,0.1,0,0.1,0,0.1c0,0,0,0,0,0c0.2,0.2,0.3,0.4,0.5,0.6l0,0c0.1-0.1,0.3-0.3,0.3-0.4c0-2-0.1-3.7-0.2-5.3
	c0-0.5-0.1-0.9-0.1-1.4c0-0.2,0-0.4-0.1-0.6c-0.2-2.1-0.4-4.3-0.7-6.4l-0.4-3.3l1.1-0.4l0.1,0.4c0,0.1,0.1,0.2,0.1,0.3
	c0.1,0.2,0.2,0.5,0.3,0.8c0.2,2.2,0.5,4.4,0.7,6.6c0.1,0.7,0.1,1.4,0.2,2.1c0.1,0.6,0.1,1.3,0.2,1.9c0.2,1.8,0.3,3.6,0.5,5.4
	l0.2,2.6c0,0.1,0,0.2,0,0.3c0,0.1,0,0.3,0,0.3c0.1,0.2,0.3,0.4,0.5,0.5l0,0c0.1-0.1,0.3-0.3,0.3-0.4c-0.2-2.4-0.4-4.8-0.7-7.2
	l-0.2-1.7c-0.1-1-0.2-2-0.3-2.9c-0.1-0.7-0.1-1.5-0.2-2.2c-0.1-1.6-0.2-3.2-0.3-4.8l0.8-0.2c0.1,0.1,0.2,0.3,0.3,0.4
	c0.2,0.3,0.5,0.7,0.6,1.1c0,0.2,0,0.3,0.1,0.5c0.1,0.8,0.2,1.6,0.3,2.4c0.3,1.9,0.5,3.9,0.7,6.1c0.4,3.2,0.7,6.5,1,9.7l0.4,4.1
	c0.1,0.2,0.1,0.5,0.1,0.8c0,0.6,0.1,0.6,0.4,0.6h0c0.1,0,0.3,0,0.3-0.1c0.1-0.1,0.1-0.5,0-0.8l0-0.3c-0.4-3.8-0.7-7.1-1.1-10.3
	c-0.3-2.1-0.6-4.2-0.9-6.4c-0.2-1.3-0.4-2.7-0.6-4c0-0.1,0-0.3,0-0.4c0-0.2,0-0.4,0-0.6l0-0.4v-0.6l0.5,0.2c0,0,0,0,0.1,0
	c1.8,0.6,1.9,0.9,2,2.5l0,0.3c0.1,1.7,0.3,3.4,0.5,5.1c0.1,1.1,0.2,2.2,0.3,3.3c0.1,1,0.1,2.1,0.2,3.1c0.1,1.8,0.2,3.6,0.5,5.4
	c0.6,4.1,1.2,8.2,2.2,12.1c1.3,5.2,3,10.7,5.1,16.9c2.1,6.4,5.2,12.4,9.2,18c0,0,0.2,0.4,0.2,0.4l0.3,0.1c0.3,0.1,0.6,0.2,0.8,0.2
	c0.2-0.2,0.4-0.8,0.4-1c-0.5-1.1-1.1-2.1-1.8-3.1c-2.9-4.3-5.3-9.2-7.3-14.9c-3.1-8.8-5.3-16.8-6.8-24.6c-0.3-1.8-0.5-3.6-0.6-5.4
	c-0.1-1-0.2-1.9-0.3-2.9c-0.2-1.9-0.4-3.8-0.7-5.8c-0.2-1.8-0.4-3.5-0.6-5.3c0-0.4,0-0.7,0-1.2c0-0.2,0-0.5,0-0.8v-0.8l0.7,0.5
	c0.5,0.3,0.9,0.6,1.4,0.9c0.9,0.6,1.8,1.2,2.5,1.8c2.9,2.4,5.7,4.8,8.5,7.2l1.4,1.2c1.6,1.4,3.2,2.8,4.7,4.3c1.1,1.1,2,2.3,2.9,3.5
	l0.5,0.7c0.4,0.6,0.7,0.9,1.1,0.9c0.1,0,0.3,0,0.4-0.1c0.6-0.3,0.6-0.6,0.3-1.7c-1.4-4.9-3.8-9.6-7.1-13.8c-1.2-1.5-2.7-2.8-4.2-4
	l-0.2-0.2c-3-2.5-6.3-5.2-10.1-8.1c-1.2-0.9-2.5-1.8-3.8-2.5c-0.2-0.1-0.4-0.2-0.6-0.3c-0.4-0.2-0.8-0.4-1.1-0.6
	c-1.4-0.8-2.9-1.6-4.4-2.4c-1.4-0.7-2.8-1.5-4.2-2.2c-1.5-0.7-3.1-1.3-4.6-1.9c-0.7-0.3-1.4-0.5-2.1-0.8c-0.1,0-0.1,0-0.3-0.1
	c-2.9-0.7-4.9-2.1-6.3-4.6c-2.1-3.7-4.6-7.3-7.4-10.5c-1.7-2-3.7-3.7-5.6-5.5c-0.8-0.7-1.7-1.5-2.5-2.2c0,0,0,0-0.1-0.1
	c-0.3-0.3-0.6-0.5-0.9-0.8c-0.2-0.2-0.5-0.4-0.7-0.6c-0.1-0.1-0.1-0.1-0.2-0.2l-2.6-2.4c-1.5-1.4-3.1-2.8-4.6-4.3
	c-0.4-0.4-1-0.9-1.5-1.1c-1.4-0.6-2.2-1.6-2.6-3.3c-0.6-2.4-1.3-4.9-2-7.3c-0.3-1.1-0.6-2.1-0.9-3.2c-0.1-0.2-0.1-0.4-0.1-0.6
	l-0.2-1l2.3,0.6c1.2,0.3,2.3,0.6,3.4,0.9c2.3,0.6,4.6,1.3,6.8,2c0.4,0.1,0.8,0.2,1.2,0.2c0.9,0,1.7-0.3,2.5-1l0.4-0.4
	c0.8-0.7,1.7-1.3,2.6-1.9c1.8-1,2.3-2.5,1.7-5.1c-0.5-2.2-0.9-4.4-1.4-6.6c-0.5-2.1-0.9-4.2-1.3-6.3c-0.3-1.2-0.5-2.5-0.5-3.8
	c-0.1-6,0.1-11.1,0.9-16.2c0.1-0.8,0.3-1.7,0.4-2.5l0.1-0.6c0.1-0.4,0.2-0.8,0.2-1.2c0.1-0.4,0.1-0.8,0.2-1.2c0-0.3,0.1-0.5,0.1-0.8
	c0-0.5-0.3-1.3-0.6-1.5c-0.1,0-0.4,0-1.3,0.6l-0.1,0.1l-0.2,0c-0.1,0-0.3-0.1-0.5-0.1c-0.1,0-0.3-0.1-0.4-0.1
	c-0.1,0.2-0.2,0.6-0.2,1c0,0.2,0,0.4,0.1,0.7c0,0.4,0.1,0.9,0.1,1.3c0.1,1.6,0,2.9-0.3,4.2c-0.1,0.5-0.3,1-0.5,1.6l-0.8-0.1
	l-0.2-1.6l-0.2-2.1c0-0.2,0-0.5-0.1-0.6c-0.1-0.1-0.2-0.2-0.3-0.3c-0.1,0.1-0.3,0.3-0.3,0.4l0,0.4c0,0.7,0.1,1.5,0.2,2.2
	c0.1,0.8,0.2,1.6,0.3,2.3c0.6,3.1,0.5,6.2-0.3,9.5l-0.8-0.1l-0.2-1.6c-0.1-1.3-0.3-2.6-0.4-3.9c0-0.4-0.1-0.9-0.1-1.3
	c0-0.7,0-1.3-0.1-2c0-0.1-0.2-0.3-0.3-0.5c-0.1,0.1-0.3,0.4-0.3,0.5c0.1,2.9,0.4,5.8,0.6,8.8c0.1,1.1,0.3,2.3,0.5,3.4
	c0.4,2.1,0.7,4.3,0.4,6.5c0,0.2,0,0.3,0,0.5l0,0.6l-1,0.1l-0.4-2.7c-0.3-1.9-0.5-3.9-0.8-5.8c-0.1-0.6-0.1-1.2-0.2-1.8
	c-0.1-1-0.2-2-0.4-3c0-0.1-0.2-0.3-0.4-0.5c-0.1,0.1-0.2,0.3-0.2,0.4c0.5,4.8,0.9,8.7,1.4,12.4c0.3,2.4,0.6,4.7,1,7
	c0.2,1.2,0.4,2.4,0.5,3.7c0.1,0.4-0.3,0.7-0.5,0.9l-0.5,0.3l-0.2-0.5l-0.1-0.4c-0.1-0.3-0.2-0.6-0.3-1l-1.1-5.3
	c-0.6-2.9-1.2-5.9-1.8-8.8c0-0.1,0-0.3-0.1-0.4c-0.1-0.7-0.2-0.9-0.4-0.9c0,0-0.1,0-0.2,0c-0.1,0-0.3,0.1-0.3,0.1
	c-0.1,0.1,0,0.5,0.1,0.7c0.1,0.2,0.1,0.4,0.1,0.5c0.6,3.1,1.2,6.3,1.8,9.4l0.8,4.4c0,0.2,0.1,0.5,0.1,0.7l0.1,0.7l-0.3,0.1
	c-0.2,0.1-0.5,0.1-0.7,0.1c-0.6,0-1-0.4-1.1-1.2c-0.4-2-0.7-4-1.1-6l-0.4-2.1c-0.1-0.3-0.1-0.7-0.2-1c0-0.1-0.1-0.2-0.1-0.3
	c-0.1-0.5-0.2-0.6-0.4-0.6c0,0,0,0-0.1,0c-0.3,0.1-0.3,0.1-0.2,0.7l0.1,0.3l1.7,9.3l-0.8,0.6l-0.3-0.3c-0.1-0.1-0.1-0.1-0.2-0.2
	c-0.2-0.2-0.4-0.4-0.5-0.8c-0.2-1-0.5-1.9-0.7-2.9c-0.3-1.2-0.6-2.4-0.9-3.6c0-0.1-0.2-0.3-0.4-0.4c-0.1,0.1-0.2,0.4-0.2,0.4
	c0.1,0.9,0.4,1.7,0.6,2.5c0.1,0.5,0.2,0.9,0.3,1.4c0.1,0.6,0.2,1.1,0.3,1.7l0.1,0.7l-0.1,0.4l-0.8,0.4l-0.2-0.3
	c-0.1-0.1-0.1-0.1-0.2-0.2c-0.2-0.2-0.3-0.4-0.4-0.7c-0.1-0.4-0.3-0.8-0.4-1.3c-0.2-0.7-0.4-1.3-0.7-2c-0.1-0.1-0.3-0.3-0.5-0.4
	c-0.1,0.2-0.1,0.5-0.1,0.6c0.1,0.7,0.4,1.4,0.6,2l0.4,1.1l-0.8,0.6l-0.2-0.2c-0.1-0.1-0.2-0.2-0.3-0.2c-0.3-0.2-0.6-0.4-0.7-0.8
	c-1-2.5-1.4-5.1-1.9-7.6c-0.1-0.6-0.2-1.2-0.3-1.7c-0.3-1.5-0.6-3-1-4.4c-0.4-1.6-0.8-3.2-1-4.9c-0.5-3-0.9-6-1.3-9
	c-0.3-1.8-0.5-3.6-0.8-5.4l0-0.2l-0.2-1.3l-0.5-3.5c-0.5-3.2-0.9-6.6-1.2-9.9c-0.2-3-0.2-6.1-0.2-9.1l0-1.7c0-3.4,0.1-6.4,0.2-9.3
	l0.1-1.8c0.3-5.3,0.5-10.8,1.6-16.2c0.3-1.8,0.6-3.5,0.9-5.3c0.2-1.4,0.5-2.8,0.7-4.2c0.2-1,0.5-2.1,0.7-3.1l0.3-1.2
	c0.3-1,0.5-2,0.7-3.1c0.6-2.4,1.2-4.9,1.9-7.3c0.5-1.8,1.1-3.5,1.7-5.3c0.6-1.8,1.2-3.6,1.8-5.5c1.3-4.7,3.2-9.4,6-15.4l0.2-0.4
	c0.2-0.4,0.4-0.9,0.7-1.3c2.4-3.3,4.3-7.1,6-10.7c0.6-1.3,1.2-2.6,1.9-3.8c1.9-3.6,4.2-7,7.2-10.4c1.5-1.7,2.9-3.4,4.3-5
	c0.8-1,1.6-1.9,2.5-2.9c0.5-0.5,0.9-1.1,1.5-1.6c0.7-0.7,1.5-1.4,2.2-2.1c2-1.9,4.1-3.8,6.2-5.6c2.8-2.3,5.7-4.5,8.4-6.5
	c4.9-3.5,9.9-7.2,15.1-10.6c1.2-0.8,2.6-1.4,3.9-2c0.8-0.4,1.6-0.7,2.4-1.1c1.5-0.8,3-1.6,4.5-2.4c2.3-1.3,4.7-2.6,7.2-3.7
	c3.6-1.7,7.2-3.3,10.8-4.7c2.4-0.9,4.8-1.7,7.2-2.4c1.2-0.4,2.4-0.8,3.6-1.1c7.2-2.4,14.5-4.1,21.7-5.1c4.1-0.6,9.4-1.2,14.9-1.2
	c1,0,2,0,3.1,0.1c2.8,0.1,5.6,0.5,8.3,0.9l2.1,0.3c1.6,0.2,3.2,0.5,4.8,0.7c2.1,0.3,4.2,0.7,6.4,0.9c1.2,0.1,2.4,0.2,3.5,0.2
	c1.1,0,2.1,0.1,3.2,0.2c2.6,0.3,4.7,0.6,6.6,1.1c2.4,0.6,4.8,1.2,7.1,1.9c1.3,0.4,2.7,0.7,4,1.1c8.4,2.2,15.7,4.8,22.1,7.8
	c4.1,1.9,8.2,4,12.2,6c2.7,1.4,5.4,2.7,8.1,4.1c4.2,2.1,7.4,4,10.2,6.2l3.2,2.5c3.7,2.8,7.5,5.8,11.1,8.8c1.2,1,2.3,2.2,3.4,3.3
	c0.6,0.6,1.1,1.2,1.7,1.8c1.2,1.2,2.3,2.3,3.5,3.5c1.9,1.9,3.8,3.7,5.7,5.7c0.7,0.7,1.3,1.5,2,2.3c0.3,0.4,0.7,0.8,1,1.3l6.3,7.4
	c0.3,0.4,0.7,0.8,1,1.1c0.8,0.9,1.7,1.8,2.3,2.9c0.7,1.3,1.7,2.3,2.8,3.4c0.8,0.8,1.7,1.7,2.4,2.7c2.2,3.1,4.1,6.7,6,11.1l0.7,1.6
	c1.6,3.8,3.3,7.6,4.6,11.6c1.2,3.7,1.9,7.5,2.3,10.5c0.8,5.2,1.3,10.2,1.9,15.8c0.2,1.7,0.3,3.5,0.3,5.2c0.1,1.2,0.1,2.5,0.2,3.7
	c0.1,1.6,0.3,3.2,0.4,4.8c0.1,1.6,0.3,3.2,0.4,4.8c0.1,1.2,0.1,2.3,0.2,3.5c0,0.8,0,1.5,0.1,2.3c0.1,1.8,0.2,3.6,0.3,5.4
	c0.2,3.5,0.4,7,0.5,10.5c0.2,4.7-0.4,9.5-1.7,14.5c-0.7,2.6-1,5.3-1.4,7.9c-0.1,1-0.3,2.1-0.4,3.1c-0.6,4.1-1.2,8.1-1.8,12.2
	c-0.1,0.5-0.2,1.1-0.2,1.6c0,0.2-0.1,0.4-0.1,0.7c0,0.1,0,0.3,0,0.4c-0.1,0.7-0.2,1.4-0.2,2.1c-0.1,1.1-0.2,2.2-0.4,3.3
	c-0.4,2.3-0.9,4.6-1.3,7c-0.4,2-0.8,4-1.2,6c-0.1,0.6-0.2,1.1-0.3,1.7c-0.1,1-0.2,1.9-0.5,3l-0.3,1.2l-0.5-1.2
	c0-0.1-0.1-0.2-0.1-0.2c-0.1-0.2-0.2-0.5-0.2-0.8c0-0.3,0-0.6,0-0.8c0-0.3,0-0.6,0-0.9c0-0.1-0.1-0.2-0.2-0.4
	c-0.1,0.1-0.3,0.2-0.3,0.3c-0.1,0.4-0.1,1-0.1,1.4c0,0.5-0.1,0.9-0.3,1.1c-0.2,0.2-0.5,0.3-0.9,0.3c-0.2,0-0.4,0-0.6-0.1l-0.4-0.1
	l0.2-1.5c0.1-0.8,0.3-1.7,0.3-2.5c0-0.1,0-0.3,0.1-0.4c0.1-0.3,0.1-0.8,0-1c-0.1-0.1-0.2-0.1-0.3-0.1l-0.3,0
	c-0.1,0.1-0.1,0.4-0.1,0.6c0,0.2,0,0.5,0,0.7c-0.1,0.6-0.2,1.2-0.3,1.8c-0.1,0.5-0.1,1-0.2,1.4c-0.1,0.3-0.3,0.5-0.4,0.7
	c-0.1,0.1-0.1,0.1-0.2,0.2l-0.5,0.6l-0.2-0.8c0-0.1-0.1-0.2-0.1-0.3c-0.1-0.2-0.2-0.5-0.2-0.8c0-0.9,0.1-1.8,0.1-2.7
	c0.1-1.5,0.2-3,0.2-4.5c0-0.2-0.1-0.4-0.3-0.6c-0.2,0.2-0.3,0.4-0.3,0.5c-0.2,1.7-0.3,3.3-0.4,5l-0.1,2c0,0.2,0,0.4-0.1,0.6
	l-0.1,0.6l-0.5,0c-0.5,0-0.9-0.1-1.1-0.4c-0.4-0.4-0.4-1-0.3-1.4c0.2-2.8,0.3-5.6,0.4-8.3c0-0.4,0-0.8,0-1.3c0-0.1,0-0.3,0-0.4
	c0-0.2-0.3-0.7-0.4-0.8c-0.2,0-0.3,0-0.3,0.6l0,0.3c0,0.5-0.1,0.9-0.1,1.4c0,0.5-0.1,1-0.1,1.5c-0.1,2.3-0.3,4.6-0.4,7
	c0,0.5-0.1,1.1-0.9,1.1c-0.2,0-0.4,0-0.7-0.1l-0.4,0l0-0.4c0.1-0.5,0.1-0.9,0.2-1.4c0-0.3,0.1-0.6,0.1-0.9c0.1-0.7,0.2-1.5,0.2-2.2
	c0-0.4,0-0.7,0-1.1c0-0.7,0-1.5,0-2.2c0-2.9,0-5.7-0.1-8.1c0-0.1-0.2-0.3-0.3-0.4c-0.1,0.1-0.3,0.3-0.3,0.4
	c-0.1,0.6-0.1,1.3-0.1,1.9l0,2.1c0,1.7,0.1,3.5,0,5.3c0,0.5,0,1-0.1,1.4c-0.1,1.6-0.3,3.2-0.6,4.8c-0.1,0.4-0.3,0.6-0.8,0.9
	l-0.5,0.3l-0.1-0.6l0-0.3c0,0,0-0.1,0-0.1c0-0.2-0.1-0.4-0.1-0.6c0-1.3,0.1-2.6,0.1-4l0-0.4c0,0,0-0.1,0-0.1c0-0.4,0-0.8,0-1.2
	c0.1-2.7,0.2-5.4,0.2-8.2c0-2.2-0.1-4.4-0.3-6.5c0-0.7-0.1-1.4-0.1-2.2c0-0.3-0.1-0.6-0.2-0.8c0,0-0.1,0-0.2,0
	c-0.1,0.2-0.2,0.5-0.2,0.7c0,0.9,0.1,1.8,0.1,2.7c0.1,1.3,0.1,2.7,0.1,4.1c0,3.4-0.1,6.7-0.2,10.1c0,0.2,0,0.5,0,0.7l0,0.5l0,0.4
	l-0.1,3c0,0.1,0,0.3-0.1,0.4l-0.2,0.7l-0.5-0.2c-0.8-0.4-1.5-1-1.4-2.2c0-0.6,0-1.1,0-1.7c0-0.2,0-0.3,0-0.5c0-0.4,0-0.8,0-1.2
	c0-0.5,0-1.1,0-1.6l0-2.4c0.1-5.6,0.1-11.1-1.7-16.3c-0.3-0.9-0.5-1.8-0.7-2.6c-0.3-1.2-0.6-2.5-1.1-3.7c-1.1-2.6-2.4-5.1-3.7-7.5
	l-0.6-1.2c-0.2-0.3-0.5-0.8-1.1-0.8c-0.2,0-0.4,0-0.6,0.1c-0.7,0.3-0.8,0.8-0.6,1.8c0.2,1.1,0.5,2.3,0.8,3.4
	c0.6,2.4,1.2,4.9,1.5,7.4c0.4,3,0.6,6.1,0.8,9.1c0.1,1.2,0.2,2.4,0.3,3.7c0.3,3.7-0.2,7.3-0.8,10.8c-0.1,0.4-0.2,0.8-0.2,1.3
	c0,0.2-0.1,0.4-0.1,0.5c-0.2,0.8-0.3,1.5-0.5,2.3c-0.2,0.8,0,1.8,0.5,2.4c1.2,1.7,2.6,3.3,3.9,4.9l1.1,1.3c0.3,0.4,0.7,0.8,1.1,1.2
	c0.4,0.4,0.8,0.8,1.2,1.3c0.2,0.2,0.4,0.4,0.6,0.6c0.8,0.6,1.7,0.9,3,0.9c0.8,0,1.6-0.1,2.5-0.1c0.5,0,0.9-0.1,1.4-0.1
	c0.5,0,1,0,1.4-0.1c0.9,0,1.8-0.1,2.7-0.2c0.2,0,0.3,0,0.4,0c1.6,0,2.3,1.1,2.7,2.2c0.1,0.2,0.2,0.4,0.3,0.6c0.4,1,0.5,2.1-0.3,3.1
	c-0.2,0.3-0.4,0.5-0.7,0.7c-0.4,0.3-0.7,0.6-1.1,0.9c-0.8,0.7-1.6,1.4-2.4,2.1c-1.2,1.1-2.5,2.2-3.8,3.3c-1.6,1.4-3.5,2.6-5,3.6
	c-0.5,0.3-1,0.6-1.5,0.8c-0.5,0.2-1.1,0.5-1.5,0.8c-1.9,1.3-3.7,2.8-5.5,4.1l-1.5,1.2c-0.6,0.4-1.1,0.9-1.6,1.4
	c-0.8,0.8-1.5,1.7-2.2,2.5c-0.8,0.9-1.6,1.9-2.5,2.8c-0.8,0.9-1.6,1.7-2.4,2.6c-1,1.1-2.1,2.3-3.1,3.4c-0.7,0.7-1.4,1.5-2.1,2.2
	c-1,1-2,2.1-3,3c-1,1-2.3,1.6-3.5,2.2c-0.8,0.4-1.5,0.8-2.2,1.3c-1.7,1.2-3.7,1.7-5.6,2.2c-1,0.3-2,0.5-3,0.9c-1.7,0.6-3.4,1.3-5,2
	c-0.4,0.1-0.7,0.3-1.1,0.4c-0.7,0.3-1.3,0.5-2,0.8c-0.2,0.1-0.3,0.1-0.5,0.2c-1.6,0.6-3.4,1.4-5.2,2.2c-2.8,1.3-5.7,2.9-7.8,5.5
	l-0.8,1.1c-2.5,3.2-5,6.5-5.9,10.6c-0.3,1.3-0.4,2.8-0.4,4.2l0,0.4c0,0.4,0.1,1,1,1.1c0.6,0,0.8-0.5,0.8-0.9c0.3-2.4,1.8-4,3.2-5.5
	l0.4-0.4c1-1.1,2-2.2,2.9-3.4c1.5-1.9,3.4-3.4,6-4.7c2.3-1.1,4.6-2.2,6.9-3.3c0.1,0,0.1-0.1,0.2-0.1c0.3-0.1,0.7-0.3,1-0.4
	c0.1,0,0.3-0.1,0.4-0.1c0,0,0,0,0,0c0.3-0.1,0.5-0.2,0.9-0.2l0.8-0.2l-0.7,2.1l-0.2,0.6l-0.6,1.7l-0.2,0.5
	c-1.5,4.3-2.9,8.5-3.4,13.1c-0.4,3.3-1.2,6.6-2,9.8l-0.5,2c-1.1,4.4-2.3,9-3.5,13.3l-1,3.8c-0.8,3.1-1.7,6.2-2.6,9.3
	c-0.4,1.2-0.9,2.3-1.4,3.4c-0.2,0.5-0.5,1-0.7,1.6c-0.1,0.3-0.3,0.7-0.4,1c-0.4,1,0.1,1.2,0.3,1.3c0.1,0.1,0.3,0.1,0.4,0.1
	c0.5,0,0.7-0.5,0.9-0.7c0.2-0.5,0.5-1,0.7-1.5c0.7-1.5,1.4-3,1.9-4.6c0.8-2.5,1.5-5.2,2.2-7.7c0.3-1,0.5-1.9,0.8-2.9
	c0.3-1.2,0.7-2.4,1-3.5c0.8-3,1.7-6.2,2.5-9.3c0.2-0.9,0.5-1.9,0.7-2.8c1-3.9,2-8,2.5-12c0.5-4.1,1.6-8,2.9-11.8
	c0.2-0.6,0.4-1.2,0.6-1.9c0.1-0.2,0.2-0.5,0.2-0.7c0.1-0.2,0.1-0.4,0.2-0.6l0.4-1.1c0-0.1,0.1-0.2,0.1-0.3c0.1-0.2,0.2-0.4,0.2-0.5
	c-0.1-2,1.3-2.5,2.8-3l0.7-0.2l-0.6,2.6c-0.3,1.4-0.6,2.7-0.9,3.9c-0.3,1-0.6,2-0.9,3c0,0,0,0.1,0,0.1c-0.1,0.3-0.1,0.5-0.2,0.8
	c0,0,0,0,0,0c-0.1,0.5-0.3,0.9-0.4,1.4c0.2,0.3,0.5,0.6,0.7,0.9c0,0,0-0.1,0-0.1c0.1-0.4,0.3-0.9,0.4-1.3l0,0
	c0.1-0.2,0.1-0.4,0.2-0.6c0-0.2,0.1-0.3,0.1-0.5c0.4-1.5,0.7-3,1-4.5c0.4-1.7,0.7-3.5,1.2-5.2c0.1-0.5,0.5-0.7,1-1
	c0.2-0.1,0.3-0.2,0.4-0.3l0.2-0.2l1,0.6L360,352c-0.2,1.1-0.4,2.1-0.6,3.2c-0.6,2.9-1.3,5.7-2,8.6c-0.1,0.3-0.1,0.6-0.2,0.9
	c0,0.1-0.1,0.3-0.1,0.4c-0.1,0.3-0.2,0.7-0.3,1c-0.1,0.2-0.1,0.4-0.2,0.5c-0.2,0.5-0.4,1-0.5,1.5c-0.5,2-0.8,3.8-1.1,5.5
	c0,0.1,0.2,0.3,0.3,0.5c0,0,0,0,0,0c0,0,0,0,0,0c0.1-0.1,0.4-0.3,0.4-0.4c0.2-2.5,1-4.8,1.7-6.8c0.1-0.2,0.1-0.4,0.2-0.6
	c0.1-0.2,0.1-0.5,0.2-0.8c0.1-0.3,0.1-0.7,0.2-1c0,0,0,0,0,0c0.1-0.4,0.1-0.8,0.2-1.2c0.3-1.4,0.6-2.8,1-4.1c0.5-2,0.9-4,1.4-6
	c0.1-0.6,0.2-1.2,0.2-1.9c0-0.7,0.1-1.2,0.4-1.5c0.3-0.3,0.7-0.4,1.2-0.4c0.2,0,0.3,0,0.5,0l0.4,0.1v0.4c0,0.1,0,0.2,0,0.4
	c0,0.3,0,0.6,0,0.9l-0.3,1.8c-0.6,3.2-1.1,6.4-1.8,9.6c-0.3,1.3-0.6,2.6-0.9,3.9c0,0.2-0.1,0.4-0.1,0.5c-0.1,0.3-0.2,0.6-0.2,1
	c-0.1,0.2-0.1,0.4-0.2,0.7c-0.1,0.3-0.1,0.5-0.1,0.7c0,0,0,0.1,0,0.1c0.1,0.2,0.2,0.4,0.3,0.5c0,0,0,0,0,0c0,0,0.1-0.1,0.1-0.1
	c0.1-0.1,0.3-0.2,0.3-0.3c0.1-0.3,0.1-0.6,0.2-0.9c0.1-0.3,0.1-0.6,0.2-0.9c0.7-3,1.3-5.9,1.9-8.9c0.6-3.1,1-6.3,1.3-9
	c0.1-0.9,0.4-1.8,1.9-2l0.5-0.1l-0.2,1.4c-0.1,0.6-0.2,1.3-0.3,1.9c-0.2,1.1-0.4,2.1-0.5,3.2c-0.3,1.6-0.6,3.3-0.8,4.9
	c-0.2,1.5-0.4,2.9-0.5,4.7c0,0.2,0.1,0.5,0.2,0.7c0.1,0.1,0.3,0.3,0.4,0.3c0.1,0,0.3-0.3,0.3-0.4c0.7-5.5,1.5-11,2.1-16.5
	c0.2-1.6,1.3-2.2,2.5-2.6l0.7-0.2l-0.4,2.1c-0.2,1.1-0.4,2-0.5,3c-0.4,2.4-0.7,4.6-1,6.7c0,0.1,0.2,0.3,0.3,0.4c0,0,0,0,0,0
	c0.1-0.1,0.3-0.3,0.3-0.4c0.5-2.7,1-5.5,1.4-8.5c0.1-0.8,0.2-1.6,0.2-2.7c0-0.7,0.2-1.7,1.6-1.9l0.5-0.1l-0.3,1.9
	c-0.1,1-0.3,1.9-0.4,2.9c-0.1,1.2-0.1,2.3-0.1,3.2c0,0.1,0.2,0.3,0.3,0.4c0.2-0.2,0.3-0.4,0.4-0.5c0.1-1.3,0.3-2.6,0.4-3.9
	c0.1-1.4,0.2-2.8,0.4-4.2c0.1-0.5,0.3-0.9,0.5-1.3c0.1-0.2,0.2-0.3,0.3-0.5l0.2-0.3l0.9,0.3l0,1.2c0,0.7,0,1.5,0,2.2
	c0,0.1,0.1,0.3,0.3,0.5c0.2-0.1,0.3-0.3,0.4-0.5c0.2-1.2,0.2-2.3,0.2-3.4c-0.1-1.7,0.7-2.9,2.7-3.7l0.3-0.1c0.1,0,0.2,0.1,0.4,0.1
	l-0.5,1.9c-0.3,1.1-0.5,2.1-0.8,3.1c-1.3,4.9-2.2,10.2-2.6,15.6c-0.4,5-1.3,9.9-2.2,14.8l-0.3,1.4c-0.1,0.7-0.3,1.5-0.4,2.2
	c0,0.3-0.1,0.5-0.1,0.8c-0.1,0.4-0.1,0.8-0.2,1.3c-0.8,4.7-1.6,9.3-2.3,13.9l-0.3,1.9c-0.3,2.1-0.6,4.3-0.8,6.5
	c-0.1,0.9-0.2,1.9-0.3,2.8l-0.4,3c-0.2,1.7-0.4,3.5-0.6,5.2c-0.1,0.8-0.2,1.6-0.3,2.4c-0.2,1.5-0.5,3-0.5,4.4
	c-0.2,4.4-0.3,8.9-0.4,13.3c0,0.7,0,1.4-0.1,2.2c-0.5,0.6-1.1,1.2-1.7,1.6c-0.1-1.3-0.3-2.6-0.4-4c-0.1-1.4-0.2-2.8-0.4-4.2
	c-0.2-2.2-0.4-4.3-0.6-6.5c0-0.1-0.2-0.2-0.3-0.3c0,0,0,0,0,0c-0.1,0.1-0.3,0.3-0.3,0.4c0,1.5,0.1,3,0.3,4.5l0.2,2.3
	c0.2,2.7,0.4,5.3,0.7,8c0,0.1,0,0.2,0,0.3c-0.8,0.6-1.6,1-2.5,1.4c-0.2-2.4-0.4-4.7-0.5-7c-0.1-1.1-0.1-2.2-0.2-3.3
	c0-0.2,0-0.4,0-0.5c0-0.4,0-0.8-0.1-1.1c0-0.1-0.2-0.2-0.4-0.3c-0.1,0.1-0.2,0.3-0.2,0.3c0.1,1.3,0.2,2.7,0.3,4
	c0.1,1.5,0.3,2.9,0.4,4.4c0.1,1.3,0.1,2.5,0.2,3.8c-0.6,0.2-1.1,0.3-1.7,0.4l-0.2,0l0,0c-0.3-2.1-0.6-4.1-0.8-5.9
	c0-0.1-0.2-0.3-0.4-0.5c-0.1,0.2-0.2,0.4-0.2,0.5c0.2,1.5,0.3,3,0.5,4.6c0.1,0.5,0.1,0.9,0.2,1.4c-0.5,0.1-1,0.2-1.5,0.4
	c-0.3,0.1-0.6,0.2-0.9,0.3c-0.1,0-0.1,0.1-0.2,0.1c0-0.2,0-0.3,0-0.5c-0.1-0.8-0.3-0.8-0.4-0.8c-0.1,0.1-0.3,0.6-0.2,0.9
	c0,0.2,0,0.4,0,0.6C354.3,440.4,339.5,468.2,338.4,468.8 M135.8,331.2l0.3,1.2c0.1,0.1,0.3,0.2,0.5,0.3c0,0,0,0,0,0c0,0,0,0,0,0
	c0.1-0.1,0.2-0.3,0.2-0.4c-0.1-0.8-0.3-1.7-0.4-2.6c-0.2-1.3-0.4-2.6-0.6-3.9c-0.3-1.9-0.8-3.8-1.5-5.6c-0.1-0.4-0.2-0.7-0.3-1.1
	c0-0.2-0.2-0.8-0.2-0.8l1.1-0.4l0.2,0.4c0.1,0.3,0.3,0.6,0.5,1c0.1,0.2,0.2,0.4,0.3,0.6c0.2,0.5,0.5,1.1,0.6,1.6
	c0.3,0.9,0.5,1.9,0.7,2.8c0.2,0.8,0.4,1.7,0.6,2.5c0,0.1,0.3,0.3,0.5,0.4c0.1-0.3,0.2-0.5,0.2-0.7c-0.1-0.7-0.3-1.4-0.6-2.2
	c-0.1-0.3-0.2-0.7-0.3-1.1l-0.4-1.3l1.1,0.9c1.5,1.3,1.9,2.8,2.1,4.1c0.1,0.7,0.2,1,0.9,1.3c0.9,0.3,1.4,1.3,1.3,2.8
	c0,1.1-0.1,2.3-0.2,3.4c-0.3,5.4-0.5,10.9,0,16.4c0.2,2.1,0.3,4.3,0.5,6.3c0.1,1,0.1,1.9,0.2,2.9l0,0.3l-0.9,0.5l-0.2-0.2
	c-0.2-0.2-0.4-0.3-0.6-0.5c-0.5-0.4-1-0.7-1.3-1.2c-3.5-4.7-6-10.2-7.6-17c0,0,0-0.1,0-0.1c-0.3-1.3-0.5-2.5-0.7-3.8
	c-0.1-0.7-0.2-1.4-0.3-2c-0.2-1.2-0.4-2.5-0.6-3.7c-0.3-1.4-0.6-2.8-0.9-4.2c-0.4-2-0.9-4.1-1.2-6.2c-0.3-1.9-0.4-3.8-0.6-5.6
	c-0.1-0.8-0.1-1.7-0.2-2.5l0-0.3l1.1-0.4l0.2,0.3c0.1,0.1,0.1,0.2,0.2,0.3c0.2,0.3,0.4,0.6,0.5,1c0.4,1.9,0.7,3.7,1,5.6l0.6,3.2
	c0.1,0.7,0.3,1.4,0.4,2.1c0.2,1.1,0.5,2.3,0.6,3.4c0.2,1.2,0.3,2.3,0.5,3.5c0,0.1,0,0.2,0,0.2c0.2,1.7,0.5,3.5,0.8,5.2
	c0.1,0.3,0.1,0.7,0.2,1c0.3,1.6,0.9,3.2,1.4,4.7c0.2,0.7,0.5,1.4,0.7,2.1c0,0.1,0.1,0.2,0.2,0.3l0.1,0.2c0.2,0.3,0.3,0.6,0.5,0.6
	c0.1,0,0.1,0,0.2-0.1c0.1,0,0.2-0.1,0.2-0.2c0.1-0.1-0.1-0.5-0.2-0.7l-0.1-0.2c-1.3-2.8-2.3-5.9-2.8-9.5c-0.2-1.1-0.3-2.3-0.4-3.5
	c-0.1-1-0.2-2-0.4-3c-0.1-0.4-0.1-0.8-0.2-1.1c-0.1-0.5-0.2-1.1-0.3-1.6l-0.1-0.5c-0.6-3.5-1.2-7.2-1.6-10.9l0.8-0.3
	c0.1,0.1,0.2,0.3,0.3,0.4c0.2,0.3,0.5,0.7,0.6,1.1c0.3,1.2,0.6,2.4,0.9,3.7c0.4,1.5,0.7,3.1,1.1,4.6c0.3,1.3,0.4,2.7,0.6,4
	c0,0.1,0,0.1,0,0.1C135.6,329.9,135.7,330.6,135.8,331.2 M128.1,355.3c0.8,2.6,2.9,6,2.7,6l2.4,2.3l0.2,0c0.3,0.3,0.6,0.7,0.9,1.1
	c0.7,0.9,1.4,1.8,2.4,2.6l2.5,3c3.5,1.3,5.4,3.3,6.1,6.4c0.2,0.7,0.5,1.4,0.8,2.1c0.2,0.5,0.5,1.1,0.7,1.7c0.3,0.9,0.5,1.7,0.7,2.6
	c0.1,0.4,0.2,0.8,0.3,1.2l0.1,0.6l6.5,31.1l0.2,2c0,0,2.7,11.8,2.9,13.8c0.2,2,5.5,17,5.5,17l2.7,6.8l6,16l2.5,3.5
	c0.3,0.4,0.7,0.7,1.1,1c1.4,1.1,2.8,2.2,4.2,3.2c0.8,0.5,1.5,1.1,2.3,1.7c1,0.8,2,1.5,3,2.2c2.4,1.8,4.9,3.6,7.2,5.6l1.5,1.3
	c3.5,3.1,7.1,6.2,11.4,8.5c1.1,0.6,2.3,1.2,3.4,1.8c5.5,2.9,11.1,5.9,17.1,8c5.3,1.8,10.7,2.8,16.2,3.2c3.6,0.2,7.3,0.3,10.9,0.4
	l5,0.1c1.5,0,3.1,0.1,4.6,0.1c0.6,0,1.2,0,1.7,0c1.3,0,2.6-0.2,3.9-0.3c1.1-0.1,2.2-0.2,3.3-0.3c1.3-0.1,2.6-0.1,3.9-0.1
	c2,0,4-0.1,5.9-0.2c1.8-0.2,3.6-0.6,5.3-1l1.4-0.3c0.8-0.2,1.7-0.4,2.5-0.6c2.6-0.6,5.3-1.2,7.9-2c3.1-1,6.2-2.3,9.2-3.5l1.5-0.6
	c4.7-1.9,9.6-4.1,13.9-7.2l1.6-1.2c2.7-1.9,5.6-4,8.4-5.8c2.9-1.9,5.5-4.2,8-7.1c0,0,7.5-6.4,8.4-7c1-0.6,6-8.6,5.8-10.4
	c-0.1-1.7,8.6-7.3,8.6-7.3s10-12.7,10.6-13.8c0.6-1.2,2.1-13.4,2.3-14.4s2.2-15.6,2.2-15.6l3-20.9l0.4-12.5l0-2.1l0.3-0.1
	c0.5-0.2,1-0.3,1.4-0.4c0.9-0.2,1.6-0.4,2.3-0.8c2.4-1.5,4.7-3.1,7.1-4.8l1.4-1.6c1.7-2.2,2.9-4.7,4-7.2c0.7-1.4,1.3-2.9,2.1-4.4
	c0.4-0.8,0.8-1.7,1-2.5c0.1-0.3,0.2-0.6,0.2-0.8c0.1-0.2,0.2-0.5,0.3-0.7c0.4-0.8,0.8-1.6,1.4-2.4c2.5-3.4,4.2-7.4,5.2-12.1
	c0.5-2.4,0.9-4.9,1.3-7.4c0.1-0.5,0.2-1.1,0.3-1.6c0.2-0.4,0.3-0.8,0.5-1.2c0.5-1.4,1.1-2.8,1.4-4.2c0.7-2.9,1.4-5.9,2-8.7
	c0.1-0.7,0.3-1.3,0.4-2c0.6-1.1,1.1-2.3,1.6-3.4c0.2-0.5,0.4-0.9,0.6-1.4c2.3-1.8,3.9-3.7,4.8-5.9c0.1,0,0.7-1.7,0.8-1.8
	c0.6-1.5,1.7-9.5,1.7-9.5c-0.1-1-0.2-2-0.2-2.9c0-0.1-0.2-0.3-0.3-0.5L423,289c0,0-0.1-0.1-0.1-0.1l-0.2-0.2
	c-0.3-0.4-0.5-0.8-0.4-1.3c0.1-0.6,0.2-1.2,0.3-1.8c0.8-2,1.6-4,2.3-6.1c0.1-0.2,0-0.5-0.1-0.7c-0.1-0.2-0.1-0.5-0.1-0.7
	c0-0.5,0-1.1,0.1-1.7c0.4-1.8,0.8-3.6,1.3-5.4c0.4-1.6,0.7-3.1,1.1-4.7c0.3-1.2,0.6-2.5,0.8-3.7c0.3-1.5,0.7-3,1-4.4l0.6-11.4
	c0.3-1.7,0.5-3.4,0.7-5.2c0.1-1.2,0.2-2.4,0.2-3.6c0-2.1,0.2-4.2,0.4-6.2c0.1-0.9,0.2-1.9,0.3-2.8l0.2-1.9c0.1-1.6,0.3-3.2,0.3-4.8
	c0.1-2.4,0.1-4.8,0.1-7.2l0-3.2c0-1.2,0.1-2.4,0.1-3.6c0.1-2.7,0.2-5.4,0-8.1c-0.2-4-0.6-8.2-1-12.1l-0.4-4.2
	c-0.3-3.3-0.7-6.7-1.3-10c-0.5-2.7-1.2-5.5-1.8-8.2c-0.4-1.5-0.7-2.9-1.1-4.4c-2.1-9.4-6.1-18.8-12.8-30.3
	c-2.3-3.9-5.1-7.6-7.9-11.1c-1.1-1.4-2.1-2.7-3.2-4.1l-0.3-0.4c-2.1-2.7-4.2-5.6-6.6-8c-3.4-3.5-7-6.9-10.5-10.1
	c-1.1-1.1-2.3-2.1-3.4-3.2c-2.8-2.6-5.1-4.8-7.5-6.9c-0.8-0.7-1.6-1.3-2.4-1.9c-0.9-0.7-1.9-1.5-2.8-2.3c-2.4-2.2-5.1-3.8-7.5-5.2
	c-1.3-0.7-2.5-1.5-3.8-2.2c-1.8-1-3.5-2.1-5.3-3.1c-3.1-1.7-5.7-3.2-8.5-4.4c-3.2-1.4-6.4-2.7-9.5-3.8l-3.8-1.4
	c-5.5-2-11.2-4.1-16.9-6c-4.1-1.3-8.7-2.5-14.2-3.6c-4.8-1-9.8-1.8-14.6-2.6c-1.7-0.3-3.4-0.6-5.1-0.9c-6.5-1.1-13-1.7-19.1-1.7
	l-1,0c-1.2,0-2.6,0-4,0.1l-2.4,0.2c-2.7,0.2-5.5,0.4-8.2,0.8c-3.7,0.5-7,1.1-10.1,1.8c-2.7,0.6-5.3,1.4-7.9,2.2
	c-1.2,0.4-2.4,0.7-3.6,1c-1,0.3-2.1,0.6-3.1,0.9c-2.3,0.6-4.6,1.3-6.9,2c-1.2,0.4-2.4,0.9-3.5,1.5c-0.7,0.3-1.4,0.6-2.1,0.9
	c-0.8,0.3-1.7,0.7-2.5,1c-1.1,0.4-2.1,0.8-3.2,1.3c-2,0.8-3.9,1.7-5.9,2.6c-1.3,0.6-2.5,1.1-3.8,1.7c-0.9,0.4-1.9,0.8-2.8,1.2
	c-1.4,0.6-2.8,1.2-4.1,1.8c-0.8,0.4-1.7,0.8-2.5,1.3l-3.7,2c-2.8,1.5-5.6,3.1-8.4,4.7c-1.3,0.7-2.6,1.6-3.8,2.4
	c-0.5,0.3-1,0.7-1.5,1c-1.7,1.1-3.5,2.3-5.2,3.5c-0.3,0.2-0.5,0.4-0.8,0.6c-0.5,0.4-1,0.8-1.6,1.1c-2.6,1-4.4,2.9-6.3,5l-0.2,0.2
	c-1.4,1.5-2.8,2.9-4.2,4.4c-1.1,1.1-2.1,2.2-3.2,3.3l-1.5,1.6c-1.6,1.7-3.3,3.4-4.8,5.2c-4.1,5-7.4,10.7-10.2,15.8
	c-0.4,0.7-0.8,1.5-1.3,2.2c-0.9,1.6-1.9,3.3-2.7,4.9c-0.8,1.5-1.6,2.9-2.3,4.3c-2.1,3.9-4.3,7.8-6,11.9c-1.7,3.9-3,8.1-4.4,12.1
	c-0.5,1.6-1,3.1-1.5,4.7c-0.7,2.1-1.3,3.9-1.7,5.7c-0.3,1.3-0.6,2.7-0.9,4c-0.2,1.2-0.5,2.3-0.7,3.5c-0.4,1.9-0.9,3.7-1.3,5.6
	c-0.7,2.9-1.4,5.7-2,8.6c-0.3,1.3-0.4,2.7-0.5,4.1c0,0.5-0.1,0.9-0.1,1.4c-0.2,2.1-0.3,4.3-0.5,6.4l-0.3,4.4c-0.1,1-0.2,2.1-0.3,3.1
	c-0.3,2.2-0.6,4.6-0.3,6.8c0.3,2.9,0.3,5.7,0.1,9c-0.3,7.1,0.2,14.7,1.6,23.4c0,0,0.4,2.8,0.4,2.8l0.9,4.1c0.2,0.9,0.4,1.8,0.6,2.7
	c0.3,1.2,0.6,2.4,0.9,3.6c0.3,1.3,0.6,2.6,0.9,3.9c0.5,2.1,1,4.2,1.5,6.3c0.2,0.8,0.3,2,0,3.1c-0.5,1.7-1.1,3.5-1.6,5.2
	c-0.4,1.3-0.9,2.7-1.3,4l-0.6,3.3c0.2,1.6,0.6,3.2,1,4.7l0.2,0.7c0.2,0.8,0.5,1.6,0.7,2.4c0.4,1.2,0.8,2.3,1,3.5
	c0.7,3.3,2,5.2,4.4,6.3c1.7,0.8,3.3,1.8,4.9,2.8l0.8,0.5c0.5,0.3,0.9,0.9,1,1.4l0.2,1.2c0.2,1,0.4,3.3,0.2,3.4 M382.3,347.6
	c0.5-2.8,1.1-5.6,1.8-8.4c0.1-0.5,0.2-1,0.4-1.5c0-0.1,0.1-0.2,0.1-0.3c0.6-2.1,1.3-4.3,2.1-6.3c0.4-1,0.7-2.1,1.1-3.1
	c0.1-0.3,0.2-0.6,0.3-1c0.1-0.5,0.3-1,0.5-1.4c0.2-0.4,0.4-0.8,0.7-1.1c0.1-0.1,0.2-0.3,0.3-0.4l0.2-0.3l1,0.4l-0.7,3.8
	c-0.1,0.4-0.2,0.8-0.2,1.1c-0.2,0.9-0.4,1.9-0.5,2.8c0,0.1,0.2,0.3,0.3,0.5c0,0,0,0,0,0c0.2-0.1,0.4-0.3,0.4-0.4l0.2-0.8
	c0.5-2.2,1-4.6,1.3-6.9c0.2-1.6,1.1-2.2,2.4-2.7l0.7-0.3c0,0-0.5,2.2-0.6,2.9c-0.3,1.5-0.6,3-1,4.5c-0.4,1.6-0.9,3.2-1.4,4.8
	c-0.3,0.9-0.5,1.8-0.8,2.7c-0.1,0.2-0.2,0.6-0.1,0.8c0,0.1,0.1,0.1,0.3,0.2c0.1,0,0.1,0,0.2,0c0.2,0,0.2-0.1,0.4-0.8
	c0.4-1.6,0.8-3.3,1.3-4.9c0.6-2.3,1.2-4.6,1.8-6.9c0.3-1,0.4-1.9,0.4-2.7c0-1.7,1.1-2.3,2.4-2.9l0.7-0.3c0,0-0.5,2.3-0.6,3
	c-0.3,1.5-0.6,2.9-1,4.4c-0.9,3.4-1.8,6.9-2.6,10.3l-0.6,2.2l-0.5,1.8l-0.4,1.7c-0.1,0.2-0.2,0.6-0.1,0.8c0,0,0.1,0.1,0.2,0.1
	c0.2,0,0.6-0.5,0.7-0.7c0.1-0.6,0.3-1.2,0.4-1.8c0.1-0.6,0.3-1.2,0.4-1.8c1.6-6.5,3.1-12.8,4.5-18.9l0.1-0.4
	c0.4-1.6,0.4-1.8,1.9-2.5l0.7-0.4l-1.1,6.6c-0.9,5.2-2.4,10.2-3.9,15.1c0,0.1-0.1,0.2-0.1,0.3c-0.2,0.6-0.4,1.2-0.5,1.8
	c-0.4,1.2-0.7,2.4-1.1,3.7l-0.3,0.9c-0.3,0.9-0.5,1.8-0.7,2.7c0,0.2,0.1,0.4,0.2,0.7c0.2-0.1,0.5-0.3,0.5-0.4l1.1-3.7
	c0.4-1.3,0.8-2.6,1.1-4c0.2-0.6,0.3-1.2,0.5-1.8c0.8-2.8,1.6-5.6,2.3-8.5c0.7-2.7,1.2-5.6,1.6-8.3c0.3-1.7,0.6-3.4,0.9-5
	c0.1-0.5,0.4-1,0.7-1.4c0.1-0.2,0.3-0.4,0.4-0.5l0.2-0.3l1.1,0.4l-0.1,0.3c-0.1,0.6-0.2,1.3-0.3,1.9c-0.2,1.5-0.4,3-0.7,4.4
	c-0.4,1.9-1,3.9-1.5,5.8l-0.6,2.1c0,0.1-0.1,0.2-0.1,0.3c-0.2,0.6-0.2,0.7,0.1,0.8c0.1,0,0.2,0.1,0.2,0.1c0.2,0,0.4-0.3,0.6-0.9
	c1.6-5.5,2.6-10.3,2.9-14.9c0-0.1,0-0.2,0.1-0.4l0.1-0.6l0.4,0.1c1.5,0.4,1.3,1.7,1.2,2.2c-0.1,0.6-0.2,1.3-0.3,1.9
	c-0.3,2.1-0.6,4.3-1.1,6.4c-0.4,1.7-0.9,3.4-1.5,5.1c-0.6,1.8-1.2,3.8-1.6,5.7c-0.2,1-0.5,2-0.8,3c-0.2,0.6-0.4,1.2-0.5,1.8
	c-0.5,1.7-1.1,3.4-1.7,5.1c-0.7,1.8-1.3,3.7-1.9,5.6c-1.5,4.8-3.5,9.4-5.5,13.8c-0.5,1.2-1.1,2.4-1.6,3.7c-0.5,1.1-1.2,1.8-2.3,2.1
	c-0.6,0.2-1.2,0.4-1.7,0.5c-1.3,0.4-2.6,0.9-4.1,0.9c-0.3,0-0.5,0-0.8,0c-1.1-0.1-1.9-0.3-2.3-0.9c-0.4-0.6-0.4-1.3-0.2-2.4
	c1.2-6.5,2.3-12.9,3.6-19.4L382.3,347.6z M350.9,379.3C350.9,379.3,350.9,379.3,350.9,379.3c-0.2-0.2-0.3-0.4-0.3-0.5
	c0-0.3,0.1-0.7,0.2-1.2l1-4.2c0.5-2.1,1-4.2,1.5-6.4c0.1-0.5,0.2-1,0.3-1.6c0.1-0.6,0.2-1.3,0.4-1.9c0.1-0.3,0.2-0.7,0.3-1
	c0.2,0.3,0.5,0.6,0.7,0.9c-0.3,0.8-0.5,1.7-0.7,2.6c-0.5,2.3-1,4.6-1.5,6.9c-0.4,2-0.8,4-1.3,6C351.2,379.1,351,379.2,350.9,379.3
	C350.9,379.3,350.9,379.3,350.9,379.3 M309.9,354.7c-2.1,3.2-4.6,5.3-7.7,6.6c-2.8,1.2-5.2,2-7.8,2.4c-0.4,0-0.7,0.1-1.1,0.1
	c-1.3,0-2.5-0.3-3.9-0.6c-0.4-0.1-0.8-0.2-1.2-0.3c-1.1-0.2-2-0.4-2.9-0.8c-1.1-0.5-2.3-1-3.4-1.8c-1.7-1.3-3.3-2.7-4.8-4.1
	l-0.3-0.2c-0.4-0.4-0.8-0.8-1.2-1.3c-0.2-0.2-0.4-0.5-0.6-0.7l-0.4-0.4l-0.3,0.4c-0.1,0.2-0.3,0.4-0.4,0.6c-0.3,0.5-0.6,1-0.9,1.3
	l-0.8,0.8c-1.9,2-3.8,4-5.8,5.9c-2,1.9-4,4-4.7,7.1c-0.1,0.7-0.2,1.4-0.2,2.1c0,0.2,0,0.5,0,0.7c0,0.9-0.3,1.1-0.8,1.2l-0.1,0
	c-0.3,0-0.7-0.1-0.9-1c-0.1-0.7-0.3-1.3-0.4-2c-0.2-1-0.4-1.9-0.6-2.9c-0.6-2.4-2.4-3.9-3.9-5c-2.2-1.5-4.1-3-5.4-5.1
	c-0.5-0.9-0.9-1.9-1.4-2.9c-0.2-0.5-0.4-1-0.6-1.4l-0.3-0.6l-1.2,1.3c-0.6,0.7-1.3,1.4-2,2.1c-4.8,5.3-10.6,8-17.3,8
	c-1.3,0-2.6-0.1-3.9-0.3c-3.7-0.5-6.7-2.6-8.8-4.4l-0.3-0.3c-1.3-1.1-2.6-2.1-3.2-3.7c-0.4-0.9-0.4-1.5-0.2-1.9
	c0.2-0.3,0.7-0.5,1.5-0.5l0.3,0l0.8,0c0.8,0,1.6,0.1,2.4,0.1c0.7,0,1.3,0,1.9-0.1c3.4-0.4,6.9-0.9,9.6-3.6c0.6-0.6,1.4-1,2.2-1.5
	c0.4-0.2,0.8-0.4,1.1-0.7c2-1.3,3.5-2.8,4.4-4.7c0.5-1,1-1.8,1.6-2.3c2.7-2.7,4.5-6,5.8-8.8c0.6-1.3,1.3-2.6,1.9-3.8
	c1-1.9,2-3.8,2.8-5.8c1.6-4.2,2.9-8.4,4.1-12.4c0.7-2.2,1.2-4.6,1.7-6.8c0.2-0.9,0.4-1.9,0.6-2.8c0.1-0.5,0.2-1.1,0.4-1.7l0.3-1.4
	l-2.5,0c-0.6,0-1.1,0-1.6,0c-0.5,0-0.9,0.6-1.1,0.9c-0.2,0.4-0.3,0.8-0.5,1.3c-0.2,0.7-0.4,1.4-0.8,1.9c-0.8,1.1-1.5,2.3-2.2,3.5
	c-1.5,2.4-3,5-5.3,6.9c-1,0.9-2,1.9-2.9,2.8c-0.9,0.9-1.8,1.8-2.7,2.6c-1.1,1-2.5,1.9-3.7,2.7l-0.5,0.4c-0.4,0.2-0.8,0.4-1.2,0.6
	c-0.6,0.3-1.1,0.6-1.6,1c-1.8,1.5-4,1.8-5.9,1.9l-1.8,0.1c-2.6,0.2-5.2,0.3-7.8,0.3c-0.8,0-1.6,0-2.4-0.1c-2.4-0.1-4.8-0.7-7.2-1.3
	l-1.2-0.3c-3.2-0.8-6.6-1.8-9.4-3.9c-4.1-3-7.9-6.7-8.3-12.4c-0.2-2.7-0.2-5.5-0.1-8.7c0.1-1,0.5-1.5,1.4-1.5c0.3,0,0.7,0.1,1.1,0.2
	c0.8,0.2,1.5,0.3,2.3,0.4l0.6,0.1c1.6,0.2,2.2,0.8,2.2,2.5c0,3,0.3,6.6,2.3,9.6c0.8,1.1,1.6,1.9,2.4,2.4c2.9,1.6,6.8,3.5,11.3,3.5
	c0.8,0,1.5-0.1,2.3-0.2c0.9-0.1,1.7-0.2,2.6-0.2c1.3-0.1,2.6-0.1,3.8-0.4c3.9-0.9,7.3-2.6,10.1-5c0.4-0.3,0.6-0.7,0.9-1
	c0.1-0.2,0.3-0.4,0.4-0.5c0.3-0.3,0.5-0.6,0.8-0.9c0.6-0.7,1.2-1.4,1.9-2.1c2.4-2.1,3.9-4.8,5-8.5l0.1-0.5l-4.6,0
	c-0.9,0-2.8,0-2.8,0c-0.8,0-1.3,0-1.5-0.2c-0.2-0.2-0.2-0.9-0.2-1.7c0-1.5,0-3,0-4.4c0-1.3,0-2.6,0-3.9c0-2.1,0.1-4.1,0.2-6.2
	c0-0.9,0.3-1.2,1.5-1.3l7.7-0.3c0.2,0,0.3,0,0.5-0.1l0.7-0.1l0-0.4c-0.1-0.8-0.2-1.7-0.2-2.5c-0.1-1.8-0.3-3.7-0.7-5.6
	c-0.9-3.9-1.9-8.1-3.5-12c-1-2.5-2.4-4.9-3.8-7.2c-0.4-0.7-0.8-1.4-1.2-2l-0.6-1c-1.1-1.9-2.2-3.8-3.5-5.4c-3-3.6-7.1-7.9-13.2-10.3
	c-2.6-1-5.4-1.5-8.7-1.5c-1.5,0-3.2,0.1-5.3,0.3c-3,0.3-5.8,1.2-8.6,2.8c-6,3.3-9.6,8-10.7,14.1c-0.5,2.8-0.5,5.4,0.2,8
	c0.4,1.5,1,3,2.8,3.6c0.2,0.1,0.3,0.2,0.6,0.4c0.1,0.1,0.3,0.2,0.5,0.4l1.3,0.9l-1.2-2.5c-1.5-3-2-6.3-1.6-10.1l0-0.3
	c0.1-0.1,0.3-0.3,0.5-0.5c0.1,0.2,0.2,0.4,0.2,0.5c0,0.5,0,1.1-0.1,1.6c0,0.4-0.1,0.9-0.1,1.3c-0.1,3.6,1.2,6.9,3.6,9.9
	c0.1,0.2,0.3,0.4,0.4,0.6c0.2,0.3,0.3,0.5,0.5,0.7c0.2,0.2,0.4,0.3,0.6,0.3c0.1,0,0.2,0.1,0.3,0.1l0.8,0.3l-0.3-0.8
	c-0.2-0.7-0.5-1.4-0.7-2c-0.6-1.5-1.1-2.9-1.5-4.4c-0.4-1.7-0.6-3.5-0.8-5.3l0-0.5c0,0,0.2-0.2,0.4-0.3c0.1,0.2,0.2,0.4,0.2,0.5
	c-0.1,3.8,1.4,7.2,2.9,10.5c0.2,0.5,0.4,1,0.7,1.5c0.2,0.6,0.9,0.8,1.5,1.1c0.2,0.1,0.5,0.2,0.7,0.3l0.3,0.2l0.5-0.8l-0.1-0.3
	c0,0-1.9-3.6-2.5-4.7c-1-1.9-1.4-3.9-1.2-5.8c0-0.1,0-0.2,0-0.3c0-0.2,0-0.4,0.1-0.5c0.2,0.1,0.5,0.5,0.5,0.8
	c-0.1,4.5,2.3,7.9,4.5,10.9c0.1,0.1,0.2,0.2,0.3,0.2l0.6,0.3l0.1-0.6l0-0.2c0-0.2,0-0.4-0.1-0.5l-2.5-6.4c-0.1-0.3-0.2-0.5-0.1-0.5
	c0.1-0.2,0.2-0.4,0.3-0.6c0.1,0.1,0.3,0.3,0.3,0.4c0.4,1.1,0.9,2.2,1.3,3.3c0.5,1.3,1,2.5,1.5,3.8c0.1,0.4,0.5,0.6,0.7,0.8
	c0.1,0.1,0.2,0.2,0.3,0.3l0.3,0.3l0.7-0.7l-0.5-1.2c-0.4-1.1-0.8-2.1-1.3-3.2c-0.1-0.3-0.2-0.6-0.2-0.7c0-0.1,0.1-0.3,0.2-0.5
	c0.1,0.1,0.4,0.2,0.4,0.2c0.8,1.6,1.3,3,1.8,4.2c0.4,1,1,1.5,2,1.5c0.3,0,0.7-0.1,1.1-0.2l0.9-0.2l-0.8-0.5c-1.3-0.8-2-1.9-2.1-3.3
	c0-0.2,0.1-0.4,0.2-0.6c0.1,0.1,0.4,0.3,0.4,0.3c0.2,1.6,1.2,2.4,2.2,3.3c0.2,0.2,0.5,0.4,0.7,0.6c0.3,0.2,0.6,0.3,1,0.3
	c0.2,0,0.3,0,0.5,0.1l1.2,0.2l-1.5-1.7c-0.5-0.5-0.9-1-1.3-1.5c-0.2-0.2-0.3-0.6-0.3-1c0-0.1,0.1-0.3,0.2-0.3c0,0,0.2,0.1,0.3,0.1
	c0.7,1.8,2.3,2.5,3.8,3c0.2,0.1,0.5,0.2,0.7,0.3c0.2,0.1,0.4,0.1,0.7,0.1c0.2,0,0.4,0,0.5,0c0.2,0,0.3,0,0.5,0h0.3l0.2-1
	c0,0-0.6-0.3-0.7-0.4c-0.3-0.2-0.6-0.3-0.9-0.5c-0.5-0.4-0.9-0.8-1.2-1.2c0,0,0-0.2,0.1-0.3c0,0,0.1,0,0.1,0c0.2,0,0.4,0,0.5,0.1
	c0.4,0.2,0.8,0.5,1.2,0.8c0.6,0.4,1.2,0.8,1.8,1.1c0.2,0.1,0.4,0.1,0.6,0.1c0.2,0,0.5,0,0.7-0.1c0.2,0,0.3-0.1,0.5-0.1l0.4,0
	l-0.1-0.9l-0.2-0.1c-0.2-0.1-0.4-0.2-0.6-0.3c-0.5-0.2-1-0.5-1.3-0.8c-0.1-0.1-0.1-0.3-0.2-0.5c0.1,0,0.2,0,0.3,0
	c1.5,0.7,2.4,1,3.1,1c1.1,0,1.6-0.7,2.7-2l0.3-0.4c0.5-0.6,0.8-1.3,1.1-2c0.2-0.4,0.4-0.9,0.6-1.3c0.2-0.4,0.6-0.7,0.8-0.7
	c0.2,0,0.6,0.3,0.8,0.7c0.1,0.2,0.1,0.5,0.1,0.8l0,0.4c0.1,4.2-1.1,8.2-3.7,12.4c-2.6,4.2-5.4,6.6-9.2,7.7c-2.1,0.6-4.4,0.9-7,0.9
	c-0.9,0-1.9,0-2.8-0.1c-0.6,0-1.2-0.1-1.8-0.1c-3.1,0-6.1,0.5-9,1.4c-1.2,0.4-2.5,0.7-4,1c-2.4,0.4-4.2,1.9-5.9,3.3l-0.3,0.3
	l0.3,0.3c0.1,0.1,0.1,0.1,0.2,0.2c0,0,0.1,0.1,0.1,0.1c0.1,0.2,0.1,0.4,0.2,0.6c-0.2,0.1-0.4,0.1-0.6,0.1c-0.1,0-0.3,0-0.4,0l-1,0
	l-0.1,1l0.2,0.1c0.2,0.1,0.3,0.2,0.5,0.3c0.4,0.2,0.7,0.4,0.9,0.6c0.1,0.1,0.1,0.3,0.2,0.5c-0.2,0.1-0.3,0.1-0.4,0.1
	c-0.3-0.1-0.6-0.3-1-0.5l-0.2-0.1c-0.3-0.2-0.6-0.3-0.8-0.3c-0.8,0-1.1,0.8-1.2,1.1l-0.1,0.4l1.2,0.6c0.6,0.3,1.3,0.6,1.9,1l0.3,0.1
	c0.2,0.1,0.5,0.2,0.6,0.4c0.1,0.1,0.1,0.3,0.1,0.6c-0.1,0-0.3,0.1-0.4,0.1c-1.1-0.5-2-1-3.1-1.6l-2.2-1.2l0.3,0.9
	c0.1,0.2,0.1,0.4,0.1,0.6c0.1,0.4,0.1,0.7,0.4,0.9c2.2,1.4,4.5,2.7,6.7,4l0.2,0.1c0.2,0.1,0.5,0.3,0.5,0.4c-0.1,0.2-0.4,0.3-0.7,0.3
	c-0.1,0-0.2,0-0.3,0c-1.4-0.7-2.8-1.6-4.1-2.4l-0.7-0.4c-0.3-0.2-0.7-0.4-1-0.6c-0.4-0.3-0.9-0.6-1.3-0.8l-0.1-0.1l-0.2,0
	c-0.2,0-0.4,0.1-0.5,0.1c-0.1,0-0.1,0.1-0.2,0.1l-0.5,0.1l0.2,0.5c0,0.1,0,0.1,0.1,0.2c0.1,0.2,0.1,0.5,0.3,0.7
	c0.4,0.3,0.8,0.6,1.3,0.8c3,1.6,6.1,3.3,9.1,4.9l0.2,0.1c0.6,0.3,0.6,0.4,0.5,0.6c-0.1,0.3-0.2,0.3-0.3,0.3c-0.2,0-0.4-0.1-0.7-0.2
	l-0.6-0.3c-0.9-0.4-1.9-0.9-2.7-1.4c-2-1.1-4-2.2-6-3.4c-2.4-1.4-4.9-2.8-7.4-4.2c-2-1.1-3.4-2.7-4.9-4.5c-0.6-0.7-1.3-1.4-2-2.1
	c-0.8-0.8-1.5-1.6-2.2-2.4c-0.4-0.5-0.9-1.1-1.3-1.7c-0.4-0.5-0.8-1.1-1.1-1.7c-0.4-0.7-0.8-1.3-1.2-2c-2.5-5.2-4.4-11.1-5.6-17.4
	c-0.6-3.1-0.5-6.2,0.3-9.4c0.2-0.8,0.4-1.5,0.7-2.3c0.1-0.4,0.2-0.8,0.4-1.2c0.3-1,0.7-2,1-3c0.3-1,0.6-1.9,1-2.9l0.2-0.5l-1.6-0.2
	c-0.9-0.1-1.9-0.2-2.9-0.3c-2.8-0.3-5.5-1.3-8.2-3c-1.4-0.9-2.6-2.2-3.8-3.4l-0.7-0.8c-2.5-2.6-4.4-5.5-5.4-8.7
	c-0.2-0.5-0.1-1.2,0-1.4c0.1-0.1,0.5-0.2,1-0.2c0.2,0,0.3,0,0.5,0c2.7,0.5,5.1,0.7,7.3,0.7c3.6,0,6.7-0.6,9.8-1.8
	c3.5-1.4,6.5-3,9.2-4.8c3.7-2.5,7.8-5,11-7.1l0.9-0.6c1.8-1.1,3.6-2.3,5.5-3.1c2-0.9,4.2-1.6,6.3-2.2c0.7-0.2,1.3-0.4,2-0.6
	c0.6-0.2,1.3-0.3,1.9-0.4l0.2,0c1-0.1,1.9-0.3,2.9-0.4c1.9-0.3,3.8-0.6,5.7-0.6c0.5,0,1,0,1.4,0.1c0.8,0.1,1.6,0.1,2.5,0.1
	c0.7,0,1.4,0,2.1,0c0.7,0,1.4,0,2.1,0c0.5,0,1.1,0,1.6,0c1,0.1,2,0.3,3.1,0.6c0.4,0.1,0.8,0.2,1.1,0.3l0.7,0.2
	c1.2,0.3,2.4,0.6,3.5,0.9c1.2,0.4,2.4,0.9,3.6,1.3c0.6,0.2,2,0.8,2,0.8c0.7,0.3,1.5,0.6,2.3,0.8c2.4,0.8,4,1.9,5.1,3.6
	c0.3,0.5,0.8,0.8,1.3,1.2l0.2,0.2c0.8,0.6,1.6,1.2,2.5,1.8c1.7,1.2,3.4,2.4,5,3.7c1.7,1.4,3.3,3.1,5.3,5.5c0.8,1,1.5,2.1,2.1,3.2
	c0.2,0.4,0.4,0.7,0.6,1.1c0.5,0.8,1,1.7,1.5,2.5c0.8,1.3,1.6,2.7,2.4,4c2.3,3.6,4.1,7.5,5.2,11.8c0.4,1.4,0.8,2.8,1.3,4.1
	c0.7,2,1.3,4.1,1.8,6.2c0.8,3.6,1.3,7.2,1.9,10.8l0.4,2.5c0.5,3.6,0.9,6.5,1.2,9.2c0.1,1.2,0.1,2.4,0.1,3.6c0,0.6,0,1.2,0,1.8v0.5
	l5-0.7l-0.4-3.4c-0.2-2.1-0.5-4.2-0.6-6.3c-0.6-6.1-1.8-12.3-2.9-18.2c-0.5-2.8-1.1-5.5-1.6-8.3c-1-5.9-3-11.4-6-16.9
	c-0.6-1.1-1-2.4-1.5-3.6c-0.2-0.6-0.4-1.2-0.6-1.8c-1.3-3.5-3.1-6.7-5.4-9.9c-1.1-1.6-2-3.4-2.8-5.1l-0.3-0.6
	c-1.7-3.5-3.2-6.7-4.5-9.9c-1.3-2.9-2.5-6.4-1.9-10.2c0.1-0.6-0.2-1.5-0.7-1.9c-1.1-0.9-2.2-1.8-3.3-2.6l-0.3-0.2
	c-0.7-0.5-1.3-0.9-2-1.4c-0.4-0.3-0.9-0.6-1.3-0.9c-1.8-1.3-2.9-3.1-3.9-5l-1-1.7c-1.2-2-2.3-4-3.4-6c-1.4-2.7-2.2-5.7-2.4-9
	c-0.3-5.6,0.6-11,2-17.3c0.9-4,1-7.4,0.4-10.7c-0.5-2.5-1.1-5-3.1-7.1c-0.2-0.2-0.3-1-0.1-1.4c0.1-0.1,0.6-0.5,0.8-0.5l1.2,0.1
	c1.9,0.2,3.8,0.5,5.5,1.1c2.6,0.8,5.3,2,8.6,3.6c0.9,0.4,1.7,1.1,2.4,1.7c0.3,0.3,0.6,0.5,0.9,0.7l0.5,0.4l0.1-0.6
	c0.2-1,0.4-2.1,0.6-3.2c0.5-2.5,1-5.1,1.8-7.7c1.1-3.5,2.5-6.9,4-10.4c1.3-3,3.8-5.3,6.1-7.1c0.8-0.7,1.7-1.3,2.5-2
	c1.6-1.2,3.3-2.5,4.7-4c2.6-2.7,4.9-5.6,7.2-8.7c1.5-2,2.4-3.7,2.9-5.3c0.5-1.6,0.5-3.3,0.6-4.9c0-0.5,0-0.9,0.1-1.4l0-0.2
	c0-0.9,0.1-1.1,0.7-1.1h0c0.3,0,0.6,0.2,0.8,0.5c0.3,0.3,0.4,0.6,0.3,0.9c-0.5,2.9-0.3,5.4,0.6,7.8c0.4,1,0.9,2,1.4,2.9
	c1.7,3.2,4.1,5.7,6.2,7.8c1.1,1.1,2.4,2,3.6,2.8c0.5,0.4,1.1,0.7,1.6,1.1c0.4,0.3,0.7,0.5,1.1,0.8c0.7,0.5,1.5,1,2.2,1.6
	c2.8,2.6,5.4,4.9,7.8,7.4c1.1,1.1,1.9,2.5,2.5,3.8c1.1,2.1,2,4.1,2.8,6.1c1.7,4.4,2.5,8.2,2.6,11.9l0,1.5l1,0.5l0.2-0.4
	c1.4-3.4,4.4-4.9,7.5-6.5c0.6-0.3,1.3-0.6,1.9-1c0.7-0.4,1.7-0.6,2.9-0.7c0.5,0,1-0.1,1.5-0.1c0.7-0.1,1.4-0.1,2.1-0.1
	c1.1,0,1.9,0.2,2.7,0.5c0.5,0.2,1.2,0.6,1.3,1.1c0.1,0.4,0,0.8-0.4,1.3c-2.3,3.1-2.8,6.6-2.9,9.9c-0.1,4.2,0.4,8,1.5,11.6
	c0.2,0.5,0.3,1,0.3,1.5c0,0.9,0,1.8,0.1,2.8c0.1,3.9,0.2,8-0.9,11.9c-0.4,1.4-1.1,2.8-1.7,4.1c-0.3,0.7-0.7,1.4-1,2.1
	c-1.6,3.6-3.3,7.4-6,10.4c-1.4,1.6-3.1,3-4.7,4.3l-0.7,0.6c-0.8,0.7-1.7,1.3-2.5,1.9c-0.5,0.4-1.1,0.8-1.6,1.2
	c-0.3,0.2-0.5,0.7-0.5,1c0.3,3.6-0.5,7.2-2.5,11.3c-1.1,2.3-2.2,4.8-3.2,7.1c-0.8,1.9-1.6,3.7-2.5,5.6c-0.5,1.1-1.1,2.2-1.7,3.3
	c-0.6,1.1-1.3,2.2-1.8,3.4c-1.4,3.1-2.8,6.3-4.1,9.4l-1.4,3.2c-1.6,3.8-3.3,7.8-4.8,11.7c-1.5,3.7-2.2,7.7-2.9,11.5
	c-0.2,0.9-0.3,1.8-0.5,2.8c-1.4,7.6-1.5,15.2-1.4,22.2c0,0.3,0,1.7,0,1.7l4.6-0.6c0,0-0.1-1.5-0.1-2c-0.1-1.2-0.1-2.3-0.2-3.5l0-1.7
	c0-2.3-0.1-4.6,0.1-6.9c0.3-3.4,0.8-6.7,1.4-9.7c0.8-3.8,1.8-7.7,3.3-12.9c0.4-1.5,1.1-2.9,1.8-4.2l0.3-0.7c0.4-0.7,0.8-1.5,1.2-2.2
	c0.6-1.1,1.3-2.2,1.8-3.4c1.8-4.4,4.6-8.1,7.4-11.8l1.4-1.8c2.1-2.8,4.6-4.9,7.3-7.2l1.1-1c5-4.3,10.8-7.2,17.9-10.1
	c4.2-1.8,7.8-2.7,11.1-2.9c3.1-0.2,6.8-0.4,10.4-0.4c1,0,2.1,0,3.1,0.1c3.1,0.1,5.9,0.8,8.3,2c1.1,0.6,2.3,1,3.5,1.5
	c0.4,0.2,0.8,0.3,1.3,0.5c5,1.9,8.9,4.4,12,7.6c0.8,0.8,1.9,1.5,2.9,2c0.4,0.2,0.8,0.5,1.2,0.7l0.7,0.4c2.3,1.5,4.6,2.9,7,4.3
	c2.5,1.5,5.2,2.4,8,2.7c1.8,0.2,3.5,0.3,5.3,0.4l2,0.2c0.1,0,0.2,0,0.3,0c1.4,0,2.4-0.7,3.3-1.3c0.2-0.2,0.7-0.3,0.9-0.3
	c0.3,0.2,0.6,0.7,0.5,1.1c-0.4,4.1-1.9,7.5-4.3,10.2l-0.4,0.4c-1.7,1.9-3.4,3.8-5.5,5.2c-3.8,2.7-7.9,4.2-12.1,4.5
	c-0.3,0-0.6,0.2-0.6,0.5l0,0.1c0,0,0.6,1.2,0.8,1.7c0.6,1.2,1.2,2.4,1.8,3.5c1.1,1.9,1.3,4,1.5,6.2l0,0.2c0.5,6.2-0.6,12.3-3.4,18
	c-0.6,1.3-1.2,2.7-1.8,4.6c-0.8,2.5-1.9,4.5-3.3,6.2l-0.7,0.8c-1.9,2.2-3.8,4.4-5.9,6.4c-1.2,1.1-2.9,1.8-4.6,2.4
	c-1.2,0.5-2.3,0.7-3.5,1c-0.5,0.1-1,0.2-1.5,0.4c-0.1,0-0.1,0-0.2,0c-0.2,0-0.4,0.1-0.6,0.2c-1.8,1.2-3.9,1.8-5.9,2.3
	c-1,0.3-2,0.6-3,0.9l-0.2,0.1c-0.1,0-0.1,0.1-0.2,0.1l-0.2,0c-0.2,0-0.5,0.1-0.6,0.1c-0.2,0-0.3,0-0.4-0.3c0-0.1,0-0.2,0-0.3
	c0.1-0.1,0.4-0.2,0.7-0.3c0,0,1.1-0.3,1.5-0.4c1.1-0.3,2.2-0.6,3.3-1c1.3-0.5,2.5-1.1,3.8-1.6l0.4-0.2c0.3-0.1,0.4-0.4,0.4-0.8
	c0-0.1,0.1-0.3,0.1-0.4l0.2-0.8l-2.5,1c-1.5,0.6-2.9,1.2-4.3,1.7c-0.1,0-0.3,0.1-0.5,0.1c-0.3,0-0.4,0-0.4-0.1c0,0-0.1-0.1,0-0.2
	c0-0.1,0.1-0.2,0.6-0.4c0.7-0.3,1.4-0.6,2.2-0.8c0.5-0.2,1.1-0.4,1.6-0.6c0.4-0.1,0.8-0.3,1.1-0.5l0.7-0.3l0-1.1l-0.4,0
	c-0.1,0-0.3,0-0.4-0.1c-0.2-0.1-0.5-0.1-0.7-0.1c-0.1,0-0.3,0-0.4,0.1c-0.5,0.1-0.9,0.3-1.4,0.5c-0.4,0.2-0.8,0.3-1.3,0.5h0
	c-0.2,0-0.3,0-0.5-0.1c0,0,0,0,0,0c0-0.2,0.1-0.4,0.2-0.5c0.5-0.3,1.1-0.5,1.8-0.8c0.3-0.1,1-0.4,1-0.4l0-1l-0.4,0
	c-0.1,0-0.2,0-0.3-0.1c-0.2,0-0.4-0.1-0.6-0.1c-0.1,0-0.3,0-0.4,0.1c-0.2,0.1-0.3,0.2-0.5,0.2c-0.2,0.1-0.4,0.2-0.5,0.2
	c0,0-0.1,0-0.1-0.1c0-0.1,0.2-0.5,0.3-0.7c0.1-0.2,0.2-0.5,0.3-0.8l0.2-0.5l-0.5-0.1c-0.1,0-0.1,0-0.2,0c-0.2,0-0.4,0-0.6-0.1
	c-0.3-0.1-0.6-0.5-0.7-0.7c-0.1-0.1-0.2-0.3-0.3-0.5c-0.2-0.4-0.4-0.8-0.8-0.9c-1.3-0.6-2.5-1-3.7-1.3c-2-0.5-4.1-0.9-6.4-1.2
	c-0.3,0-0.6-0.1-0.9-0.1c-0.4,0-0.8,0-1.2,0.1l-0.6,0c-0.4,0-0.8,0-1.2,0c-3,0-5.9-0.6-8.1-1.1c-0.6-0.1-1.3-0.3-2-0.4
	c-1-0.2-2.1-0.4-3.1-0.7c-0.8-0.3-1.7-0.7-2.7-1.6c-0.6-0.4-1.1-1-1.6-1.5c-0.5-0.5-1-1-1.6-1.5c-2.4-1.9-3.9-4.3-4.6-7.4
	c-0.3-1.1-0.6-2.1-0.9-3.2c-0.3-1.1-0.6-2.2-0.9-3.3c-0.2-0.6-0.2-1.3-0.1-1.9c0.1-0.6,0.5-1,0.9-1c0.3,0,0.6,0.1,0.9,0.4
	c0.4,0.4,0.9,0.9,1.2,1.4c0.6,1.2,1.5,1.4,2.2,1.4c0,0,0.4,0,0.5,0l0.6,0c0.5,0,0.5,0.1,0.5,0.4c0,0.1,0,0.2,0,0.2
	c0,0-0.1,0.1-0.4,0.1l-0.4,0c-0.2,0-0.3,0-0.5,0.1l0,0l-0.2,0.1l-0.4,0.2l0.2,0.4c0.4,0.6,0.9,1.2,1.9,1.2c0.2,0,0.5,0,0.8-0.1
	c0.3-0.1,0.6-0.2,0.9-0.3c0.3-0.1,0.7-0.2,1-0.3c0.1,0,0.3,0.1,0.4,0.2c0,0,0,0,0,0c-0.1,0.2-0.1,0.4-0.2,0.4
	c-0.2,0.2-0.5,0.3-0.9,0.4c-0.2,0.1-0.3,0.1-0.5,0.2l-0.5,0.2l0.3,0.4c0.4,0.5,0.8,0.8,1.3,0.8c0.4,0,0.7-0.1,1.1-0.4
	c0.3-0.2,0.6-0.5,0.9-0.7c0.2-0.2,0.5-0.4,0.7-0.6l0.3-0.3c0.4-0.3,0.8-0.7,1.2-0.9c0,0,0,0,0.1,0c0.2,0,0.3,0,0.4,0.1v0
	c0,0.2-0.1,0.5-0.2,0.6c-0.7,0.6-1.5,1.2-2.2,1.8l-1.3,1l0.4,0.3c0.5,0.5,1.1,0.7,1.6,0.7c0.4,0,0.8-0.1,1.2-0.4
	c1.2-0.8,2.3-1.7,3.5-2.6l1-0.8c0.1-0.1,0.3-0.2,0.4-0.4c0.1-0.1,0.2-0.3,0.3-0.3c0.2-0.1,0.5-0.1,0.8-0.1c0,0.2-0.1,0.5-0.2,0.5
	c-1.1,1-2.2,1.9-3.4,2.8l-2,1.7l0.5,0.3c0.7,0.4,1.4,0.6,2,0.6s1.2-0.2,1.7-0.6c2.1-1.6,4.1-3.2,5.4-5.5c0.1-0.2,0.4-0.7,0.6-0.7
	c0.1,0,0.1,0,0.2,0.1c0,0.1,0,0.8-0.1,0.9c-1.2,1.5-2.6,3-3.9,4.4l-0.3,0.3c-0.2,0.3-0.5,0.5-0.8,0.7c-0.1,0.1-0.3,0.2-0.4,0.3
	l-0.5,0.4l0.7,0.3c0.6,0.3,1.2,0.4,1.6,0.4c0.8,0,1.5-0.4,2.2-1.2c0.4-0.4,0.7-0.8,1.1-1.2c0.7-0.8,1.4-1.5,2-2.4
	c0.4-0.6,0.8-1.2,1.1-1.8c0.2-0.4,0.5-0.9,0.7-1.3c0.1-0.2,0.3-0.3,0.5-0.4c0.1,0.3,0.2,0.5,0.1,0.7c-0.5,1.9-1.8,3.3-3.1,4.8
	l-0.6,0.7c-0.3,0.3-0.5,0.6-0.8,1l-0.8,1l0.5,0.2c0.5,0.2,0.9,0.2,1.2,0.2c0.7,0,1.2-0.3,1.7-0.9c2.1-2.5,3.9-5.5,5.5-9.4
	c0.1-0.2,0.3-0.3,0.5-0.5c0.1,0.2,0.2,0.5,0.2,0.6c-1.2,2.6-2.6,5.1-3.9,7.6l-0.2,0.4c-0.1,0.3-0.3,0.5-0.6,0.8
	c-0.1,0.1-0.2,0.3-0.3,0.4l-0.2,0.3l0.7,0.8l0.3-0.2c0.1-0.1,0.2-0.1,0.3-0.2c0.3-0.2,0.6-0.3,0.8-0.6c2.4-3.2,5-7.1,6.3-11.7
	c0-0.1,0-0.2,0.1-0.3c0-0.1,0-0.2,0.1-0.2c0.1-0.1,0.3-0.2,0.5-0.4c0.1,0.1,0.2,0.3,0.2,0.4l-0.2,0.7c-0.4,1.3-0.8,2.7-1.4,4
	c-0.9,1.7-1.9,3.4-2.8,5.1c-0.4,0.7-0.8,1.4-1.2,2.1l-0.4,0.6l0.7,0c1.5,0,2.1-0.4,2.7-1.6c2-4.1,4.1-8.3,4.5-13.1
	c0-0.2,0-0.3,0.1-0.3c0.2-0.2,0.4-0.4,0.5-0.5c0.1,0.2,0.2,0.4,0.2,0.5c-0.4,3.6-1.4,7.1-3,10.4c-0.1,0.2-0.1,0.3-0.2,0.5l-0.2,0.5
	l0.9,0.6l0.2-0.3c0.2-0.3,0.5-0.7,0.7-1c0.6-0.7,1.1-1.5,1.6-2.3c1.4-2.5,1.6-5.2,1.7-7.7c0.2-6.8-3.4-11.4-7.4-15.3
	c-1.5-1.6-3.3-2.1-5.3-2.8l-0.2-0.1c-2.2-0.7-4.8-1.5-7.6-1.6c-0.3,0-0.7,0-1,0c-2.2,0-4.6,0.4-7.5,1.2c-1.5,0.4-2.9,0.9-4.3,1.4
	c-4.9,1.8-9.4,4.9-13.5,9.5c-0.5,0.5-1,1-1.4,1.5c-0.3,0.3-0.6,0.6-1,1c-1.8,1.9-3.3,4.1-4.3,6.6l-0.2,0.4
	c-1.8,4.3-3.6,8.8-5.3,13.3c-1.2,3.4-1.7,7.1-1.3,11.2l0,0.4l4.4,0c0.9,0,1.7,0,2.6,0c1.3,0,1.5,0.2,1.6,1.4
	c0.7,6.2,1,10.9,0.8,15.4c0,0.8-0.4,1.2-1.2,1.4c-1.3,0.2-2.7,0.4-4,0.5l-1.3,0.2c-0.3,0-0.6,0.1-1.1,0.1l-1.4,0.1l0.3,0.5
	c0.2,0.5,0.4,0.9,0.6,1.3c0.4,1,0.8,1.9,1.4,2.7l0.8,1.1c1.3,1.9,2.7,3.8,4.5,5.2c3.9,3.1,8.3,6.2,13.6,8.1c2.6,0.9,5.1,1.3,7.8,1.3
	c2.4,0,4.7-0.3,7.3-1c6-1.7,9.8-5.8,11.2-12.4c0.3-1.6,0.5-1.7,2.2-1.7c0.4,0,0.9-0.1,1.3-0.1c0.4,0,0.7-0.1,1.1-0.1l0.2,0
	c0.8,0,1.1,0.3,1.2,1.2c0.2,4.3-0.9,8.4-3.3,12.7c-3.4,6.1-8.9,9.7-17.3,11.5c-2.1,0.4-4.4,0.7-6.9,0.7c-1.2,0-2.4,0.1-3.7,0.1
	c-2.8,0-6.5-0.1-10.1-1.1l-1.6-0.4c-3.5-0.9-6.8-1.8-9.7-3.9c-0.2-0.1-0.4-0.2-0.5-0.3c-0.1,0-0.2-0.1-0.3-0.1l-0.9-0.6
	c-0.9-0.6-1.8-1.3-2.7-2.1c-0.7-0.6-1.3-1.3-2-1.9c-0.7-0.7-1.3-1.4-2-2c-3.6-3.2-5.8-7.3-6.8-12.6c-0.1-0.7-0.3-1.4-0.4-2l-0.3-1.4
	c-0.2-1.2-0.5-2.3-1.9-2.3c-0.4,0-1,0.1-1.8,0.3l-0.3,0.1l0,0.4c0.1,0.6,0.2,1.3,0.3,1.9c0.2,1.5,0.4,3,0.7,4.5
	c0.6,2.8,1.3,5.8,2.3,8.5c1,2.7,2.2,5.3,3.3,7.9c0.5,1.2,1.1,2.4,1.6,3.6c0.2,0.5,0.4,0.9,0.5,1.4c0.3,0.8,0.7,1.7,1.1,2.5
	c0.8,1.5,1.7,3,2.6,4.5c0.5,0.9,1.1,1.8,1.6,2.7c0.3,0.6,0.6,1.2,0.9,1.8c0.6,1.1,1.1,2.2,1.9,3.2c1.4,2,3,3.9,4.6,5.7l1.2,1.4
	c0.9,1.1,1.9,2.3,3,3.3c2.7,2.6,5.7,5,9.8,5.1l0.4,0c1.1,0,2.3-0.1,3.4-0.2c0.8-0.1,1.7-0.1,2.5-0.2h0c0.4,0,0.8,0.2,0.8,0.3
	C310,353.9,310.1,354.5,309.9,354.7 M119.2,312.9l2.3,9.9c0.4,1.9,0.6,3.9,0.9,5.8c0.3,1.8,0.5,3.6,0.9,5.5c1,5.6,2,10.5,3.1,15.3
	l0.7,2.6c0.3,1.1,0.6,2.3,1,3.4 M277,441.1c-0.3-1.6-0.6-3.2-1-4.7c-0.6-2.5-2-4.5-4.1-6c-0.3-0.2-0.6-0.5-1-0.8
	c0.6-0.3,1-0.6,1.4-0.9c1.8-0.9,2.8-2.4,3.6-4.1c1-2.1,1.1-4.3,1.1-6.5c0-1.9,0.1-3.8-0.4-5.6c-0.5-1.9-0.8-3.8-1.3-5.7
	c-0.1-0.4-0.3-0.8-0.5-1.1c-1.9-3.1-4.5-5.6-7.8-7.2c-0.5-0.3-1.1-0.5-1.7-0.6c-3.5-1-7.1-0.8-10.6-0.7c-2.3,0-4.7,0-7-0.1
	c-1.1,0-2.2-0.1-3.3-0.1c-0.3,0-0.6,0.3-0.7,0.5c-0.1,0.1,0.1,0.5,0.2,0.6c0.7,0.5,1.1,1.2,1.1,2c0,2.3,0,4.6,0,6.9
	c0,5.2-0.1,10.3,0,15.5c0,7.4,0.2,14.9,0.2,22.3c0,4.6-0.1,9.2-0.1,13.8c0,0.9-0.1,1.8-0.1,2.7c0,1.2-0.2,2.4-1.4,3.1
	c-0.1,0-0.1,0.1-0.2,0.2c-0.2,0.3-0.3,0.7-0.4,1c0.3,0.1,0.7,0.4,1,0.4c1.6,0,3.2-0.1,4.8,0c1.6,0,3.1,0.2,4.7,0.2
	c1.9,0.1,3.8,0.1,5.7,0.1c0.5,0,1-0.2,1.6-0.2c2.3,0,4.5-0.3,6.6-1.3c1-0.5,2-1.2,2.9-1.8c3-1.9,4.9-4.7,5.8-8
	c0.7-2.6,0.9-5.3,1.3-8c0-0.1,0-0.2,0-0.3C276.9,444.7,277.3,442.9,277,441.1 M266.5,449.6c-0.6,2.8-2.8,4.5-5.4,4.9
	c-1.6,0.3-3.3,0.3-4.9,0.4c-0.5,0-0.6-0.2-0.6-0.6c0-1,0-2,0-2.9c0-1,0-1.9,0-2.9h-0.1c0-3.8,0-7.6,0-11.4c0-0.8,0-1.6-0.1-2.4
	c0-0.5,0.1-0.7,0.6-0.7c1.6,0.1,3.2,0.2,4.8,0.2c2.1,0,3.5,1.3,4.7,2.9c1.1,1.5,1.3,3.3,1.4,5C267,444.6,267.1,447.2,266.5,449.6
	 M266.8,418.4c-0.2,1-0.4,1.9-0.8,2.9c-0.7,1.7-2,2.6-3.7,3c-1.2,0.3-2.5,0.4-3.7,0.5c0-0.1,0-0.1,0-0.2c-0.7,0.1-1.4,0.1-2.2,0.2
	c-0.7,0.1-0.9-0.1-0.9-0.8c0.1-1.6,0.2-3.2,0.2-4.8c0-1.3,0-2.5,0-3.8c0-2.6,0-5.2,0-7.8c0-0.4,0.1-0.6,0.5-0.6c2.5,0.1,4.9,0,7.3,1
	c1.5,0.6,2.2,1.8,2.7,3.1C267.1,413.5,267.2,415.9,266.8,418.4 M283.8,461.8c0-1.8,0.1-3.5,0.1-5.3c0-11.1,0.1-22.2,0-33.3
	c0-7.9-0.2-15.8-0.3-23.6c0-1.1,0-2.2-0.9-3c-0.1-0.1-0.2-0.6-0.1-0.7c0.2-0.2,0.5-0.3,0.8-0.4c1.6,0,3.2,0,4.8,0
	c2.2,0,4.4-0.1,6.5-0.1c1.2,0,1.3,0.3,0.9,1.4c-0.5,1.6-0.9,3.3-1,5c-0.2,4.3-0.3,8.6-0.3,12.9c0,3.2,0.1,6.4,0.1,9.7
	c0,0.5,0.1,0.8,0.7,0.8c3.2-0.1,6.4-0.1,9.7-0.1c0.7,0,1-0.3,1-1c0-7.7,0-15.4,0-23c0-1.7-0.2-3.4-1.2-4.9c-0.3-0.5-0.1-0.8,0.5-0.9
	c0.2,0,0.4-0.1,0.6-0.1c3.7-0.1,7.5-0.2,11.2-0.3c0.9,0,1.2,0.5,0.8,1.2c-0.7,1.1-0.8,2.3-0.8,3.6c-0.2,10.2-0.4,20.4-0.5,30.6
	c0.1,0,0.1,0,0.2,0c0,7.7,0,15.4,0,23c0,2.6,0.2,5.2,0.2,7.8c0,1.2,0.5,2.1,1.2,3c0.7,0.9,0.5,1.5-0.6,1.6c-2.1,0.1-4.2,0.1-6.3,0.1
	c-1.8,0-3.6,0-5.3,0c-0.4,0-0.7-0.2-1.1-0.4c0.1-0.3,0.3-0.6,0.4-1c0.3-0.9,0.8-1.7,0.9-2.6c0.2-2.1,0.1-4.2,0.2-6.3
	c0-6.6,0-13.2,0-19.8c0-1.2,0-1.2-1.3-1.2c-3,0-6,0.1-9,0.1c-0.8,0-1,0.3-1,1.1c0,6.2,0,12.3-0.1,18.5c0,2.3,0,4.5,0,6.8
	c0,1.3,0.7,2.3,1.4,3.3c0.7,1.1,0.5,1.6-0.8,1.6c-1.7,0.1-3.3,0-5,0c-2.4,0-4.7,0-7.1,0c-0.3,0-0.6-0.2-0.9-0.3
	c0.1-0.3,0.2-0.6,0.3-0.8C283.2,464.1,283.8,463.1,283.8,461.8 M237.2,398.2c0.4,0.1,0.9,0.5,0.9,0.7c0.3,3.1,0.5,6.2,0.7,9.2
	c0,0.5-0.3,1-0.4,1.5c-0.5-0.3-0.9-0.6-1.4-0.8c-0.6-0.3-1.2-1-1.7-1c-2.7,0.1-5.4,0.3-8.2,0.5c0.1,4.8,0.3,9.3,0.3,13.9
	c0,5.1-0.2,10.3-0.3,15.4c-0.1,3.6-0.2,7.1-0.2,10.7c0,3.7,0,7.4,0.3,11.2c0.1,1.6,0.4,3.3,2,4.3c0.3,0.2,0.6,0.9,0.5,1.3
	c-0.1,0.3-0.7,0.5-1.2,0.6c-4.4,0.6-8.8,0.7-13.3,0.4c-0.4,0-1.1-0.3-1.1-0.6c-0.1-0.3,0.2-1,0.5-1.2c2.3-1.1,2.2-3.1,2.2-5.2
	c0-2,0-4,0-6.1c0-5.4,0-10.9,0-16.3c0-6.5,0.2-12.9,0.2-19.4c0-3.2,0-6.4,0-9.4c-2.9,0-5.6,0-8.3,0c-0.9,0-1.4,0.5-1.7,1.4
	c-0.1,0.4-0.7,0.6-1.1,0.9c-0.2-0.4-0.6-0.8-0.6-1.2c0.1-2.4,0.4-4.8,0.6-7.2c0.1-0.8,0.1-1.7,0.2-2.5c0.1-0.8,0.4-1.3,1.4-1.3
	c8.9,0,17.8-0.1,26.8-0.1C235.3,398.1,236.3,398.1,237.2,398.2"/>
</svg>
