<?xml version="1.0" encoding="utf-8"?>
<!-- Generator: Adobe Illustrator 26.3.1, SVG Export Plug-In . SVG Version: 6.00 Build 0)  -->
<svg version="1.1" id="Layer_1" xmlns="http://www.w3.org/2000/svg" xmlns:xlink="http://www.w3.org/1999/xlink" x="0px" y="0px"
	 viewBox="0 0 533.1 560" style="enable-background:new 0 0 533.1 560;" xml:space="preserve">
<style type="text/css">
	.st0{fill:#241F20;}
	.st1{fill:#EFF3F5;}
</style>
<path class="st0" d="M120.4,317.2c0.4,1.8,0.8,3.7,1.1,5.5"/>
<path class="st0" d="M119.2,312.9l2.3,9.9c0.4,1.9,0.6,3.9,0.9,5.8c0.3,1.8,0.5,3.6,0.9,5.5c1,5.6,2,10.5,3.1,15.3l0.7,2.6
	c0.3,1.1,0.6,2.3,1,3.4"/>
<g>
	<path class="st1" d="M266.8,438.7c-1.2-1.6-2.6-2.9-4.7-2.9c-1.6,0-3.2-0.1-4.8-0.2c-0.5,0-0.6,0.2-0.6,0.7
		c0.1,0.8,0.1,1.6,0.1,2.4c0,3.8,0,7.6,0,11.4h0.1c0,1,0,1.9,0,2.9c0,0.9,0,1.9,0,2.9c0,0.4,0.1,0.6,0.6,0.6
		c1.6-0.1,3.3-0.1,4.9-0.4c2.6-0.4,4.8-2.1,5.4-4.9c0.6-2.4,0.5-5,0.4-7.5C268.1,442,267.9,440.2,266.8,438.7z"/>
	<path class="st1" d="M406.7,315.4l-0.4-0.1l-0.1,0.6c-0.1,0.2-0.1,0.3-0.1,0.4c-0.3,4.6-1.3,9.4-2.9,14.9c-0.2,0.6-0.4,0.9-0.6,0.9
		c0,0-0.1-0.1-0.2-0.1c-0.3-0.1-0.3-0.2-0.1-0.8c0-0.1,0.1-0.2,0.1-0.3l0.6-2.1c0.5-1.9,1.1-3.9,1.5-5.8c0.3-1.4,0.5-2.9,0.7-4.4
		c0.1-0.6,0.2-1.3,0.3-1.9l0.1-0.3l-1.1-0.4l-0.2,0.3c-0.1,0.1-0.3,0.3-0.4,0.5c-0.3,0.4-0.6,0.9-0.7,1.4c-0.3,1.6-0.6,3.3-0.9,5
		c-0.4,2.7-0.9,5.6-1.6,8.3c-0.7,2.9-1.5,5.7-2.3,8.5c-0.2,0.6-0.3,1.2-0.5,1.8c-0.3,1.4-0.7,2.7-1.1,4l-1.1,3.7
		c0,0.1-0.3,0.3-0.5,0.4c-0.1-0.3-0.2-0.5-0.2-0.7c0.2-0.9,0.4-1.8,0.7-2.7l0.3-0.9c0.4-1.3,0.7-2.5,1.1-3.7
		c0.1-0.6,0.3-1.2,0.5-1.8c0-0.1,0.1-0.2,0.1-0.3c1.5-4.9,3-9.9,3.9-15.1l1.1-6.6l-0.7,0.4c-1.5,0.7-1.5,0.9-1.9,2.5l-0.1,0.4
		c-1.4,6.1-2.9,12.4-4.5,18.9c-0.1,0.6-0.3,1.2-0.4,1.8c-0.1,0.6-0.3,1.2-0.4,1.8c-0.1,0.2-0.5,0.7-0.7,0.7c-0.1,0-0.2-0.1-0.2-0.1
		c-0.1-0.2,0-0.6,0.1-0.8l0.4-1.7l0.5-1.8l0.6-2.2c0.8-3.4,1.7-6.9,2.6-10.3c0.4-1.5,0.7-2.9,1-4.4c0.1-0.7,0.6-3,0.6-3l-0.7,0.3
		c-1.3,0.6-2.4,1.2-2.4,2.9c0,0.8-0.1,1.7-0.4,2.7c-0.6,2.3-1.2,4.6-1.8,6.9c-0.5,1.6-0.9,3.3-1.3,4.9c-0.2,0.7-0.2,0.8-0.4,0.8
		c-0.1,0-0.1,0-0.2,0c-0.2-0.1-0.3-0.1-0.3-0.2c-0.1-0.2,0-0.6,0.1-0.8c0.3-0.9,0.5-1.8,0.8-2.7c0.5-1.6,1-3.2,1.4-4.8
		c0.4-1.5,0.7-3,1-4.5c0.1-0.7,0.6-2.9,0.6-2.9l-0.7,0.3c-1.3,0.5-2.2,1.1-2.4,2.7c-0.3,2.3-0.8,4.7-1.3,6.9l-0.2,0.8
		c0,0.1-0.2,0.3-0.4,0.4c-0.1-0.2-0.3-0.4-0.3-0.5c0.1-0.9,0.3-1.9,0.5-2.8c0-0.3,0.1-0.7,0.2-1.1l0.7-3.8l-1-0.4l-0.2,0.3
		c-0.1,0.1-0.2,0.3-0.3,0.4c-0.3,0.3-0.5,0.7-0.7,1.1c-0.2,0.4-0.4,0.9-0.5,1.4c-0.1,0.4-0.2,0.7-0.3,1c-0.4,1-0.7,2.1-1.1,3.1
		c-0.8,2-1.5,4.2-2.1,6.3c0,0.1-0.1,0.2-0.1,0.3c-0.2,0.5-0.3,1-0.4,1.5c-0.7,2.8-1.3,5.6-1.8,8.4v1.3c-1.3,6.5-2.4,12.9-3.6,19.4
		c-0.2,1.1-0.2,1.8,0.2,2.4c0.4,0.6,1.2,0.8,2.3,0.9c0.3,0,0.5,0,0.8,0c1.5,0,2.8-0.5,4.1-0.9c0.5-0.1,1.1-0.3,1.7-0.5
		c1.1-0.3,1.8-1,2.3-2.1c0.5-1.3,1.1-2.5,1.6-3.7c2-4.4,4-9,5.5-13.8c0.6-1.9,1.2-3.8,1.9-5.6c0.6-1.7,1.2-3.4,1.7-5.1
		c0.1-0.6,0.3-1.2,0.5-1.8c0.3-1,0.6-2,0.8-3c0.4-1.9,1-3.9,1.6-5.7c0.6-1.7,1.1-3.4,1.5-5.1c0.5-2.1,0.8-4.3,1.1-6.4
		c0.1-0.6,0.2-1.3,0.3-1.9C408,317.1,408.2,315.8,406.7,315.4z"/>
	<path class="st1" d="M143.7,352.4c-0.5-5.5-0.3-11,0-16.4c0.1-1.1,0.2-2.3,0.2-3.4c0.1-1.5-0.4-2.5-1.3-2.8
		c-0.7-0.3-0.8-0.6-0.9-1.3c-0.2-1.3-0.6-2.8-2.1-4.1l-1.1-0.9l0.4,1.3c0.1,0.4,0.2,0.8,0.3,1.1c0.3,0.8,0.5,1.5,0.6,2.2
		c0,0.2-0.1,0.4-0.2,0.7c-0.2-0.1-0.5-0.3-0.5-0.4c-0.2-0.8-0.4-1.7-0.6-2.5c-0.2-0.9-0.4-1.9-0.7-2.8c-0.1-0.5-0.4-1.1-0.6-1.6
		c-0.1-0.2-0.2-0.4-0.3-0.6c-0.2-0.4-0.4-0.7-0.5-1l-0.2-0.4l-1.1,0.4c0,0,0.2,0.6,0.2,0.8c0.1,0.4,0.2,0.7,0.3,1.1
		c0.7,1.8,1.2,3.7,1.5,5.6c0.2,1.3,0.4,2.6,0.6,3.9c0.1,0.9,0.3,1.8,0.4,2.6c0,0.1-0.1,0.3-0.2,0.4c-0.2-0.1-0.4-0.2-0.5-0.3
		l-0.3-1.2c-0.1-0.6-0.2-1.3-0.2-2.1c0,0,0,0,0-0.1c-0.2-1.3-0.3-2.7-0.6-4c-0.4-1.5-0.7-3.1-1.1-4.6c-0.3-1.3-0.6-2.5-0.9-3.7
		c-0.1-0.4-0.4-0.8-0.6-1.1c-0.1-0.1-0.2-0.3-0.3-0.4l-0.8,0.3c0.4,3.7,1,7.4,1.6,10.9l0.1,0.5c0.1,0.5,0.2,1.1,0.3,1.6
		c0.1,0.3,0.1,0.7,0.2,1.1c0.2,1,0.3,2,0.4,3c0.1,1.2,0.2,2.4,0.4,3.5c0.5,3.6,1.5,6.7,2.8,9.5l0.1,0.2c0.1,0.2,0.3,0.6,0.2,0.7
		c0,0.1-0.1,0.2-0.2,0.2c-0.1,0.1-0.1,0.1-0.2,0.1c-0.2,0-0.3-0.3-0.5-0.6l-0.1-0.2c-0.1-0.1-0.2-0.2-0.2-0.3
		c-0.2-0.7-0.5-1.4-0.7-2.1c-0.5-1.5-1.1-3.1-1.4-4.7c-0.1-0.3-0.1-0.7-0.2-1c-0.3-1.7-0.6-3.5-0.8-5.2c0,0,0-0.1,0-0.2
		c-0.2-1.2-0.3-2.3-0.5-3.5c-0.1-1.1-0.4-2.3-0.6-3.4c-0.1-0.7-0.3-1.4-0.4-2.1l-0.6-3.2c-0.3-1.9-0.6-3.7-1-5.6
		c-0.1-0.4-0.3-0.7-0.5-1c-0.1-0.1-0.1-0.2-0.2-0.3l-0.2-0.3l-1.1,0.4v0.3c0.1,0.8,0.1,1.7,0.2,2.5c0.2,1.8,0.3,3.7,0.6,5.6
		c0.3,2.1,0.8,4.2,1.2,6.2c0.3,1.4,0.6,2.8,0.9,4.2c0.2,1.2,0.4,2.5,0.6,3.7c0.1,0.6,0.2,1.3,0.3,2c0.2,1.3,0.4,2.5,0.7,3.8v0.1
		c1.6,6.8,4.1,12.3,7.6,17c0.3,0.5,0.8,0.8,1.3,1.2c0.2,0.2,0.4,0.3,0.6,0.5l0.2,0.2l0.9-0.5v-0.3c-0.1-1-0.1-1.9-0.2-2.9
		C144,356.7,143.9,354.5,143.7,352.4z"/>
	<path class="st1" d="M264.8,409.6c-2.4-1-4.8-0.9-7.3-1c-0.4,0-0.5,0.2-0.5,0.6c0,2.6,0,5.2,0,7.8c0,1.3,0,2.5,0,3.8
		c0,1.6-0.1,3.2-0.2,4.8c0,0.7,0.2,0.9,0.9,0.8c0.8-0.1,1.5-0.1,2.2-0.2c0,0.1,0,0.1,0,0.2c1.2-0.1,2.5-0.2,3.7-0.5
		c1.7-0.4,3-1.3,3.7-3c0.4-1,0.6-1.9,0.8-2.9c0.4-2.5,0.3-4.9-0.6-7.3C267,411.4,266.3,410.2,264.8,409.6z"/>
	<path class="st1" d="M424,225.6c-0.1-3.5-0.3-7-0.5-10.5c-0.1-1.8-0.2-3.6-0.3-5.4c-0.1-0.8-0.1-1.5-0.1-2.3
		c-0.1-1.2-0.1-2.3-0.2-3.5c-0.1-1.6-0.3-3.2-0.4-4.8c-0.1-1.6-0.3-3.2-0.4-4.8c-0.1-1.2-0.1-2.5-0.2-3.7c0-1.7-0.1-3.5-0.3-5.2
		c-0.6-5.6-1.1-10.6-1.9-15.8c-0.4-3-1.1-6.8-2.3-10.5c-1.3-4-3-7.8-4.6-11.6l-0.7-1.6c-1.9-4.4-3.8-8-6-11.1
		c-0.7-1-1.6-1.9-2.4-2.7c-1.1-1.1-2.1-2.1-2.8-3.4c-0.6-1.1-1.5-2-2.3-2.9c-0.3-0.3-0.7-0.7-1-1.1l-6.3-7.4c-0.3-0.5-0.7-0.9-1-1.3
		c-0.7-0.8-1.3-1.6-2-2.3c-1.9-2-3.8-3.8-5.7-5.7c-1.2-1.2-2.3-2.3-3.5-3.5c-0.6-0.6-1.1-1.2-1.7-1.8c-1.1-1.1-2.2-2.3-3.4-3.3
		c-3.6-3-7.4-6-11.1-8.8l-3.2-2.5c-2.8-2.2-6-4.1-10.2-6.2c-2.7-1.4-5.4-2.7-8.1-4.1c-4-2-8.1-4.1-12.2-6c-6.4-3-13.7-5.6-22.1-7.8
		c-1.3-0.4-2.7-0.7-4-1.1c-2.3-0.7-4.7-1.3-7.1-1.9c-1.9-0.5-4-0.8-6.6-1.1c-1.1-0.1-2.1-0.2-3.2-0.2c-1.1,0-2.3-0.1-3.5-0.2
		c-2.2-0.2-4.3-0.6-6.4-0.9c-1.6-0.2-3.2-0.5-4.8-0.7l-2.1-0.3c-2.7-0.4-5.5-0.8-8.3-0.9c-1.1-0.1-2.1-0.1-3.1-0.1
		c-5.5,0-10.8,0.6-14.9,1.2c-7.2,1-14.5,2.7-21.7,5.1c-1.2,0.3-2.4,0.7-3.6,1.1c-2.4,0.7-4.8,1.5-7.2,2.4c-3.6,1.4-7.2,3-10.8,4.7
		c-2.5,1.1-4.9,2.4-7.2,3.7c-1.5,0.8-3,1.6-4.5,2.4c-0.8,0.4-1.6,0.7-2.4,1.1c-1.3,0.6-2.7,1.2-3.9,2c-5.2,3.4-10.2,7.1-15.1,10.6
		c-2.7,2-5.6,4.2-8.4,6.5c-2.1,1.8-4.2,3.7-6.2,5.6c-0.7,0.7-1.5,1.4-2.2,2.1c-0.6,0.5-1,1.1-1.5,1.6c-0.9,1-1.7,1.9-2.5,2.9
		c-1.4,1.6-2.8,3.3-4.3,5c-3,3.4-5.3,6.8-7.2,10.4c-0.7,1.2-1.3,2.5-1.9,3.8c-1.7,3.6-3.6,7.4-6,10.7c-0.3,0.4-0.5,0.9-0.7,1.3
		l-0.2,0.4c-2.8,6-4.7,10.7-6,15.4c-0.6,1.9-1.2,3.7-1.8,5.5s-1.2,3.5-1.7,5.3c-0.7,2.4-1.3,4.9-1.9,7.3c-0.2,1.1-0.4,2.1-0.7,3.1
		l-0.3,1.2c-0.2,1-0.5,2.1-0.7,3.1c-0.2,1.4-0.5,2.8-0.7,4.2c-0.3,1.8-0.6,3.5-0.9,5.3c-1.1,5.4-1.3,10.9-1.6,16.2l-0.1,1.8
		c-0.1,2.9-0.2,5.9-0.2,9.3v1.7c0,3,0,6.1,0.2,9.1c0.3,3.3,0.7,6.7,1.2,9.9l0.5,3.5l0.2,1.3v0.2c0.3,1.8,0.5,3.6,0.8,5.4
		c0.4,3,0.8,6,1.3,9c0.2,1.7,0.6,3.3,1,4.9c0.4,1.4,0.7,2.9,1,4.4c0.1,0.5,0.2,1.1,0.3,1.7c0.5,2.5,0.9,5.1,1.9,7.6
		c0.1,0.4,0.4,0.6,0.7,0.8c0.1,0,0.2,0.1,0.3,0.2l0.2,0.2l0.8-0.6l-0.4-1.1c-0.2-0.6-0.5-1.3-0.6-2c0-0.1,0-0.4,0.1-0.6
		c0.2,0.1,0.4,0.3,0.5,0.4c0.3,0.7,0.5,1.3,0.7,2c0.1,0.5,0.3,0.9,0.4,1.3c0.1,0.3,0.2,0.5,0.4,0.7c0.1,0.1,0.1,0.1,0.2,0.2l0.2,0.3
		l0.8-0.4l0.1-0.4l-0.1-0.7c-0.1-0.6-0.2-1.1-0.3-1.7c-0.1-0.5-0.2-0.9-0.3-1.4c-0.2-0.8-0.5-1.6-0.6-2.5c0,0,0.1-0.3,0.2-0.4
		c0.2,0.1,0.4,0.3,0.4,0.4c0.3,1.2,0.6,2.4,0.9,3.6c0.2,1,0.5,1.9,0.7,2.9c0.1,0.4,0.3,0.6,0.5,0.8c0.1,0.1,0.1,0.1,0.2,0.2l0.3,0.3
		l0.8-0.6l-1.7-9.3l-0.1-0.3c-0.1-0.6-0.1-0.6,0.2-0.7c0.1,0,0.1,0,0.1,0c0.2,0,0.3,0.1,0.4,0.6c0,0.1,0.1,0.2,0.1,0.3
		c0.1,0.3,0.1,0.7,0.2,1l0.4,2.1c0.4,2,0.7,4,1.1,6c0.1,0.8,0.5,1.2,1.1,1.2c0.2,0,0.5,0,0.7-0.1l0.3-0.1l-0.1-0.7
		c0-0.2-0.1-0.5-0.1-0.7l-0.8-4.4c-0.6-3.1-1.2-6.3-1.8-9.4c0-0.1,0-0.3-0.1-0.5c-0.1-0.2-0.2-0.6-0.1-0.7c0,0,0.2-0.1,0.3-0.1
		c0.1,0,0.2,0,0.2,0c0.2,0,0.3,0.2,0.4,0.9c0.1,0.1,0.1,0.3,0.1,0.4c0.6,2.9,1.2,5.9,1.8,8.8l1.1,5.3c0.1,0.4,0.2,0.7,0.3,1l0.1,0.4
		l0.2,0.5l0.5-0.3c0.2-0.2,0.6-0.5,0.5-0.9c-0.1-1.3-0.3-2.5-0.5-3.7c-0.4-2.3-0.7-4.6-1-7c-0.5-3.7-0.9-7.6-1.4-12.4
		c0-0.1,0.1-0.3,0.2-0.4c0.2,0.2,0.4,0.4,0.4,0.5c0.2,1,0.3,2,0.4,3c0.1,0.6,0.1,1.2,0.2,1.8c0.3,1.9,0.5,3.9,0.8,5.8l0.4,2.7l1-0.1
		v-0.6c0-0.2,0-0.3,0-0.5c0.3-2.2,0-4.4-0.4-6.5c-0.2-1.1-0.4-2.3-0.5-3.4c-0.2-3-0.5-5.9-0.6-8.8c0-0.1,0.2-0.4,0.3-0.5
		c0.1,0.2,0.3,0.4,0.3,0.5c0.1,0.7,0.1,1.3,0.1,2c0,0.4,0.1,0.9,0.1,1.3c0.1,1.3,0.3,2.6,0.4,3.9l0.2,1.6l0.8,0.1
		c0.8-3.3,0.9-6.4,0.3-9.5c-0.1-0.7-0.2-1.5-0.3-2.3c-0.1-0.7-0.2-1.5-0.2-2.2v-0.4c0-0.1,0.2-0.3,0.3-0.4c0.1,0.1,0.2,0.2,0.3,0.3
		c0.1,0.1,0.1,0.4,0.1,0.6l0.2,2.1l0.2,1.6l0.8,0.1c0.2-0.6,0.4-1.1,0.5-1.6c0.3-1.3,0.4-2.6,0.3-4.2c0-0.4-0.1-0.9-0.1-1.3
		c-0.1-0.3-0.1-0.5-0.1-0.7c0-0.4,0.1-0.8,0.2-1c0.1,0,0.3,0.1,0.4,0.1c0.2,0,0.4,0.1,0.5,0.1h0.2l0.1-0.1c0.9-0.6,1.2-0.6,1.3-0.6
		c0.3,0.2,0.6,1,0.6,1.5c0,0.3-0.1,0.5-0.1,0.8c-0.1,0.4-0.1,0.8-0.2,1.2c0,0.4-0.1,0.8-0.2,1.2L136,245c-0.1,0.8-0.3,1.7-0.4,2.5
		c-0.8,5.1-1,10.2-0.9,16.2c0,1.3,0.2,2.6,0.5,3.8c0.4,2.1,0.8,4.2,1.3,6.3c0.5,2.2,0.9,4.4,1.4,6.6c0.6,2.6,0.1,4.1-1.7,5.1
		c-0.9,0.6-1.8,1.2-2.6,1.9l-0.4,0.4c-0.8,0.7-1.6,1-2.5,1c-0.4,0-0.8-0.1-1.2-0.2c-2.2-0.7-4.5-1.4-6.8-2c-1.1-0.3-2.2-0.6-3.4-0.9
		l-2.3-0.6l0.2,1c0,0.2,0,0.4,0.1,0.6c0.3,1.1,0.6,2.1,0.9,3.2c0.7,2.4,1.4,4.9,2,7.3c0.4,1.7,1.2,2.7,2.6,3.3
		c0.5,0.2,1.1,0.7,1.5,1.1c1.5,1.5,3.1,2.9,4.6,4.3l2.6,2.4c0.1,0.1,0.1,0.1,0.2,0.2c0.2,0.2,0.5,0.4,0.7,0.6
		c0.3,0.3,0.6,0.5,0.9,0.8c0.1,0.1,0.1,0.1,0.1,0.1c0.8,0.7,1.7,1.5,2.5,2.2c1.9,1.8,3.9,3.5,5.6,5.5c2.8,3.2,5.3,6.8,7.4,10.5
		c1.4,2.5,3.4,3.9,6.3,4.6c0.2,0.1,0.2,0.1,0.3,0.1c0.7,0.3,1.4,0.5,2.1,0.8c1.5,0.6,3.1,1.2,4.6,1.9c1.4,0.7,2.8,1.5,4.2,2.2
		c1.5,0.8,3,1.6,4.4,2.4c0.3,0.2,0.7,0.4,1.1,0.6c0.2,0.1,0.4,0.2,0.6,0.3c1.3,0.7,2.6,1.6,3.8,2.5c3.8,2.9,7.1,5.6,10.1,8.1
		l0.2,0.2c1.5,1.2,3,2.5,4.2,4c3.3,4.2,5.7,8.9,7.1,13.8c0.3,1.1,0.3,1.4-0.3,1.7c-0.1,0.1-0.3,0.1-0.4,0.1c-0.4,0-0.7-0.3-1.1-0.9
		l-0.5-0.7c-0.9-1.2-1.8-2.4-2.9-3.5c-1.5-1.5-3.1-2.9-4.7-4.3l-1.4-1.2c-2.8-2.4-5.6-4.8-8.5-7.2c-0.7-0.6-1.6-1.2-2.5-1.8
		c-0.5-0.3-0.9-0.6-1.4-0.9l-0.7-0.5v0.8c0,0.3,0,0.6,0,0.8c0,0.5,0,0.8,0,1.2c0.2,1.8,0.4,3.5,0.6,5.3c0.3,2,0.5,3.9,0.7,5.8
		c0.1,1,0.2,1.9,0.3,2.9c0.1,1.8,0.3,3.6,0.6,5.4c1.5,7.8,3.7,15.8,6.8,24.6c2,5.7,4.4,10.6,7.3,14.9c0.7,1,1.3,2,1.8,3.1
		c0,0.2-0.2,0.8-0.4,1c-0.2,0-0.5-0.1-0.8-0.2l-0.3-0.1l-0.2-0.4c-4-5.6-7.1-11.6-9.2-18c-2.1-6.2-3.8-11.7-5.1-16.9
		c-1-3.9-1.6-8-2.2-12.1c-0.3-1.8-0.4-3.6-0.5-5.4c-0.1-1-0.1-2.1-0.2-3.1c-0.1-1.1-0.2-2.2-0.3-3.3c-0.2-1.7-0.4-3.4-0.5-5.1v-0.3
		c-0.1-1.6-0.2-1.9-2-2.5c-0.1,0-0.1,0-0.1,0l-0.5-0.2v0.6v0.4c0,0.2,0,0.4,0,0.6c0,0.1,0,0.3,0,0.4c0.2,1.3,0.4,2.7,0.6,4
		c0.3,2.2,0.6,4.3,0.9,6.4c0.4,3.2,0.7,6.5,1.1,10.3v0.3c0.1,0.3,0.1,0.7,0,0.8c0,0.1-0.2,0.1-0.3,0.1c-0.3,0-0.4,0-0.4-0.6
		c0-0.3,0-0.6-0.1-0.8l-0.4-4.1c-0.3-3.2-0.6-6.5-1-9.7c-0.2-2.2-0.4-4.2-0.7-6.1c-0.1-0.8-0.2-1.6-0.3-2.4
		c-0.1-0.2-0.1-0.3-0.1-0.5c-0.1-0.4-0.4-0.8-0.6-1.1c-0.1-0.1-0.2-0.3-0.3-0.4l-0.8,0.2c0.1,1.6,0.2,3.2,0.3,4.8
		c0.1,0.7,0.1,1.5,0.2,2.2c0.1,0.9,0.2,1.9,0.3,2.9l0.2,1.7c0.3,2.4,0.5,4.8,0.7,7.2c0,0.1-0.2,0.3-0.3,0.4
		c-0.2-0.1-0.4-0.3-0.5-0.5c0,0,0-0.2,0-0.3s0-0.2,0-0.3l-0.2-2.6c-0.2-1.8-0.3-3.6-0.5-5.4c-0.1-0.6-0.1-1.3-0.2-1.9
		c-0.1-0.7-0.1-1.4-0.2-2.1c-0.2-2.2-0.5-4.4-0.7-6.6c-0.1-0.3-0.2-0.6-0.3-0.8c0-0.1-0.1-0.2-0.1-0.3l-0.1-0.4l-1.1,0.4l0.4,3.3
		c0.3,2.1,0.5,4.3,0.7,6.4c0.1,0.2,0.1,0.4,0.1,0.6c0,0.5,0.1,0.9,0.1,1.4c0.1,1.6,0.2,3.3,0.2,5.3c0,0.1-0.2,0.3-0.3,0.4
		c-0.2-0.2-0.3-0.4-0.5-0.6c0,0,0,0,0-0.1c0-0.1,0-0.2,0-0.3l-0.2-3.3c0-0.1,0-0.1,0-0.2c0-0.7-0.1-1.3-0.1-2
		c-0.1-2-0.3-4.1-0.4-6.1c-0.1-1.3-0.2-2.8-0.5-4.6c-0.1-0.2-0.1-0.3-0.1-0.5c-0.1-0.3-0.3-0.6-0.5-0.9c-0.1-0.1-0.1-0.2-0.2-0.3
		l-0.2-0.3l-1,0.4l0.1,1.6c0,1,0.1,2,0.2,3c0.1,0.1,0.1,0.3,0.1,0.5c0.1,1.2,0.3,2.5,0.4,3.8c0.2,1.8,0.4,3.6,0.6,5.4
		c0,0.4,0.1,0.9,0.1,1.3c0,0.1-0.2,0.4-0.3,0.5c-0.1-0.1-0.4-0.3-0.4-0.4c0-0.2-0.1-0.3-0.1-0.5c-0.2-0.8-0.3-1.6-0.4-2.7
		c-0.1-1.9-0.3-3.7-0.4-5.5c-0.1-0.2-0.1-0.5-0.1-0.7c-0.1-2.1-0.3-4.3-0.5-6.4c-0.1-0.3-0.3-0.6-0.5-0.9c-0.1-0.1-0.1-0.2-0.2-0.3
		l-0.2-0.3l-0.8,0.4l-0.1,0.4l0.1,0.6c0.1,0.4,0.2,0.8,0.2,1.2c0.3,2.7,0.5,5.5,0.7,8.2c0.1,0.8,0.1,1.6,0.2,2.4
		c0,0.1-0.2,0.4-0.3,0.4c-0.1-0.1-0.3-0.2-0.4-0.3c-0.1-0.4-0.2-0.8-0.3-1.3c-0.2-0.6-0.3-1.3-0.3-2c-0.1-1-0.1-2-0.1-3
		c0-1.1,0-2.2-0.1-3.3c-0.1-0.9-0.2-1.9-0.4-2.8c-0.1-0.4-0.1-0.8-0.2-1.2l-0.1-0.4l-1.1,0.1v2.3c0,1.8,0,3.6,0,5.4v0.2
		c0,0.2,0,0.5-0.1,0.6c0,0-0.1,0-0.2,0c-0.1-0.1-0.4-0.6-0.4-0.8c0-1.8,0-3.7,0-5.5V343c0-1,0-2.3-1.9-2.7l-0.5-0.1l0.1,1.8
		c0.1,1.1,0.2,2.1,0.2,3.1c0,0.4-0.2,1-0.3,1.1c-0.3,0-0.4-0.1-0.4-0.9c-0.1-0.6-0.1-1.3-0.1-2c0-0.8,0-1.7-0.1-2.5
		c0-0.4-0.2-0.7-0.3-1c-0.1-0.1-0.2-0.2-0.2-0.3l-0.1-0.4l-1.1,0.4c0,0,0.1,0.9,0.1,1.1c0.1,0.6,0.2,1.2,0.2,1.8
		c0,0.1-0.2,0.3-0.3,0.4c-0.1-0.1-0.3-0.2-0.3-0.3c-0.1-0.5-0.2-0.9-0.2-1.4c-0.1-0.4-0.1-0.8-0.2-1.2c-0.1-0.3-0.2-0.6-0.4-0.8
		c-0.1-0.1-0.2-0.2-0.2-0.3l-0.2-0.3l-1.1,0.3c0,0,0,0.8,0,1.1c0,0.6-0.1,1.1,0,1.7l0.3,2.9c0.4,4.2,0.8,8.4,1.3,12.6
		c0.2,1.5,0.4,2.9,0.8,4.3c0.3,1,0.6,1.9,1.1,2.9c0.5,0.9,0.9,1.8,1.3,2.7c0.2,0.2,0.3,0.5,0.4,0.7c0.1,0.1,0.1,0.3,0.2,0.4
		c0.3,0.7,0.6,1.3,0.9,2c2.5,5.2,4.1,10.2,4.9,15.4c0.3,1.8,0.6,3.7,0.9,5.5c0.4,2.9,0.9,5.7,1.3,8.6c0.3,2,0.6,4.1,0.8,6.4
		c0.1,1.1,0.2,2.2,0.3,3.3c0,0,8.1,33.3,8.1,33.8s0.1,0.9,0.1,1.4c0.1,0.6,0.1,1.1,0.2,1.7c0,0.2,0,0.3,0,0.5c0.8,0.5,1.5,1,2.1,1.5
		c0-0.5-0.1-0.9-0.1-1.3c0.1,0,0.3-0.3,0.4-0.4c0.2,0.2,0.4,0.3,0.4,0.5c0.1,0.6,0.2,1.2,0.2,1.9v0.1c1.3,1.4,2.2,3.3,2.6,5.4
		c0-0.2-0.1-0.4-0.1-0.7c0-0.1,0.2-0.3,0.3-0.4c0.2,0.1,0.4,0.3,0.4,0.4c0.1,0.4,0.1,0.8,0.1,1.2c0,0.3,0,0.7,0,1l0.1,1.2
		c0.4,3.4,0.7,7,1.2,10.4c0.1,0.5,0.5,1,0.8,1.4c0.2,0.2,0.3,0.3,0.4,0.5l0.2,0.3l0.9-0.5l-0.1-0.6c0-0.2-0.1-0.4-0.1-0.6l-0.2-1.9
		c-0.3-2.3-0.5-4.6-0.7-6.9c0-0.2,0.3-0.6,0.4-0.7c0.2,0,0.2,0,0.3,0.6l0.1,0.7c0.3,3.4,0.7,6.9,1.1,10.3c0,0.4,0.3,0.8,0.6,1.1
		c0.1,0.2,0.2,0.3,0.3,0.4l0.2,0.3l0.9-0.5l-0.1-1.4c-0.1-0.9-0.2-1.8-0.3-2.7c0-0.4-0.1-0.8-0.2-1.2c-0.2-0.6-0.3-1.2-0.3-1.8
		c0.1,0,0.3-0.3,0.4-0.4c0.1,0.1,0.3,0.3,0.3,0.4c0.3,2.5,0.7,5.2,0.9,7.8c0,1.2,0.6,1.8,1.7,2.3l0.7,0.3l-0.3-2
		c-0.1-1.1-0.3-2.2-0.4-3.3c0-0.3,0.2-0.8,0.3-0.9c0.3,0,0.4,0.4,0.4,0.7l0.2,1.4c0.2,1.5,0.4,2.9,0.6,4.4c0.1,0.3,0.2,0.6,0.4,0.9
		c0.1,0.1,0.1,0.2,0.2,0.3l0.2,0.3l1-0.3l-0.1-0.8c-0.1-0.3-0.1-0.6-0.1-0.9c0-0.2-0.1-0.4-0.1-0.6c0-0.3-0.1-0.7,0-0.8
		c0,0,0.1-0.1,0.3-0.1h0.1c0.2,0,0.3,0,0.3,0.6c0,0.3,0,0.5,0.1,0.7c0.1,0.3,0.2,0.7,0.2,1.1c0.2,1.2,0.4,2.5,1.8,3.4l0.7,0.5
		l-0.1-0.8c0-0.2-0.1-0.4-0.1-0.6c0-0.3,0-0.6,0-0.8c0.1-0.2,0.2-0.4,0.3-0.6c0.2,0.2,0.4,0.3,0.4,0.4c0.1,0.4,0.2,0.9,0.2,1.3
		c0.1,0.4,0.1,0.9,0.2,1.3c0.1,0.4,0.3,0.8,0.5,1c0,0.1,0.1,0.2,0.1,0.2l0.3,0.4l1.2-1.1c0.2,0.3,0.3,0.5,0.4,0.8
		c0.1,0.1,0.1,0.3,0.1,0.5c0,0.5,0.1,1.3,1,1.5h0.1l0.1-0.1c0.2-0.1,0.3-0.2,0.5-0.3c0.1,0,0.3-0.2,0.4-0.2c0,0,0.1,0.3,0.2,0.4
		c0,0.1,0.1,0.3,0.2,0.4c0,0.1,0.1,0.3,0.2,0.4c0.2,0.3,0.4,0.8,0.8,1c3.4,2.1,6.6,4,9.8,5.9c0.9,0.6,1.8,1.1,2.8,1.6
		c1.5,0.8,2.9,1.6,4.3,2.5c3.2,2.2,6.3,3.6,9.4,4.5c2.4,0.7,5,1.1,7.5,1.5c1,0.2,1.9,0.3,2.9,0.5c4.7,0.9,9.3,1.6,14,1.6
		c0.2,0,1.6,0,1.6,0c1.5,0,3,0,4.4,0.1c1.3,0,2.6,0.1,3.9,0.1h3.1c1.5,0,3,0,4.6,0.4c1.1,0.3,2.2,0.3,3.2,0.3h0.9
		c0.7,0,1.3-0.1,1.9-0.2c0.5-0.1,1-0.2,1.5-0.2c0.9-0.1,1.8-0.1,2.7-0.1c1.6,0,3.2-0.1,4.8-0.3c7.1-1,14.6-2.6,21.1-7
		c1.2-0.8,2.6-1.5,3.9-2.1c0.9-0.5,1.7-0.8,2.5-1.2c2.8-1.3,5.7-2.6,8.2-4.5l0.4-0.3c0.6-0.5,1.3-1,2-1.4c3.6-1.9,6.3-4.1,8.4-6.7
		c1.5-1.9,3.2-3.7,4.7-5.2c0.3-0.3,0.6-0.5,0.9-0.8c1.1-1,3.5-3,3.5-3c1.1-0.6,15.9-28.4,16.8-28.7c0-0.2,0-0.4,0-0.6
		c-0.1-0.3,0.1-0.8,0.2-0.9c0.1,0,0.3,0,0.4,0.8c0,0.2,0,0.3,0,0.5c0.1,0,0.1-0.1,0.2-0.1c0.3-0.1,0.6-0.2,0.9-0.3
		c0.5-0.2,1-0.3,1.5-0.4c-0.1-0.5-0.1-0.9-0.2-1.4c-0.2-1.6-0.3-3.1-0.5-4.6c0-0.1,0.1-0.3,0.2-0.5c0.2,0.2,0.4,0.4,0.4,0.5
		c0.2,1.8,0.5,3.8,0.8,5.9h0.2c0.6-0.1,1.1-0.2,1.7-0.4c-0.1-1.3-0.1-2.5-0.2-3.8c-0.1-1.5-0.3-2.9-0.4-4.4c-0.1-1.3-0.2-2.7-0.3-4
		c0,0,0.1-0.2,0.2-0.3c0.2,0.1,0.4,0.2,0.4,0.3c0.1,0.3,0.1,0.7,0.1,1.1c0,0.1,0,0.3,0,0.5c0.1,1.1,0.1,2.2,0.2,3.3
		c0.1,2.3,0.3,4.6,0.5,7c0.9-0.4,1.7-0.8,2.5-1.4c0-0.1,0-0.2,0-0.3c-0.3-2.7-0.5-5.3-0.7-8l-0.2-2.3c-0.2-1.5-0.3-3-0.3-4.5
		c0-0.1,0.2-0.3,0.3-0.4c0.1,0.1,0.3,0.2,0.3,0.3c0.2,2.2,0.4,4.3,0.6,6.5c0.2,1.4,0.3,2.8,0.4,4.2c0.1,1.4,0.3,2.7,0.4,4
		c0.6-0.4,1.2-1,1.7-1.6c0.1-0.8,0.1-1.5,0.1-2.2c0.1-4.4,0.2-8.9,0.4-13.3c0-1.4,0.3-2.9,0.5-4.4c0.1-0.8,0.2-1.6,0.3-2.4
		c0.2-1.7,0.4-3.5,0.6-5.2l0.4-3c0.1-0.9,0.2-1.9,0.3-2.8c0.2-2.2,0.5-4.4,0.8-6.5l0.3-1.9c0.7-4.6,1.5-9.2,2.3-13.9
		c0.1-0.5,0.1-0.9,0.2-1.3c0-0.3,0.1-0.5,0.1-0.8c0.1-0.7,0.3-1.5,0.4-2.2l0.3-1.4c0.9-4.9,1.8-9.8,2.2-14.8
		c0.4-5.4,1.3-10.7,2.6-15.6c0.3-1,0.5-2,0.8-3.1l0.5-1.9c-0.2,0-0.3-0.1-0.4-0.1l-0.3,0.1c-2,0.8-2.8,2-2.7,3.7
		c0,1.1,0,2.2-0.2,3.4c-0.1,0.2-0.2,0.4-0.4,0.5c-0.2-0.2-0.3-0.4-0.3-0.5c0-0.7,0-1.5,0-2.2v-1.2l-0.9-0.3l-0.2,0.3
		c-0.1,0.2-0.2,0.3-0.3,0.5c-0.2,0.4-0.4,0.8-0.5,1.3c-0.2,1.4-0.3,2.8-0.4,4.2c-0.1,1.3-0.3,2.6-0.4,3.9c-0.1,0.1-0.2,0.3-0.4,0.5
		c-0.1-0.1-0.3-0.3-0.3-0.4c0-0.9,0-2,0.1-3.2c0.1-1,0.3-1.9,0.4-2.9l0.3-1.9l-0.5,0.1c-1.4,0.2-1.6,1.2-1.6,1.9
		c0,1.1-0.1,1.9-0.2,2.7c-0.4,3-0.9,5.8-1.4,8.5c0,0.1-0.2,0.3-0.3,0.4c-0.1-0.1-0.3-0.3-0.3-0.4c0.3-2.1,0.6-4.3,1-6.7
		c0.1-1,0.3-1.9,0.5-3l0.4-2.1l-0.7,0.2c-1.2,0.4-2.3,1-2.5,2.6c-0.6,5.5-1.4,11-2.1,16.5c0,0.1-0.2,0.4-0.3,0.4
		c-0.1,0-0.3-0.2-0.4-0.3c-0.1-0.2-0.2-0.5-0.2-0.7c0.1-1.8,0.3-3.2,0.5-4.7c0.2-1.6,0.5-3.3,0.8-4.9c0.1-1.1,0.3-2.1,0.5-3.2
		c0.1-0.6,0.2-1.3,0.3-1.9l0.2-1.4l-0.5,0.1c-1.5,0.2-1.8,1.1-1.9,2c-0.3,2.7-0.7,5.9-1.3,9c-0.6,3-1.2,5.9-1.9,8.9
		c-0.1,0.3-0.1,0.6-0.2,0.9c-0.1,0.3-0.1,0.6-0.2,0.9c0,0.1-0.2,0.2-0.3,0.3l-0.1,0.1c-0.1-0.1-0.2-0.3-0.3-0.5V371
		c0-0.2,0-0.4,0.1-0.7c0.1-0.3,0.1-0.5,0.2-0.7c0-0.4,0.1-0.7,0.2-1c0-0.1,0.1-0.3,0.1-0.5c0.3-1.3,0.6-2.6,0.9-3.9
		c0.7-3.2,1.2-6.4,1.8-9.6l0.3-1.8c0-0.3,0-0.6,0-0.9c0-0.2,0-0.3,0-0.4v-0.4l-0.4-0.1c-0.2,0-0.3,0-0.5,0c-0.5,0-0.9,0.1-1.2,0.4
		s-0.4,0.8-0.4,1.5c0,0.7-0.1,1.3-0.2,1.9c-0.5,2-0.9,4-1.4,6c-0.4,1.3-0.7,2.7-1,4.1c-0.1,0.4-0.1,0.8-0.2,1.2
		c-0.1,0.3-0.1,0.7-0.2,1c-0.1,0.3-0.1,0.6-0.2,0.8c-0.1,0.2-0.1,0.4-0.2,0.6c-0.7,2-1.5,4.3-1.7,6.8c0,0.1-0.3,0.3-0.4,0.4
		c-0.1-0.2-0.3-0.4-0.3-0.5c0.3-1.7,0.6-3.5,1.1-5.5c0.1-0.5,0.3-1,0.5-1.5c0.1-0.1,0.1-0.3,0.2-0.5c0.1-0.3,0.2-0.7,0.3-1
		c0-0.1,0.1-0.3,0.1-0.4c0.1-0.3,0.1-0.6,0.2-0.9c0.7-2.9,1.4-5.7,2-8.6c0.2-1.1,0.4-2.1,0.6-3.2l-0.4-1.4l-1-0.6l-0.2,0.2
		c-0.1,0.1-0.2,0.2-0.4,0.3c-0.5,0.3-0.9,0.5-1,1c-0.5,1.7-0.8,3.5-1.2,5.2c-0.3,1.5-0.6,3-1,4.5c0,0.2-0.1,0.3-0.1,0.5
		c-0.1,0.2-0.1,0.4-0.2,0.6c0,0.1-0.1,0.2-0.1,0.3c0.2,0.3,0.4,0.5,0.6,0.8c-0.3,0.8-0.5,1.7-0.7,2.6c-0.5,2.3-1,4.6-1.5,6.9
		c-0.4,2-0.8,4-1.3,6c-0.3,0.2-0.5,0.3-0.6,0.4c-0.2-0.2-0.3-0.4-0.3-0.5c0-0.3,0.1-0.7,0.2-1.2l1-4.2c0.5-2.1,1-4.2,1.5-6.4
		c0.1-0.5,0.2-1,0.3-1.6c0.1-0.6,0.2-1.3,0.4-1.8c-0.2-0.3-0.4-0.5-0.6-0.8c0.1-0.5,0.3-0.9,0.4-1.4c0.1-0.3,0.1-0.5,0.2-0.8v-0.1
		c0.3-1,0.6-2,0.9-3c0.3-1.2,0.6-2.5,0.9-3.9l0.6-2.6l-0.7,0.2c-1.5,0.5-2.9,1-2.8,3c0,0.1-0.1,0.3-0.2,0.5c0,0.1-0.1,0.2-0.1,0.3
		l-0.4,1.1c-0.1,0.2-0.1,0.4-0.2,0.6c0,0.2-0.1,0.5-0.2,0.7c-0.2,0.7-0.4,1.3-0.6,1.9c-1.3,3.8-2.4,7.7-2.9,11.8
		c-0.5,4-1.5,8.1-2.5,12c-0.2,0.9-0.5,1.9-0.7,2.8c-0.8,3.1-1.7,6.3-2.5,9.3c-0.3,1.1-0.7,2.3-1,3.5c-0.3,1-0.5,1.9-0.8,2.9
		c-0.7,2.5-1.4,5.2-2.2,7.7c-0.5,1.6-1.2,3.1-1.9,4.6c-0.2,0.5-0.5,1-0.7,1.5c-0.2,0.2-0.4,0.7-0.9,0.7c-0.1,0-0.3,0-0.4-0.1
		c-0.2-0.1-0.7-0.3-0.3-1.3c0.1-0.3,0.3-0.7,0.4-1c0.2-0.6,0.5-1.1,0.7-1.6c0.5-1.1,1-2.2,1.4-3.4c0.9-3.1,1.8-6.2,2.6-9.3l1-3.8
		c1.2-4.3,2.4-8.9,3.5-13.3l0.5-2c0.8-3.2,1.6-6.5,2-9.8c0.5-4.6,1.9-8.8,3.4-13.1l0.2-0.5l0.6-1.7l0.2-0.6l0.7-2.1l-0.8,0.2
		c-0.4,0-0.6,0.1-0.9,0.2c-0.1,0-0.3,0.1-0.4,0.1c-0.3,0.1-0.7,0.3-1,0.4c-0.1,0-0.1,0.1-0.2,0.1c-2.3,1.1-4.6,2.2-6.9,3.3
		c-2.6,1.3-4.5,2.8-6,4.7c-0.9,1.2-1.9,2.3-2.9,3.4l-0.4,0.4c-1.4,1.5-2.9,3.1-3.2,5.5c0,0.4-0.2,0.9-0.8,0.9c-0.9-0.1-1-0.7-1-1.1
		v-0.4c0-1.4,0.1-2.9,0.4-4.2c0.9-4.1,3.4-7.4,5.9-10.6l0.8-1.1c2.1-2.6,5-4.2,7.8-5.5c1.8-0.8,3.6-1.6,5.2-2.2
		c0.2-0.1,0.3-0.1,0.5-0.2c0.7-0.3,1.3-0.5,2-0.8c0.4-0.1,0.7-0.3,1.1-0.4c1.6-0.7,3.3-1.4,5-2c1-0.4,2-0.6,3-0.9
		c1.9-0.5,3.9-1,5.6-2.2c0.7-0.5,1.4-0.9,2.2-1.3c1.2-0.6,2.5-1.2,3.5-2.2c1-0.9,2-2,3-3c0.7-0.7,1.4-1.5,2.1-2.2
		c1-1.1,2.1-2.3,3.1-3.4c0.8-0.9,1.6-1.7,2.4-2.6c0.9-0.9,1.7-1.9,2.5-2.8c0.7-0.8,1.4-1.7,2.2-2.5c0.5-0.5,1-1,1.6-1.4l1.5-1.2
		c1.8-1.3,3.6-2.8,5.5-4.1c0.4-0.3,1-0.6,1.5-0.8s1-0.5,1.5-0.8c1.5-1,3.4-2.2,5-3.6c1.3-1.1,2.6-2.2,3.8-3.3
		c0.8-0.7,1.6-1.4,2.4-2.1c0.4-0.3,0.7-0.6,1.1-0.9c0.3-0.2,0.5-0.4,0.7-0.7c0.8-1,0.7-2.1,0.3-3.1c-0.1-0.2-0.2-0.4-0.3-0.6
		c-0.4-1.1-1.1-2.2-2.7-2.2c-0.1,0-0.2,0-0.4,0c-0.9,0.1-1.8,0.2-2.7,0.2c-0.4,0.1-0.9,0.1-1.4,0.1s-0.9,0.1-1.4,0.1
		c-0.9,0-1.7,0.1-2.5,0.1c-1.3,0-2.2-0.3-3-0.9c-0.2-0.2-0.4-0.4-0.6-0.6c-0.4-0.5-0.8-0.9-1.2-1.3c-0.4-0.4-0.8-0.8-1.1-1.2
		l-1.1-1.3c-1.3-1.6-2.7-3.2-3.9-4.9c-0.5-0.6-0.7-1.6-0.5-2.4s0.3-1.5,0.5-2.3c0-0.1,0.1-0.3,0.1-0.5c0-0.5,0.1-0.9,0.2-1.3
		c0.6-3.5,1.1-7.1,0.8-10.8c-0.1-1.3-0.2-2.5-0.3-3.7c-0.2-3-0.4-6.1-0.8-9.1c-0.3-2.5-0.9-5-1.5-7.4c-0.3-1.1-0.6-2.3-0.8-3.4
		c-0.2-1-0.1-1.5,0.6-1.8c0.2-0.1,0.4-0.1,0.6-0.1c0.6,0,0.9,0.5,1.1,0.8l0.6,1.2c1.3,2.4,2.6,4.9,3.7,7.5c0.5,1.2,0.8,2.5,1.1,3.7
		c0.2,0.8,0.4,1.7,0.7,2.6c1.8,5.2,1.8,10.7,1.7,16.3v2.4c0,0.5,0,1.1,0,1.6c0,0.4,0,0.8,0,1.2c0,0.2,0,0.3,0,0.5c0,0.6,0,1.1,0,1.7
		c-0.1,1.2,0.6,1.8,1.4,2.2l0.5,0.2l0.2-0.7c0.1-0.1,0.1-0.3,0.1-0.4l0.1-3v-0.4v-0.5c0-0.2,0-0.5,0-0.7c0.1-3.4,0.2-6.7,0.2-10.1
		c0-1.4,0-2.8-0.1-4.1c0-0.9-0.1-1.8-0.1-2.7c0-0.2,0.1-0.5,0.2-0.7c0.1,0,0.2,0,0.2,0c0.1,0.2,0.2,0.5,0.2,0.8
		c0,0.8,0.1,1.5,0.1,2.2c0.2,2.1,0.3,4.3,0.3,6.5c0,2.8-0.1,5.5-0.2,8.2c0,0.4,0,0.8,0,1.2v0.1v0.4c0,1.4-0.1,2.7-0.1,4
		c0,0.2,0.1,0.4,0.1,0.6v0.1v0.3l0.1,0.6l0.5-0.3c0.5-0.3,0.7-0.5,0.8-0.9c0.3-1.6,0.5-3.2,0.6-4.8c0.1-0.4,0.1-0.9,0.1-1.4
		c0.1-1.8,0-3.6,0-5.3v-2.1c0-0.6,0-1.3,0.1-1.9c0-0.1,0.2-0.3,0.3-0.4c0.1,0.1,0.3,0.3,0.3,0.4c0.1,2.4,0.1,5.2,0.1,8.1
		c0,0.7,0,1.5,0,2.2c0,0.4,0,0.7,0,1.1c0,0.7-0.1,1.5-0.2,2.2c0,0.3-0.1,0.6-0.1,0.9c-0.1,0.5-0.1,0.9-0.2,1.4v0.4h0.4
		c0.3,0.1,0.5,0.1,0.7,0.1c0.8,0,0.9-0.6,0.9-1.1c0.1-2.4,0.3-4.7,0.4-7c0-0.5,0.1-1,0.1-1.5s0.1-0.9,0.1-1.4v-0.3
		c0-0.6,0.1-0.6,0.3-0.6c0.1,0.1,0.4,0.6,0.4,0.8c0,0.1,0,0.3,0,0.4c0,0.5,0,0.9,0,1.3c-0.1,2.7-0.2,5.5-0.4,8.3
		c-0.1,0.4-0.1,1,0.3,1.4c0.2,0.3,0.6,0.4,1.1,0.4h0.5l0.1-0.6c0.1-0.2,0.1-0.4,0.1-0.6l0.1-2c0.1-1.7,0.2-3.3,0.4-5
		c0-0.1,0.1-0.3,0.3-0.5c0.2,0.2,0.3,0.4,0.3,0.6c0,1.5-0.1,3-0.2,4.5c0,0.9-0.1,1.8-0.1,2.7c0,0.3,0.1,0.6,0.2,0.8
		c0,0.1,0.1,0.2,0.1,0.3l0.2,0.8l0.5-0.6c0.1-0.1,0.1-0.1,0.2-0.2c0.1-0.2,0.3-0.4,0.4-0.7c0.1-0.4,0.1-0.9,0.2-1.4
		c0.1-0.6,0.2-1.2,0.3-1.8c0-0.2,0-0.5,0-0.7s0-0.5,0.1-0.6h0.3c0.1,0,0.2,0,0.3,0.1c0.1,0.2,0.1,0.7,0,1c-0.1,0.1-0.1,0.3-0.1,0.4
		c0,0.8-0.2,1.7-0.3,2.5l-0.2,1.5l0.4,0.1c0.2,0.1,0.4,0.1,0.6,0.1c0.4,0,0.7-0.1,0.9-0.3s0.3-0.6,0.3-1.1c0-0.4,0-1,0.1-1.4
		c0-0.1,0.2-0.2,0.3-0.3c0.1,0.2,0.2,0.3,0.2,0.4c0,0.3,0,0.6,0,0.9c0,0.2,0,0.5,0,0.8s0.1,0.6,0.2,0.8c0,0,0.1,0.1,0.1,0.2l0.5,1.2
		l0.3-1.2c0.3-1.1,0.4-2,0.5-3c0.1-0.6,0.2-1.1,0.3-1.7c0.4-2,0.8-4,1.2-6c0.4-2.4,0.9-4.7,1.3-7c0.2-1.1,0.3-2.2,0.4-3.3
		c0-0.7,0.1-1.4,0.2-2.1c0-0.1,0-0.3,0-0.4c0-0.3,0.1-0.5,0.1-0.7c0-0.5,0.1-1.1,0.2-1.6c0.6-4.1,1.2-8.1,1.8-12.2
		c0.1-1,0.3-2.1,0.4-3.1c0.4-2.6,0.7-5.3,1.4-7.9C423.6,235.1,424.2,230.3,424,225.6z M239.7,411.2c-0.5-0.3-0.9-0.6-1.4-0.8
		c-0.6-0.3-1.2-1-1.7-1c-2.7,0.1-5.4,0.3-8.2,0.5c0.1,4.8,0.3,9.3,0.3,13.9c0,5.1-0.2,10.3-0.3,15.4c-0.1,3.6-0.2,7.1-0.2,10.7
		c0,3.7,0,7.4,0.3,11.2c0.1,1.6,0.4,3.3,2,4.3c0.3,0.2,0.6,0.9,0.5,1.3c-0.1,0.3-0.7,0.5-1.2,0.6c-4.4,0.6-8.8,0.7-13.3,0.4
		c-0.4,0-1.1-0.3-1.1-0.6c-0.1-0.3,0.2-1,0.5-1.2c2.3-1.1,2.2-3.1,2.2-5.2c0-2,0-4,0-6.1c0-5.4,0-10.9,0-16.3
		c0-6.5,0.2-12.9,0.2-19.4c0-3.2,0-6.4,0-9.4c-2.9,0-5.6,0-8.3,0c-0.9,0-1.4,0.5-1.7,1.4c-0.1,0.4-0.7,0.6-1.1,0.9
		c-0.2-0.4-0.6-0.8-0.6-1.2c0.1-2.4,0.4-4.8,0.6-7.2c0.1-0.8,0.1-1.7,0.2-2.5c0.1-0.8,0.4-1.3,1.4-1.3c8.9,0,17.8-0.1,26.8-0.1
		c1,0.2,2,0.2,2.9,0.3c0.4,0.1,0.9,0.5,0.9,0.7c0.3,3.1,0.5,6.2,0.7,9.2C240.1,410.2,239.8,410.7,239.7,411.2z M278.7,448.6
		c-0.4,2.7-0.6,5.4-1.3,8c-0.9,3.3-2.8,6.1-5.8,8c-0.9,0.6-1.9,1.3-2.9,1.8c-2.1,1-4.3,1.3-6.6,1.3c-0.6,0-1.1,0.2-1.6,0.2
		c-1.9,0-3.8,0-5.7-0.1c-1.6,0-3.1-0.2-4.7-0.2c-1.6-0.1-3.2,0-4.8,0c-0.3,0-0.7-0.3-1-0.4c0.1-0.3,0.2-0.7,0.4-1
		c0.1-0.1,0.1-0.2,0.2-0.2c1.2-0.7,1.4-1.9,1.4-3.1c0-0.9,0.1-1.8,0.1-2.7c0-4.6,0.1-9.2,0.1-13.8c0-7.4-0.2-14.9-0.2-22.3
		c-0.1-5.2,0-10.3,0-15.5c0-2.3,0-4.6,0-6.9c0-0.8-0.4-1.5-1.1-2c-0.1-0.1-0.3-0.5-0.2-0.6c0.1-0.2,0.4-0.5,0.7-0.5
		c1.1,0,2.2,0.1,3.3,0.1c2.3,0.1,4.7,0.1,7,0.1c3.5-0.1,7.1-0.3,10.6,0.7c0.6,0.1,1.2,0.3,1.7,0.6c3.3,1.6,5.9,4.1,7.8,7.2
		c0.2,0.3,0.4,0.7,0.5,1.1c0.5,1.9,0.8,3.8,1.3,5.7c0.5,1.8,0.4,3.7,0.4,5.6c0,2.2-0.1,4.4-1.1,6.5c-0.8,1.7-1.8,3.2-3.6,4.1
		c-0.4,0.3-0.8,0.6-1.4,0.9c0.4,0.3,0.7,0.6,1,0.8c2.1,1.5,3.5,3.5,4.1,6c0.4,1.5,0.7,3.1,1,4.7c0.3,1.8-0.1,3.6,0.4,5.6
		C278.7,448.4,278.7,448.5,278.7,448.6z M318.7,467.3c-2.1,0.1-4.2,0.1-6.3,0.1c-1.8,0-3.6,0-5.3,0c-0.4,0-0.7-0.2-1.1-0.4
		c0.1-0.3,0.3-0.6,0.4-1c0.3-0.9,0.8-1.7,0.9-2.6c0.2-2.1,0.1-4.2,0.2-6.3c0-6.6,0-13.2,0-19.8c0-1.2,0-1.2-1.3-1.2
		c-3,0-6,0.1-9,0.1c-0.8,0-1,0.3-1,1.1c0,6.2,0,12.3-0.1,18.5c0,2.3,0,4.5,0,6.8c0,1.3,0.7,2.3,1.4,3.3c0.7,1.1,0.5,1.6-0.8,1.6
		c-1.7,0.1-3.3,0-5,0c-2.4,0-4.7,0-7.1,0c-0.3,0-0.6-0.2-0.9-0.3c0.1-0.3,0.2-0.6,0.3-0.8c0.5-0.7,1.1-1.7,1.1-3
		c0-1.8,0.1-3.5,0.1-5.3c0-11.1,0.1-22.2,0-33.3c0-7.9-0.2-15.8-0.3-23.6c0-1.1,0-2.2-0.9-3c-0.1-0.1-0.2-0.6-0.1-0.7
		c0.2-0.2,0.5-0.3,0.8-0.4c1.6,0,3.2,0,4.8,0c2.2,0,4.4-0.1,6.5-0.1c1.2,0,1.3,0.3,0.9,1.4c-0.5,1.6-0.9,3.3-1,5
		c-0.2,4.3-0.3,8.6-0.3,12.9c0,3.2,0.1,6.4,0.1,9.7c0,0.5,0.1,0.8,0.7,0.8c3.2-0.1,6.4-0.1,9.7-0.1c0.7,0,1-0.3,1-1
		c0-7.7,0-15.4,0-23c0-1.7-0.2-3.4-1.2-4.9c-0.3-0.5-0.1-0.8,0.5-0.9c0.2,0,0.4-0.1,0.6-0.1c3.7-0.1,7.5-0.2,11.2-0.3
		c0.9,0,1.2,0.5,0.8,1.2c-0.7,1.1-0.8,2.3-0.8,3.6c-0.2,10.2-0.4,20.4-0.5,30.6c0.1,0,0.1,0,0.2,0c0,7.7,0,15.4,0,23
		c0,2.6,0.2,5.2,0.2,7.8c0,1.2,0.5,2.1,1.2,3C320,466.6,319.8,467.2,318.7,467.3z M399.1,217.3c-0.4,4.1-1.9,7.5-4.3,10.2l-0.4,0.4
		c-1.7,1.9-3.4,3.8-5.5,5.2c-3.8,2.7-7.9,4.2-12.1,4.5c-0.3,0-0.6,0.2-0.6,0.5v0.1c0,0,0.6,1.2,0.8,1.7c0.6,1.2,1.2,2.4,1.8,3.5
		c1.1,1.9,1.3,4,1.5,6.2v0.2c0.5,6.2-0.6,12.3-3.4,18c-0.6,1.3-1.2,2.7-1.8,4.6c-0.8,2.5-1.9,4.5-3.3,6.2l-0.7,0.8
		c-1.9,2.2-3.8,4.4-5.9,6.4c-1.2,1.1-2.9,1.8-4.6,2.4c-1.2,0.5-2.3,0.7-3.5,1c-0.5,0.1-1,0.2-1.5,0.4c-0.1,0-0.1,0-0.2,0
		c-0.2,0-0.4,0.1-0.6,0.2c-1.8,1.2-3.9,1.8-5.9,2.3c-1,0.3-2,0.6-3,0.9l-0.2,0.1c-0.1,0-0.1,0.1-0.2,0.1h-0.2
		c-0.2,0-0.5,0.1-0.6,0.1c-0.2,0-0.3,0-0.4-0.3c0-0.1,0-0.2,0-0.3c0.1-0.1,0.4-0.2,0.7-0.3c0,0,1.1-0.3,1.5-0.4
		c1.1-0.3,2.2-0.6,3.3-1c1.3-0.5,2.5-1.1,3.8-1.6l0.4-0.2c0.3-0.1,0.4-0.4,0.4-0.8c0-0.1,0.1-0.3,0.1-0.4l0.2-0.8l-2.5,1
		c-1.5,0.6-2.9,1.2-4.3,1.7c-0.1,0-0.3,0.1-0.5,0.1c-0.3,0-0.4,0-0.4-0.1c0,0-0.1-0.1,0-0.2c0-0.1,0.1-0.2,0.6-0.4
		c0.7-0.3,1.4-0.6,2.2-0.8c0.5-0.2,1.1-0.4,1.6-0.6c0.4-0.1,0.8-0.3,1.1-0.5l0.7-0.3V286h-0.4c-0.1,0-0.3,0-0.4-0.1
		c-0.2-0.1-0.5-0.1-0.7-0.1c-0.1,0-0.3,0-0.4,0.1c-0.5,0.1-0.9,0.3-1.4,0.5c-0.4,0.2-0.8,0.3-1.3,0.5c-0.2,0-0.3,0-0.5-0.1
		c0-0.2,0.1-0.4,0.2-0.5c0.5-0.3,1.1-0.5,1.8-0.8c0.3-0.1,1-0.4,1-0.4v-1h-0.4c-0.1,0-0.2,0-0.3-0.1c-0.2,0-0.4-0.1-0.6-0.1
		c-0.1,0-0.3,0-0.4,0.1c-0.2,0.1-0.3,0.2-0.5,0.2c-0.2,0.1-0.4,0.2-0.5,0.2c0,0-0.1,0-0.1-0.1c0-0.1,0.2-0.5,0.3-0.7
		s0.2-0.5,0.3-0.8l0.2-0.5l-0.5-0.1c-0.1,0-0.1,0-0.2,0c-0.2,0-0.4,0-0.6-0.1c-0.3-0.1-0.6-0.5-0.7-0.7c-0.1-0.1-0.2-0.3-0.3-0.5
		c-0.2-0.4-0.4-0.8-0.8-0.9c-1.3-0.6-2.5-1-3.7-1.3c-2-0.5-4.1-0.9-6.4-1.2c-0.3,0-0.6-0.1-0.9-0.1c-0.4,0-0.8,0-1.2,0.1h-0.6
		c-0.4,0-0.8,0-1.2,0c-3,0-5.9-0.6-8.1-1.1c-0.6-0.1-1.3-0.3-2-0.4c-1-0.2-2.1-0.4-3.1-0.7c-0.8-0.3-1.7-0.7-2.7-1.6
		c-0.6-0.4-1.1-1-1.6-1.5s-1-1-1.6-1.5c-2.4-1.9-3.9-4.3-4.6-7.4c-0.3-1.1-0.6-2.1-0.9-3.2c-0.3-1.1-0.6-2.2-0.9-3.3
		c-0.2-0.6-0.2-1.3-0.1-1.9c0.1-0.6,0.5-1,0.9-1c0.3,0,0.6,0.1,0.9,0.4c0.4,0.4,0.9,0.9,1.2,1.4c0.6,1.2,1.5,1.4,2.2,1.4
		c0,0,0.4,0,0.5,0h0.6c0.5,0,0.5,0.1,0.5,0.4c0,0.1,0,0.2,0,0.2s-0.1,0.1-0.4,0.1h-0.4c-0.2,0-0.3,0-0.5,0.1l-0.2,0.1l-0.4,0.2
		l0.2,0.4c0.4,0.6,0.9,1.2,1.9,1.2c0.2,0,0.5,0,0.8-0.1c0.3-0.1,0.6-0.2,0.9-0.3c0.3-0.1,0.7-0.2,1-0.3c0.1,0,0.3,0.1,0.4,0.2
		c-0.1,0.2-0.1,0.4-0.2,0.4c-0.2,0.2-0.5,0.3-0.9,0.4c-0.2,0.1-0.3,0.1-0.5,0.2l-0.5,0.2l0.3,0.4c0.4,0.5,0.8,0.8,1.3,0.8
		c0.4,0,0.7-0.1,1.1-0.4c0.3-0.2,0.6-0.5,0.9-0.7c0.2-0.2,0.5-0.4,0.7-0.6l0.3-0.3c0.4-0.3,0.8-0.7,1.2-0.9c0,0,0,0,0.1,0
		c0.2,0,0.3,0,0.4,0.1c0,0.2-0.1,0.5-0.2,0.6c-0.7,0.6-1.5,1.2-2.2,1.8l-1.3,1l0.4,0.3c0.5,0.5,1.1,0.7,1.6,0.7
		c0.4,0,0.8-0.1,1.2-0.4c1.2-0.8,2.3-1.7,3.5-2.6l1-0.8c0.1-0.1,0.3-0.2,0.4-0.4c0.1-0.1,0.2-0.3,0.3-0.3c0.2-0.1,0.5-0.1,0.8-0.1
		c0,0.2-0.1,0.5-0.2,0.5c-1.1,1-2.2,1.9-3.4,2.8l-2,1.7l0.5,0.3c0.7,0.4,1.4,0.6,2,0.6c0.6,0,1.2-0.2,1.7-0.6
		c2.1-1.6,4.1-3.2,5.4-5.5c0.1-0.2,0.4-0.7,0.6-0.7c0.1,0,0.1,0,0.2,0.1c0,0.1,0,0.8-0.1,0.9c-1.2,1.5-2.6,3-3.9,4.4l-0.3,0.3
		c-0.2,0.3-0.5,0.5-0.8,0.7c-0.1,0.1-0.3,0.2-0.4,0.3l-0.5,0.4l0.7,0.3c0.6,0.3,1.2,0.4,1.6,0.4c0.8,0,1.5-0.4,2.2-1.2
		c0.4-0.4,0.7-0.8,1.1-1.2c0.7-0.8,1.4-1.5,2-2.4c0.4-0.6,0.8-1.2,1.1-1.8c0.2-0.4,0.5-0.9,0.7-1.3c0.1-0.2,0.3-0.3,0.5-0.4
		c0.1,0.3,0.2,0.5,0.1,0.7c-0.5,1.9-1.8,3.3-3.1,4.8l-0.6,0.7c-0.3,0.3-0.5,0.6-0.8,1l-0.8,1l0.5,0.2c0.5,0.2,0.9,0.2,1.2,0.2
		c0.7,0,1.2-0.3,1.7-0.9c2.1-2.5,3.9-5.5,5.5-9.4c0.1-0.2,0.3-0.3,0.5-0.5c0.1,0.2,0.2,0.5,0.2,0.6c-1.2,2.6-2.6,5.1-3.9,7.6
		l-0.2,0.4c-0.1,0.3-0.3,0.5-0.6,0.8c-0.1,0.1-0.2,0.3-0.3,0.4l-0.2,0.3l0.7,0.8l0.3-0.2c0.1-0.1,0.2-0.1,0.3-0.2
		c0.3-0.2,0.6-0.3,0.8-0.6c2.4-3.2,5-7.1,6.3-11.7c0-0.1,0-0.2,0.1-0.3c0-0.1,0-0.2,0.1-0.2c0.1-0.1,0.3-0.2,0.5-0.4
		c0.1,0.1,0.2,0.3,0.2,0.4l-0.2,0.7c-0.4,1.3-0.8,2.7-1.4,4c-0.9,1.7-1.9,3.4-2.8,5.1c-0.4,0.7-0.8,1.4-1.2,2.1l-0.4,0.6h0.7
		c1.5,0,2.1-0.4,2.7-1.6c2-4.1,4.1-8.3,4.5-13.1c0-0.2,0-0.3,0.1-0.3c0.2-0.2,0.4-0.4,0.5-0.5c0.1,0.2,0.2,0.4,0.2,0.5
		c-0.4,3.6-1.4,7.1-3,10.4c-0.1,0.2-0.1,0.3-0.2,0.5l-0.2,0.5l0.9,0.6l0.2-0.3c0.2-0.3,0.5-0.7,0.7-1c0.6-0.7,1.1-1.5,1.6-2.3
		c1.4-2.5,1.6-5.2,1.7-7.7c0.2-6.8-3.4-11.4-7.4-15.3c-1.5-1.6-3.3-2.1-5.3-2.8l-0.2-0.1c-2.2-0.7-4.8-1.5-7.6-1.6c-0.3,0-0.7,0-1,0
		c-2.2,0-4.6,0.4-7.5,1.2c-1.5,0.4-2.9,0.9-4.3,1.4c-4.9,1.8-9.4,4.9-13.5,9.5c-0.5,0.5-1,1-1.4,1.5c-0.3,0.3-0.6,0.6-1,1
		c-1.8,1.9-3.3,4.1-4.3,6.6l-0.2,0.4c-1.8,4.3-3.6,8.8-5.3,13.3c-1.2,3.4-1.7,7.1-1.3,11.2v0.4h4.4c0.9,0,1.7,0,2.6,0
		c1.3,0,1.5,0.2,1.6,1.4c0.7,6.2,1,10.9,0.8,15.4c0,0.8-0.4,1.2-1.2,1.4c-1.3,0.2-2.7,0.4-4,0.5l-1.3,0.2c-0.3,0-0.6,0.1-1.1,0.1
		l-1.4,0.1l0.3,0.5c0.2,0.5,0.4,0.9,0.6,1.3c0.4,1,0.8,1.9,1.4,2.7l0.8,1.1c1.3,1.9,2.7,3.8,4.5,5.2c3.9,3.1,8.3,6.2,13.6,8.1
		c2.6,0.9,5.1,1.3,7.8,1.3c2.4,0,4.7-0.3,7.3-1c6-1.7,9.8-5.8,11.2-12.4c0.3-1.6,0.5-1.7,2.2-1.7c0.4,0,0.9-0.1,1.3-0.1
		c0.4,0,0.7-0.1,1.1-0.1h0.2c0.8,0,1.1,0.3,1.2,1.2c0.2,4.3-0.9,8.4-3.3,12.7c-3.4,6.1-8.9,9.7-17.3,11.5c-2.1,0.4-4.4,0.7-6.9,0.7
		c-1.2,0-2.4,0.1-3.7,0.1c-2.8,0-6.5-0.1-10.1-1.1l-1.6-0.4c-3.5-0.9-6.8-1.8-9.7-3.9c-0.2-0.1-0.4-0.2-0.5-0.3
		c-0.1,0-0.2-0.1-0.3-0.1l-0.9-0.6c-0.9-0.6-1.8-1.3-2.7-2.1c-0.7-0.6-1.3-1.3-2-1.9c-0.7-0.7-1.3-1.4-2-2
		c-3.6-3.2-5.8-7.3-6.8-12.6c-0.1-0.7-0.3-1.4-0.4-2l-0.3-1.4c-0.2-1.2-0.5-2.3-1.9-2.3c-0.4,0-1,0.1-1.8,0.3l-0.3,0.1v0.4
		c0.1,0.6,0.2,1.3,0.3,1.9c0.2,1.5,0.4,3,0.7,4.5c0.6,2.8,1.3,5.8,2.3,8.5s2.2,5.3,3.3,7.9c0.5,1.2,1.1,2.4,1.6,3.6
		c0.2,0.5,0.4,0.9,0.5,1.4c0.3,0.8,0.7,1.7,1.1,2.5c0.8,1.5,1.7,3,2.6,4.5c0.5,0.9,1.1,1.8,1.6,2.7c0.3,0.6,0.6,1.2,0.9,1.8
		c0.6,1.1,1.1,2.2,1.9,3.2c1.4,2,3,3.9,4.6,5.7l1.2,1.4c0.9,1.1,1.9,2.3,3,3.3c2.7,2.6,5.7,5,9.8,5.1h0.4c1.1,0,2.3-0.1,3.4-0.2
		c0.8-0.1,1.7-0.1,2.5-0.2c0.3,0,0.6,0.1,0.7,0.2c0,0.1,0,0.4-0.1,0.5c-2.1,3.2-4.6,5.3-7.7,6.6c-2.8,1.2-5.2,2-7.8,2.4
		c-0.4,0-0.7,0.1-1.1,0.1c-1.3,0-2.5-0.3-3.9-0.6c-0.4-0.1-0.8-0.2-1.2-0.3c-1.1-0.2-2-0.4-2.9-0.8c-1.1-0.5-2.3-1-3.4-1.8
		c-1.7-1.3-3.3-2.7-4.8-4.1l-0.3-0.2c-0.4-0.4-0.8-0.8-1.2-1.3c-0.2-0.2-0.4-0.5-0.6-0.7l-0.4-0.4l-0.3,0.4
		c-0.1,0.2-0.3,0.4-0.4,0.6c-0.3,0.5-0.6,1-0.9,1.3l-0.8,0.8c-1.9,2-3.8,4-5.8,5.9c-2,1.9-4,4-4.7,7.1c-0.1,0.7-0.2,1.4-0.2,2.1
		c0,0.2,0,0.5,0,0.7c0,0.9-0.3,1.1-0.8,1.2h-0.1c-0.3,0-0.7-0.1-0.9-1c-0.1-0.7-0.3-1.3-0.4-2c-0.2-1-0.4-1.9-0.6-2.9
		c-0.6-2.4-2.4-3.9-3.9-5c-2.2-1.5-4.1-3-5.4-5.1c-0.5-0.9-0.9-1.9-1.4-2.9c-0.2-0.5-0.4-1-0.6-1.4l-0.3-0.6l-1.2,1.3
		c-0.6,0.7-1.3,1.4-2,2.1c-4.8,5.3-10.6,8-17.3,8c-1.3,0-2.6-0.1-3.9-0.3c-3.7-0.5-6.7-2.6-8.8-4.4l-0.3-0.3
		c-1.3-1.1-2.6-2.1-3.2-3.7c-0.4-0.9-0.4-1.5-0.2-1.9c0.2-0.3,0.7-0.5,1.5-0.5h0.3h0.8c0.8,0,1.6,0.1,2.4,0.1c0.7,0,1.3,0,1.9-0.1
		c3.4-0.4,6.9-0.9,9.6-3.6c0.6-0.6,1.4-1,2.2-1.5c0.4-0.2,0.8-0.4,1.1-0.7c2-1.3,3.5-2.8,4.4-4.7c0.5-1,1-1.8,1.6-2.3
		c2.7-2.7,4.5-6,5.8-8.8c0.6-1.3,1.3-2.6,1.9-3.8c1-1.9,2-3.8,2.8-5.8c1.6-4.2,2.9-8.4,4.1-12.4c0.7-2.2,1.2-4.6,1.7-6.8
		c0.2-0.9,0.4-1.9,0.6-2.8c0.1-0.5,0.2-1.1,0.4-1.7l0.3-1.4h-2.5c-0.6,0-1.1,0-1.6,0s-0.9,0.6-1.1,0.9c-0.2,0.4-0.3,0.8-0.5,1.3
		c-0.2,0.7-0.4,1.4-0.8,1.9c-0.8,1.1-1.5,2.3-2.2,3.5c-1.5,2.4-3,5-5.3,6.9c-1,0.9-2,1.9-2.9,2.8c-0.9,0.9-1.8,1.8-2.7,2.6
		c-1.1,1-2.5,1.9-3.7,2.7l-0.5,0.4c-0.4,0.2-0.8,0.4-1.2,0.6c-0.6,0.3-1.1,0.6-1.6,1c-1.8,1.5-4,1.8-5.9,1.9l-1.8,0.1
		c-2.6,0.2-5.2,0.3-7.8,0.3c-0.8,0-1.6,0-2.4-0.1c-2.4-0.1-4.8-0.7-7.2-1.3l-1.2-0.3c-3.2-0.8-6.6-1.8-9.4-3.9
		c-4.1-3-7.9-6.7-8.3-12.4c-0.2-2.7-0.2-5.5-0.1-8.7c0.1-1,0.5-1.5,1.4-1.5c0.3,0,0.7,0.1,1.1,0.2c0.8,0.2,1.5,0.3,2.3,0.4l0.6,0.1
		c1.6,0.2,2.2,0.8,2.2,2.5c0,3,0.3,6.6,2.3,9.6c0.8,1.1,1.6,1.9,2.4,2.4c2.9,1.6,6.8,3.5,11.3,3.5c0.8,0,1.5-0.1,2.3-0.2
		c0.9-0.1,1.7-0.2,2.6-0.2c1.3-0.1,2.6-0.1,3.8-0.4c3.9-0.9,7.3-2.6,10.1-5c0.4-0.3,0.6-0.7,0.9-1c0.1-0.2,0.3-0.4,0.4-0.5
		c0.3-0.3,0.5-0.6,0.8-0.9c0.6-0.7,1.2-1.4,1.9-2.1c2.4-2.1,3.9-4.8,5-8.5l0.1-0.5h-4.6c-0.9,0-2.8,0-2.8,0c-0.8,0-1.3,0-1.5-0.2
		c-0.2-0.2-0.2-0.9-0.2-1.7c0-1.5,0-3,0-4.4c0-1.3,0-2.6,0-3.9c0-2.1,0.1-4.1,0.2-6.2c0-0.9,0.3-1.2,1.5-1.3l7.7-0.3
		c0.2,0,0.3,0,0.5-0.1l0.7-0.1v-0.4c-0.1-0.8-0.2-1.7-0.2-2.5c-0.1-1.8-0.3-3.7-0.7-5.6c-0.9-3.9-1.9-8.1-3.5-12
		c-1-2.5-2.4-4.9-3.8-7.2c-0.4-0.7-0.8-1.4-1.2-2l-0.6-1c-1.1-1.9-2.2-3.8-3.5-5.4c-3-3.6-7.1-7.9-13.2-10.3c-2.6-1-5.4-1.5-8.7-1.5
		c-1.5,0-3.2,0.1-5.3,0.3c-3,0.3-5.8,1.2-8.6,2.8c-6,3.3-9.6,8-10.7,14.1c-0.5,2.8-0.5,5.4,0.2,8c0.4,1.5,1,3,2.8,3.6
		c0.2,0.1,0.3,0.2,0.6,0.4c0.1,0.1,0.3,0.2,0.5,0.4l1.3,0.9l-1.2-2.5c-1.5-3-2-6.3-1.6-10.1V248c0.1-0.1,0.3-0.3,0.5-0.5
		c0.1,0.2,0.2,0.4,0.2,0.5c0,0.5,0,1.1-0.1,1.6c0,0.4-0.1,0.9-0.1,1.3c-0.1,3.6,1.2,6.9,3.6,9.9c0.1,0.2,0.3,0.4,0.4,0.6
		c0.2,0.3,0.3,0.5,0.5,0.7s0.4,0.3,0.6,0.3c0.1,0,0.2,0.1,0.3,0.1l0.8,0.3l-0.3-0.8c-0.2-0.7-0.5-1.4-0.7-2
		c-0.6-1.5-1.1-2.9-1.5-4.4c-0.4-1.7-0.6-3.5-0.8-5.3v-0.5c0,0,0.2-0.2,0.4-0.3c0.1,0.2,0.2,0.4,0.2,0.5c-0.1,3.8,1.4,7.2,2.9,10.5
		c0.2,0.5,0.4,1,0.7,1.5c0.2,0.6,0.9,0.8,1.5,1.1c0.2,0.1,0.5,0.2,0.7,0.3l0.3,0.2l0.5-0.8l-0.1-0.3c0,0-1.9-3.6-2.5-4.7
		c-1-1.9-1.4-3.9-1.2-5.8c0-0.1,0-0.2,0-0.3c0-0.2,0-0.4,0.1-0.5c0.2,0.1,0.5,0.5,0.5,0.8c-0.1,4.5,2.3,7.9,4.5,10.9
		c0.1,0.1,0.2,0.2,0.3,0.2l0.6,0.3l0.1-0.6v-0.2c0-0.2,0-0.4-0.1-0.5l-2.5-6.4c-0.1-0.3-0.2-0.5-0.1-0.5c0.1-0.2,0.2-0.4,0.3-0.6
		c0.1,0.1,0.3,0.3,0.3,0.4c0.4,1.1,0.9,2.2,1.3,3.3c0.5,1.3,1,2.5,1.5,3.8c0.1,0.4,0.5,0.6,0.7,0.8c0.1,0.1,0.2,0.2,0.3,0.3l0.3,0.3
		l0.7-0.7l-0.5-1.2c-0.4-1.1-0.8-2.1-1.3-3.2c-0.1-0.3-0.2-0.6-0.2-0.7c0-0.1,0.1-0.3,0.2-0.5c0.1,0.1,0.4,0.2,0.4,0.2
		c0.8,1.6,1.3,3,1.8,4.2c0.4,1,1,1.5,2,1.5c0.3,0,0.7-0.1,1.1-0.2l0.9-0.2l-0.8-0.5c-1.3-0.8-2-1.9-2.1-3.3c0-0.2,0.1-0.4,0.2-0.6
		c0.1,0.1,0.4,0.3,0.4,0.3c0.2,1.6,1.2,2.4,2.2,3.3c0.2,0.2,0.5,0.4,0.7,0.6c0.3,0.2,0.6,0.3,1,0.3c0.2,0,0.3,0,0.5,0.1l1.2,0.2
		l-1.5-1.7c-0.5-0.5-0.9-1-1.3-1.5c-0.2-0.2-0.3-0.6-0.3-1c0-0.1,0.1-0.3,0.2-0.3c0,0,0.2,0.1,0.3,0.1c0.7,1.8,2.3,2.5,3.8,3
		c0.2,0.1,0.5,0.2,0.7,0.3c0.2,0.1,0.4,0.1,0.7,0.1c0.2,0,0.4,0,0.5,0c0.2,0,0.3,0,0.5,0h0.3l0.2-1c0,0-0.6-0.3-0.7-0.4
		c-0.3-0.2-0.6-0.3-0.9-0.5c-0.5-0.4-0.9-0.8-1.2-1.2c0,0,0-0.2,0.1-0.3h0.1c0.2,0,0.4,0,0.5,0.1c0.4,0.2,0.8,0.5,1.2,0.8
		c0.6,0.4,1.2,0.8,1.8,1.1c0.2,0.1,0.4,0.1,0.6,0.1c0.2,0,0.5,0,0.7-0.1c0.2,0,0.3-0.1,0.5-0.1h0.4l-0.1-0.9l-0.2-0.1
		c-0.2-0.1-0.4-0.2-0.6-0.3c-0.5-0.2-1-0.5-1.3-0.8c-0.1-0.1-0.1-0.3-0.2-0.5c0.1,0,0.2,0,0.3,0c1.5,0.7,2.4,1,3.1,1
		c1.1,0,1.6-0.7,2.7-2l0.3-0.4c0.5-0.6,0.8-1.3,1.1-2c0.2-0.4,0.4-0.9,0.6-1.3c0.2-0.4,0.6-0.7,0.8-0.7s0.6,0.3,0.8,0.7
		c0.1,0.2,0.1,0.5,0.1,0.8v0.4c0.1,4.2-1.1,8.2-3.7,12.4s-5.4,6.6-9.2,7.7c-2.1,0.6-4.4,0.9-7,0.9c-0.9,0-1.9,0-2.8-0.1
		c-0.6,0-1.2-0.1-1.8-0.1c-3.1,0-6.1,0.5-9,1.4c-1.2,0.4-2.5,0.7-4,1c-2.4,0.4-4.2,1.9-5.9,3.3l-0.3,0.3l0.3,0.3
		c0.1,0.1,0.1,0.1,0.2,0.2l0.1,0.1c0.1,0.2,0.1,0.4,0.2,0.6c-0.2,0.1-0.4,0.1-0.6,0.1c-0.1,0-0.3,0-0.4,0h-1l-0.1,1l0.2,0.1
		c0.2,0.1,0.3,0.2,0.5,0.3c0.4,0.2,0.7,0.4,0.9,0.6c0.1,0.1,0.1,0.3,0.2,0.5c-0.2,0.1-0.3,0.1-0.4,0.1c-0.3-0.1-0.6-0.3-1-0.5
		l-0.2-0.1c-0.3-0.2-0.6-0.3-0.8-0.3c-0.8,0-1.1,0.8-1.2,1.1l-0.1,0.4l1.2,0.6c0.6,0.3,1.3,0.6,1.9,1l0.3,0.1
		c0.2,0.1,0.5,0.2,0.6,0.4c0.1,0.1,0.1,0.3,0.1,0.6c-0.1,0-0.3,0.1-0.4,0.1c-1.1-0.5-2-1-3.1-1.6l-2.2-1.2l0.3,0.9
		c0.1,0.2,0.1,0.4,0.1,0.6c0.1,0.4,0.1,0.7,0.4,0.9c2.2,1.4,4.5,2.7,6.7,4l0.2,0.1c0.2,0.1,0.5,0.3,0.5,0.4
		c-0.1,0.2-0.4,0.3-0.7,0.3c-0.1,0-0.2,0-0.3,0c-1.4-0.7-2.8-1.6-4.1-2.4l-0.7-0.4c-0.3-0.2-0.7-0.4-1-0.6c-0.4-0.3-0.9-0.6-1.3-0.8
		l-0.1-0.1H169c-0.2,0-0.4,0.1-0.5,0.1c-0.1,0-0.1,0.1-0.2,0.1l-0.5,0.1l0.2,0.5c0,0.1,0,0.1,0.1,0.2c0.1,0.2,0.1,0.5,0.3,0.7
		c0.4,0.3,0.8,0.6,1.3,0.8c3,1.6,6.1,3.3,9.1,4.9l0.2,0.1c0.6,0.3,0.6,0.4,0.5,0.6c-0.1,0.3-0.2,0.3-0.3,0.3c-0.2,0-0.4-0.1-0.7-0.2
		l-0.6-0.3c-0.9-0.4-1.9-0.9-2.7-1.4c-2-1.1-4-2.2-6-3.4c-2.4-1.4-4.9-2.8-7.4-4.2c-2-1.1-3.4-2.7-4.9-4.5c-0.6-0.7-1.3-1.4-2-2.1
		c-0.8-0.8-1.5-1.6-2.2-2.4c-0.4-0.5-0.9-1.1-1.3-1.7c-0.4-0.5-0.8-1.1-1.1-1.7c-0.4-0.7-0.8-1.3-1.2-2c-2.5-5.2-4.4-11.1-5.6-17.4
		c-0.6-3.1-0.5-6.2,0.3-9.4c0.2-0.8,0.4-1.5,0.7-2.3c0.1-0.4,0.2-0.8,0.4-1.2c0.3-1,0.7-2,1-3c0.3-1,0.6-1.9,1-2.9l0.2-0.5l-1.6-0.2
		c-0.9-0.1-1.9-0.2-2.9-0.3c-2.8-0.3-5.5-1.3-8.2-3c-1.4-0.9-2.6-2.2-3.8-3.4l-0.7-0.8c-2.5-2.6-4.4-5.5-5.4-8.7
		c-0.2-0.5-0.1-1.2,0-1.4c0.1-0.1,0.5-0.2,1-0.2c0.2,0,0.3,0,0.5,0c2.7,0.5,5.1,0.7,7.3,0.7c3.6,0,6.7-0.6,9.8-1.8
		c3.5-1.4,6.5-3,9.2-4.8c3.7-2.5,7.8-5,11-7.1l0.9-0.6c1.8-1.1,3.6-2.3,5.5-3.1c2-0.9,4.2-1.6,6.3-2.2c0.7-0.2,1.3-0.4,2-0.6
		c0.6-0.2,1.3-0.3,1.9-0.4h0.2c1-0.1,1.9-0.3,2.9-0.4c1.9-0.3,3.8-0.6,5.7-0.6c0.5,0,1,0,1.4,0.1c0.8,0.1,1.6,0.1,2.5,0.1
		c0.7,0,1.4,0,2.1,0s1.4,0,2.1,0c0.5,0,1.1,0,1.6,0c1,0.1,2,0.3,3.1,0.6c0.4,0.1,0.8,0.2,1.1,0.3l0.7,0.2c1.2,0.3,2.4,0.6,3.5,0.9
		c1.2,0.4,2.4,0.9,3.6,1.3c0.6,0.2,2,0.8,2,0.8c0.7,0.3,1.5,0.6,2.3,0.8c2.4,0.8,4,1.9,5.1,3.6c0.3,0.5,0.8,0.8,1.3,1.2l0.2,0.2
		c0.8,0.6,1.6,1.2,2.5,1.8c1.7,1.2,3.4,2.4,5,3.7c1.7,1.4,3.3,3.1,5.3,5.5c0.8,1,1.5,2.1,2.1,3.2c0.2,0.4,0.4,0.7,0.6,1.1
		c0.5,0.8,1,1.7,1.5,2.5c0.8,1.3,1.6,2.7,2.4,4c2.3,3.6,4.1,7.5,5.2,11.8c0.4,1.4,0.8,2.8,1.3,4.1c0.7,2,1.3,4.1,1.8,6.2
		c0.8,3.6,1.3,7.2,1.9,10.8l0.4,2.5c0.5,3.6,0.9,6.5,1.2,9.2c0.1,1.2,0.1,2.4,0.1,3.6c0,0.6,0,1.2,0,1.8v0.5l5-0.7l-0.4-3.4
		c-0.2-2.1-0.5-4.2-0.6-6.3c-0.6-6.1-1.8-12.3-2.9-18.2c-0.5-2.8-1.1-5.5-1.6-8.3c-1-5.9-3-11.4-6-16.9c-0.6-1.1-1-2.4-1.5-3.6
		c-0.2-0.6-0.4-1.2-0.6-1.8c-1.3-3.5-3.1-6.7-5.4-9.9c-1.1-1.6-2-3.4-2.8-5.1l-0.3-0.6c-1.7-3.5-3.2-6.7-4.5-9.9
		c-1.3-2.9-2.5-6.4-1.9-10.2c0.1-0.6-0.2-1.5-0.7-1.9c-1.1-0.9-2.2-1.8-3.3-2.6l-0.3-0.2c-0.7-0.5-1.3-0.9-2-1.4
		c-0.4-0.3-0.9-0.6-1.3-0.9c-1.8-1.3-2.9-3.1-3.9-5l-1-1.7c-1.2-2-2.3-4-3.4-6c-1.4-2.7-2.2-5.7-2.4-9c-0.3-5.6,0.6-11,2-17.3
		c0.9-4,1-7.4,0.4-10.7c-0.5-2.5-1.1-5-3.1-7.1c-0.2-0.2-0.3-1-0.1-1.4c0.1-0.1,0.6-0.5,0.8-0.5l1.2,0.1c1.9,0.2,3.8,0.5,5.5,1.1
		c2.6,0.8,5.3,2,8.6,3.6c0.9,0.4,1.7,1.1,2.4,1.7c0.3,0.3,0.6,0.5,0.9,0.7l0.5,0.4l0.1-0.6c0.2-1,0.4-2.1,0.6-3.2
		c0.5-2.5,1-5.1,1.8-7.7c1.1-3.5,2.5-6.9,4-10.4c1.3-3,3.8-5.3,6.1-7.1c0.8-0.7,1.7-1.3,2.5-2c1.6-1.2,3.3-2.5,4.7-4
		c2.6-2.7,4.9-5.6,7.2-8.7c1.5-2,2.4-3.7,2.9-5.3c0.5-1.6,0.5-3.3,0.6-4.9c0-0.5,0-0.9,0.1-1.4v-0.2c0-0.9,0.1-1.1,0.7-1.1
		c0.3,0,0.6,0.2,0.8,0.5c0.3,0.3,0.4,0.6,0.3,0.9c-0.5,2.9-0.3,5.4,0.6,7.8c0.4,1,0.9,2,1.4,2.9c1.7,3.2,4.1,5.7,6.2,7.8
		c1.1,1.1,2.4,2,3.6,2.8c0.5,0.4,1.1,0.7,1.6,1.1c0.4,0.3,0.7,0.5,1.1,0.8c0.7,0.5,1.5,1,2.2,1.6c2.8,2.6,5.4,4.9,7.8,7.4
		c1.1,1.1,1.9,2.5,2.5,3.8c1.1,2.1,2,4.1,2.8,6.1c1.7,4.4,2.5,8.2,2.6,11.9v1.5l1,0.5l0.2-0.4c1.4-3.4,4.4-4.9,7.5-6.5
		c0.6-0.3,1.3-0.6,1.9-1c0.7-0.4,1.7-0.6,2.9-0.7c0.5,0,1-0.1,1.5-0.1c0.7-0.1,1.4-0.1,2.1-0.1c1.1,0,1.9,0.2,2.7,0.5
		c0.5,0.2,1.2,0.6,1.3,1.1c0.1,0.4,0,0.8-0.4,1.3c-2.3,3.1-2.8,6.6-2.9,9.9c-0.1,4.2,0.4,8,1.5,11.6c0.2,0.5,0.3,1,0.3,1.5
		c0,0.9,0,1.8,0.1,2.8c0.1,3.9,0.2,8-0.9,11.9c-0.4,1.4-1.1,2.8-1.7,4.1c-0.3,0.7-0.7,1.4-1,2.1c-1.6,3.6-3.3,7.4-6,10.4
		c-1.4,1.6-3.1,3-4.7,4.3l-0.7,0.6c-0.8,0.7-1.7,1.3-2.5,1.9c-0.5,0.4-1.1,0.8-1.6,1.2c-0.3,0.2-0.5,0.7-0.5,1
		c0.3,3.6-0.5,7.2-2.5,11.3c-1.1,2.3-2.2,4.8-3.2,7.1c-0.8,1.9-1.6,3.7-2.5,5.6c-0.5,1.1-1.1,2.2-1.7,3.3c-0.6,1.1-1.3,2.2-1.8,3.4
		c-1.4,3.1-2.8,6.3-4.1,9.4l-1.4,3.2c-1.6,3.8-3.3,7.8-4.8,11.7c-1.5,3.7-2.2,7.7-2.9,11.5c-0.2,0.9-0.3,1.8-0.5,2.8
		c-1.4,7.6-1.5,15.2-1.4,22.2c0,0.3,0,1.7,0,1.7l4.6-0.6c0,0-0.1-1.5-0.1-2c-0.1-1.2-0.1-2.3-0.2-3.5v-1.7c0-2.3-0.1-4.6,0.1-6.9
		c0.3-3.4,0.8-6.7,1.4-9.7c0.8-3.8,1.8-7.7,3.3-12.9c0.4-1.5,1.1-2.9,1.8-4.2l0.3-0.7c0.4-0.7,0.8-1.5,1.2-2.2
		c0.6-1.1,1.3-2.2,1.8-3.4c1.8-4.4,4.6-8.1,7.4-11.8l1.4-1.8c2.1-2.8,4.6-4.9,7.3-7.2l1.1-1c5-4.3,10.8-7.2,17.9-10.1
		c4.2-1.8,7.8-2.7,11.1-2.9c3.1-0.2,6.8-0.4,10.4-0.4c1,0,2.1,0,3.1,0.1c3.1,0.1,5.9,0.8,8.3,2c1.1,0.6,2.3,1,3.5,1.5
		c0.4,0.2,0.8,0.3,1.3,0.5c5,1.9,8.9,4.4,12,7.6c0.8,0.8,1.9,1.5,2.9,2c0.4,0.2,0.8,0.5,1.2,0.7l0.7,0.4c2.3,1.5,4.6,2.9,7,4.3
		c2.5,1.5,5.2,2.4,8,2.7c1.8,0.2,3.5,0.3,5.3,0.4l2,0.2c0.1,0,0.2,0,0.3,0c1.4,0,2.4-0.7,3.3-1.3c0.2-0.2,0.7-0.3,0.9-0.3
		C398.9,216.4,399.2,216.9,399.1,217.3z"/>
</g>
</svg>
