<?xml version="1.0" encoding="utf-8"?>
<!-- Generator: Adobe Illustrator 24.0.3, SVG Export Plug-In . SVG Version: 6.00 Build 0)  -->
<svg version="1.1" id="Layer_1" xmlns="http://www.w3.org/2000/svg" xmlns:xlink="http://www.w3.org/1999/xlink" x="0px" y="0px"
	 viewBox="0 0 540 109.4" style="enable-background:new 0 0 540 109.4;" xml:space="preserve">
<defs>
	<path id="SVGID_1_" d="M241.8,25.2v0.2c6.6,2.2,7.1,6.5,4.5,13.3l-9.4,25L227,38.3c-2.4-6.3-2.7-10.4,4.4-12.8v-0.2h-29.2v0.2
		c2.4,1.8,5.4,8.5,7.9,14.6l18.6,44.6c-2.8,6.8-7.2,9-13,9c-4.9,0-9-2.3-11.7-5.4h-0.2l1.2,20.8c0.5,0.1,2,0.2,3.2,0.2
		c11.6,0,15.5-7.9,22.2-25.1l17.5-45c2.8-7.3,4.6-11.8,7.1-13.9v-0.2H241.8z M88.2,25.2v0.2c5,2.9,5.4,8.2,5.4,14.6v38
		c-3.5,2.3-6.3,2.8-8.7,2.8c-4,0-5.6-3.2-5.6-7.1V25.2H55.6v0.2c6.2,3.3,6.5,8.2,6.5,14.6v36.7c0,5.4,2.7,10.1,11,10.1
		c7.6,0,15.7-4,20.6-6.9v6.2h23.8v-0.2c-6.1-3.3-6.5-8.2-6.5-14.6V25.2H88.2z M402.2,31.7c-1-4-4-7.2-10.7-7.2
		c-7.8,0-15.8,4.1-20.7,7.1v-6.3H347v0.2c6.2,3.3,6.5,8.2,6.5,14.6v31.2c0,6.4-0.2,11.3-6.4,14.6c-6.2-3.3-6.4-8.2-6.4-14.6V25.2
		h-23.8v0.2c6.2,3.3,6.5,8.2,6.5,14.6v31.2c0,6.5-0.2,11.3-6.5,14.6v0.2H347v0h29.1v-0.2c-5-2.9-5.4-8.2-5.4-14.6v-38
		c3.8-2.6,6.7-2.8,8.9-2.8c4,0,5.5,3.8,5.5,7.7v33.1c0,6.5-0.6,11.7-5.5,14.6v0.2h28.1v-0.2c-5.1-3-5.4-8.2-5.4-14.6V34.6v-1.3
		c3.8-2.6,6.7-2.8,8.9-2.8c4,0,5.4,3.8,5.4,7.7v33.1c0,6.5-0.5,11.7-5.4,14.6v0.2h29.1v-0.2c-6.2-3.3-6.5-8.2-6.5-14.6V34.6
		c0-5.4-2.7-10.1-11-10.1C415.2,24.5,406.9,28.8,402.2,31.7 M115.5,43.1c0,8.6,3.8,14.3,18.3,19.2c11,3.8,19.5,6.6,19.5,13.2
		c0,7.8-6,10.4-11.4,10.4c-14.1,0-19.6-15.4-23.8-24.6h-0.1l1.5,24.6c6,1.2,12.7,1.5,21.2,1.5c10.5,0,22.4-5,22.4-19.4
		c0-11.8-8-16.9-20.3-21.1c-10-3.4-17.3-5.8-17.3-11.7c0-5.6,5.1-9.6,11.2-9.6c9.9,0,16,8.2,23.1,21.9h0.2l-1-20
		c-6.9-1.8-14.3-3.5-20.7-3.5C127.1,24.1,115.5,29.7,115.5,43.1 M492.5,43.1c0,8.6,3.8,14.3,18.3,19.2c11,3.8,19.5,6.6,19.5,13.2
		c0,7.8-6,10.4-11.5,10.4c-14.1,0-19.6-15.4-23.8-24.6h-0.1l1.5,24.6c6,1.2,12.7,1.5,21.2,1.5c10.5,0,22.4-5,22.4-19.4
		c0-11.8-8-16.9-20.3-21.1c-10-3.4-17.3-5.8-17.3-11.7c0-5.6,5.1-9.6,11.2-9.6c9.9,0,16,8.2,23.1,21.9h0.2l-1-20
		c-6.9-1.8-14.3-3.5-20.7-3.5C504.1,24.1,492.5,29.7,492.5,43.1 M462.3,25.6c5.6,0,9.9,9.4,10.4,23.3h-20.3
		C452.3,32.2,458.3,25.6,462.3,25.6 M436.9,55.8c0,21.6,14,31.4,26.6,31.4c12.9,0,21.2-11.5,24.2-21.3l-0.2-0.1
		c-5,4.9-11.1,7.8-16.2,7.8c-8.3,0-18.3-6.1-18.9-23h36.3c-1-16.7-11.3-26.4-23.8-26.4C452,24.1,436.9,34.6,436.9,55.8 M187.4,4.8
		c-5.7,11.3-15.8,20.3-24,20.7v1.5h6.9v36.8c0,14.9-0.2,24,31.6,22.4v-0.2c-13.4-5.6-14.3-10.6-14.3-20.1V26.9h10.7v-1.7h-10.7V4.8
		H187.4z M301.1,4.8c-5.7,11.3-15.8,20.3-24,20.7v1.5h6.9v36.8c0,14.9-0.2,24,31.6,22.4v-0.2c-13.4-5.6-14.3-10.6-14.3-20.1V26.9
		h10.7v-1.7h-10.7V4.8H301.1z M17.8,48.6c0-18.8,6.1-21.7,13.6-21.7h3.4v57.5h-0.2C25.5,84.4,17.8,68.7,17.8,48.6 M28.4,0.9v0.2
		c6.2,3.3,6.5,8.2,6.5,14.6v9.5H32c-14.9,0-32,9.4-32,32.3c0,19.9,12.8,28.6,30.3,28.6h28.3v-0.2c-6.2-3.3-6.5-8.2-6.5-14.6V0.9
		H28.4z M321.8,9.3c0,5.2,4.4,9.4,9.7,9.4c5.4,0,9.7-4.1,9.7-9.4c0-5.1-4.4-9.3-9.7-9.3C326.1,0,321.8,4.1,321.8,9.3"/>
</defs>
<use xlink:href="#SVGID_1_"  style="overflow:visible;fill:#FFFFFF;"/>
<clipPath id="SVGID_2_">
	<use xlink:href="#SVGID_1_"  style="overflow:visible;"/>
</clipPath>
</svg>
